<svg width="128" height="128" viewBox="0 0 128 128" fill="none" xmlns="http://www.w3.org/2000/svg">
<rect width="128" height="128" rx="24" fill="url(#paint0_linear_4_13)"/>
<rect x="4" y="4" width="120" height="120" rx="20" stroke="black" stroke-opacity="0.25" stroke-width="8"/>
<g filter="url(#filter0_f_4_13)">
<path d="M32 69.9459V66.1622C32 64.036 32.6397 62.3423 33.919 61.0811C35.1984 59.7838 36.8686 59.1351 38.9298 59.1351C40.2447 59.1351 41.3641 59.3694 42.2881 59.8378C43.2121 60.3063 43.9939 60.9009 44.6336 61.6216C45.3088 62.3063 45.9129 63.009 46.446 63.7297C46.9791 64.4144 47.5299 64.991 48.0985 65.4595C48.6671 65.9279 49.3068 66.1622 50.0175 66.1622C50.8349 66.1622 51.4568 65.9099 51.8832 65.4054C52.3097 64.9009 52.5229 64.1622 52.5229 63.1892V59.4054H57.0539V63.1892C57.0539 65.2793 56.4143 66.973 55.1349 68.2703C53.8911 69.5676 52.2208 70.2162 50.1241 70.2162C48.8092 70.2162 47.6898 69.982 46.7658 69.5135C45.8419 69.045 45.0423 68.4685 44.3671 67.7838C43.7274 67.0631 43.141 66.3604 42.6079 65.6757C42.0749 64.955 41.5241 64.3604 40.9555 63.8919C40.3869 63.4234 39.7472 63.1892 39.0364 63.1892C38.2546 63.1892 37.6327 63.4414 37.1707 63.9459C36.7443 64.4505 36.531 65.1892 36.531 66.1622V69.9459H32Z" fill="#57E389" fill-opacity="0.5"/>
<path d="M65.5088 83.7297L92.0553 44.2703H96L69.4535 83.7297H65.5088ZM88.4838 84C86.245 84 84.4503 83.3514 83.0999 82.0541C81.7495 80.7568 81.0742 78.973 81.0742 76.7027V73.1892C81.0742 70.9189 81.7495 69.1351 83.0999 67.8378C84.4503 66.5405 86.245 65.8919 88.4838 65.8919C90.7227 65.8919 92.5173 66.5405 93.8678 67.8378C95.2182 69.1351 95.8934 70.9189 95.8934 73.1892V76.7027C95.8934 78.973 95.2182 80.7568 93.8678 82.0541C92.5173 83.3514 90.7227 84 88.4838 84ZM88.4838 80.2703C90.7938 80.2703 91.9487 79.0811 91.9487 76.7027V73.1892C91.9487 70.7748 90.7938 69.5676 88.4838 69.5676C86.1739 69.5676 85.0189 70.7748 85.0189 73.1892V76.7027C85.0189 79.0811 86.1739 80.2703 88.4838 80.2703ZM73.025 62.1081C70.7861 62.1081 68.9915 61.4595 67.6411 60.1622C66.2906 58.8649 65.6154 57.0811 65.6154 54.8108V51.2973C65.6154 49.027 66.2906 47.2432 67.6411 45.9459C68.9915 44.6486 70.7861 44 73.025 44C75.2639 44 77.0585 44.6486 78.4089 45.9459C79.7594 47.2432 80.4346 49.027 80.4346 51.2973V54.8108C80.4346 57.0811 79.7594 58.8649 78.4089 60.1622C77.0585 61.4595 75.2639 62.1081 73.025 62.1081ZM73.025 58.4324C75.3349 58.4324 76.4899 57.2252 76.4899 54.8108V51.2973C76.4899 48.8829 75.3349 47.6757 73.025 47.6757C71.8878 47.6757 71.0171 47.982 70.413 48.5946C69.8444 49.1712 69.5601 50.0721 69.5601 51.2973V54.8108C69.5601 56.036 69.8444 56.955 70.413 57.5676C71.0171 58.1441 71.8878 58.4324 73.025 58.4324Z" fill="#57E389" fill-opacity="0.5"/>
</g>
<path d="M32 69.9459V66.1622C32 64.036 32.6397 62.3423 33.919 61.0811C35.1984 59.7838 36.8686 59.1351 38.9298 59.1351C40.2447 59.1351 41.3641 59.3694 42.2881 59.8378C43.2121 60.3063 43.9939 60.9009 44.6336 61.6216C45.3088 62.3063 45.9129 63.009 46.446 63.7297C46.9791 64.4144 47.5299 64.991 48.0985 65.4595C48.6671 65.9279 49.3068 66.1622 50.0175 66.1622C50.8349 66.1622 51.4568 65.9099 51.8832 65.4054C52.3097 64.9009 52.5229 64.1622 52.5229 63.1892V59.4054H57.0539V63.1892C57.0539 65.2793 56.4143 66.973 55.1349 68.2703C53.8911 69.5676 52.2208 70.2162 50.1241 70.2162C48.8092 70.2162 47.6898 69.982 46.7658 69.5135C45.8419 69.045 45.0423 68.4685 44.3671 67.7838C43.7274 67.0631 43.141 66.3604 42.6079 65.6757C42.0749 64.955 41.5241 64.3604 40.9555 63.8919C40.3869 63.4234 39.7472 63.1892 39.0364 63.1892C38.2546 63.1892 37.6327 63.4414 37.1707 63.9459C36.7443 64.4504 36.531 65.1892 36.531 66.1622V69.9459H32Z" fill="#57E389"/>
<path d="M65.5088 83.7297L92.0553 44.2703H96L69.4535 83.7297H65.5088ZM88.4838 84C86.245 84 84.4503 83.3513 83.0999 82.0541C81.7495 80.7568 81.0742 78.973 81.0742 76.7027V73.1892C81.0742 70.9189 81.7495 69.1351 83.0999 67.8378C84.4503 66.5405 86.245 65.8919 88.4838 65.8919C90.7227 65.8919 92.5173 66.5405 93.8678 67.8378C95.2182 69.1351 95.8934 70.9189 95.8934 73.1892V76.7027C95.8934 78.973 95.2182 80.7568 93.8678 82.0541C92.5173 83.3513 90.7227 84 88.4838 84ZM88.4838 80.2703C90.7938 80.2703 91.9487 79.0811 91.9487 76.7027V73.1892C91.9487 70.7748 90.7938 69.5676 88.4838 69.5676C86.1739 69.5676 85.0189 70.7748 85.0189 73.1892V76.7027C85.0189 79.0811 86.1739 80.2703 88.4838 80.2703ZM73.025 62.1081C70.7861 62.1081 68.9915 61.4595 67.6411 60.1622C66.2906 58.8649 65.6154 57.0811 65.6154 54.8108V51.2973C65.6154 49.027 66.2906 47.2432 67.6411 45.9459C68.9915 44.6486 70.7861 44 73.025 44C75.2639 44 77.0585 44.6486 78.4089 45.9459C79.7594 47.2432 80.4346 49.027 80.4346 51.2973V54.8108C80.4346 57.0811 79.7594 58.8649 78.4089 60.1622C77.0585 61.4595 75.2639 62.1081 73.025 62.1081ZM73.025 58.4324C75.3349 58.4324 76.4899 57.2252 76.4899 54.8108V51.2973C76.4899 48.8829 75.3349 47.6757 73.025 47.6757C71.8878 47.6757 71.0171 47.982 70.413 48.5946C69.8444 49.1712 69.5601 50.0721 69.5601 51.2973V54.8108C69.5601 56.036 69.8444 56.955 70.413 57.5676C71.0171 58.1441 71.8878 58.4324 73.025 58.4324Z" fill="#57E389"/>
<defs>
<filter id="filter0_f_4_13" x="24" y="36" width="80" height="56" filterUnits="userSpaceOnUse" color-interpolation-filters="sRGB">
<feFlood flood-opacity="0" result="BackgroundImageFix"/>
<feBlend mode="normal" in="SourceGraphic" in2="BackgroundImageFix" result="shape"/>
<feGaussianBlur stdDeviation="4" result="effect1_foregroundBlur_4_13"/>
</filter>
<linearGradient id="paint0_linear_4_13" x1="64" y1="0" x2="64" y2="128" gradientUnits="userSpaceOnUse">
<stop stop-color="#242424"/>
<stop offset="1" stop-color="#141414"/>
</linearGradient>
</defs>
</svg>
