<svg width="128" height="128" viewBox="0 0 128 128" fill="none" xmlns="http://www.w3.org/2000/svg">
<rect width="128" height="128" rx="24" fill="url(#paint0_linear_120_37)"/>
<rect x="4" y="4" width="120" height="120" rx="20" stroke="black" stroke-opacity="0.25" stroke-width="8"/>
<g filter="url(#filter0_d_120_37)">
<path d="M64.0634 24.0064C63.7954 24.022 63.5287 24.0664 63.2664 24.1453C63.1652 24.1758 63.0626 24.2037 62.9594 24.2263C59.417 25.0023 57.5287 29.5823 58.9064 32.8845C58.9803 33.0616 58.9442 33.2685 58.8058 33.4014C58.6143 33.5854 58.3081 33.5469 58.0982 33.3843C57.3549 32.8084 56.2851 33.0465 55.4079 33.2625C53.2411 34.0134 51.8481 36.0675 51.1211 38.1991C50.3804 40.2546 50.3001 42.457 50.4684 44.623C50.5343 45.4713 50.0816 46.2881 49.2327 46.3453C49.0786 46.3557 48.9239 46.3629 48.7694 46.3713C47.9516 46.416 47.4191 47.1229 47.3769 47.9408C47.2927 49.5752 47.1503 51.2067 46.8733 52.8205C46.8013 53.3562 46.6982 53.9102 46.8236 54.442C46.8563 54.5802 46.972 54.6794 47.1101 54.7128C47.3907 54.7807 47.671 54.8499 47.9519 54.9161C48.2628 54.9895 48.3135 55.6867 48.0325 55.8388C48.0191 55.846 48.0064 55.8544 47.9944 55.8638C47.9812 55.8741 47.9614 55.8897 47.9376 55.9086C47.7243 56.0776 47.5952 56.3262 47.5764 56.5976C47.4431 58.5227 47.8688 60.4083 48.0607 62.3161C48.161 63.3143 47.1131 64.4029 46.9386 65.3908C46.9033 65.5911 46.8779 65.7951 46.8506 65.9831C46.8247 66.161 46.8819 66.342 47.0115 66.4666C47.1839 66.6324 47.2218 66.8939 47.1204 67.1106C47.0796 67.1978 47.0411 67.286 47.0051 67.3754C46.9378 67.5423 46.9374 67.7266 46.9671 67.9041C47.0245 68.2473 47.0309 68.6064 47.0883 68.9437C47.2046 69.6262 47.519 70.3304 47.4093 71.014C47.0983 72.9527 46.7734 74.8914 46.5769 76.8462C46.481 77.6135 46.9577 78.3734 46.6861 79.1222C46.4882 79.7835 46.0601 80.3348 45.7925 80.9643C45.6435 81.3148 45.4651 81.6575 45.2268 81.9545C44.4781 82.8875 44.0008 84.0239 43.4525 85.0885C42.9619 85.9849 43.0012 87.0216 42.8478 88.0098C42.8163 88.2123 42.7433 88.4056 42.6385 88.5817C42.0683 89.5401 41.3609 90.4945 41.3773 91.664C41.3727 91.9854 41.3416 92.328 41.3678 92.6542C41.4231 93.3405 41.7269 94.0555 41.5824 94.7287C41.1374 96.8022 40.5341 98.8383 40.0628 100.904C40.0024 101.538 39.9558 102.212 40.0693 102.849C40.1677 103.401 40.6406 103.788 41.194 103.879C42.1939 104.044 43.2122 104.015 44.2274 103.941C45.156 103.873 45.9997 103.142 45.8368 102.226C45.7996 102.017 45.7413 101.811 45.6559 101.611C45.5972 101.474 45.5378 101.336 45.5031 101.191C45.0255 99.1949 45.4304 97.0708 46.2674 95.2144C46.5143 94.6667 47.094 94.3533 47.5125 93.9223C47.9202 93.5026 48.1237 92.8671 48.2815 92.281C48.8067 90.3054 50.0546 88.6199 50.458 86.6032C50.5479 85.9692 50.1633 85.3214 50.4229 84.7039C50.7065 84.033 50.8761 83.2193 51.5112 82.7925C52.0964 82.4028 52.3888 81.7417 52.6385 81.1016C52.8302 80.5087 53.5542 80.4025 53.8438 79.8835C54.383 78.9193 54.1133 77.7249 54.5966 76.734C55.2297 75.2077 55.5493 73.4542 56.7576 72.2623C56.7999 72.2247 56.839 72.1851 56.8752 72.144C57.5106 71.4212 58.1445 71.3652 58.7426 72.1192C58.853 72.2584 59.0006 72.3657 59.1728 72.4098C59.2465 72.4287 59.3212 72.4429 59.3966 72.4538C60.0122 72.5424 60.5835 72.8101 60.9269 73.3286C61.989 74.9323 63.0406 76.5424 64.0947 78.1525C64.3749 78.6245 64.845 78.8938 65.3557 78.9833C66.1096 79.1154 67.0962 79.2508 67.3808 79.9613C67.4401 80.1096 67.4456 80.273 67.4297 80.4319C67.3834 80.8955 67.331 81.3586 67.289 81.8234C67.2434 82.3272 66.9943 82.7842 66.7463 83.225C66.5448 83.5832 66.4427 83.9905 66.5208 84.4194C66.6826 85.8616 66.8109 87.3125 66.9187 88.7629C67.0651 89.6396 67.4716 90.461 67.4989 91.3558C67.5058 91.5819 67.5908 91.8043 67.762 91.9522C67.9266 92.0943 68.0137 92.3042 68.0108 92.5216C67.9925 93.8882 68.2932 95.257 68.1729 96.6129C68.1538 96.8282 68.0836 97.0345 67.9983 97.2331C67.5669 98.2388 67.4332 99.3388 67.2369 100.419C67.1219 101.052 67.2496 101.795 67.8668 101.976C68.6854 102.215 69.6675 101.907 70.5151 101.93C71.7214 102.073 72.8303 102.759 74.0725 102.691C75.2787 102.673 76.4927 102.752 77.6953 102.667C78.4305 102.615 79.0682 102.03 78.9731 101.299C78.926 100.938 78.6748 100.643 78.3589 100.461C77.7636 100.118 77.1327 99.8459 76.4792 99.6458C75.5964 99.4181 75.1081 98.5668 74.525 97.9308C73.9917 97.2169 73.2069 96.6029 73.109 95.6469C72.9824 94.4494 73.0235 93.2329 73.0605 92.0292C73.0669 91.8191 73.1032 91.6097 73.1942 91.4203C73.3676 91.0596 73.5879 90.7159 73.6485 90.3182C73.6763 90.136 73.6884 89.9504 73.7105 89.7674C73.8479 88.6285 73.2644 87.5167 73.503 86.3788C73.9001 83.7907 74.2177 81.1789 74.1754 78.555C74.1712 78.2921 74.0857 78.036 73.9383 77.8183C73.8122 77.6321 73.7375 77.4184 73.7151 77.1947C73.7129 77.1726 73.7107 77.1506 73.7085 77.1285C73.6499 76.5468 73.1321 76.1669 72.8598 75.6495C72.8479 75.6269 72.8371 75.6033 72.8275 75.5786C72.7928 75.4892 72.7733 75.3942 72.7416 75.3037C71.974 73.1168 71.0975 70.9747 70.1172 68.8804C69.2071 67.1142 68.0427 65.5 66.7562 64.0055C66.5815 63.8024 66.4424 63.5693 66.375 63.3101C66.2383 62.7844 66.1609 62.2416 66.0527 61.7086C66.0125 61.5106 66.0343 61.3041 66.1225 61.1222C66.2887 60.7796 66.656 60.6018 67.0142 60.731C67.4549 60.8901 67.9136 61.0476 68.2647 60.758C68.3377 60.6977 68.3917 60.6182 68.4415 60.5376C68.9989 59.6368 69.4335 58.6324 69.3761 57.5407C69.3681 55.5958 69.911 53.6693 69.6414 51.7306C69.5418 51.139 69.2002 50.6595 68.7343 50.3562C68.3483 50.1049 68.0535 49.6613 68.1622 49.2137C68.2902 48.6862 68.8812 48.3976 69.354 48.6643C71.2674 49.7438 73.2322 50.9513 75.4182 51.1496C76.8322 51.363 77.5253 50.0002 78.5738 49.3745C79.8102 48.4702 79.6311 46.7848 80.0243 45.4113C80.1022 45.1394 80.3219 44.9372 80.5915 44.8518C81.0624 44.7028 81.361 44.2375 81.2521 43.7559C81.0702 42.9519 80.8421 42.1552 80.7619 41.3371C80.7056 40.7633 81.0136 40.2404 81.4571 39.8719C81.8161 39.5736 82.1549 39.2457 82.3996 38.8603C82.6117 38.5261 82.8645 38.2068 83.2156 38.0238C83.4254 37.9146 83.6588 37.8524 83.8953 37.8496C85.8863 37.8266 87.8772 37.8656 89.8701 37.8385C90.5237 37.8734 90.8935 37.1516 91.5476 37.126C91.7469 37.1181 91.9465 37.0849 92.1402 37.0291C93.1588 36.6865 94.2453 36.876 95.2958 36.8247C95.6928 36.8366 96.1152 36.7874 96.5108 36.8424C97.0602 36.9187 97.6226 37.1194 98.1759 37.0813C98.5929 37.0527 99.012 37.0496 99.4315 37.0536C99.7275 37.0564 99.9723 36.8238 99.9812 36.5279C99.9905 36.2198 99.7432 35.9638 99.435 35.9658C98.993 35.9687 98.5521 35.9738 98.1115 35.9832C97.991 35.9857 97.8712 35.9635 97.7596 35.918C97.7227 35.9029 97.6858 35.8879 97.6489 35.8729C97.431 35.7844 97.1736 35.8252 96.9855 35.9663C96.8851 36.0417 96.7741 36.0813 96.6488 36.0902C95.4299 36.1766 94.2009 36.126 92.9771 36.1155C92.5703 36.1119 92.293 35.7794 92.3108 35.373C92.3182 35.2017 92.301 35.0356 92.2237 34.8831C92.1593 34.756 91.9904 34.7648 91.9001 34.875C91.8015 34.9952 91.6162 34.9957 91.5196 34.8739C91.4562 34.794 91.3899 34.7102 91.3315 34.6363C91.264 34.551 91.2269 34.4456 91.2259 34.3368C91.2203 33.6809 91.2196 33.0265 91.217 32.3708C91.2164 32.2153 91.0896 32.0907 90.9342 32.0952C90.7845 32.0996 90.666 32.2227 90.6662 32.3724C90.667 33.213 90.6648 34.0572 90.6683 34.8992C90.6689 35.0528 90.5449 35.1774 90.3913 35.1759C90.2316 35.1744 90.1047 35.0391 90.115 34.8797C90.1169 34.8498 90.1189 34.8195 90.1209 34.7892C90.1345 34.5807 89.9704 34.4027 89.7615 34.4008C84.5089 34.3526 79.2589 34.4026 74.0045 34.3741C73.8436 34.3732 73.7133 34.2384 73.7106 34.0775C73.7084 33.9462 73.6176 33.838 73.4904 33.8056C73.3547 33.771 73.2196 33.7354 73.085 33.6987C72.8653 33.6389 72.7174 33.4366 72.7084 33.2091C72.6906 32.76 72.2408 32.7753 72.1427 33.214C72.1112 33.3547 72.0806 33.4956 72.0498 33.6364C71.9767 33.9711 71.6657 34.1922 71.3267 34.242C70.7029 34.3338 70.1113 34.601 69.4996 34.7498C68.8278 34.9132 68.2826 34.3407 68.2175 33.6524C68.1567 33.0109 68.5877 32.4953 69.1868 32.2581C69.3669 32.1868 69.5375 32.0988 69.6869 31.9792C69.8421 31.855 69.9393 31.6749 69.9988 31.4852C70.4461 30.059 70.1001 28.4937 69.5428 27.1366C69.4994 27.0308 69.4975 26.913 69.5379 26.8059C69.5824 26.6879 69.5761 26.5544 69.5166 26.4432C69.497 26.4066 69.4766 26.3684 69.4564 26.3307C69.3764 26.1811 69.2453 26.0656 69.0896 25.9983C68.2961 25.6554 67.5741 25.1725 66.8524 24.6956C65.9986 24.2633 65.0223 23.9507 64.0634 24.0064ZM76.6338 38.817C77.0534 38.8109 77.4447 39.0579 77.541 39.4663C77.5654 39.5699 77.5864 39.6744 77.6041 39.7797C77.6478 40.0393 77.5438 40.3093 77.362 40.4997C77.2906 40.5745 77.242 40.6516 77.1979 40.7451C77.0176 41.1277 76.8076 41.501 76.57 41.8553C76.0166 42.6806 74.8506 42.4072 74.3528 41.5473C74.2593 41.3859 74.1656 41.1985 74.241 41.0279C74.3903 40.6899 74.9286 40.5393 75.2271 40.3279C75.2535 40.3091 75.2802 40.291 75.3085 40.2751C75.6383 40.0909 75.6117 39.563 75.8236 39.2501C75.8926 39.1482 75.9988 39.0558 76.1191 38.969C76.2615 38.8663 76.4357 38.8198 76.6112 38.8174C76.6187 38.8173 76.6263 38.8171 76.6338 38.817Z" fill="url(#paint1_linear_120_37)"/>
</g>
<defs>
<filter id="filter0_d_120_37" x="24" y="12" width="91.9815" height="112" filterUnits="userSpaceOnUse" color-interpolation-filters="sRGB">
<feFlood flood-opacity="0" result="BackgroundImageFix"/>
<feColorMatrix in="SourceAlpha" type="matrix" values="0 0 0 0 0 0 0 0 0 0 0 0 0 0 0 0 0 0 127 0" result="hardAlpha"/>
<feOffset dy="4"/>
<feGaussianBlur stdDeviation="8"/>
<feComposite in2="hardAlpha" operator="out"/>
<feColorMatrix type="matrix" values="0 0 0 0 0 0 0 0 0 0 0 0 0 0 0 0 0 0 0.5 0"/>
<feBlend mode="normal" in2="BackgroundImageFix" result="effect1_dropShadow_120_37"/>
<feBlend mode="normal" in="SourceGraphic" in2="effect1_dropShadow_120_37" result="shape"/>
</filter>
<linearGradient id="paint0_linear_120_37" x1="64" y1="0" x2="64" y2="128" gradientUnits="userSpaceOnUse">
<stop stop-color="#FBEBDC"/>
<stop offset="1" stop-color="#352C29"/>
</linearGradient>
<linearGradient id="paint1_linear_120_37" x1="70" y1="24" x2="70" y2="104" gradientUnits="userSpaceOnUse">
<stop stop-color="white"/>
<stop offset="1" stop-color="#999999"/>
</linearGradient>
</defs>
</svg>
