<svg width="64" height="64" viewBox="0 0 64 64" fill="none" xmlns="http://www.w3.org/2000/svg">
<path d="M28.25 2H9C6.79086 2 5 3.79086 5 6V58C5 60.2091 6.79086 62 9 62H55C57.2091 62 59 60.2091 59 58V13.5C59 11.2909 57.2091 9.5 55 9.5H35.75C33.6789 9.5 32 7.82107 32 5.75C32 3.67893 30.3211 2 28.25 2Z" fill="url(#paint0_linear_4_6)"/>
<rect x="2" y="17" width="60" height="45" rx="4" fill="url(#paint1_linear_4_6)"/>
<g clip-path="url(#clip0_4_6)">
<g filter="url(#filter0_i_4_6)">
<path d="M21.7058 32.9265H20.75V45.5828H21.6564L27.7812 39.2107L21.7058 32.9265Z" fill="#204C86"/>
<path d="M30.5938 31.5312C28.2811 31.5312 26.375 33.4374 26.375 35.75V42.7812C26.375 45.0939 28.2811 47 30.5938 47H39.0312C41.3439 47 43.25 45.0939 43.25 42.7812V35.75C43.25 33.4374 41.3439 31.5312 39.0312 31.5312H30.5938ZM30.5938 34.3438H39.0312C39.8333 34.3438 40.4375 34.948 40.4375 35.75V42.7812C40.4375 43.5833 39.8333 44.1875 39.0312 44.1875H30.5938C29.7917 44.1875 29.1875 43.5833 29.1875 42.7812V35.75C29.1875 34.948 29.7917 34.3438 30.5938 34.3438Z" fill="#204C86"/>
</g>
</g>
<defs>
<filter id="filter0_i_4_6" x="20.75" y="31.5312" width="22.5" height="19.4688" filterUnits="userSpaceOnUse" color-interpolation-filters="sRGB">
<feFlood flood-opacity="0" result="BackgroundImageFix"/>
<feBlend mode="normal" in="SourceGraphic" in2="BackgroundImageFix" result="shape"/>
<feColorMatrix in="SourceAlpha" type="matrix" values="0 0 0 0 0 0 0 0 0 0 0 0 0 0 0 0 0 0 127 0" result="hardAlpha"/>
<feOffset dy="4"/>
<feGaussianBlur stdDeviation="2"/>
<feComposite in2="hardAlpha" operator="arithmetic" k2="-1" k3="1"/>
<feColorMatrix type="matrix" values="0 0 0 0 0 0 0 0 0 0 0 0 0 0 0 0 0 0 0.25 0"/>
<feBlend mode="normal" in2="shape" result="effect1_innerShadow_4_6"/>
</filter>
<linearGradient id="paint0_linear_4_6" x1="32" y1="2" x2="32" y2="17" gradientUnits="userSpaceOnUse">
<stop stop-color="#558ACF"/>
<stop offset="1" stop-color="#2E67B2"/>
</linearGradient>
<linearGradient id="paint1_linear_4_6" x1="32" y1="17" x2="32" y2="62" gradientUnits="userSpaceOnUse">
<stop stop-color="#78B3FF"/>
<stop offset="1" stop-color="#406EAC"/>
</linearGradient>
<clipPath id="clip0_4_6">
<rect width="22.5" height="22.5" fill="white" transform="translate(20.75 27.3125)"/>
</clipPath>
</defs>
</svg>
