<svg width="128" height="128" viewBox="0 0 128 128" fill="none" xmlns="http://www.w3.org/2000/svg">
<rect width="128" height="128" rx="24" fill="url(#paint0_linear_130_26)"/>
<rect x="4" y="4" width="120" height="120" rx="20" stroke="black" stroke-opacity="0.25" stroke-width="8"/>
<g filter="url(#filter0_d_130_26)">
<path d="M44.3429 29.057C43.995 28.4063 43.3171 28 42.5792 28H31C29.8954 28 29 28.8954 29 30V98C29 99.1045 29.8954 100 31 100H41.7778C42.8823 100 43.7778 99.1045 43.7778 98V70.3865C43.7778 68.3032 46.5651 67.608 47.5435 69.4472L53.3246 80.3151C53.6719 80.9679 54.351 81.3759 55.0904 81.3759H72.9096C73.649 81.3759 74.3281 80.9679 74.6754 80.3151L80.4565 69.4472C81.4349 67.608 84.2222 68.3032 84.2222 70.3865V98C84.2222 99.1045 85.1177 100 86.2222 100H97C98.1046 100 99 99.1045 99 98V30C99 28.8954 98.1046 28 97 28H85.4208C84.6829 28 84.005 28.4063 83.6571 29.057L65.7637 62.5251C65.0102 63.9344 62.9898 63.9344 62.2363 62.5251L44.3429 29.057Z" fill="white"/>
<path d="M44.3429 36.737C43.995 36.0863 43.3171 35.68 42.5792 35.68H31C29.8954 35.68 29 36.5754 29 37.68V98C29 99.1046 29.8954 100 31 100H41.7778C42.8823 100 43.7778 99.1046 43.7778 98V70.3865C43.7778 68.3033 46.5651 67.608 47.5435 69.4472L53.3246 80.3152C53.6719 80.968 54.351 81.3759 55.0904 81.3759H72.9096C73.649 81.3759 74.3281 80.968 74.6754 80.3152L80.4565 69.4472C81.4349 67.608 84.2222 68.3033 84.2222 70.3865V98C84.2222 99.1046 85.1177 100 86.2222 100H97C98.1046 100 99 99.1046 99 98V37.68C99 36.5754 98.1046 35.68 97 35.68H85.4208C84.6829 35.68 84.005 36.0863 83.6571 36.737L65.7637 70.2051C65.0102 71.6145 62.9898 71.6145 62.2363 70.2051L44.3429 36.737Z" fill="white"/>
<path d="M44.3438 43.4533C43.9952 42.8047 43.3184 42.4 42.582 42.4H31C29.8954 42.4 29 43.2955 29 44.4V97.9999C29 99.1045 29.8954 99.9999 31 99.9999H41.7778C42.8823 99.9999 43.7778 99.1045 43.7778 97.9999V70.3864C43.7778 68.3032 46.5651 67.608 47.5435 69.4472L53.3246 80.3151C53.6719 80.9679 54.351 81.3759 55.0904 81.3759H72.9096C73.649 81.3759 74.3281 80.9679 74.6754 80.3151L80.4565 69.4472C81.4349 67.608 84.2222 68.3032 84.2222 70.3864V97.9999C84.2222 99.1045 85.1177 99.9999 86.2222 99.9999H97C98.1046 99.9999 99 99.1045 99 97.9999V44.4C99 43.2955 98.1046 42.4 97 42.4H85.418C84.6816 42.4 84.0048 42.8047 83.6562 43.4533L65.7617 76.7535C65.0071 78.1579 62.9929 78.1579 62.2383 76.7535L44.3438 43.4533Z" fill="url(#paint1_linear_130_26)"/>
</g>
<defs>
<filter id="filter0_d_130_26" x="13" y="16" width="102" height="104" filterUnits="userSpaceOnUse" color-interpolation-filters="sRGB">
<feFlood flood-opacity="0" result="BackgroundImageFix"/>
<feColorMatrix in="SourceAlpha" type="matrix" values="0 0 0 0 0 0 0 0 0 0 0 0 0 0 0 0 0 0 127 0" result="hardAlpha"/>
<feOffset dy="4"/>
<feGaussianBlur stdDeviation="8"/>
<feComposite in2="hardAlpha" operator="out"/>
<feColorMatrix type="matrix" values="0 0 0 0 0 0 0 0 0 0 0 0 0 0 0 0 0 0 0.5 0"/>
<feBlend mode="normal" in2="BackgroundImageFix" result="effect1_dropShadow_130_26"/>
<feBlend mode="normal" in="SourceGraphic" in2="effect1_dropShadow_130_26" result="shape"/>
</filter>
<linearGradient id="paint0_linear_130_26" x1="64" y1="0" x2="64" y2="128" gradientUnits="userSpaceOnUse">
<stop stop-color="#2B3B6A"/>
<stop offset="1" stop-color="#090E1F"/>
</linearGradient>
<linearGradient id="paint1_linear_130_26" x1="64" y1="42.4" x2="64" y2="99.9999" gradientUnits="userSpaceOnUse">
<stop stop-color="white"/>
<stop offset="1" stop-color="#8F9AB9"/>
</linearGradient>
</defs>
</svg>
