<svg width="128" height="128" viewBox="0 0 128 128" fill="none" xmlns="http://www.w3.org/2000/svg">
<rect width="128" height="128" rx="24" fill="url(#paint0_linear_3_32)"/>
<rect x="4" y="4" width="120" height="120" rx="20" stroke="#C8C8C8" stroke-opacity="0.8" stroke-width="8"/>
<g filter="url(#filter0_d_3_32)">
<path d="M88 56C92.4183 56 96 59.5817 96 64C96 68.4183 92.4183 72 88 72H40C35.5817 72 32 68.4183 32 64C32 59.5817 35.5817 56 40 56H49C49 58.2091 50.7909 60 53 60H77C79.2091 60 81 58.2091 81 56H88Z" fill="url(#paint1_linear_3_32)"/>
</g>
<g filter="url(#filter1_i_3_32)">
<rect x="8" y="8" width="112" height="112" rx="16" fill="#090909" fill-opacity="0.01"/>
</g>
<defs>
<filter id="filter0_d_3_32" x="16" y="44" width="96" height="48" filterUnits="userSpaceOnUse" color-interpolation-filters="sRGB">
<feFlood flood-opacity="0" result="BackgroundImageFix"/>
<feColorMatrix in="SourceAlpha" type="matrix" values="0 0 0 0 0 0 0 0 0 0 0 0 0 0 0 0 0 0 127 0" result="hardAlpha"/>
<feOffset dy="4"/>
<feGaussianBlur stdDeviation="8"/>
<feComposite in2="hardAlpha" operator="out"/>
<feColorMatrix type="matrix" values="0 0 0 0 0 0 0 0 0 0 0 0 0 0 0 0 0 0 0.5 0"/>
<feBlend mode="normal" in2="BackgroundImageFix" result="effect1_dropShadow_3_32"/>
<feBlend mode="normal" in="SourceGraphic" in2="effect1_dropShadow_3_32" result="shape"/>
</filter>
<filter id="filter1_i_3_32" x="8" y="8" width="112" height="116" filterUnits="userSpaceOnUse" color-interpolation-filters="sRGB">
<feFlood flood-opacity="0" result="BackgroundImageFix"/>
<feBlend mode="normal" in="SourceGraphic" in2="BackgroundImageFix" result="shape"/>
<feColorMatrix in="SourceAlpha" type="matrix" values="0 0 0 0 0 0 0 0 0 0 0 0 0 0 0 0 0 0 127 0" result="hardAlpha"/>
<feOffset dy="4"/>
<feGaussianBlur stdDeviation="8"/>
<feComposite in2="hardAlpha" operator="arithmetic" k2="-1" k3="1"/>
<feColorMatrix type="matrix" values="0 0 0 0 0 0 0 0 0 0 0 0 0 0 0 0 0 0 0.5 0"/>
<feBlend mode="normal" in2="shape" result="effect1_innerShadow_3_32"/>
</filter>
<linearGradient id="paint0_linear_3_32" x1="64" y1="0" x2="64" y2="128" gradientUnits="userSpaceOnUse">
<stop stop-color="#FFC760"/>
<stop offset="1" stop-color="#FF5F37"/>
</linearGradient>
<linearGradient id="paint1_linear_3_32" x1="64" y1="57" x2="64" y2="72" gradientUnits="userSpaceOnUse">
<stop stop-color="white"/>
<stop offset="1" stop-color="#989898"/>
</linearGradient>
</defs>
</svg>
