<svg width="128" height="128" viewBox="0 0 128 128" fill="none" xmlns="http://www.w3.org/2000/svg">
<rect width="128" height="128" rx="24" fill="url(#paint0_linear_9_7)"/>
<rect x="4" y="4" width="120" height="120" rx="20" stroke="black" stroke-opacity="0.25" stroke-width="8"/>
<g filter="url(#filter0_d_9_7)">
<path d="M88.5913 88.3224C87.5849 89.973 85.4243 90.4964 83.7738 89.4832C70.5812 81.4245 53.9734 79.5994 34.4147 84.0682C32.5299 84.4977 30.6512 83.3167 30.2218 81.4312C29.7904 79.5457 30.9666 77.6669 32.856 77.2375C54.2599 72.3472 72.6196 74.4528 87.4305 83.5046C89.0811 84.5178 89.6045 86.6717 88.5913 88.3224ZM95.4687 73.0222C94.2006 75.0835 91.5033 75.7344 89.4434 74.4662C74.3399 65.1823 51.317 62.4936 33.4525 67.9166C31.1357 68.6165 28.6886 67.3107 27.9855 64.9978C27.2877 62.6808 28.594 60.2384 30.9069 59.5338C51.313 53.3418 76.6816 56.3412 94.0261 67C96.086 68.2682 96.7368 70.9649 95.4687 73.0222ZM96.0592 57.09C77.9497 46.3332 48.0716 45.3442 30.7814 50.5921C28.0049 51.4342 25.0688 49.8667 24.2274 47.0901C23.386 44.3122 24.952 41.3779 27.7305 40.5338C47.5784 34.5082 80.5732 35.6724 101.423 48.0503C103.926 49.5326 104.744 52.7581 103.261 55.2522C101.785 57.7496 98.5511 58.5729 96.0618 57.09H96.0592Z" fill="url(#paint1_linear_9_7)"/>
</g>
<defs>
<filter id="filter0_d_9_7" x="8" y="21" width="112" height="85" filterUnits="userSpaceOnUse" color-interpolation-filters="sRGB">
<feFlood flood-opacity="0" result="BackgroundImageFix"/>
<feColorMatrix in="SourceAlpha" type="matrix" values="0 0 0 0 0 0 0 0 0 0 0 0 0 0 0 0 0 0 127 0" result="hardAlpha"/>
<feOffset/>
<feGaussianBlur stdDeviation="8"/>
<feComposite in2="hardAlpha" operator="out"/>
<feColorMatrix type="matrix" values="0 0 0 0 0 0 0 0 0 0 0 0 0 0 0 0 0 0 0.5 0"/>
<feBlend mode="normal" in2="BackgroundImageFix" result="effect1_dropShadow_9_7"/>
<feBlend mode="normal" in="SourceGraphic" in2="effect1_dropShadow_9_7" result="shape"/>
</filter>
<linearGradient id="paint0_linear_9_7" x1="64" y1="0" x2="64" y2="128" gradientUnits="userSpaceOnUse">
<stop stop-color="#1ED760"/>
<stop offset="1" stop-color="#10714A"/>
</linearGradient>
<linearGradient id="paint1_linear_9_7" x1="64" y1="37" x2="64" y2="90" gradientUnits="userSpaceOnUse">
<stop stop-color="white"/>
<stop offset="1" stop-color="#72C481"/>
</linearGradient>
</defs>
</svg>
