<svg width="128" height="128" viewBox="0 0 128 128" fill="none" xmlns="http://www.w3.org/2000/svg">
<rect width="128" height="128" rx="24" fill="url(#paint0_linear_3_28)"/>
<rect x="4" y="4" width="120" height="120" rx="20" stroke="black" stroke-opacity="0.25" stroke-width="8"/>
<g filter="url(#filter0_d_3_28)">
<path d="M63.9308 24C43.8783 24 27.2795 38.7041 24.3364 57.8968C24.0733 59.6128 25.0876 61.2403 26.6922 61.9027L43.4777 68.8308C44.7248 69.3455 46.1282 69.1486 47.3665 68.6133C48.7451 68.0172 50.2648 67.6877 51.8593 67.6877C52.2518 67.6877 52.6267 67.508 52.8499 67.1851L61.9321 54.0433C62.0039 53.9394 62.0424 53.8161 62.0424 53.6898C62.0424 45.3733 68.8205 38.6053 77.1527 38.6053C85.4848 38.6053 92.2629 45.3733 92.2629 53.6898C92.2629 62.0064 85.4848 68.7772 77.1527 68.7772C76.9299 68.7772 76.7115 68.8413 76.53 68.9705L63.6239 78.1602C63.3516 78.3541 63.2014 78.6732 63.2014 79.0075C63.2014 85.2535 58.1127 90.333 51.8593 90.333C47.1193 90.333 43.0478 87.4154 41.3563 83.2843C40.8501 82.0482 39.998 80.9347 38.7633 80.4251L33.0006 78.0466C29.9127 76.7721 26.8779 79.5881 28.4311 82.5457C35.1277 95.2972 48.5081 104 63.9308 104C86.0614 104 104 86.0891 104 64C104 41.908 86.0614 24 63.9308 24ZM49.11 84.6933C47.3806 83.9798 46.151 85.5687 47.7973 86.4571C48.0471 86.5919 48.306 86.7154 48.5737 86.8267C52.9041 88.6292 57.8977 86.5785 59.7025 82.252C60.576 80.1586 60.5818 77.8484 59.7169 75.7493C58.852 73.6502 57.2172 72.0131 55.1212 71.1404C54.8324 71.0206 54.5407 70.9181 54.2473 70.8322C52.3567 70.279 52.1097 72.3938 53.9305 73.1454C57.125 74.4744 58.6357 78.1365 57.3037 81.3251C55.9746 84.5137 52.3045 86.0224 49.11 84.6933ZM87.2216 53.6901C87.2216 48.1486 82.7038 43.6366 77.1538 43.6366C71.601 43.6366 67.0832 48.1486 67.0832 53.6901C67.0832 59.2317 71.601 63.7407 77.1538 63.7407C82.7038 63.7407 87.2216 59.2317 87.2216 53.6901ZM69.6059 53.673C69.6059 49.5033 72.9935 46.1236 77.1682 46.1236C81.3458 46.1236 84.7335 49.5033 84.7335 53.673C84.7335 57.8427 81.3458 61.2224 77.1682 61.2224C72.9935 61.2224 69.6059 57.8427 69.6059 53.673Z" fill="url(#paint1_linear_3_28)"/>
</g>
<defs>
<filter id="filter0_d_3_28" x="8.29501" y="12" width="111.705" height="112" filterUnits="userSpaceOnUse" color-interpolation-filters="sRGB">
<feFlood flood-opacity="0" result="BackgroundImageFix"/>
<feColorMatrix in="SourceAlpha" type="matrix" values="0 0 0 0 0 0 0 0 0 0 0 0 0 0 0 0 0 0 127 0" result="hardAlpha"/>
<feOffset dy="4"/>
<feGaussianBlur stdDeviation="8"/>
<feComposite in2="hardAlpha" operator="out"/>
<feColorMatrix type="matrix" values="0 0 0 0 0 0 0 0 0 0 0 0 0 0 0 0 0 0 0.5 0"/>
<feBlend mode="normal" in2="BackgroundImageFix" result="effect1_dropShadow_3_28"/>
<feBlend mode="normal" in="SourceGraphic" in2="effect1_dropShadow_3_28" result="shape"/>
</filter>
<linearGradient id="paint0_linear_3_28" x1="64" y1="0" x2="64" y2="128" gradientUnits="userSpaceOnUse">
<stop stop-color="#00ACED"/>
<stop offset="1" stop-color="#224B5B"/>
</linearGradient>
<linearGradient id="paint1_linear_3_28" x1="64" y1="24" x2="64" y2="104" gradientUnits="userSpaceOnUse">
<stop stop-color="white"/>
<stop offset="1" stop-color="#A9C6E2"/>
</linearGradient>
</defs>
</svg>
