<svg width="128" height="128" viewBox="0 0 128 128" fill="none" xmlns="http://www.w3.org/2000/svg">
<rect width="128" height="128" rx="24" fill="url(#paint0_linear_102_6)"/>
<rect x="4" y="4" width="120" height="120" rx="20" stroke="black" stroke-opacity="0.25" stroke-width="8"/>
<g filter="url(#filter0_d_102_6)">
<path d="M85.4873 37.9113C94.2954 44.5953 100 55.2859 100 67.3333C100 87.5839 83.8824 104 64 104C44.1176 104 28 87.5839 28 67.3333C28 55.2758 33.7142 44.5775 42.535 37.8945L35.9773 29.001C34.9546 27.6261 35.2409 25.6678 36.591 24.6261C37.9408 23.5845 39.8637 23.8761 40.8864 25.2511L47.7745 34.5932C52.6502 32.0816 58.1627 30.6667 64 30.6667C69.8373 30.6667 75.3498 32.0816 80.2255 34.5932L87.1136 25.2511C88.1363 23.8761 90.0592 23.5845 91.409 24.6261C92.7591 25.6678 93.0454 27.6261 92.0227 29.001L85.4873 37.9113Z" fill="url(#paint1_linear_102_6)"/>
</g>
<g filter="url(#filter1_f_102_6)">
<path d="M98.5691 58C99.3605 63.1853 99.0593 68.487 97.6859 73.5398C96.3127 78.5925 93.9001 83.2763 90.6143 87.2684C87.3284 91.2605 83.2478 94.466 78.653 96.6639C74.0585 98.8618 69.0592 100 64 100C58.9408 100 53.9415 98.8618 49.347 96.6639C44.7522 94.466 40.6716 91.2605 37.3857 87.2684C34.0999 83.2763 31.6873 78.5925 30.3141 73.5398C28.9407 68.487 28.6395 63.1853 29.4309 58L56.8622 62.5084C61.5914 63.2855 66.4086 63.2855 71.1378 62.5084L98.5691 58Z" fill="black" fill-opacity="0.5"/>
</g>
<path d="M99.5567 61.6608C100.371 66.888 100.061 72.2325 98.6483 77.3261C97.2359 82.4197 94.7543 87.1413 91.3747 91.1656C87.9948 95.1899 83.7977 98.4213 79.0717 100.637C74.3459 102.853 69.2038 104 64 104C58.7962 104 53.6541 102.853 48.9283 100.637C44.2023 98.4213 40.0051 95.1899 36.6253 91.1656C33.2456 87.1413 30.764 82.4197 29.3516 77.3261C27.939 72.2325 27.6292 66.888 28.4432 61.6608L56.6583 66.2056C61.5225 66.989 66.4774 66.989 71.3417 66.2056L99.5567 61.6608Z" fill="url(#paint2_linear_102_6)"/>
<g filter="url(#filter2_i_102_6)">
<path fill-rule="evenodd" clip-rule="evenodd" d="M94.3911 62.4536L83.7837 94.8496C83.4506 95.8671 82.1638 96.1441 81.4537 95.3513L64.0508 75.9158L46.648 95.3513C45.9381 96.1441 44.6511 95.8671 44.318 94.8496L33.7108 62.4536L45.7539 64.3932L49.0647 77.7382L58.7806 66.4433C62.2831 66.8458 65.8189 66.8458 69.3211 66.4433L79.037 77.7382L82.3478 64.3932L94.3911 62.4536Z" fill="white"/>
</g>
<defs>
<filter id="filter0_d_102_6" x="12" y="12" width="104" height="112" filterUnits="userSpaceOnUse" color-interpolation-filters="sRGB">
<feFlood flood-opacity="0" result="BackgroundImageFix"/>
<feColorMatrix in="SourceAlpha" type="matrix" values="0 0 0 0 0 0 0 0 0 0 0 0 0 0 0 0 0 0 127 0" result="hardAlpha"/>
<feOffset dy="4"/>
<feGaussianBlur stdDeviation="8"/>
<feComposite in2="hardAlpha" operator="out"/>
<feColorMatrix type="matrix" values="0 0 0 0 0 0 0 0 0 0 0 0 0 0 0 0 0 0 0.5 0"/>
<feBlend mode="normal" in2="BackgroundImageFix" result="effect1_dropShadow_102_6"/>
<feBlend mode="normal" in="SourceGraphic" in2="effect1_dropShadow_102_6" result="shape"/>
</filter>
<filter id="filter1_f_102_6" x="13" y="42" width="102" height="74" filterUnits="userSpaceOnUse" color-interpolation-filters="sRGB">
<feFlood flood-opacity="0" result="BackgroundImageFix"/>
<feBlend mode="normal" in="SourceGraphic" in2="BackgroundImageFix" result="shape"/>
<feGaussianBlur stdDeviation="8" result="effect1_foregroundBlur_102_6"/>
</filter>
<filter id="filter2_i_102_6" x="33.7108" y="62.4536" width="60.6803" height="37.3568" filterUnits="userSpaceOnUse" color-interpolation-filters="sRGB">
<feFlood flood-opacity="0" result="BackgroundImageFix"/>
<feBlend mode="normal" in="SourceGraphic" in2="BackgroundImageFix" result="shape"/>
<feColorMatrix in="SourceAlpha" type="matrix" values="0 0 0 0 0 0 0 0 0 0 0 0 0 0 0 0 0 0 127 0" result="hardAlpha"/>
<feOffset dy="4"/>
<feGaussianBlur stdDeviation="4"/>
<feComposite in2="hardAlpha" operator="arithmetic" k2="-1" k3="1"/>
<feColorMatrix type="matrix" values="0 0 0 0 0 0 0 0 0 0 0 0 0 0 0 0 0 0 0.25 0"/>
<feBlend mode="normal" in2="shape" result="effect1_innerShadow_102_6"/>
</filter>
<linearGradient id="paint0_linear_102_6" x1="64" y1="0" x2="64" y2="128" gradientUnits="userSpaceOnUse">
<stop stop-color="#FFBC41"/>
<stop offset="1" stop-color="#A14620"/>
</linearGradient>
<linearGradient id="paint1_linear_102_6" x1="64" y1="24" x2="64" y2="104" gradientUnits="userSpaceOnUse">
<stop stop-color="#99FFC8"/>
<stop offset="0.25" stop-color="#3DDB85"/>
<stop offset="1" stop-color="#217547"/>
</linearGradient>
<linearGradient id="paint2_linear_102_6" x1="64" y1="61.6608" x2="64" y2="104" gradientUnits="userSpaceOnUse">
<stop stop-color="#FFC400"/>
<stop offset="1" stop-color="#FF980E"/>
</linearGradient>
</defs>
</svg>
