<?xml version="1.0" encoding="UTF-8" standalone="no"?>
<svg
   id="svg7"
   version="1.1"
   viewBox="0 0 22 22"
   width="22"
   height="22"
   sodipodi:docname="update-medium.svg"
   inkscape:version="1.3.2 (091e20ef0f, 2023-11-25)"
   xmlns:inkscape="http://www.inkscape.org/namespaces/inkscape"
   xmlns:sodipodi="http://sodipodi.sourceforge.net/DTD/sodipodi-0.dtd"
   xmlns="http://www.w3.org/2000/svg"
   xmlns:svg="http://www.w3.org/2000/svg">
  <sodipodi:namedview
     id="namedview1"
     pagecolor="#ffffff"
     bordercolor="#999999"
     borderopacity="1"
     inkscape:showpageshadow="2"
     inkscape:pageopacity="0"
     inkscape:pagecheckerboard="0"
     inkscape:deskcolor="#d1d1d1"
     inkscape:zoom="7.9583333"
     inkscape:cx="4.1465969"
     inkscape:cy="-6.1570681"
     inkscape:window-width="1920"
     inkscape:window-height="996"
     inkscape:window-x="0"
     inkscape:window-y="0"
     inkscape:window-maximized="1"
     inkscape:current-layer="svg7" />
  <defs
     id="defs3">
    <style
       type="text/css"
       id="current-color-scheme">.ColorScheme-Text{color:#232629;}.ColorScheme-NeutralText { color: #f67400; } </style>
  </defs>
  <g
     id="22-22-update-medium"
     transform="matrix(3.7795276,0,0,3.7795276,-44,-1100.5196)">
    <g
       id="g1395">
      <rect
         style="opacity:0.003;fill:#000000;fill-opacity:1;stroke:none;stroke-width:0.10795;stroke-miterlimit:4;stroke-dasharray:none;stroke-opacity:1"
         id="rect1396-3-1"
         width="5.8208332"
         height="5.8208332"
         x="11.641666"
         y="291.17914"
         ry="1.2988288e-06"
         rx="1.2988288e-06" />
      <path
         d="m 15.915485,292.70494 0.857746,0.43624 -0.259171,0.12716 c 0.106823,0.25232 0.166771,0.52961 0.166771,0.82124 0,1.16867 -0.947443,2.11664 -2.116647,2.11664 -0.374559,0 -0.726132,-0.0983 -1.031278,-0.26914 l 0.214098,-0.21405 c 0.246102,0.12347 0.522852,0.19472 0.81718,0.19472 1.009645,0 1.827726,-0.81854 1.827726,-1.82777 0,-0.27083 -0.06265,-0.52602 -0.168574,-0.75719 z m -1.380287,0.44908 z m 0,0 z m 0.02944,-0.89268 c -1.009644,0 -1.827726,0.81861 -1.827726,1.82824 0,0.27084 0.06265,0.52598 0.168575,0.75715 l 0.308302,0.62744 -0.857748,-0.4363 0.259172,-0.12713 c -0.106825,-0.25239 -0.166772,-0.52962 -0.166772,-0.82116 -4.51e-4,-1.16884 0.947444,-2.11669 2.116197,-2.11669 0.37456,0 0.726133,0.0982 1.031279,0.26905 l -0.214098,0.21414 c -0.246101,-0.1235 -0.523302,-0.19474 -0.817181,-0.19474 z"
         id="path4-9-3-36-5-3-9"
         sodipodi:nodetypes="cccssccsscccccccccccccccccccccccccccsscccccscc"
         style="color:#e5e9ef;fill:#1e2431;fill-opacity:1;stroke-width:0.0045073"
         class="ColorScheme-Text" />
      <path
         d="m 15.345847,294.0896 c 0,0.43859 -0.355165,0.79376 -0.793753,0.79376 -0.438219,0 -0.793752,-0.35517 -0.793752,-0.79376 0,-0.43824 0.355533,-0.79374 0.793752,-0.79374 0.438588,0 0.793753,0.3555 0.793753,0.79374 z"
         id="path72-3-75-6"
         style="color:#e5e9ef;fill:#ff9955;fill-opacity:1;stroke-width:0.0094495"
         class="ColorScheme-Text" />
    </g>
  </g>
</svg>
