<?xml version="1.0" encoding="UTF-8" standalone="no"?>
<svg
   width="22"
   height="22"
   version="1.1"
   id="svg1"
   sodipodi:docname="applications-all-symbolic.svg"
   inkscape:version="1.3.2 (091e20ef0f, 2023-11-25)"
   xmlns:inkscape="http://www.inkscape.org/namespaces/inkscape"
   xmlns:sodipodi="http://sodipodi.sourceforge.net/DTD/sodipodi-0.dtd"
   xmlns="http://www.w3.org/2000/svg"
   xmlns:svg="http://www.w3.org/2000/svg">
  <defs
     id="defs1" />
  <sodipodi:namedview
     id="namedview1"
     pagecolor="#ffffff"
     bordercolor="#999999"
     borderopacity="1"
     inkscape:showpageshadow="2"
     inkscape:pageopacity="0"
     inkscape:pagecheckerboard="0"
     inkscape:deskcolor="#d1d1d1"
     inkscape:zoom="12.245804"
     inkscape:cx="10.942524"
     inkscape:cy="11.105845"
     inkscape:window-width="1920"
     inkscape:window-height="996"
     inkscape:window-x="0"
     inkscape:window-y="0"
     inkscape:window-maximized="1"
     inkscape:current-layer="svg1" />
  <style
     type="text/css"
     id="current-color-scheme">.ColorScheme-Text{color:#31363b;}.ColorScheme-Background{color:#E9E8E8;}.ColorScheme-ViewText{color:#31363b;}.ColorScheme-ViewBackground{color:#ffffff;}.ColorScheme-ViewHover{color:#000000;}.ColorScheme-ViewFocus{color:#5a5a5a;}.ColorScheme-ButtonText{color:#31363b;}.ColorScheme-ButtonBackground{color:#E9E8E8;}.ColorScheme-ButtonHover{color:#1489ff;}.ColorScheme-ButtonFocus { color: #2B74C7; } </style>
  <g
     id="22-22-applications-other">
    <path
       style="clip-rule:evenodd;fill:#ffffc1;fill-opacity:0;fill-rule:evenodd;stroke-width:0.688964;stroke-linejoin:round;stroke-miterlimit:1.41421"
       d="M 0,0 V 22 H 22 V 0 Z"
       id="rect817-5"
       inkscape:connector-curvature="0" />
    <path
       style="color:#d1d5e9;fill:#1e2431;fill-opacity:1;stroke-width:1.25"
       d="M 11,1 C 5.4700001,1 1,5.47 1,11 1,16.53 5.4700001,21.000001 11,21.000001 16.53,21.000001 21,16.53 21,11 21,5.47 16.53,1 11,1 Z m 0,1.25 c 4.837483,0 8.75,3.9125 8.75,8.75 0,4.837484 -3.912517,8.75 -8.75,8.75 C 6.1624831,19.75 2.25,15.837484 2.25,11 2.25,6.1625 6.1624831,2.25 11,2.25 Z m 0.937483,7.148748 v 0 0 0 0 0 c 0,0 -0.04242,0.01 0,0 z m -0.976242,5.625005 z"
       id="path58-0"
       sodipodi:nodetypes="ssssssssssccccccccccccccccc"
       class="ColorScheme-Text " />
    <circle
       cx="7.6665821"
       cy="7.6666679"
       r="2.5"
       id="circle2-9"
       style="color:#d1d5e9;fill:#1e2431;fill-opacity:1;stroke-width:0.203252"
       class="ColorScheme-Text" />
    <circle
       cx="14.333338"
       cy="7.6666679"
       r="2.5"
       id="circle2-1-3"
       style="color:#d1d5e9;fill:#1e2431;fill-opacity:1;stroke-width:0.203252"
       class="ColorScheme-Text" />
    <circle
       cx="7.6665821"
       cy="14.33346"
       r="2.5"
       id="circle2-2-6"
       style="color:#d1d5e9;fill:#1e2431;fill-opacity:1;stroke-width:0.203252"
       class="ColorScheme-Text" />
    <circle
       cx="14.333338"
       cy="14.33346"
       r="2.5"
       id="circle2-7-0"
       style="color:#d1d5e9;fill:#1e2431;fill-opacity:1;stroke-width:0.203252"
       class="ColorScheme-Text" />
  </g>
</svg>
