<svg width="64" height="64" viewBox="0 0 64 64" fill="none" xmlns="http://www.w3.org/2000/svg">
<path d="M28.25 2H9C6.79086 2 5 3.79086 5 6V58C5 60.2091 6.79086 62 9 62H55C57.2091 62 59 60.2091 59 58V13.5C59 11.2909 57.2091 9.5 55 9.5H35.75C33.6789 9.5 32 7.82107 32 5.75C32 3.67893 30.3211 2 28.25 2Z" fill="url(#paint0_linear_4_7)"/>
<rect x="2" y="17" width="60" height="45" rx="4" fill="url(#paint1_linear_4_7)"/>
<g filter="url(#filter0_i_4_7)">
<path d="M29.1875 35.2812C28.413 35.2812 27.7812 35.913 27.7812 36.6875C27.7812 37.462 28.413 38.0938 29.1875 38.0938C29.962 38.0938 30.5938 37.462 30.5938 36.6875C30.5938 35.913 29.962 35.2812 29.1875 35.2812ZM34.1094 39.5L31.2969 42.3125L29.1875 40.9062L26.375 43.7188V44.4219C26.375 45.125 27.0781 45.125 27.0781 45.125H36.9219C36.9219 45.125 37.5865 45.0756 37.625 44.4219V43.0156L34.1094 39.5Z" fill="#204C86"/>
<path d="M26.375 29.6562C24.0624 29.6562 22.1562 31.5624 22.1562 33.875V45.125C22.1562 47.4376 24.0624 49.3438 26.375 49.3438H37.625C39.9376 49.3438 41.8438 47.4376 41.8438 45.125V33.875C41.8438 31.5624 39.9376 29.6562 37.625 29.6562H26.375ZM26.375 32.4688H37.625C38.427 32.4688 39.0312 33.073 39.0312 33.875V45.125C39.0312 45.927 38.427 46.5312 37.625 46.5312H26.375C25.573 46.5312 24.9688 45.927 24.9688 45.125V33.875C24.9688 33.073 25.573 32.4688 26.375 32.4688Z" fill="#204C86"/>
</g>
<defs>
<filter id="filter0_i_4_7" x="22.1562" y="29.6562" width="19.6875" height="23.6875" filterUnits="userSpaceOnUse" color-interpolation-filters="sRGB">
<feFlood flood-opacity="0" result="BackgroundImageFix"/>
<feBlend mode="normal" in="SourceGraphic" in2="BackgroundImageFix" result="shape"/>
<feColorMatrix in="SourceAlpha" type="matrix" values="0 0 0 0 0 0 0 0 0 0 0 0 0 0 0 0 0 0 127 0" result="hardAlpha"/>
<feOffset dy="4"/>
<feGaussianBlur stdDeviation="2"/>
<feComposite in2="hardAlpha" operator="arithmetic" k2="-1" k3="1"/>
<feColorMatrix type="matrix" values="0 0 0 0 0 0 0 0 0 0 0 0 0 0 0 0 0 0 0.25 0"/>
<feBlend mode="normal" in2="shape" result="effect1_innerShadow_4_7"/>
</filter>
<linearGradient id="paint0_linear_4_7" x1="32" y1="2" x2="32" y2="17" gradientUnits="userSpaceOnUse">
<stop stop-color="#558ACF"/>
<stop offset="1" stop-color="#2E67B2"/>
</linearGradient>
<linearGradient id="paint1_linear_4_7" x1="32" y1="17" x2="32" y2="62" gradientUnits="userSpaceOnUse">
<stop stop-color="#78B3FF"/>
<stop offset="1" stop-color="#406EAC"/>
</linearGradient>
</defs>
</svg>
