<?xml version="1.0" encoding="UTF-8" standalone="no"?>
<svg
   width="32"
   height="32"
   version="1.1"
   id="svg1"
   sodipodi:docname="plasmavault_error.svg"
   inkscape:version="1.3.2 (091e20ef0f, 2023-11-25)"
   xmlns:inkscape="http://www.inkscape.org/namespaces/inkscape"
   xmlns:sodipodi="http://sodipodi.sourceforge.net/DTD/sodipodi-0.dtd"
   xmlns="http://www.w3.org/2000/svg"
   xmlns:svg="http://www.w3.org/2000/svg">
  <defs
     id="defs1" />
  <sodipodi:namedview
     id="namedview1"
     pagecolor="#ffffff"
     bordercolor="#999999"
     borderopacity="1"
     inkscape:showpageshadow="2"
     inkscape:pageopacity="0"
     inkscape:pagecheckerboard="0"
     inkscape:deskcolor="#d1d1d1"
     showgrid="true"
     inkscape:zoom="8.4189901"
     inkscape:cx="20.548783"
     inkscape:cy="9.027211"
     inkscape:window-width="1920"
     inkscape:window-height="994"
     inkscape:window-x="0"
     inkscape:window-y="0"
     inkscape:window-maximized="1"
     inkscape:current-layer="svg1">
    <inkscape:grid
       id="grid1"
       units="px"
       originx="0"
       originy="0"
       spacingx="1"
       spacingy="1"
       empcolor="#0099e5"
       empopacity="0.30196078"
       color="#0099e5"
       opacity="0.14901961"
       empspacing="5"
       dotted="false"
       gridanglex="30"
       gridanglez="30"
       visible="true" />
  </sodipodi:namedview>
  <style
     type="text/css"
     id="current-color-scheme">.ColorScheme-NegativeText {color:#da4453;}</style>
  <g
     id="plasmavault_error-5"
     style="fill:#da4453;fill-opacity:1">
    <rect
       style="opacity:0.00100002;fill:#da4453;fill-opacity:1"
       width="32"
       height="32"
       x="0"
       y="0"
       id="rect7" />
    <path
       d="M 25.812595,8 H 14.815075 C 14.572011,8 14.359931,7.982834 14.208,7.758 L 13.387221,6.674275 C 13.11385,6.224845 12.658049,6 12.172135,6 H 6.551856 C 5.154272,6 4,7.21997 4,8.69658 V 23.989 C 4,25.241015 4.972266,26 6.187352,26 h 9.448144 v 0 0 0 0 0 0 0 h 0.729008 v 0 0 0 0 0 0 0 0 0 h 9.448143 C 26.997464,26 28,25.273 28,23.989 V 10.323 C 28,8.70025 27,8 25.812647,8 Z m -9.448091,18 v 0 h -0.729008 v 0 0 z M 27,23.688666 C 27,24.523277 26.632743,25 25.812648,25 H 6.187244 C 5.397419,25 5,24.523277 5,23.688666 V 18.520115 15.598697 C 5,14.764078 5.397205,14 6.187026,14 H 17.585 c 0.486128,0 0.815329,-0.217495 1.115,-0.616454 L 19.589,12.2 C 19.740942,12.007415 19.9,12 19.9,12 h 5.547656 C 26.450193,12 27,12 27,12 v 5.878103 z M 25.447926,11.008052 19.797269,11 c -0.486128,0 -0.915236,0.183178 -1.215087,0.582 L 17.692,12.766 C 17.570575,12.990826 17.427865,13 17.184816,13 H 6.487 C 5.940272,13 5.395884,12.984514 5,13.574 V 10.615384 C 5,9.846154 5.500004,9 6.250004,9 h 6.000004 0.01609 1.108913 H 15 L 25.842932,9.081624 C 26.632731,9.087574 27,9.787887 27,10.622505 V 11 l -1.952,0.0079 z"
       id="path64"
       sodipodi:nodetypes="csccsssssccccccccccccccccccsssccccccccccssccsssccscscccsccscccccccssccc"
       style="fill:#da4453;fill-opacity:1;stroke-width:0.0557669" />
    <path
       d="m 25.147636,18.661997 h -0.25175 l -0.0013,-1.230993 c -0.0013,-1.341 -1.112989,-2.432006 -2.479762,-2.431003 -1.366772,0.0013 -2.478739,1.092004 -2.477721,2.433004 l 0.0025,1.230999 h -0.0896 c -0.469852,0.0013 -0.851048,0.374991 -0.850025,0.835997 v 3.665004 C 19.000002,23.626007 19.382205,24 19.852065,24 l 5.297909,-0.0034 c 0.469854,0 0.851046,-0.373998 0.850026,-0.834999 V 19.495627 C 26,19.034629 25.617796,18.66163 25.147934,18.66163 Z m -4.294986,0.0025 -0.0025,-1.230997 c 0,-0.847001 0.70122,-1.536002 1.5645,-1.537003 0.863277,0 1.565518,0.689 1.565518,1.535 l 0.0025,1.231003 z"
       id="path2-3-3"
       style="fill:#da4453;fill-opacity:1;stroke-width:0.100959" />
  </g>
</svg>
