<?xml version="1.0" encoding="UTF-8" standalone="no"?>
<svg
   width="32"
   height="32"
   version="1.1"
   id="svg1"
   sodipodi:docname="quassel_message.svg"
   inkscape:version="1.3.2 (091e20ef0f, 2023-11-25)"
   xmlns:inkscape="http://www.inkscape.org/namespaces/inkscape"
   xmlns:sodipodi="http://sodipodi.sourceforge.net/DTD/sodipodi-0.dtd"
   xmlns="http://www.w3.org/2000/svg"
   xmlns:svg="http://www.w3.org/2000/svg">
  <defs
     id="defs1" />
  <sodipodi:namedview
     id="namedview1"
     pagecolor="#ffffff"
     bordercolor="#999999"
     borderopacity="1"
     inkscape:showpageshadow="2"
     inkscape:pageopacity="0"
     inkscape:pagecheckerboard="0"
     inkscape:deskcolor="#d1d1d1"
     inkscape:zoom="8.6590909"
     inkscape:cx="15.706037"
     inkscape:cy="16.39895"
     inkscape:window-width="1920"
     inkscape:window-height="994"
     inkscape:window-x="0"
     inkscape:window-y="0"
     inkscape:window-maximized="1"
     inkscape:current-layer="svg1" />
  <style
     type="text/css"
     id="current-color-scheme">
      .ColorScheme-Text {
        color:#7B7C7E;
      }
      .ColorScheme-Background{
        color:#EFF0F1;
      }
      .ColorScheme-Highlight{
        color:#3DAEE6;
      }
      .ColorScheme-ViewText {
        color:#7B7C7E;
      }
      .ColorScheme-ViewBackground{
        color:#FCFCFC;
      }
      .ColorScheme-ViewHover {
        color:#3DAEE6;
      }
      .ColorScheme-ViewFocus{
        color:#1E92FF;
      }
      .ColorScheme-ButtonText {
        color:#7B7C7E;
      }
      .ColorScheme-ButtonBackground{
        color:#EFF0F1;
      }
      .ColorScheme-ButtonHover {
        color:#3DAEE6;
      }
      .ColorScheme-ButtonFocus{
        color:#1E92FF;
      }
</style>
  <g
     id="quassel-message"
     transform="translate(32)">
    <rect
       style="opacity:0.00100002;fill:#7390bf;fill-opacity:1"
       width="32"
       height="32"
       x="-32"
       y="0"
       id="rect22-1" />
    <path
       d="m -10.29635,24 -3.444726,3.141888 c -1.242416,1.144149 -3.275343,1.144149 -4.545888,0 L -21.70356,24 h -3.134129 C -26.560047,24 -28,22.695584 -28,21.083486 V 6.912216 C -28,5.326072 -26.588225,4 -24.837689,4 H -7.162315 C -5.439956,4 -4,5.300118 -4,6.912216 v 14.17127 C -4,22.669628 -5.411765,24 -7.162315,24 Z M -24.837582,5 C -25.854062,5 -27,5.976039 -27,6.912123 v 14.17127 C -27,22.019477 -25.854062,23 -24.837582,23 h 3.670654 l 3.811877,3.484 c 0.734084,0.676014 1.948298,0.676014 2.682311,0 L -10.832724,23 h 3.670668 C -6.145591,23 -5,22.019661 -5,21.083577 V 6.912 C -5,5.975918 -6.145591,5 -7.162056,5 Z"
       fill-rule="evenodd"
       id="path85-6"
       sodipodi:nodetypes="ccccsssssssscccccccccccccc"
       style="fill:#7390bf;fill-opacity:1;stroke-width:0.0483856" />
    <rect
       style="fill:#7390bf;fill-opacity:1;stroke-width:0.212503"
       width="11.8"
       height="12"
       x="-20.299999"
       y="10"
       rx="5.9000001"
       ry="5.9999995"
       transform="matrix(0,-1,-1,0,0,0)"
       id="rect396-3" />
    <path
       style="fill:#1e2431;fill-opacity:1;stroke-width:0.212503"
       d="m -16.000108,11.028722 a 3.4285217,3.37138 0 0 0 -3.42852,3.371378 3.4285217,3.37138 0 0 0 3.42852,3.371389 3.4285217,3.37138 0 0 0 2.157058,-0.752332 1.9285444,1.8964021 0 0 1 -1.085561,0.33082 1.9285444,1.8964021 0 0 1 -1.928538,-1.896399 1.9285444,1.8964021 0 0 1 1.928538,-1.8964 1.9285444,1.8964021 0 0 1 1.928549,1.8964 1.9285444,1.8964021 0 0 1 -0.319712,1.043863 3.4285217,3.37138 0 0 0 0.748272,-2.097427 3.4285217,3.37138 0 0 0 -3.428517,-3.371367 z"
       id="path404-6" />
  </g>
</svg>
