<?xml version="1.0" encoding="UTF-8" standalone="no"?>
<svg
   width="32"
   height="32"
   version="1.1"
   id="svg1"
   sodipodi:docname="quassel_inactive.svg"
   inkscape:version="1.3.2 (091e20ef0f, 2023-11-25)"
   xmlns:inkscape="http://www.inkscape.org/namespaces/inkscape"
   xmlns:sodipodi="http://sodipodi.sourceforge.net/DTD/sodipodi-0.dtd"
   xmlns="http://www.w3.org/2000/svg"
   xmlns:svg="http://www.w3.org/2000/svg">
  <defs
     id="defs1" />
  <sodipodi:namedview
     id="namedview1"
     pagecolor="#ffffff"
     bordercolor="#999999"
     borderopacity="1"
     inkscape:showpageshadow="2"
     inkscape:pageopacity="0"
     inkscape:pagecheckerboard="0"
     inkscape:deskcolor="#d1d1d1"
     inkscape:zoom="6.1229019"
     inkscape:cx="27.43797"
     inkscape:cy="12.085773"
     inkscape:window-width="1920"
     inkscape:window-height="994"
     inkscape:window-x="0"
     inkscape:window-y="0"
     inkscape:window-maximized="1"
     inkscape:current-layer="svg1" />
  <style
     type="text/css"
     id="current-color-scheme">
      .ColorScheme-Text {
        color:#7B7C7E;
      }
      .ColorScheme-Background{
        color:#EFF0F1;
      }
      .ColorScheme-Highlight{
        color:#3DAEE6;
      }
      .ColorScheme-ViewText {
        color:#7B7C7E;
      }
      .ColorScheme-ViewBackground{
        color:#FCFCFC;
      }
      .ColorScheme-ViewHover {
        color:#3DAEE6;
      }
      .ColorScheme-ViewFocus{
        color:#1E92FF;
      }
      .ColorScheme-ButtonText {
        color:#7B7C7E;
      }
      .ColorScheme-ButtonBackground{
        color:#EFF0F1;
      }
      .ColorScheme-ButtonHover {
        color:#3DAEE6;
      }
      .ColorScheme-ButtonFocus{
        color:#1E92FF;
      }
</style>
  <g
     id="quassel-inactive">
    <rect
       style="opacity:0.00100002"
       width="32"
       height="32"
       x="0"
       y="0"
       id="rect27" />
    <path
       d="m 21.70365,24 -3.444726,3.141888 c -1.242416,1.144149 -3.275342,1.144149 -4.545888,0 L 10.29644,24 H 7.1623107 C 5.4399528,24 4,22.695584 4,21.083486 V 6.9122156 C 4,5.326072 5.4117745,4 7.1623107,4 H 24.837685 C 26.560044,4 28,5.3001175 28,6.9122156 V 21.083486 C 28,22.669628 26.588235,24 24.837685,24 Z M 7.1624182,5 C 6.1459376,5 5,5.9760386 5,6.9121226 V 21.083393 C 5,22.019477 6.1459376,23 7.1624182,23 h 3.6706528 l 3.811878,3.484 c 0.734084,0.676014 1.948298,0.676014 2.682311,0 L 21.167276,23 h 3.670668 C 25.854409,23 27,22.019661 27,21.083577 V 6.912 C 27,5.9759175 25.854409,5 24.837944,5 Z"
       fill-rule="evenodd"
       id="path85-5"
       sodipodi:nodetypes="ccccsssssssscccccccccccccc"
       style="fill:#e5e9ef;fill-opacity:0.4;stroke-width:0.0483856" />
    <rect
       style="fill:#e5e9ef;fill-opacity:0.4;stroke-width:0.212503"
       width="11.8"
       height="12"
       x="-20.299999"
       y="-22"
       rx="5.9000001"
       ry="5.9999995"
       transform="matrix(0,-1,-1,0,0,0)"
       id="rect396-7" />
    <path
       style="fill:#1e2431;fill-opacity:1;stroke-width:0.212503"
       d="m 15.99989,11.028721 a 3.4285217,3.37138 0 0 0 -3.42852,3.371378 3.4285217,3.37138 0 0 0 3.42852,3.371389 3.4285217,3.37138 0 0 0 2.157058,-0.752332 1.9285444,1.8964021 0 0 1 -1.085561,0.33082 1.9285444,1.8964021 0 0 1 -1.928538,-1.896399 1.9285444,1.8964021 0 0 1 1.928538,-1.8964 1.9285444,1.8964021 0 0 1 1.928549,1.8964 1.9285444,1.8964021 0 0 1 -0.319712,1.043863 3.4285217,3.37138 0 0 0 0.748272,-2.097427 3.4285217,3.37138 0 0 0 -3.428517,-3.371367 z"
       id="path404-5" />
  </g>
</svg>
