<?xml version="1.0" encoding="UTF-8" standalone="no"?>
<svg
   width="22"
   height="22"
   version="1.1"
   id="svg12"
   sodipodi:docname="akregator-symbolic.svg"
   inkscape:version="1.3.2 (091e20ef0f, 2023-11-25)"
   xmlns:inkscape="http://www.inkscape.org/namespaces/inkscape"
   xmlns:sodipodi="http://sodipodi.sourceforge.net/DTD/sodipodi-0.dtd"
   xmlns:xlink="http://www.w3.org/1999/xlink"
   xmlns="http://www.w3.org/2000/svg"
   xmlns:svg="http://www.w3.org/2000/svg"
   xmlns:rdf="http://www.w3.org/1999/02/22-rdf-syntax-ns#"
   xmlns:cc="http://creativecommons.org/ns#"
   xmlns:dc="http://purl.org/dc/elements/1.1/">
  <metadata
     id="metadata18">
    <rdf:RDF>
      <cc:Work
         rdf:about="">
        <dc:format>image/svg+xml</dc:format>
        <dc:type
           rdf:resource="http://purl.org/dc/dcmitype/StillImage" />
      </cc:Work>
    </rdf:RDF>
  </metadata>
  <defs
     id="defs16">
    <linearGradient
       inkscape:collect="always"
       xlink:href="#linearGradient855"
       id="linearGradient873"
       x1="3.0619521"
       y1="16.631489"
       x2="8.1415768"
       y2="16.631489"
       gradientUnits="userSpaceOnUse"
       gradientTransform="matrix(1.3750003,0,0,1.3750003,-31.210187,-9.3848437)" />
    <linearGradient
       inkscape:collect="always"
       id="linearGradient855">
      <stop
         style="stop-color:#00cccc;stop-opacity:1"
         offset="0"
         id="stop851" />
      <stop
         style="stop-color:#008080;stop-opacity:1"
         offset="1"
         id="stop853" />
    </linearGradient>
  </defs>
  <sodipodi:namedview
     pagecolor="#201933"
     bordercolor="#000000"
     borderopacity="1"
     objecttolerance="10"
     gridtolerance="10"
     guidetolerance="10"
     inkscape:pageopacity="0"
     inkscape:pageshadow="2"
     inkscape:window-width="1920"
     inkscape:window-height="996"
     id="namedview14"
     showgrid="true"
     inkscape:zoom="9.8125003"
     inkscape:cx="10.598726"
     inkscape:cy="11.210191"
     inkscape:window-x="0"
     inkscape:window-y="0"
     inkscape:window-maximized="1"
     inkscape:current-layer="svg12"
     inkscape:document-rotation="0"
     inkscape:lockguides="false"
     inkscape:showpageshadow="2"
     inkscape:pagecheckerboard="true"
     inkscape:deskcolor="#201933">
    <inkscape:grid
       type="xygrid"
       id="grid894"
       originx="-22"
       originy="-1.0000048"
       spacingy="1"
       spacingx="1"
       units="px"
       visible="true" />
  </sodipodi:namedview>
  <g
     id="22-22-akregator-3"
     transform="translate(22,-10)">
    <path
       id="path7-6"
       style="fill:none"
       d="M -22,10 V 32 H 0 V 10 Z" />
    <path
       d="M -18.193813,13 C -18.631925,13 -19,13.350842 -19,13.807071 c 0,0.456103 0.350457,0.80707 0.806187,0.80707 7.482934,0 13.581437,6.087647 13.581437,13.57879 C -4.612376,28.63152 -4.261921,29 -3.806191,29 -3.368078,29 -3,28.649157 -3,28.192931 -3.0176,19.807062 -9.834533,13.000125 -18.193688,13.000125 Z"
       id="path252-35"
       style="color:#eff0f1;fill:#1e2431;fill-opacity:1;stroke-width:1"
       class="ColorScheme-Text" />
    <path
       d="m -18.193813,17.578893 c -0.438112,0 -0.806187,0.350843 -0.806187,0.80707 0,0.456106 0.350457,0.807069 0.806187,0.807069 4.976938,0 9.007558,4.03504 9.007558,8.999899 0,0.438589 0.350459,0.807069 0.806186,0.807069 0.438112,0 0.80619,-0.350843 0.80619,-0.807069 C -7.591509,22.333347 -12.34053,17.57902 -18.193688,17.57902 Z"
       id="path254-62"
       style="color:#eff0f1;fill:#1e2431;fill-opacity:1;stroke-width:1"
       class="ColorScheme-Text" />
    <path
       d="m -18.193813,22.140247 c -0.438112,0 -0.806187,0.350836 -0.806187,0.80707 0,0.456099 0.350457,0.807069 0.806187,0.807069 2.453358,0 4.451208,1.982461 4.451208,4.438545 0,0.438589 0.350452,0.807069 0.806185,0.807069 0.455607,0 0.806186,-0.350843 0.806186,-0.807069 -0.0176,-3.333608 -2.733783,-6.052564 -6.063454,-6.052564 z"
       id="path256-9"
       style="color:#eff0f1;fill:#1e2431;fill-opacity:1;stroke-width:1"
       class="ColorScheme-Text" />
    <path
       d="m -17.499407,25.954464 c -0.806186,0 -1.472021,0.666691 -1.472021,1.47364 0,0.824549 0.66596,1.491271 1.472021,1.491271 0.823648,0 1.48964,-0.666692 1.48964,-1.491271 -0.0176,-0.824555 -0.683453,-1.47364 -1.48964,-1.47364 z"
       id="path258-1"
       style="color:#eff0f1;fill:#1e2431;fill-opacity:1;stroke-width:1"
       class="ColorScheme-Text" />
  </g>
</svg>
