<?xml version="1.0" encoding="UTF-8" standalone="no"?>
<svg
   width="22"
   height="22"
   version="1.1"
   id="svg12"
   sodipodi:docname="kteatime-symbolic.svg"
   inkscape:version="1.3.2 (091e20ef0f, 2023-11-25)"
   xmlns:inkscape="http://www.inkscape.org/namespaces/inkscape"
   xmlns:sodipodi="http://sodipodi.sourceforge.net/DTD/sodipodi-0.dtd"
   xmlns="http://www.w3.org/2000/svg"
   xmlns:svg="http://www.w3.org/2000/svg"
   xmlns:rdf="http://www.w3.org/1999/02/22-rdf-syntax-ns#"
   xmlns:cc="http://creativecommons.org/ns#"
   xmlns:dc="http://purl.org/dc/elements/1.1/">
  <metadata
     id="metadata18">
    <rdf:RDF>
      <cc:Work
         rdf:about="">
        <dc:format>image/svg+xml</dc:format>
        <dc:type
           rdf:resource="http://purl.org/dc/dcmitype/StillImage" />
      </cc:Work>
    </rdf:RDF>
  </metadata>
  <defs
     id="defs16" />
  <sodipodi:namedview
     pagecolor="#201933"
     bordercolor="#000000"
     borderopacity="1"
     objecttolerance="10"
     gridtolerance="10"
     guidetolerance="10"
     inkscape:pageopacity="0"
     inkscape:pageshadow="2"
     inkscape:window-width="1920"
     inkscape:window-height="996"
     id="namedview14"
     showgrid="true"
     inkscape:zoom="9.8125003"
     inkscape:cx="10.904458"
     inkscape:cy="10.598726"
     inkscape:window-x="0"
     inkscape:window-y="0"
     inkscape:window-maximized="1"
     inkscape:current-layer="svg12"
     inkscape:document-rotation="0"
     inkscape:lockguides="false"
     inkscape:pagecheckerboard="true"
     inkscape:showpageshadow="true"
     inkscape:deskcolor="#201933">
    <inkscape:grid
       id="grid1"
       units="px"
       originx="-14"
       originy="-46"
       spacingx="1"
       spacingy="1"
       empcolor="#0099e5"
       empopacity="0.30196078"
       color="#0099e5"
       opacity="0.14901961"
       empspacing="5"
       dotted="false"
       gridanglex="30"
       gridanglez="30"
       visible="true" />
  </sodipodi:namedview>
  <g
     id="22-22-kteatime"
     transform="translate(-32,-10)">
    <rect
       style="opacity:0.00100002"
       width="22"
       height="22"
       x="32"
       y="10"
       id="rect341" />
    <path
       d="m 47.005046,20.183381 v 0 H 47 V 19 c 0,-1 0,-1 -1,-1 H 37.96666 C 37,18 37,18 37,19 v 8 c 0,0 0,1 1,1 h 8 c 1,0 1,-1 1,-1 v 0 l 0.005,-0.666662 v 0 0 -6 0 z M 46,26 c 0,1 0,1 -1,1 h -6 c -1,0 -1,0 -1,-1 v -7 h 3 v 1.333334 L 40,22 v 2 c 0,1 0,1 0.964802,1 H 42 c 1,0 1,0 1,-1 V 22 L 42,20.333334 V 19 h 4 z m 1,-4 h 0.696966 C 48.064041,22 48,22.333334 48,23 v 1 c 0,0.666667 0.03699,1.000004 -0.303036,1.000004 H 47 Z m 0.005,4.333334 v 0 0 H 47 V 26 h 0.697017 C 49,26 49,24.983259 49,24.53042 v -2.422798 c 0,-0.440954 0,-1.107621 -1.302983,-1.107621 L 47,21 47.005,20.333334 v 0 0 0 z"
       id="path70-3"
       style="color:#d6dbf1;fill:#1e2431;fill-opacity:1;stroke-width:0.0347593"
       sodipodi:nodetypes="ccccccccsscccccccccccccccccsccccccccccccccscsccccccccccss"
       class="ColorScheme-Text" />
    <path
       d="m 38,13.340426 v 3.319148 C 38,16.914894 38.315895,17 38.499833,17 38.683772,17 39.000026,16.914894 39,16.659574 l -3.33e-4,-3.319148 C 38.999641,13.085106 38.683772,13 38.499833,13 38.315895,13 38,13.085106 38,13.340426 Z"
       id="path2655-6"
       style="fill:#1e2431;fill-opacity:1;stroke-width:0.146101"
       sodipodi:nodetypes="sssssss" />
    <path
       d="M 46.940017,28 H 37.059983 C 36.655993,28 36.5,28.223998 36.5,28.500001 c 0,0.275998 0.155993,0.5 0.559984,0.5 h 5.525843 4.35419 c 0.403987,0 0.559983,-0.224002 0.559983,-0.5 C 47.5,28.223998 47.344004,27.999999 46.940017,28 Z"
       id="path2655-5-5"
       style="fill:#1e2431;fill-opacity:1;stroke-width:0.30246"
       sodipodi:nodetypes="sssscsss" />
    <path
       d="m 41.5,13.340426 v 3.319148 C 41.5,16.914894 41.816,17 42,17 c 0.184,0 0.500359,-0.08511 0.500334,-0.340426 L 42.5,13.340426 C 42.499974,13.085106 42.184,13 42,13 c -0.184,0 -0.5,0.08511 -0.5,0.340426 z"
       id="path2655-6-6"
       style="fill:#1e2431;fill-opacity:1;stroke-width:0.146126"
       sodipodi:nodetypes="sssssss" />
    <path
       d="m 44.999834,13.248936 v 3.402128 c 0,0.261702 0.316,0.348936 0.5,0.348936 0.184,0 0.500359,-0.08723 0.500333,-0.348936 l -3.33e-4,-3.402128 c -2.6e-5,-0.261702 -0.316,-0.348936 -0.5,-0.348936 -0.184,0 -0.5,0.08723 -0.5,0.348936 z"
       id="path2655-6-2"
       style="fill:#1e2431;fill-opacity:1;stroke-width:0.147941"
       sodipodi:nodetypes="sssssss" />
  </g>
</svg>
