<?xml version="1.0" encoding="UTF-8" standalone="no"?>
<svg
   width="22"
   height="22"
   version="1.1"
   id="svg1"
   sodipodi:docname="yakuake-symbolic.svg"
   inkscape:version="1.3.2 (091e20ef0f, 2023-11-25)"
   xmlns:inkscape="http://www.inkscape.org/namespaces/inkscape"
   xmlns:sodipodi="http://sodipodi.sourceforge.net/DTD/sodipodi-0.dtd"
   xmlns="http://www.w3.org/2000/svg"
   xmlns:svg="http://www.w3.org/2000/svg">
  <defs
     id="defs1" />
  <sodipodi:namedview
     id="namedview1"
     pagecolor="#ffffff"
     bordercolor="#999999"
     borderopacity="1"
     inkscape:showpageshadow="2"
     inkscape:pageopacity="0"
     inkscape:pagecheckerboard="0"
     inkscape:deskcolor="#d1d1d1"
     inkscape:zoom="17.318182"
     inkscape:cx="10.913386"
     inkscape:cy="20.614173"
     inkscape:window-width="1920"
     inkscape:window-height="996"
     inkscape:window-x="0"
     inkscape:window-y="0"
     inkscape:window-maximized="1"
     inkscape:current-layer="svg1" />
  <style
     type="text/css"
     id="current-color-scheme">.ColorScheme-Background{color:#181818;}.ColorScheme-ButtonBackground{color:#343434;}.ColorScheme-Highlight{color:#1a73e8;}.ColorScheme-Text{color:#232629;}.ColorScheme-ViewBackground{color:#242424;}.ColorScheme-NegativeText { color: #ff4747; } </style>
  <g
     id="22-22-yakuake-5">
    <rect
       id="rect2-3"
       width="22"
       height="22"
       opacity="0.00100002"
       style="fill:#fcfcfc;fill-opacity:1"
       x="0"
       y="0" />
    <path
       id="rect43-2"
       class="ColorScheme-Text"
       d="m 2.0000008,4.6000001 v 0 H 20.000002 v 0 z M 19,5 V 17 H 3 V 5 H 1 V 17.4 C 1,18.2 2.0000008,19 2.7500002,19 H 19.25001 C 20.000002,19 21,18.2 21,17.4 V 5 Z"
       fill-opacity=".3"
       style="color:#d1d5e9;fill:#1e2431;fill-opacity:0.5;stroke-width:0.774596"
       sodipodi:nodetypes="cccccccccccccccc" />
    <path
       id="rect63-9"
       class="ColorScheme-Text"
       d="M 1.2500001,3.0000001 H 20.750008 C 21.5,3.0000001 21.5,4 21.5,4 v 0 c 0,0 0,1 -0.749992,1 H 1.2500001 C 0.5,5 0.5,4 0.5,4 v 0 c 0,0 0,-0.9999999 0.7500001,-0.9999999 z"
       style="color:#d1d5e9;fill:#1e2431;fill-opacity:1;stroke-width:0.801784"
       sodipodi:nodetypes="scsssssss" />
    <path
       d="m 10.09324,11.393832 c 2.01e-4,0.127001 -0.04737,0.248862 -0.132312,0.338576 L 6.3629287,15.542161 C 5.6166494,16.325656 4.50356,15.147043 5.2435186,14.356859 L 8.0420857,11.393832 5.2435186,8.4308011 c -0.308276,-0.327686 -0.308276,-0.857625 0,-1.185302 v 0 c 0.3091074,-0.327336 0.8103026,-0.327336 1.1194101,0 L 9.960928,11.05523 c 0.084902,0.08974 0.132514,0.211589 0.132312,0.338602 z m -0.4520727,0 z"
       id="path4-3-9-2-1"
       style="color:#d6dbf1;fill:#1e2431;fill-opacity:1;stroke-width:0.232714"
       sodipodi:nodetypes="ccccccsscccccccccccc"
       class="ColorScheme-Text" />
    <path
       d="M 8.5930503,10.94515 12.219868,7.3411581 c 0.928647,-0.916093 1.920005,0.202472 0.997708,1.125717 L 9.5907703,12.070886 C 8.6620725,12.986924 7.6707469,11.868409 8.5930503,10.94515 Z M 12.419406,7.5662891 Z"
       id="path8-6-7-36-2-9-2"
       style="color:#d6dbf1;fill:#1e2431;fill-opacity:0.5;stroke-width:0.171859"
       sodipodi:nodetypes="cccccccccc"
       class="ColorScheme-Text" />
    <path
       d="m 10.968844,14 h 5.062325 c 1.291787,0.0062 1.291787,1.993623 0,2 h -5.062325 c -1.2917922,-0.0062 -1.2917922,-1.993623 0,-2 z m 5.062325,0.399995 z"
       id="path8-6-7-36-2-9-3-7"
       style="color:#d6dbf1;fill:#1e2431;fill-opacity:1;stroke-width:0.197337"
       sodipodi:nodetypes="cccccccccc"
       class="ColorScheme-Text" />
  </g>
</svg>
