<?xml version="1.0" encoding="UTF-8" standalone="no"?>
<svg
   version="1.1"
   viewBox="0 0 22 22"
   id="svg1"
   sodipodi:docname="activities.svg"
   width="22"
   height="22"
   inkscape:version="1.3.2 (091e20ef0f, 2023-11-25)"
   xmlns:inkscape="http://www.inkscape.org/namespaces/inkscape"
   xmlns:sodipodi="http://sodipodi.sourceforge.net/DTD/sodipodi-0.dtd"
   xmlns="http://www.w3.org/2000/svg"
   xmlns:svg="http://www.w3.org/2000/svg">
  <defs
     id="defs1" />
  <sodipodi:namedview
     id="namedview1"
     pagecolor="#ffffff"
     bordercolor="#999999"
     borderopacity="1"
     inkscape:showpageshadow="2"
     inkscape:pageopacity="0"
     inkscape:pagecheckerboard="0"
     inkscape:deskcolor="#d1d1d1"
     inkscape:zoom="16.83798"
     inkscape:cx="11.046456"
     inkscape:cy="10.987066"
     inkscape:window-width="1920"
     inkscape:window-height="996"
     inkscape:window-x="0"
     inkscape:window-y="0"
     inkscape:window-maximized="1"
     inkscape:current-layer="svg1"
     showgrid="true">
    <inkscape:grid
       id="grid1"
       units="px"
       originx="0"
       originy="0"
       spacingx="1"
       spacingy="1"
       empcolor="#0099e5"
       empopacity="0.30196078"
       color="#0099e5"
       opacity="0.14901961"
       empspacing="5"
       dotted="false"
       gridanglex="30"
       gridanglez="30"
       visible="true" />
  </sodipodi:namedview>
  <style
     type="text/css"
     id="current-color-scheme">.ColorScheme-Text { color:#fcfcfc; }
</style>
  <g
     id="22-22-activities"
     style="fill:#1e2431;fill-opacity:1">
    <path
       style="opacity:0.00100002;fill:#1e2431;fill-opacity:1"
       d="M 0,0 H 22 V 22 H 0 Z"
       id="path2" />
    <path
       d="M 18,3.7983729 C 18,3.3581413 17.67536,3.000004 17.276531,3.000004 H 7.7240854 C 7.3244881,3.000004 7,3.3581413 7,3.7983729 V 6.1132394 C 7,6.5533018 7.2879035,6.999999 7.6875007,6.999999 H 17.276531 C 17.67536,6.999999 18,6.5533018 18,6.1132394 Z M 17,3.999999 v 2 H 8 v -2 z"
       id="path2-3-36"
       style="color:#d1d5e9;fill:#1e2431;fill-opacity:1;stroke-width:0.160089"
       sodipodi:nodetypes="sssssssssccccc"
       class="ColorScheme-Text" />
    <path
       d="m 18,15.798368 c 0,-0.440232 -0.32464,-0.798369 -0.723469,-0.798369 H 7.7240854 C 7.3244881,14.999999 7,15.358136 7,15.798368 v 2.314868 c 0,0.440063 0.2879035,0.886759 0.6875007,0.886759 H 17.276531 C 17.67536,18.999995 18,18.553299 18,18.113236 Z m -1,0.201631 v 2 H 8 v -2 z"
       id="path2-3-3-7"
       style="color:#d1d5e9;fill:#1e2431;fill-opacity:1;stroke-width:0.160089"
       sodipodi:nodetypes="sssssssssccccc"
       class="ColorScheme-Text" />
    <path
       d="m 4.999999,18.609 v -5.218 c 0,-0.391001 -0.223878,-0.391001 -0.500001,-0.391001 C 4.2238765,12.999999 4,13.000042 4,13.391043 V 18.609 c 0,0.390999 0.2238765,0.391004 0.499998,0.391004 0.276123,0 0.500001,-5e-6 0.500001,-0.391004 z"
       id="path10-7-7-53"
       style="color:#d6dbf1;fill:#1e2431;fill-opacity:1;stroke-width:0.309097"
       class="ColorScheme-Text"
       sodipodi:nodetypes="sssssss" />
    <path
       d="M 4.999999,8.609 V 3.391 C 4.999999,2.999999 4.776121,3.000004 4.499998,3.000004 4.2238765,3.000004 4,2.999999 4,3.391 v 5.218 c 0,0.390999 0.2238765,0.391001 0.499998,0.391001 0.276123,0 0.500001,-2e-6 0.500001,-0.391001 z"
       id="path10-7-7-5-5"
       style="color:#d6dbf1;fill:#1e2431;fill-opacity:1;stroke-width:0.309097"
       class="ColorScheme-Text"
       sodipodi:nodetypes="sssssss" />
    <path
       d="M 18,9.798369 C 18,9.358137 17.67536,9 17.276532,9 H 7.7240854 C 7.3244882,9 7,9.358137 7,9.798369 v 2.314869 c 0,0.440063 0.2879035,0.88676 0.6875007,0.88676 H 17.276532 C 17.67536,12.999998 18,12.553301 18,12.113238 Z M 7.6875007,9.666666 v 0 0 h -0.017985 z"
       id="path2-3-35-6"
       style="color:#d1d5e9;fill:#1e2431;fill-opacity:1;stroke-width:0.160089"
       sodipodi:nodetypes="sssssssssccccc"
       class="ColorScheme-Text" />
  </g>
</svg>
