<?xml version="1.0" encoding="UTF-8" standalone="no"?>
<svg
   width="22"
   height="22"
   version="1.1"
   id="svg2"
   sodipodi:docname="notifications-disabled.svg"
   inkscape:version="1.3.2 (091e20ef0f, 2023-11-25)"
   xmlns:inkscape="http://www.inkscape.org/namespaces/inkscape"
   xmlns:sodipodi="http://sodipodi.sourceforge.net/DTD/sodipodi-0.dtd"
   xmlns="http://www.w3.org/2000/svg"
   xmlns:svg="http://www.w3.org/2000/svg">
  <defs
     id="defs2" />
  <sodipodi:namedview
     id="namedview2"
     pagecolor="#ffffff"
     bordercolor="#999999"
     borderopacity="1"
     inkscape:showpageshadow="2"
     inkscape:pageopacity="0"
     inkscape:pagecheckerboard="0"
     inkscape:deskcolor="#d1d1d1"
     showgrid="true"
     inkscape:zoom="12.245804"
     inkscape:cx="11.350827"
     inkscape:cy="26.458042"
     inkscape:window-width="1920"
     inkscape:window-height="996"
     inkscape:window-x="0"
     inkscape:window-y="0"
     inkscape:window-maximized="1"
     inkscape:current-layer="svg2">
    <inkscape:grid
       id="grid1"
       units="px"
       originx="4.5852984e-08"
       originy="-24.999934"
       spacingx="1"
       spacingy="1"
       empcolor="#0099e5"
       empopacity="0.30196078"
       color="#0099e5"
       opacity="0.14902"
       empspacing="5"
       dotted="false"
       gridanglex="30"
       gridanglez="30"
       visible="true" />
  </sodipodi:namedview>
  <style
     type="text/css"
     id="current-color-scheme">.ColorScheme-Text { color:#232629; }
.ColorScheme-ButtonFocus { color:#3daee9; }
.ColorScheme-NegativeText { color: #da4453; }
</style>
  <g
     id="22-22-notifications-disabled-7"
     transform="matrix(3.7795277,0,0,3.7795277,-7.8612216e-8,-1100.5197)">
    <rect
       ry="1.2988282e-06"
       y="291.17917"
       x="2.0799481e-08"
       height="5.8208332"
       width="5.8208332"
       id="rect1383"
       style="opacity:0.003;fill:#ff1f1f;fill-opacity:1;stroke:none;stroke-width:0.10795;stroke-miterlimit:4;stroke-dasharray:none;stroke-opacity:1"
       rx="1.2988282e-06" />
    <path
       d="m 2.3152368,292.42749 c -0.143094,0.0734 -0.01979,0.27487 0.125299,0.21129 0.127555,-0.0555 0.267642,-0.0702 0.279418,-0.23232 0.007,-0.10026 0.0035,-0.19808 0.119288,-0.24284 a 0.19446557,0.18976872 0 0 1 0.259371,0.17363 c 0.01204,0.11274 0.0088,0.20078 0.137326,0.25042 a 1.2056364,1.1765172 0 0 1 0.704689,0.59474 1.4108778,1.3768014 0 0 1 0.103748,0.6033 v 0.49398 a 0.1253005,0.12227416 0 0 0 0.250601,0 c 0,-0.40252 0.04636,-0.82999 -0.130564,-1.20537 a 1.388825,1.3552813 0 0 0 -0.756561,-0.68669 c -0.0085,-0.003 -0.03884,-0.0169 -0.05689,-0.0225 0,-0.005 0,-0.0108 0,-0.0144 a 0.50345533,0.49129556 0 0 0 -0.0644,-0.2311 0.43579333,0.42526779 0 0 0 -0.776859,0.0421 0.49919512,0.48713827 0 0 0 -0.03834,0.19368 c 0,0.003 0,0.008 0,0.0127 -0.0019,5.3e-4 -0.110014,0.0367 -0.156123,0.0594 z"
       id="path2-6"
       style="stroke-width:0.247555;fill-opacity:1;fill:currentColor;"
       class="ColorScheme-Text" />
    <path
       d="m 1.0487028,292.0998 c -0.11527599,-0.11249 -0.29319999,0.0611 -0.17792399,0.17118 0.26563599,0.25922 0.53126999,0.52089 0.79690599,0.78011 a 1.3870708,1.3535694 0 0 0 -0.14284,0.59669 v 1.11025 a 0.53177313,0.51892941 0 0 0 -0.471128,0.51599 v 0.12961 a 0.53152252,0.51868488 0 0 0 0.53127,0.51844 h 0.899655 a 0.43228493,0.42184413 0 0 0 0.85204,0 h 0.899655 a 0.53127193,0.51844033 0 0 0 0.288189,-0.0831 l 0.248095,0.2421 a 0.12581266,0.12277396 0 0 0 0.177924,-0.17363 z m 3.29038,3.55816 a 0.28818995,0.28122942 0 0 1 -0.102746,0.0196 h -2.65135 a 0.28017077,0.27340392 0 0 1 -0.28067,-0.27389 v -0.12961 a 0.28017077,0.27340392 0 0 1 0.28067,-0.27389 0.19095717,0.18634506 0 0 0 0.190458,-0.1883 v -1.16405 a 1.0963748,1.0698945 0 0 1 0.0827,-0.41084 z"
       id="path4-7"
       style="stroke-width:0.247555;fill-opacity:1;fill:currentColor;"
       class="ColorScheme-Text" />
  </g>
</svg>
