<?xml version="1.0" encoding="UTF-8" standalone="no"?>
<svg
   viewBox="0 0 22 22"
   version="1.1"
   id="svg1"
   sodipodi:docname="window-pin.svg"
   width="22"
   height="22"
   inkscape:version="1.3.2 (091e20ef0f, 2023-11-25)"
   xmlns:inkscape="http://www.inkscape.org/namespaces/inkscape"
   xmlns:sodipodi="http://sodipodi.sourceforge.net/DTD/sodipodi-0.dtd"
   xmlns="http://www.w3.org/2000/svg"
   xmlns:svg="http://www.w3.org/2000/svg">
  <defs
     id="defs1" />
  <sodipodi:namedview
     id="namedview1"
     pagecolor="#ffffff"
     bordercolor="#999999"
     borderopacity="1"
     inkscape:showpageshadow="2"
     inkscape:pageopacity="0"
     inkscape:pagecheckerboard="0"
     inkscape:deskcolor="#d1d1d1"
     inkscape:zoom="8"
     inkscape:cx="10.375"
     inkscape:cy="8.625"
     inkscape:window-width="1920"
     inkscape:window-height="996"
     inkscape:window-x="0"
     inkscape:window-y="0"
     inkscape:window-maximized="1"
     inkscape:current-layer="svg1" />
  <style
     type="text/css"
     id="current-color-scheme">
        .ColorScheme-Text {
            color:#fcfcfc;
        }
    </style>
  <g
     id="window-pin">
    <path
       id="rect838-67"
       d="M 0,0 H 22 V 22 H 0 Z"
       fill="none" />
    <polygon
       class="cls-1"
       points="3.47,21.23 2.77,20.53 8.78,13.81 10.19,15.22 "
       id="polygon6"
       style="fill:#1e2431;fill-opacity:1"
       transform="matrix(0.83660771,0,0,0.83660771,0.68259664,1.2388183)" />
    <path
       class="cls-2"
       d="M 12.16922,16.933579 5.066421,9.8307795 A 4.9694498,4.9694498 0 0 1 8.6136377,8.366716 4.5344138,4.5344138 0 0 1 9.8852815,8.5424036 L 12.813408,5.6393749 a 1.2465455,1.2465455 0 0 1 1.673216,-1.6732155 1.1043222,1.1043222 0 0 1 0.351375,0.2426163 l 2.953225,2.9532252 a 1.1043222,1.1043222 0 0 1 0.242617,0.3513752 1.2465455,1.2465455 0 0 1 -1.673216,1.6732154 l -2.903029,2.9281275 a 4.5344138,4.5344138 0 0 1 0.175688,1.296741 4.9694498,4.9694498 0 0 1 -1.464064,3.522119 z"
       id="path8"
       style="opacity:1;fill:#000000;fill-opacity:0.01;stroke:#1e2431;stroke-width:1.67322px;stroke-miterlimit:10;stroke-opacity:1" />
  </g>
</svg>
