<?xml version="1.0" encoding="UTF-8" standalone="no"?>
<svg
   id="svg"
   version="1.1"
   viewBox="0 0 22 22"
   sodipodi:docname="device-notifier-symbolic.svg"
   inkscape:version="1.3.2 (091e20ef0f, 2023-11-25)"
   width="22"
   height="22"
   xmlns:inkscape="http://www.inkscape.org/namespaces/inkscape"
   xmlns:sodipodi="http://sodipodi.sourceforge.net/DTD/sodipodi-0.dtd"
   xmlns="http://www.w3.org/2000/svg"
   xmlns:svg="http://www.w3.org/2000/svg"
   xmlns:rdf="http://www.w3.org/1999/02/22-rdf-syntax-ns#"
   xmlns:cc="http://creativecommons.org/ns#"
   xmlns:dc="http://purl.org/dc/elements/1.1/">
  <sodipodi:namedview
     id="namedview27"
     pagecolor="#201933"
     bordercolor="#000000"
     borderopacity="1"
     inkscape:pageshadow="2"
     inkscape:pageopacity="0.0"
     inkscape:pagecheckerboard="true"
     showgrid="true"
     inkscape:zoom="9.208459"
     inkscape:cx="11.402559"
     inkscape:cy="11.185368"
     inkscape:window-width="1920"
     inkscape:window-height="994"
     inkscape:window-x="0"
     inkscape:window-y="0"
     inkscape:window-maximized="1"
     inkscape:current-layer="svg"
     inkscape:showpageshadow="2"
     inkscape:deskcolor="#201933">
    <inkscape:grid
       id="grid1"
       units="px"
       originx="0"
       originy="0"
       spacingx="1"
       spacingy="1"
       empcolor="#0099e5"
       empopacity="0.30196078"
       color="#0099e5"
       opacity="0.14901961"
       empspacing="5"
       dotted="false"
       gridanglex="30"
       gridanglez="30"
       visible="true" />
  </sodipodi:namedview>
  <metadata
     id="metadata47">
    <rdf:RDF>
      <cc:Work
         rdf:about="">
        <dc:format>image/svg+xml</dc:format>
        <dc:type
           rdf:resource="http://purl.org/dc/dcmitype/StillImage" />
      </cc:Work>
    </rdf:RDF>
  </metadata>
  <defs
     id="defs3">
    <style
       id="current-color-scheme"
       type="text/css">.ColorScheme-Text { color:#333333; } .ColorScheme-Highlight { color:#5294e2; } .ColorScheme-ButtonBackground { color:#dedede; }</style>
  </defs>
  <g
     id="22-22-device-notifier-3"
     transform="translate(-32,-9.999999)">
    <rect
       style="opacity:0.00100002;fill:#d1d5e9;fill-opacity:1"
       width="22"
       height="22"
       x="32"
       y="9.999999"
       id="rect2" />
    <path
       d="M 40,14.206673 V 15.666391 16 c -0.610119,-0.0033 -0.998743,0.436679 -1,1.079188 v 7.708322 c 0,5.616293 7.999999,5.616293 7.999999,0 V 17.079188 C 46.998099,16.436679 46.610118,15.996887 46,16 V 15.666391 14.206673 C 46,13 45.270051,13.004556 44.638961,12.99973 H 41.36104 C 40.728041,12.99973 40,13 40,14.206673 Z M 45.66666,16.999729 46,17 v 8 h -6 v -8 l 0.333337,-2.71e-4 z m -1.027699,-2.99973 c 0.209631,0.0041 0.37877,0.152242 0.382056,0.373 L 45,16 h -4 l -5.3e-5,-1.627001 c -7e-6,-0.222203 0.150037,-0.373 0.36104,-0.373 z"
       id="path1084-3"
       style="fill:#e5e9ef;fill-opacity:1;stroke-width:0.784105"
       sodipodi:nodetypes="scccsscccccsscccccccccccssc"
       class=" " />
    <path
       d="m 44.333336,21.001575 c -0.0023,1.187953 -1.438658,1.78068 -2.277406,0.939612 -0.838735,-0.841069 -0.24205,-2.276429 0.94591,-2.274789 0.736162,0.0015 1.332,0.599006 1.331496,1.335177 z"
       id="path1086-6"
       style="fill:#e5e9ef;fill-opacity:1;stroke-width:0.922108"
       sodipodi:nodetypes="csccccc"
       class=" " />
  </g>
</svg>
