<?xml version="1.0" encoding="UTF-8" standalone="no"?>
<svg
   width="22"
   height="22"
   version="1.1"
   id="svg3"
   sodipodi:docname="disk-quota-critical.svg"
   inkscape:version="1.3.2 (091e20ef0f, 2023-11-25)"
   xmlns:inkscape="http://www.inkscape.org/namespaces/inkscape"
   xmlns:sodipodi="http://sodipodi.sourceforge.net/DTD/sodipodi-0.dtd"
   xmlns="http://www.w3.org/2000/svg"
   xmlns:svg="http://www.w3.org/2000/svg">
  <defs
     id="defs3" />
  <sodipodi:namedview
     id="namedview3"
     pagecolor="#ffffff"
     bordercolor="#999999"
     borderopacity="1"
     inkscape:showpageshadow="2"
     inkscape:pageopacity="0"
     inkscape:pagecheckerboard="0"
     inkscape:deskcolor="#d1d1d1"
     inkscape:zoom="11.90625"
     inkscape:cx="10.666667"
     inkscape:cy="4.4514436"
     inkscape:window-width="1920"
     inkscape:window-height="994"
     inkscape:window-x="0"
     inkscape:window-y="0"
     inkscape:window-maximized="1"
     inkscape:current-layer="svg3" />
  <style
     type="text/css"
     id="current-color-scheme">.ColorScheme-Text{color:#232629;}.ColorScheme-NeutralText{color:#f67400;}.ColorScheme-NegativeText { color: #da4453; } </style>
  <g
     id="22-22-disk-quota-critical-7"
     transform="translate(32)">
    <rect
       style="opacity:0.00100002"
       width="22"
       height="22"
       x="-32"
       y="0"
       id="rect27-5" />
    <path
       id="icon_23_-7-8"
       style="fill:#da4453;fill-opacity:1;stroke-width:1;stroke-dasharray:none"
       d="M -15.78923,3 H -26.20977 C -26.64557,3 -27,3.188047 -27,3.756493 V 6.99195 c 0,0.568447 0,1.041342 1.01152,1.038338 L -15.78923,8 C -15,7.997656 -15,7.575134 -15,7.006687 V 3.756493 C -15,3.188047 -15.35439,3 -15.78923,3 Z M -16,7 H -26 V 4 h 10 z m -3,-2 v 0 0 h 2 v 0 0 1 h -2 z m 3.21079,4 H -26.21 c -0.4358,0 -0.78999,-0.06531 -0.78999,0.504451 v 2.992424 c 0,0.567765 0.5645,0.503138 1.0003,0.503125 L -16,12.999695 c 0.43484,-1.3e-5 1.00001,0.06497 1.00001,-0.50282 V 9.780631 C -14.99999,9.210846 -15.35438,9 -15.78921,9 Z M -16,12 h -10 v -2 h 10 z m 0,0 v 0 0 -2 0 z m 0.0796,2 H -26.00791 C -26.79815,14 -27,13.999906 -27,14.769701 l 2e-5,3.473203 c 0,0.569051 0.35442,0.757096 0.79022,0.757096 h 10.42056 c 0.43484,0 0.78923,-0.188019 0.78922,-0.757096 L -15,14.799486 C -15,13.999996 -15.48554,14 -15.92038,14 Z M -16,18 h -10 v -3 h 10 z m -3,-1 v -1 c 0,0 0.45846,-0.0025 0.59694,0 l 1.43238,0.02619 L -17,16 v 1 0 h -1 z"
       sodipodi:nodetypes="sssssssssccccccccccccccsssssssssccccccccccccccssssssssscccccccscccccc" />
  </g>
</svg>
