<?xml version="1.0" encoding="UTF-8" standalone="no"?>
<svg
   width="16"
   height="16"
   viewBox="0 0 16 16"
   fill="none"
   version="1.1"
   id="svg2"
   sodipodi:docname="elisa-symbolic.svg"
   inkscape:version="1.3.2 (091e20ef0f, 2023-11-25)"
   xmlns:inkscape="http://www.inkscape.org/namespaces/inkscape"
   xmlns:sodipodi="http://sodipodi.sourceforge.net/DTD/sodipodi-0.dtd"
   xmlns="http://www.w3.org/2000/svg"
   xmlns:svg="http://www.w3.org/2000/svg">
  <defs
     id="defs2" />
  <sodipodi:namedview
     id="namedview2"
     pagecolor="#ffffff"
     bordercolor="#999999"
     borderopacity="1"
     inkscape:showpageshadow="2"
     inkscape:pageopacity="0"
     inkscape:pagecheckerboard="0"
     inkscape:deskcolor="#d1d1d1"
     showgrid="true"
     inkscape:zoom="16.83798"
     inkscape:cx="10.215002"
     inkscape:cy="9.2647693"
     inkscape:window-width="1920"
     inkscape:window-height="996"
     inkscape:window-x="0"
     inkscape:window-y="0"
     inkscape:window-maximized="1"
     inkscape:current-layer="svg2">
    <inkscape:grid
       id="grid2"
       units="px"
       originx="0"
       originy="0"
       spacingx="1"
       spacingy="1"
       empcolor="#0099e5"
       empopacity="0.30196078"
       color="#0099e5"
       opacity="0.14902"
       empspacing="5"
       dotted="false"
       gridanglex="30"
       gridanglez="30"
       visible="true" />
  </sodipodi:namedview>
  <style
     type="text/css"
     id="current-color-scheme">.ColorScheme-Text { color: #fcfcfc; } </style>
  <path
     style="fill:none;stroke-width:0.999985"
     d="M -6.0000001e-8,0 V 16 H 16 V 0 Z"
     id="path11" />
  <path
     d="M 13.876546,8.942682 V 8.7742863 c 0,-0.6902312 -0.571769,-1.2794092 -1.318246,-1.4477839 C 12.304258,4.9024073 10.350651,3 8.0000518,3 5.6494604,3 3.6959205,4.902346 3.4417981,7.3265024 2.6794733,7.4948928 2.12356,8.0840551 2.12356,8.7742863 V 8.942682 C 1.6312318,9.0436752 1.25,9.5487403 1.25,10.137998 c 0,0.606068 0.3812076,1.094199 0.87356,1.195318 v 0.168395 C 2.12356,12.326658 2.91768,13 3.9023605,13 H 4.3653843 V 7.7812657 C 4.3971903,5.6432221 5.9670916,3.9092879 7.99999,3.9092879 c 2.048781,0 3.592982,1.7680368 3.634624,3.9561346 V 13 h 0.463019 c 0.968818,0 1.778796,-0.673326 1.778796,-1.498289 V 11.333316 C 14.368757,11.232341 14.75,10.727274 14.75,10.137998 14.75,9.531836 14.368792,9.043562 13.876429,8.9425628 Z"
     id="path67-6"
     style="fill:#1e2431;fill-opacity:1;stroke-width:0.0430426"
     sodipodi:nodetypes="cscscscscssccsscsscscc" />
  <path
     style="color:#31363b;fill:#1e2431;fill-opacity:1;stroke:none;stroke-width:0.717725"
     d="m 8.000386,5 v 6.212712 C 7.5173878,11.009543 6.956529,11.064452 6.358605,11.306102 5.3577597,11.710198 4.783891,12.596 5.076276,13.28472 c 0.2923785,0.688941 1.3415977,0.920672 2.3426662,0.516355 0.7896925,-0.319729 1.4412185,-1.150616 1.4412185,-1.651231 V 7.2499822 c 0,0 1.6789713,0.2247739 1.6789713,2.0247584 0,1.3499894 -0.462027,1.8006424 -1.6158678,2.9256334 C 10.077105,11.525379 11,10.62473 11,9.2747406 11,7.4747561 9.5754473,6.6652793 9.2106015,6.3095623 8.979829,6.0845634 8.6922649,5.2252142 8.6922649,5.2252142 Z"
     class="ColorScheme-Text"
     id="path9-3-7"
     sodipodi:nodetypes="cccccscscsscc" />
</svg>
