<svg width="128" height="128" viewBox="0 0 128 128" fill="none" xmlns="http://www.w3.org/2000/svg">
<rect width="128" height="128" rx="24" fill="url(#paint0_linear_79_2)"/>
<rect x="4" y="4" width="120" height="120" rx="20" stroke="black" stroke-opacity="0.25" stroke-width="8"/>
<g filter="url(#filter0_d_79_2)">
<circle cx="64" cy="64" r="40" fill="#D9D9D9"/>
</g>
<g clip-path="url(#clip0_79_2)">
<path d="M64 83.9911C75.0457 83.9911 84 75.0368 84 63.9911C84 52.9455 75.0457 43.9911 64 43.9911C52.9543 43.9911 44 52.9455 44 63.9911C44 75.0368 52.9543 83.9911 64 83.9911Z" fill="white"/>
<path d="M64 44H98.6353C95.1257 37.919 90.0768 32.8692 83.9964 29.3584C77.9161 25.8475 71.0185 23.9995 63.9974 24C56.9762 24.0004 50.0789 25.8495 43.999 29.3612C37.9192 32.8728 32.871 37.9233 29.3622 44.0049L46.6798 74L46.6953 73.996C44.9337 70.9581 44.004 67.5095 44.0001 63.9978C43.9961 60.4861 44.918 57.0354 46.6729 53.9935C48.4277 50.9517 50.9534 48.4262 53.9955 46.6717C57.0375 44.9172 60.4883 43.9957 64 44Z" fill="url(#paint1_linear_79_2)"/>
<path d="M64 79.8333C72.7445 79.8333 79.8334 72.7445 79.8334 64C79.8334 55.2555 72.7445 48.1667 64 48.1667C55.2555 48.1667 48.1667 55.2555 48.1667 64C48.1667 72.7445 55.2555 79.8333 64 79.8333Z" fill="#1A73E8"/>
<path d="M81.3189 74.0048L64.0012 104C71.0223 104.001 77.92 102.153 84.0006 98.643C90.0812 95.1326 95.1304 90.0832 98.6405 84.0025C102.151 77.9217 103.998 71.024 103.997 64.0029C103.995 56.9817 102.146 50.0847 98.6334 44.0052H63.9982L63.994 44.0207C67.5057 44.0139 70.9572 44.933 74.0004 46.6855C77.0437 48.4379 79.5711 50.9616 81.328 54.0023C83.0849 57.043 84.0092 60.4931 84.0075 64.0048C84.0059 67.5165 83.0785 70.9658 81.3189 74.0048Z" fill="url(#paint2_linear_79_2)"/>
<path d="M46.681 74.0052L29.3633 44.01C25.8519 50.09 24.0031 56.9873 24.0028 64.0085C24.0025 71.0297 25.8508 77.9272 29.3618 84.0074C32.8729 90.0877 37.9228 95.1364 44.0039 98.6459C50.0851 102.155 56.983 104.002 64.0042 104L81.3218 74.0048L81.3107 73.9935C79.5606 77.0381 77.0388 79.5675 73.9996 81.3268C70.9603 83.0861 67.5109 84.013 63.9992 84.0142C60.4875 84.0154 57.0375 83.0908 53.997 81.3335C50.9566 79.5763 48.4331 77.0486 46.681 74.0052Z" fill="url(#paint3_linear_79_2)"/>
<g filter="url(#filter1_d_79_2)">
<circle cx="64" cy="64" r="20" fill="white" fill-opacity="0.01" shape-rendering="crispEdges"/>
</g>
</g>
<defs>
<filter id="filter0_d_79_2" x="8" y="12" width="112" height="112" filterUnits="userSpaceOnUse" color-interpolation-filters="sRGB">
<feFlood flood-opacity="0" result="BackgroundImageFix"/>
<feColorMatrix in="SourceAlpha" type="matrix" values="0 0 0 0 0 0 0 0 0 0 0 0 0 0 0 0 0 0 127 0" result="hardAlpha"/>
<feOffset dy="4"/>
<feGaussianBlur stdDeviation="8"/>
<feComposite in2="hardAlpha" operator="out"/>
<feColorMatrix type="matrix" values="0 0 0 0 0 0 0 0 0 0 0 0 0 0 0 0 0 0 0.5 0"/>
<feBlend mode="normal" in2="BackgroundImageFix" result="effect1_dropShadow_79_2"/>
<feBlend mode="normal" in="SourceGraphic" in2="effect1_dropShadow_79_2" result="shape"/>
</filter>
<filter id="filter1_d_79_2" x="28" y="28" width="72" height="72" filterUnits="userSpaceOnUse" color-interpolation-filters="sRGB">
<feFlood flood-opacity="0" result="BackgroundImageFix"/>
<feColorMatrix in="SourceAlpha" type="matrix" values="0 0 0 0 0 0 0 0 0 0 0 0 0 0 0 0 0 0 127 0" result="hardAlpha"/>
<feOffset/>
<feGaussianBlur stdDeviation="8"/>
<feComposite in2="hardAlpha" operator="out"/>
<feColorMatrix type="matrix" values="0 0 0 0 0 0 0 0 0 0 0 0 0 0 0 0 0 0 0.5 0"/>
<feBlend mode="normal" in2="BackgroundImageFix" result="effect1_dropShadow_79_2"/>
<feBlend mode="normal" in="SourceGraphic" in2="effect1_dropShadow_79_2" result="shape"/>
</filter>
<linearGradient id="paint0_linear_79_2" x1="65" y1="2.37632e-08" x2="64.9997" y2="128" gradientUnits="userSpaceOnUse">
<stop stop-color="#FFBF47"/>
<stop offset="1" stop-color="#A14721"/>
</linearGradient>
<linearGradient id="paint1_linear_79_2" x1="29.3622" y1="49" x2="98.6353" y2="49" gradientUnits="userSpaceOnUse">
<stop stop-color="#D93025"/>
<stop offset="1" stop-color="#EA4335"/>
</linearGradient>
<linearGradient id="paint2_linear_79_2" x1="58.5365" y1="103.465" x2="93.1732" y2="43.4728" gradientUnits="userSpaceOnUse">
<stop stop-color="#FCC934"/>
<stop offset="1" stop-color="#FBBC04"/>
</linearGradient>
<linearGradient id="paint3_linear_79_2" x1="68.3302" y1="101.502" x2="33.6935" y2="41.51" gradientUnits="userSpaceOnUse">
<stop stop-color="#1E8E3E"/>
<stop offset="1" stop-color="#34A853"/>
</linearGradient>
<clipPath id="clip0_79_2">
<rect width="80" height="80" fill="white" transform="translate(24 24)"/>
</clipPath>
</defs>
</svg>
