<svg width="128" height="128" viewBox="0 0 128 128" fill="none" xmlns="http://www.w3.org/2000/svg">
<rect width="128" height="128" rx="24" fill="url(#paint0_linear_111_74)"/>
<rect x="4" y="4" width="120" height="120" rx="20" stroke="black" stroke-opacity="0.25" stroke-width="8"/>
<g filter="url(#filter0_d_111_74)">
<path d="M60.792 24.6484C62.8063 23.7841 65.0873 23.7841 67.1016 24.6484L89.1133 34.0928C92.6133 35.5946 94.5694 39.3562 93.7891 43.084L84.6943 86.5215C84.346 88.1853 83.4836 89.6913 82.2041 90.8105C77.683 94.7651 66.6814 104.135 63.9473 104.136C61.2018 104.136 50.4793 94.6843 46.1455 90.7598C44.9421 89.67 44.1258 88.2339 43.7764 86.6484L34.1875 43.1387C33.3611 39.3883 35.3166 35.5799 38.8457 34.0654L60.792 24.6484ZM65.2344 86.4229C64.5164 85.7297 63.3781 85.7297 62.6602 86.4229C62.3711 86.7019 62.1805 87.0672 62.1172 87.4639L61.2754 92.7441C61.1453 93.5613 61.5322 94.3742 62.248 94.7891L62.9443 95.1924C63.5644 95.5516 64.3292 95.5515 64.9492 95.1924L65.6455 94.7891C66.3616 94.3742 66.7483 93.5614 66.6182 92.7441L65.7764 87.4639C65.7131 87.0673 65.5232 86.7018 65.2344 86.4229ZM54.8506 80.4307C54.064 80.2679 53.2563 80.592 52.7998 81.2529L51.9697 82.4541C51.5264 83.0962 51.4971 83.9379 51.8945 84.6094L52.875 86.2656C53.2852 86.9587 54.0713 87.3384 54.8691 87.2285L60.8301 86.4062C61.3472 86.3349 61.8165 86.0646 62.1367 85.6523L62.416 85.292C62.9768 84.5701 62.9768 83.5597 62.416 82.8379L62.0889 82.417C61.797 82.0414 61.3809 81.7819 60.915 81.6855L54.8506 80.4307ZM75.0947 81.2529C74.6383 80.592 73.8305 80.2681 73.0439 80.4307L66.9785 81.6855C66.5127 81.782 66.0965 82.0414 65.8047 82.417L65.4775 82.8379C64.9168 83.5597 64.9168 84.5701 65.4775 85.292L65.7568 85.6523C66.0771 86.0646 66.5463 86.3349 67.0635 86.4062L73.0244 87.2285C73.8223 87.3385 74.6083 86.9588 75.0186 86.2656L75.999 84.6094C76.3965 83.9378 76.3672 83.0962 75.9238 82.4541L75.0947 81.2529ZM64.8008 34.7314C64.411 34.092 63.4824 34.0919 63.0928 34.7314L58.3477 42.5195C58.2337 42.7067 58.1851 42.9266 58.208 43.1445L62.1641 80.8008C62.1958 81.1022 62.3633 81.3731 62.6182 81.5371L63.4053 82.0439C63.7349 82.2561 64.1587 82.2561 64.4883 82.0439L65.2764 81.5371C65.5312 81.3731 65.6978 81.1021 65.7295 80.8008L69.6865 43.1445C69.7094 42.9266 69.6599 42.7067 69.5459 42.5195L64.8008 34.7314Z" fill="url(#paint1_linear_111_74)"/>
</g>
<defs>
<filter id="filter0_d_111_74" x="17.9992" y="12.0002" width="91.9604" height="112.136" filterUnits="userSpaceOnUse" color-interpolation-filters="sRGB">
<feFlood flood-opacity="0" result="BackgroundImageFix"/>
<feColorMatrix in="SourceAlpha" type="matrix" values="0 0 0 0 0 0 0 0 0 0 0 0 0 0 0 0 0 0 127 0" result="hardAlpha"/>
<feOffset dy="4"/>
<feGaussianBlur stdDeviation="8"/>
<feComposite in2="hardAlpha" operator="out"/>
<feColorMatrix type="matrix" values="0 0 0 0 0 0 0 0 0 0 0 0 0 0 0 0 0 0 0.5 0"/>
<feBlend mode="normal" in2="BackgroundImageFix" result="effect1_dropShadow_111_74"/>
<feBlend mode="normal" in="SourceGraphic" in2="effect1_dropShadow_111_74" result="shape"/>
</filter>
<linearGradient id="paint0_linear_111_74" x1="64" y1="0" x2="64" y2="128" gradientUnits="userSpaceOnUse">
<stop stop-color="#17CEFA"/>
<stop offset="1" stop-color="#0E2C4E"/>
</linearGradient>
<linearGradient id="paint1_linear_111_74" x1="63.9802" y1="24" x2="63.9802" y2="104.136" gradientUnits="userSpaceOnUse">
<stop stop-color="white"/>
<stop offset="1" stop-color="#59A6B8"/>
</linearGradient>
</defs>
</svg>
