<svg width="128" height="128" viewBox="0 0 128 128" fill="none" xmlns="http://www.w3.org/2000/svg">
<rect width="128" height="128" rx="24" fill="url(#paint0_linear_25_115)"/>
<rect x="4" y="4" width="120" height="120" rx="20" stroke="black" stroke-opacity="0.25" stroke-width="8"/>
<g filter="url(#filter0_d_25_115)">
<rect x="24" y="24" width="80" height="80" rx="12" fill="url(#paint1_linear_25_115)"/>
<path d="M104 50.0869H24V50.9565H104V50.0869Z" fill="black" fill-opacity="0.1"/>
<path d="M104 77.0435H24V77.9131H104V77.0435Z" fill="black" fill-opacity="0.1"/>
<path fill-rule="evenodd" clip-rule="evenodd" d="M42.4811 86.2962C42.4563 86.2962 42.4308 86.2916 42.4052 86.2826L38.2057 84.7809C38.0816 84.7363 37.9899 84.6668 37.9274 84.5702C37.8688 84.4795 37.8395 84.367 37.8395 84.2363C37.8395 84.1819 37.8432 84.1351 37.853 84.0928C37.859 84.0656 37.8944 83.9802 37.9086 83.9576L38.1651 83.496C38.2335 83.3827 38.311 83.2959 38.3997 83.2347C38.4967 83.1652 38.6088 83.1304 38.7239 83.1304C38.7434 83.1304 38.8216 83.1395 38.8419 83.1448C38.8788 83.1538 38.9179 83.1682 38.9555 83.1878L42.8045 85.4464C42.9061 85.5061 42.9452 85.636 42.8925 85.7425L42.6834 86.17C42.6458 86.2471 42.5669 86.2962 42.4811 86.2962ZM41.2011 89.301C41.1395 89.3018 41.0846 89.341 41.0628 89.4L40.0219 92.2537C40.0054 92.299 40.0121 92.3512 40.04 92.3912C40.0685 92.432 40.1144 92.4562 40.1633 92.4562H42.3571C42.4067 92.4562 42.4541 92.4312 42.4819 92.3889C42.5097 92.3481 42.515 92.2945 42.4969 92.2484L41.3433 89.3954C41.3207 89.338 41.2651 89.301 41.2041 89.301H41.2011ZM43.3987 97.0435C42.9249 97.0435 42.6421 96.9914 42.4819 96.8765C42.3052 96.7481 42.2157 96.5329 42.2157 96.2352C42.2157 95.8802 42.3736 95.702 42.506 95.6143C42.6714 95.5048 42.9444 95.4519 43.3422 95.4519H43.531C43.5806 95.4519 43.6273 95.427 43.6559 95.3847C43.6837 95.3439 43.6889 95.2903 43.6701 95.2442L43.1963 94.0779C43.173 94.0213 43.1181 93.9835 43.0572 93.9835H39.4872C39.424 93.9835 39.3669 94.0228 39.3458 94.0832L38.9254 95.2495C38.9089 95.2956 38.9156 95.3469 38.9435 95.3877C38.9713 95.4278 39.0179 95.4519 39.0668 95.4519H39.312C39.7136 95.4519 39.9896 95.504 40.158 95.6136C40.3543 95.7405 40.4543 95.9497 40.4543 96.2352C40.4543 96.6046 40.3092 96.7882 40.1874 96.8765C40.0294 96.9898 39.7459 97.0435 39.2954 97.0435H37.1799C36.7723 97.0435 36.5203 96.9914 36.3624 96.8743C36.1887 96.7466 36.1014 96.5313 36.1014 96.2352C36.1014 95.8795 36.2443 95.7019 36.3647 95.6158C36.5038 95.5154 36.7264 95.4625 37.0445 95.4534C37.1054 95.4512 37.1596 95.4126 37.1806 95.3552L39.6324 88.8334C39.6496 88.7874 39.6436 88.7352 39.6151 88.6952C39.5872 88.6536 39.5414 88.6295 39.4917 88.6295H38.8615C38.4794 88.6295 38.2207 88.5751 38.047 88.458C37.8507 88.3251 37.7507 88.1098 37.7507 87.822C37.7507 87.5297 37.8432 87.3083 38.0177 87.1814C38.132 87.0984 38.3501 87.0138 39.0946 87.0138H41.3869C41.7396 87.0138 41.9728 87.0659 42.1209 87.1754C42.2608 87.2804 42.3781 87.4526 42.4811 87.7026L45.5337 95.359C45.5555 95.4142 45.6082 95.4519 45.6676 95.4542C45.9496 95.4648 46.1512 95.5184 46.285 95.6181C46.4512 95.7443 46.5362 95.9512 46.5362 96.2352C46.5362 96.5268 46.4565 96.7391 46.3001 96.8675C46.1534 96.9876 45.9271 97.0435 45.5864 97.0435H43.3987Z" fill="#E3450D"/>
<path fill-rule="evenodd" clip-rule="evenodd" d="M43.71 59.1105C43.0912 59.1105 42.5729 59.3915 42.1695 59.9443C41.6648 60.6962 41.4309 61.9882 41.4309 64.0152C41.4309 65.7629 41.6937 67.1857 42.1695 68.0203C42.5464 68.5764 43.1097 68.8895 43.7245 68.8895C45.2698 68.8895 45.9891 67.3359 45.9891 64C45.9891 61.9662 45.7616 60.6743 45.2738 59.935C44.8656 59.3924 44.3272 59.1105 43.71 59.1105ZM43.6955 70.087C40.9271 70.087 39.3198 68.1207 39.1696 64.5502C39.1664 64.4599 39.0948 64.3882 39.0088 64.3882H37.854C37.7656 64.3882 37.6933 64.4641 37.6933 64.5578V67.7747C37.6933 68.4532 37.7456 68.5688 37.8034 68.6372C37.8741 68.703 37.973 68.7536 38.4977 68.7536C38.6311 68.7536 38.7388 68.8676 38.7388 69.0068V69.6085C38.7388 69.7477 38.6311 69.8616 38.4977 69.8616H34.6034C34.47 69.8616 34.3623 69.7477 34.3623 69.6085V69.0068C34.3623 68.8676 34.47 68.7536 34.6034 68.7536C35.4054 68.7536 35.4793 68.6718 35.4793 67.7747V60.2261C35.4793 59.5451 35.4287 59.4337 35.3676 59.3662C35.2993 59.2987 35.1957 59.2456 34.6034 59.2456C34.47 59.2456 34.3623 59.1325 34.3623 58.9924V58.3915C34.3623 58.2515 34.47 58.1384 34.6034 58.1384H38.4977C38.6311 58.1384 38.7388 58.2515 38.7388 58.3915V58.9924C38.7388 59.1325 38.6311 59.2456 38.4977 59.2456C37.9786 59.2456 37.8782 59.2928 37.8203 59.3409C37.7423 59.4346 37.6933 59.5519 37.6933 60.2261V62.9772C37.6933 63.07 37.7656 63.146 37.854 63.146H39.0394C39.123 63.146 39.1921 63.0785 39.1993 62.9916C39.4669 59.7637 41.1111 57.9131 43.71 57.9131C46.6111 57.9131 48.2754 60.1308 48.2754 64C48.2754 66.0566 47.8462 67.6296 47.0008 68.6743C46.1932 69.5975 45.0496 70.087 43.6955 70.087Z" fill="#1595E0"/>
<path fill-rule="evenodd" clip-rule="evenodd" d="M40.6071 32.006C40.5894 32.006 40.5725 32.0092 40.5556 32.0148C40.2025 32.1346 39.7785 32.2615 39.2203 32.4134C39.1503 32.4327 39.1012 32.4962 39.1012 32.5685V34.6828C39.1012 34.7528 39.1479 34.8146 39.2146 34.8355C39.2307 34.8411 39.2468 34.8436 39.2629 34.8436C39.3144 34.8436 39.3642 34.8186 39.3948 34.7736L39.9523 33.9708C39.9901 33.9162 40.0496 33.88 40.1148 33.8696H40.1317C40.2121 33.8696 40.2596 33.8873 40.3006 33.9194L41.1533 34.596C41.1822 34.6185 41.2176 34.6314 41.253 34.6314C41.2772 34.6314 41.3005 34.6258 41.323 34.6153C41.3785 34.588 41.4139 34.5318 41.4139 34.4699V32.4761C41.4139 32.415 41.4364 32.3572 41.4783 32.313C41.5257 32.2607 41.5346 32.1844 41.4984 32.1233C41.4694 32.0727 41.4163 32.043 41.36 32.043C41.348 32.043 41.3359 32.0446 41.3238 32.047C41.249 32.0638 41.1678 32.0727 41.0817 32.0727C40.9482 32.0727 40.8058 32.0526 40.6481 32.0116C40.6344 32.0076 40.6208 32.006 40.6071 32.006ZM39.2629 35.7099C39.1736 35.7099 39.1012 35.7822 39.1012 35.8706V36.7538C39.1012 36.8253 39.1487 36.8872 39.2162 36.9081C40.0939 37.1733 40.739 37.5333 41.1324 37.9777C41.1637 38.013 41.208 38.0323 41.253 38.0323C41.2723 38.0323 41.2916 38.0291 41.3102 38.0219C41.3729 37.9986 41.4139 37.9383 41.4139 37.8716V35.8409C41.4139 35.7934 41.393 35.7484 41.356 35.7179C41.327 35.6938 41.2908 35.6801 41.253 35.6801C41.2442 35.6801 41.2337 35.6817 41.2249 35.6833C41.1066 35.705 40.9852 35.7099 40.8669 35.7099H39.2629ZM43.577 33.6904C43.4885 33.6904 43.4161 33.7627 43.4161 33.8511V41.1383C43.4161 41.2267 43.4885 41.299 43.577 41.299H45.4819C45.5704 41.299 45.6428 41.2267 45.6428 41.1383V33.8511C45.6428 33.7627 45.5704 33.6904 45.4819 33.6904H43.577ZM37.3701 44C37.2365 44 37.1288 43.8923 37.1288 43.7589V39.7673C37.1288 39.6982 37.0837 39.6363 37.0177 39.6146C37.0008 39.609 36.984 39.6066 36.9679 39.6066C36.9172 39.6066 36.8689 39.6307 36.8376 39.6733C36.2881 40.4255 35.647 41.115 34.9319 41.7233C34.8884 41.7603 34.8329 41.7812 34.775 41.7812C34.7074 41.7812 34.6439 41.7531 34.598 41.7032L34.4259 41.5176C34.3495 41.434 34.3406 41.3071 34.4066 41.2146C35.3421 39.8903 36.1248 38.005 36.6107 35.9067C36.622 35.8593 36.6107 35.8087 36.5801 35.7709C36.5496 35.7324 36.5029 35.7099 36.4538 35.7099H34.7605C34.6495 35.7099 34.5538 35.6351 34.5264 35.5274L34.4548 35.2405C34.4371 35.1682 34.4532 35.0927 34.4991 35.034C34.5449 34.9754 34.6141 34.9416 34.6897 34.9416H36.9679C37.0564 34.9416 37.1288 34.8693 37.1288 34.7809V33.0909C37.1288 33.0435 37.107 32.9976 37.0708 32.9671C37.0411 32.943 37.0049 32.9301 36.9679 32.9301C36.9574 32.9301 36.9486 32.9309 36.9381 32.9326C36.2262 33.0635 35.4724 33.1769 34.7597 33.2596H34.7557C34.6238 33.2596 34.5329 33.1913 34.5015 33.0909L34.4436 32.9044C34.4058 32.7791 34.4725 32.6481 34.5964 32.6063C36.2994 32.0253 38.5067 30.9388 39.6217 30.1328C39.6635 30.103 39.7126 30.0869 39.7632 30.0869C39.8187 30.0869 39.871 30.1054 39.9145 30.14L41.6343 31.5142C41.6874 31.5568 41.7204 31.6211 41.7244 31.6894C41.7284 31.7577 41.7027 31.8244 41.6536 31.8726C41.6287 31.8983 41.6014 31.9216 41.5716 31.9409C41.5137 31.9811 41.4879 32.0534 41.508 32.1209C41.5281 32.1876 41.5893 32.2342 41.6601 32.235C41.6914 32.2358 41.722 32.2422 41.751 32.2551L43.2657 32.9093L45.5382 32.9221C45.5889 32.9221 45.6371 32.898 45.6677 32.8578L46.1777 32.1739C46.2236 32.1129 46.2944 32.0775 46.3716 32.0775C46.4231 32.0775 46.4721 32.0936 46.5132 32.1233L48.1767 33.3408C48.2813 33.4171 48.3062 33.5618 48.2346 33.6687C48.1478 33.7989 47.9893 33.9098 47.7624 33.9974C47.6997 34.0207 47.6587 34.0809 47.6587 34.1468V42.7857C47.6587 43.0951 46.9001 43.4415 45.8841 43.4415C45.7506 43.4415 45.6428 43.3338 45.6428 43.2012V42.228C45.6428 42.1396 45.5704 42.0673 45.4819 42.0673H43.577C43.4885 42.0673 43.4161 42.1396 43.4161 42.228V42.8717C43.4161 43.0493 43.1177 43.7139 41.6552 43.7139C41.5225 43.7139 41.4139 43.6062 41.4139 43.4728V39.9441C41.4139 39.883 41.3793 39.8276 41.3246 39.8003C41.3021 39.789 41.2772 39.7834 41.253 39.7834C41.2184 39.7834 41.1839 39.7947 41.1557 39.8172C40.994 39.9401 40.8001 40.0052 40.595 40.0052C40.332 40.0052 40.0746 39.8871 39.8509 39.6629C39.8139 39.6259 39.7898 39.5777 39.7825 39.5254C39.7391 39.2169 39.6088 38.8504 39.4045 38.4663C39.3763 38.4124 39.3208 38.3803 39.2629 38.3803C39.25 38.3803 39.2363 38.3819 39.2235 38.3851C39.1519 38.4028 39.1012 38.4679 39.1012 38.541V43.3298C39.0545 43.6769 38.3716 44 37.642 44H37.3701Z" fill="#C057EA"/>
</g>
<defs>
<filter id="filter0_d_25_115" x="8" y="8" width="112" height="112" filterUnits="userSpaceOnUse" color-interpolation-filters="sRGB">
<feFlood flood-opacity="0" result="BackgroundImageFix"/>
<feColorMatrix in="SourceAlpha" type="matrix" values="0 0 0 0 0 0 0 0 0 0 0 0 0 0 0 0 0 0 127 0" result="hardAlpha"/>
<feOffset/>
<feGaussianBlur stdDeviation="8"/>
<feComposite in2="hardAlpha" operator="out"/>
<feColorMatrix type="matrix" values="0 0 0 0 0 0 0 0 0 0 0 0 0 0 0 0 0 0 0.5 0"/>
<feBlend mode="normal" in2="BackgroundImageFix" result="effect1_dropShadow_25_115"/>
<feBlend mode="normal" in="SourceGraphic" in2="effect1_dropShadow_25_115" result="shape"/>
</filter>
<linearGradient id="paint0_linear_25_115" x1="65" y1="-6.52726e-07" x2="65" y2="128" gradientUnits="userSpaceOnUse">
<stop stop-color="#FFDA48"/>
<stop offset="1" stop-color="#E88019"/>
</linearGradient>
<linearGradient id="paint1_linear_25_115" x1="64" y1="24" x2="64" y2="104" gradientUnits="userSpaceOnUse">
<stop stop-color="white"/>
<stop offset="1" stop-color="#BFBFBF"/>
</linearGradient>
</defs>
</svg>
