<svg width="128" height="128" viewBox="0 0 128 128" fill="none" xmlns="http://www.w3.org/2000/svg">
<rect width="128" height="128" rx="24" fill="url(#paint0_linear_116_93)"/>
<rect x="4" y="4" width="120" height="120" rx="20" stroke="black" stroke-opacity="0.25" stroke-width="8"/>
<g filter="url(#filter0_d_116_93)">
<path fill-rule="evenodd" clip-rule="evenodd" d="M55.9208 92.2155C58.657 97.0436 65.6842 97.3052 68.7908 92.6945L97.7589 49.7024C100.831 45.1432 97.8917 39.0304 92.3288 38.4092L35.3913 32.0507C29.3209 31.3729 24.9987 37.6551 27.9513 42.8649L55.9208 92.2155Z" fill="url(#paint1_linear_116_93)"/>
<path fill-rule="evenodd" clip-rule="evenodd" d="M55.9208 92.2155C58.657 97.0436 65.6842 97.3052 68.7908 92.6945L97.7589 49.7024C100.831 45.1432 97.8917 39.0304 92.3288 38.4092L35.3913 32.0507C29.3209 31.3729 24.9987 37.6551 27.9513 42.8649L55.9208 92.2155Z" fill="url(#paint2_linear_116_93)"/>
</g>
<g filter="url(#filter1_d_116_93)">
<path d="M60.1229 83.9491L57.5521 87.7126C56.5104 89.2376 54.1796 89.1436 53.2708 87.5401L55.9208 92.2158C56.3932 93.0496 56.9938 93.7472 57.6797 94.307L57.6799 94.3066C60.9672 96.9884 66.2206 96.5086 68.7908 92.6941L97.7589 49.7021C100.831 45.1429 97.8917 39.0304 92.3288 38.4091L35.3913 32.0505C29.3209 31.3727 24.9987 37.6551 27.9513 42.8646L28.1761 43.2613L76.6395 48.7223C79.7288 49.0703 81.3582 52.466 79.6509 54.9971L60.1229 83.9491Z" fill="white" fill-opacity="0.5" shape-rendering="crispEdges"/>
</g>
<defs>
<filter id="filter0_d_116_93" x="11" y="20.0002" width="104" height="95.9998" filterUnits="userSpaceOnUse" color-interpolation-filters="sRGB">
<feFlood flood-opacity="0" result="BackgroundImageFix"/>
<feColorMatrix in="SourceAlpha" type="matrix" values="0 0 0 0 0 0 0 0 0 0 0 0 0 0 0 0 0 0 127 0" result="hardAlpha"/>
<feOffset dy="4"/>
<feGaussianBlur stdDeviation="8"/>
<feComposite in2="hardAlpha" operator="out"/>
<feColorMatrix type="matrix" values="0 0 0 0 0 0 0 0 0 0 0 0 0 0 0 0 0 0 0.5 0"/>
<feBlend mode="normal" in2="BackgroundImageFix" result="effect1_dropShadow_116_93"/>
<feBlend mode="normal" in="SourceGraphic" in2="effect1_dropShadow_116_93" result="shape"/>
</filter>
<filter id="filter1_d_116_93" x="11" y="20" width="104" height="95.9998" filterUnits="userSpaceOnUse" color-interpolation-filters="sRGB">
<feFlood flood-opacity="0" result="BackgroundImageFix"/>
<feColorMatrix in="SourceAlpha" type="matrix" values="0 0 0 0 0 0 0 0 0 0 0 0 0 0 0 0 0 0 127 0" result="hardAlpha"/>
<feOffset dy="4"/>
<feGaussianBlur stdDeviation="8"/>
<feComposite in2="hardAlpha" operator="out"/>
<feColorMatrix type="matrix" values="0 0 0 0 0 0 0 0 0 0 0 0 0 0 0 0 0 0 0.25 0"/>
<feBlend mode="normal" in2="BackgroundImageFix" result="effect1_dropShadow_116_93"/>
<feBlend mode="normal" in="SourceGraphic" in2="effect1_dropShadow_116_93" result="shape"/>
</filter>
<linearGradient id="paint0_linear_116_93" x1="64" y1="0" x2="64" y2="128" gradientUnits="userSpaceOnUse">
<stop stop-color="#9CE7FB"/>
<stop offset="1" stop-color="#3C0E7C"/>
</linearGradient>
<linearGradient id="paint1_linear_116_93" x1="62.9265" y1="32" x2="62.9265" y2="96.0769" gradientUnits="userSpaceOnUse">
<stop stop-color="white"/>
<stop offset="0.988738" stop-color="#BBAEF4"/>
</linearGradient>
<linearGradient id="paint2_linear_116_93" x1="27" y1="67.6559" x2="98.9579" y2="59.9513" gradientUnits="userSpaceOnUse">
<stop stop-color="white" stop-opacity="0"/>
<stop offset="1" stop-color="#57BEE3"/>
</linearGradient>
</defs>
</svg>
