<svg width="128" height="128" viewBox="0 0 128 128" fill="none" xmlns="http://www.w3.org/2000/svg">
<rect width="128" height="128" rx="24" fill="url(#paint0_linear_58_6)"/>
<rect x="4" y="4" width="120" height="120" rx="20" stroke="black" stroke-opacity="0.25" stroke-width="8"/>
<g filter="url(#filter0_d_58_6)">
<path d="M84.6987 82.4892C85.2361 84.1343 86.7704 85.2472 88.501 85.2472H96C98.2091 85.2472 100 87.0381 100 89.2472V95.9718C100 98.181 98.2091 99.9718 96 99.9718H32C29.7909 99.9718 28 98.181 28 95.9718V89.2472C28 87.0381 29.7909 85.2472 32 85.2472H39.499C41.2296 85.2472 42.7639 84.1343 43.3013 82.4892L44.52 78.7582C45.0574 77.1131 46.5917 76.0002 48.3223 76.0002H79.6777C81.4083 76.0002 82.9426 77.1131 83.48 78.7582L84.6987 82.4892ZM78.2546 62.7582C79.0992 65.3439 77.1724 68.0002 74.4523 68.0002H53.5477C50.8276 68.0002 48.9008 65.3439 49.7454 62.7582L52.0318 55.7582C52.5691 54.1131 54.1034 53.0002 55.8341 53.0002H72.1659C73.8966 53.0002 75.4309 54.1131 75.9682 55.7582L78.2546 62.7582ZM70.7419 39.7582C71.5865 42.3439 69.6597 45.0002 66.9396 45.0002H61.0604C58.3403 45.0002 56.4135 42.3439 57.2581 39.7582L60.1977 30.7584C61.3988 27.081 66.6012 27.081 67.8023 30.7584L70.7419 39.7582Z" fill="url(#paint1_linear_58_6)"/>
</g>
<defs>
<filter id="filter0_d_58_6" x="12" y="16.0003" width="104" height="103.972" filterUnits="userSpaceOnUse" color-interpolation-filters="sRGB">
<feFlood flood-opacity="0" result="BackgroundImageFix"/>
<feColorMatrix in="SourceAlpha" type="matrix" values="0 0 0 0 0 0 0 0 0 0 0 0 0 0 0 0 0 0 127 0" result="hardAlpha"/>
<feOffset dy="4"/>
<feGaussianBlur stdDeviation="8"/>
<feComposite in2="hardAlpha" operator="out"/>
<feColorMatrix type="matrix" values="0 0 0 0 0 0 0 0 0 0 0 0 0 0 0 0 0 0 0.5 0"/>
<feBlend mode="normal" in2="BackgroundImageFix" result="effect1_dropShadow_58_6"/>
<feBlend mode="normal" in="SourceGraphic" in2="effect1_dropShadow_58_6" result="shape"/>
</filter>
<linearGradient id="paint0_linear_58_6" x1="64" y1="0" x2="64" y2="128" gradientUnits="userSpaceOnUse">
<stop stop-color="#FFD359"/>
<stop offset="1" stop-color="#D84E13"/>
</linearGradient>
<linearGradient id="paint1_linear_58_6" x1="64" y1="28" x2="64" y2="99.9718" gradientUnits="userSpaceOnUse">
<stop stop-color="white"/>
<stop offset="1" stop-color="#FFE1C3"/>
</linearGradient>
</defs>
</svg>
