<?xml version="1.0" encoding="UTF-8" standalone="no"?>
<svg
   viewBox="0 0 16 16"
   version="1.1"
   id="svg6"
   sodipodi:docname="folder-projects.svg"
   inkscape:version="1.3.2 (091e20ef0f, 2023-11-25)"
   xmlns:inkscape="http://www.inkscape.org/namespaces/inkscape"
   xmlns:sodipodi="http://sodipodi.sourceforge.net/DTD/sodipodi-0.dtd"
   xmlns="http://www.w3.org/2000/svg"
   xmlns:svg="http://www.w3.org/2000/svg"
   xmlns:rdf="http://www.w3.org/1999/02/22-rdf-syntax-ns#"
   xmlns:cc="http://creativecommons.org/ns#"
   xmlns:dc="http://purl.org/dc/elements/1.1/">
  <metadata
     id="metadata10">
    <rdf:RDF>
      <cc:Work
         rdf:about="">
        <dc:format>image/svg+xml</dc:format>
        <dc:type
           rdf:resource="http://purl.org/dc/dcmitype/StillImage" />
      </cc:Work>
    </rdf:RDF>
  </metadata>
  <sodipodi:namedview
     pagecolor="#ffffff"
     bordercolor="#666666"
     borderopacity="1"
     objecttolerance="10"
     gridtolerance="10"
     guidetolerance="10"
     inkscape:pageopacity="0"
     inkscape:pageshadow="2"
     inkscape:window-width="1920"
     inkscape:window-height="994"
     id="namedview8"
     showgrid="true"
     inkscape:zoom="19.625"
     inkscape:cx="8.7643312"
     inkscape:cy="5.656051"
     inkscape:window-x="0"
     inkscape:window-y="0"
     inkscape:window-maximized="1"
     inkscape:current-layer="svg6"
     inkscape:showpageshadow="2"
     inkscape:pagecheckerboard="0"
     inkscape:deskcolor="#d1d1d1">
    <inkscape:grid
       type="xygrid"
       id="grid863"
       originx="0"
       originy="0"
       spacingy="1"
       spacingx="1"
       units="px"
       visible="true" />
  </sodipodi:namedview>
  <defs
     id="defs3051">
    <style
       type="text/css"
       id="current-color-scheme">.ColorScheme-Text { color:#eff0f1; }
</style>
  </defs>
  <path
     d="m 13.087532,8.8725724 -0.23224,-0.13025 c -0.276285,-0.15475 -0.441377,-0.432425 -0.441377,-0.742275 0,-0.30985 0.165038,-0.587575 0.441377,-0.7423 l 0.23224,-0.13025 c 0.6338,-0.355725 0.850516,-1.14085 0.484625,-1.756275 l -0.441375,-0.742275 c -0.365011,-0.61415 -1.176701,-0.825 -1.808731,-0.470575 l -0.232239,0.12975 c -0.276284,0.15525 -0.606903,0.15525 -0.882752,0 C 9.930775,4.1328724 9.765683,3.8556974 9.765683,3.5458474 V 3.2857149 C 9.765758,2.576857 9.1716678,2 8.4416377,2 H 7.5588856 C 6.8288626,2 6.2347569,2.57685 6.2347569,3.2857249 v 0.260575 c 0,0.30985 -0.1650365,0.58715 -0.4413765,0.742275 -0.2762882,0.15475 -0.6064382,0.15525 -0.8827525,0 l -0.2322354,-0.13025 c -0.6320564,-0.354425 -1.4437221,-0.1435 -1.8091973,0.470575 l -0.4413761,0.742275 c -0.3658867,0.615425 -0.1490738,1.401 0.484631,1.756275 l 0.2324927,0.13025 c 0.2762883,0.15475 0.4413761,0.432425 0.4413761,0.7423 0,0.30985 -0.1650365,0.587575 -0.4413761,0.742275 l -0.2322355,0.13025 C 2.2789001,9.2278249 2.0621896,10.013375 2.4280764,10.628825 L 2.869453,11.3711 c 0.3654487,0.61415 1.1771402,0.825 1.8087334,0.470575 l 0.2322358,-0.12975 c 0.2763139,-0.1555 0.6064383,-0.15475 0.8827522,0 0.2762882,0.15525 0.4413765,0.432425 0.4413765,0.742275 v 0.26015 c 0,0.70885 0.59408,1.285725 1.3241285,1.285725 h 0.8827523 c 0.7300232,0 1.3241243,-0.57685 1.3241243,-1.285725 v -0.260575 c 0,-0.30985 0.16504,-0.58715 0.441378,-0.7423 0.275855,-0.15475 0.606441,-0.15525 0.882754,0 l 0.232239,0.13025 c 0.632057,0.354 1.443723,0.14325 1.808734,-0.470575 l 0.441373,-0.742275 C 13.937949,10.01345 13.721104,9.2278749 13.087407,8.8725749 Z M 8.0002669,10.142873 c -1.216868,0 -2.2068554,-0.9612756 -2.2068554,-2.1428506 0,-1.181575 0.9899874,-2.14285 2.2068554,-2.14285 1.2168679,0 2.2068581,0.961275 2.2068581,2.14285 0,1.181575 -0.9899902,2.1428506 -2.2068581,2.1428506 z"
     id="XMLID_273_"
     style="fill:#1e2431;fill-opacity:1" />
</svg>
