<svg width="64" height="64" viewBox="0 0 64 64" fill="none" xmlns="http://www.w3.org/2000/svg">
<path d="M28.25 2H9C6.79086 2 5 3.79086 5 6V58C5 60.2091 6.79086 62 9 62H55C57.2091 62 59 60.2091 59 58V13.5C59 11.2909 57.2091 9.5 55 9.5H35.75C33.6789 9.5 32 7.82107 32 5.75C32 3.67893 30.3211 2 28.25 2Z" fill="url(#paint0_linear_4_5)"/>
<rect x="2" y="17" width="60" height="45" rx="4" fill="url(#paint1_linear_4_5)"/>
<g clip-path="url(#clip0_4_5)">
<g filter="url(#filter0_i_4_5)">
<path d="M32 29.6562C29.6874 29.6562 27.7812 31.5624 27.7812 33.875V39.9779C27.1386 39.6758 26.4244 39.5 25.6719 39.5C22.9692 39.5 20.75 41.7192 20.75 44.4219C20.75 47.1245 22.9692 49.3438 25.6719 49.3438C28.3635 49.3438 30.5828 47.1355 30.5938 44.4438C30.5938 44.4384 30.5938 44.4274 30.5938 44.4219V33.875C30.5938 33.084 31.209 32.4688 32 32.4688H37.625C38.416 32.4688 39.0312 33.084 39.0312 33.875V39.9779C38.3885 39.6758 37.6744 39.5 36.9219 39.5C34.2192 39.5 32 41.7192 32 44.4219C32 47.1245 34.2192 49.3438 36.9219 49.3438C39.6245 49.3438 41.8438 47.1245 41.8438 44.4219V33.875C41.8438 31.5624 39.9376 29.6562 37.625 29.6562H32ZM25.6719 42.3125C26.8529 42.3125 27.7812 43.2408 27.7812 44.4219V44.4438C27.7703 45.6139 26.8474 46.5312 25.6719 46.5312C24.4908 46.5312 23.5625 45.6029 23.5625 44.4219C23.5625 43.2408 24.4908 42.3125 25.6719 42.3125ZM36.9219 42.3125C38.1029 42.3125 39.0312 43.2408 39.0312 44.4219C39.0312 45.6029 38.1029 46.5312 36.9219 46.5312C35.7408 46.5312 34.8125 45.6029 34.8125 44.4219C34.8125 43.2408 35.7408 42.3125 36.9219 42.3125Z" fill="#204C86"/>
</g>
</g>
<defs>
<filter id="filter0_i_4_5" x="20.75" y="29.6562" width="21.0938" height="23.6875" filterUnits="userSpaceOnUse" color-interpolation-filters="sRGB">
<feFlood flood-opacity="0" result="BackgroundImageFix"/>
<feBlend mode="normal" in="SourceGraphic" in2="BackgroundImageFix" result="shape"/>
<feColorMatrix in="SourceAlpha" type="matrix" values="0 0 0 0 0 0 0 0 0 0 0 0 0 0 0 0 0 0 127 0" result="hardAlpha"/>
<feOffset dy="4"/>
<feGaussianBlur stdDeviation="2"/>
<feComposite in2="hardAlpha" operator="arithmetic" k2="-1" k3="1"/>
<feColorMatrix type="matrix" values="0 0 0 0 0 0 0 0 0 0 0 0 0 0 0 0 0 0 0.25 0"/>
<feBlend mode="normal" in2="shape" result="effect1_innerShadow_4_5"/>
</filter>
<linearGradient id="paint0_linear_4_5" x1="32" y1="2" x2="32" y2="17" gradientUnits="userSpaceOnUse">
<stop stop-color="#558ACF"/>
<stop offset="1" stop-color="#2E67B2"/>
</linearGradient>
<linearGradient id="paint1_linear_4_5" x1="32" y1="17" x2="32" y2="62" gradientUnits="userSpaceOnUse">
<stop stop-color="#78B3FF"/>
<stop offset="1" stop-color="#406EAC"/>
</linearGradient>
<clipPath id="clip0_4_5">
<rect width="22.5" height="22.5" fill="white" transform="translate(20.75 28.25)"/>
</clipPath>
</defs>
</svg>
