<svg width="128" height="128" viewBox="0 0 128 128" fill="none" xmlns="http://www.w3.org/2000/svg">
<rect width="128" height="128" rx="24" fill="url(#paint0_linear_41_5)"/>
<rect x="4" y="4" width="120" height="120" rx="20" stroke="black" stroke-opacity="0.25" stroke-width="8"/>
<g filter="url(#filter0_d_41_5)">
<path d="M82.6711 69.2756C82.3126 68.9659 81.8296 68.843 81.3674 68.9348C80.9037 69.0296 80.5067 69.3318 80.2948 69.7556C77.797 74.7467 72.7896 77.8474 67.2311 77.8474C59.1719 77.8474 52.6163 71.2904 52.6163 63.2326C52.6163 55.1748 59.1733 48.6178 67.2311 48.6178C73.083 48.6178 78.357 52.0948 80.6652 57.477C80.8607 57.9319 81.2652 58.2667 81.7482 58.3719C82.2341 58.4756 82.7378 58.3437 83.1082 58.0133L99.4904 43.2681C100.061 42.7541 100.166 41.8978 99.7348 41.2622C92.4178 30.4519 80.2652 24 67.2311 24C45.5985 24 28 41.5985 28 63.2311C28 64.4133 28.0622 65.5852 28.1644 66.7467C28.1941 67.0844 28.2489 67.4193 28.2874 67.7556C28.3822 68.5896 28.4919 69.4193 28.64 70.2415C28.7067 70.6089 28.7896 70.9719 28.8667 71.3363C29.0326 72.1304 29.2193 72.9185 29.4341 73.6993C29.5319 74.0533 29.637 74.4059 29.7452 74.757C29.9867 75.5407 30.2533 76.3156 30.5437 77.083C30.6207 77.2874 30.6756 77.4978 30.7556 77.7007C30.7748 77.7511 30.8104 77.7896 30.8341 77.8356C32.1556 81.117 33.9067 84.237 36.12 87.1141C39.6681 94.6474 31.9793 100.994 31.6489 101.262C31.1422 101.673 30.9481 102.357 31.1644 102.972C31.3837 103.588 31.963 104 32.6148 104C40.1141 104 45.4815 100.836 48.8519 97.8874C54.4933 100.883 60.8237 102.462 67.2311 102.462C80.1037 102.462 92.1689 96.1289 99.5067 85.5244C99.9556 84.8756 99.8415 83.9941 99.243 83.4815L82.6711 69.2756ZM67.2311 27.077C78.7985 27.077 89.6089 32.5896 96.4178 41.8919L82.5482 54.3748C79.4133 48.9452 73.6059 45.5378 67.2311 45.5378C49.4356 45.5378 37.6311 54.3304 32.0815 71.6874C31.9022 70.9363 31.7393 70.1793 31.6089 69.4148C31.5674 69.1704 31.5378 68.9244 31.5007 68.6785C31.4015 68.0207 31.3185 67.36 31.2563 66.6948C31.2311 66.4311 31.2059 66.1674 31.1867 65.9022C31.123 65.0163 31.0785 64.1259 31.0785 63.2281C31.077 43.2948 47.2948 27.077 67.2311 27.077Z" fill="url(#paint1_linear_41_5)"/>
</g>
<defs>
<filter id="filter0_d_41_5" x="12" y="12" width="104" height="112" filterUnits="userSpaceOnUse" color-interpolation-filters="sRGB">
<feFlood flood-opacity="0" result="BackgroundImageFix"/>
<feColorMatrix in="SourceAlpha" type="matrix" values="0 0 0 0 0 0 0 0 0 0 0 0 0 0 0 0 0 0 127 0" result="hardAlpha"/>
<feOffset dy="4"/>
<feGaussianBlur stdDeviation="8"/>
<feComposite in2="hardAlpha" operator="out"/>
<feColorMatrix type="matrix" values="0 0 0 0 0 0 0 0 0 0 0 0 0 0 0 0 0 0 0.5 0"/>
<feBlend mode="normal" in2="BackgroundImageFix" result="effect1_dropShadow_41_5"/>
<feBlend mode="normal" in="SourceGraphic" in2="effect1_dropShadow_41_5" result="shape"/>
</filter>
<linearGradient id="paint0_linear_41_5" x1="64" y1="0" x2="64" y2="128" gradientUnits="userSpaceOnUse">
<stop stop-color="#88CDFE"/>
<stop offset="1" stop-color="#223F53"/>
</linearGradient>
<linearGradient id="paint1_linear_41_5" x1="63.9998" y1="24" x2="63.9998" y2="104" gradientUnits="userSpaceOnUse">
<stop stop-color="white"/>
<stop offset="1" stop-color="#A5C8E0"/>
</linearGradient>
</defs>
</svg>
