<svg width="128" height="128" viewBox="0 0 128 128" fill="none" xmlns="http://www.w3.org/2000/svg">
<rect width="128" height="128" rx="24" fill="url(#paint0_linear_94_165)"/>
<rect x="4" y="4" width="120" height="120" rx="20" stroke="black" stroke-opacity="0.25" stroke-width="8"/>
<g filter="url(#filter0_d_94_165)">
<path d="M74.0812 24C75.237 24 76.3364 24.5 77.096 25.3711L81.1568 30.0281C82.1716 31.1919 83.7682 31.648 85.3055 31.5024C87.3194 31.3118 90.0877 31.4349 91.7627 33.1279C93.1019 34.4816 94.3309 35.7609 95.2607 36.7402C96.3254 37.8617 96.6255 39.5005 96.0473 40.9347L95.6976 41.8024C95.3366 42.698 95.3118 43.6941 95.6277 44.6066L97.1031 48.8675C97.3619 49.6148 97.3935 50.4213 97.1937 51.1865C95.8422 56.3619 90.4485 77.0243 89.7373 79.8623C88.1342 86.2584 87.0377 88.7319 82.4814 91.9727C77.9256 95.2131 69.6577 100.841 68.3066 101.694C66.9566 102.547 65.2687 104 63.75 104C62.2313 104 60.5434 102.547 59.1934 101.694C57.8423 100.841 49.5744 95.2131 45.0186 91.9727C40.4623 88.7319 39.3658 86.2584 37.7627 79.8623C37.0513 77.0243 31.6577 56.3619 30.3063 51.1865C30.1065 50.4213 30.1381 49.6148 30.3969 48.8675L31.8723 44.6066C32.1882 43.6941 32.1634 42.698 31.8024 41.8024L31.4527 40.9347C30.8745 39.5005 31.1746 37.8617 32.2393 36.7402C33.1691 35.7609 34.3981 34.4816 35.7373 33.1279C37.4123 31.4349 40.1806 31.3118 42.1945 31.5024C43.7318 31.648 45.3284 31.1919 46.3432 30.0281L50.404 25.3711C51.1636 24.5 52.263 24 53.4188 24H74.0812ZM63.75 73.7852C63.2874 73.7852 60.3241 74.8432 57.9463 76.0869C55.5681 77.3308 53.8439 78.2101 53.293 78.5586C52.7425 78.9072 53.0783 79.5644 53.5801 79.9229C54.0819 80.2813 60.8234 85.5581 61.4795 86.1426C62.1339 86.7261 63.0961 87.6894 63.75 87.6895C64.4039 87.6895 65.3659 86.7261 66.0205 86.1426C66.6763 85.5582 73.4181 80.2813 73.9199 79.9229C74.4215 79.5644 74.7575 78.9072 74.207 78.5586C73.6561 78.2102 71.9325 77.3307 69.5547 76.0869C67.1765 74.8432 64.2125 73.7852 63.75 73.7852ZM63.75 36.1934C63.7409 36.1934 62.3932 36.1999 60.375 36.8799C58.35 37.5621 56.1561 38.415 55.1436 38.415C54.5022 38.4149 51.2597 37.8345 48.9652 37.4084C47.52 37.1399 46.0438 37.6714 45.1334 38.8254C42.6001 42.0366 37.7227 48.4427 37.7227 50.1631C37.7227 52.4868 38.8423 53.1005 39.9678 54.3086C41.0938 55.5172 46.0095 60.7922 46.6406 61.4697C47.2721 62.1474 48.5855 63.1753 47.8125 65.0244C47.0396 66.8734 45.9 69.226 47.168 71.6123C48.4363 73.9988 50.6088 75.5925 52.001 75.3291C53.3932 75.0655 56.6629 73.3386 57.8652 72.5498C59.0676 71.7609 62.8779 68.5836 62.8779 67.3682C62.8772 66.1529 58.9391 63.9716 58.2109 63.4756C57.4832 62.98 54.1644 61.061 54.0957 60.3076C54.0277 59.5542 54.0536 59.3329 55.0332 57.4717C56.0125 55.6105 57.7766 53.1272 57.4834 51.4746C57.1898 49.8222 54.3447 48.9625 52.3145 48.1875C50.2844 47.4126 46.3752 45.9492 45.8867 45.7217C45.3984 45.494 45.5247 45.2765 47.0039 45.1348C48.4831 44.993 52.6806 44.4298 54.5732 44.9629C56.4658 45.4961 59.699 46.3081 59.9609 46.7383C60.2226 47.1683 60.4542 47.1828 60.1855 48.666C59.9166 50.1498 58.5322 57.2694 58.3975 58.5352C58.263 59.7998 57.9997 60.6364 59.3486 60.9482C60.6978 61.26 62.9695 61.8017 63.75 61.8018C64.5305 61.8018 66.802 61.26 68.1514 60.9482C69.5002 60.6364 69.237 59.7998 69.1025 58.5352C68.968 57.2694 67.5832 50.1498 67.3145 48.666C67.0457 47.1828 67.2772 47.1682 67.5391 46.7383C67.801 46.3081 71.0342 45.4961 72.9268 44.9629C74.8195 44.4299 79.0171 44.993 80.4961 45.1348C81.9754 45.2765 82.1017 45.494 81.6133 45.7217C81.1251 45.9492 77.2156 47.4126 75.1855 48.1875C73.1552 48.9625 70.3102 49.8222 70.0166 51.4746C69.7234 53.1272 71.4873 55.6105 72.4668 57.4717C73.4464 59.3329 73.4721 59.5542 73.4043 60.3076C73.3354 61.061 70.017 62.98 69.2891 63.4756C68.5612 63.9715 64.6228 66.1529 64.6221 67.3682C64.6221 68.5836 68.4323 71.7608 69.6348 72.5498C70.8371 73.3386 74.1067 75.0655 75.499 75.3291C76.8912 75.5925 79.0637 73.9988 80.332 71.6123C81.6 69.226 80.4605 66.8734 79.6875 65.0244C78.9145 63.1753 80.2281 62.1474 80.8594 61.4697C81.4908 60.7921 86.4063 55.5171 87.5322 54.3086C88.6577 53.1005 89.7773 52.4868 89.7773 50.1631C89.7773 48.4426 84.8997 42.0364 82.3665 38.8253C81.4562 37.6713 79.9801 37.1399 78.5349 37.4083C76.2403 37.8345 72.9976 38.4149 72.3564 38.415C71.3439 38.415 69.15 37.5621 67.125 36.8799C65.1001 36.1977 63.75 36.1934 63.75 36.1934Z" fill="url(#paint1_linear_94_165)"/>
</g>
<defs>
<filter id="filter0_d_94_165" x="14.1766" y="12" width="99.1469" height="112" filterUnits="userSpaceOnUse" color-interpolation-filters="sRGB">
<feFlood flood-opacity="0" result="BackgroundImageFix"/>
<feColorMatrix in="SourceAlpha" type="matrix" values="0 0 0 0 0 0 0 0 0 0 0 0 0 0 0 0 0 0 127 0" result="hardAlpha"/>
<feOffset dy="4"/>
<feGaussianBlur stdDeviation="8"/>
<feComposite in2="hardAlpha" operator="out"/>
<feColorMatrix type="matrix" values="0 0 0 0 0 0 0 0 0 0 0 0 0 0 0 0 0 0 0.5 0"/>
<feBlend mode="normal" in2="BackgroundImageFix" result="effect1_dropShadow_94_165"/>
<feBlend mode="normal" in="SourceGraphic" in2="effect1_dropShadow_94_165" result="shape"/>
</filter>
<linearGradient id="paint0_linear_94_165" x1="64" y1="0" x2="64" y2="128" gradientUnits="userSpaceOnUse">
<stop stop-color="#FF8A37"/>
<stop offset="1" stop-color="#831F38"/>
</linearGradient>
<linearGradient id="paint1_linear_94_165" x1="63.75" y1="24" x2="63.75" y2="104" gradientUnits="userSpaceOnUse">
<stop stop-color="white"/>
<stop offset="1" stop-color="#DD8975"/>
</linearGradient>
</defs>
</svg>
