<svg width="128" height="128" viewBox="0 0 128 128" fill="none" xmlns="http://www.w3.org/2000/svg">
<rect width="128" height="128" rx="24" fill="url(#paint0_linear_3_11)"/>
<rect x="4" y="4" width="120" height="120" rx="20" stroke="black" stroke-opacity="0.25" stroke-width="8"/>
<g filter="url(#filter0_d_3_11)">
<path d="M96.2188 83.5569C95.146 84.1147 94.0397 84.6054 92.9062 85.0263C89.3173 86.3627 85.5169 87.0405 81.6875 87.0272C66.9062 87.0272 54.0312 76.8666 54.0312 63.7984C54.0505 62.0485 54.5354 60.3354 55.4362 58.8353C56.337 57.3352 57.621 56.1023 59.1562 55.2635C45.7812 55.8262 42.3438 69.7697 42.3438 77.9295C42.3438 101.064 63.625 103.378 68.2188 103.378C70.6875 103.378 74.4062 102.659 76.6562 101.94L77.0625 101.815C85.6731 98.8378 93.0136 93.0159 97.875 85.3077C98.0163 85.0735 98.0769 84.7994 98.0476 84.5274C98.0183 84.2555 97.9006 84.0006 97.7127 83.8019C97.5247 83.6032 97.2768 83.4717 97.007 83.4275C96.7372 83.3832 96.4603 83.4287 96.2188 83.5569Z" fill="url(#paint1_linear_3_11)"/>
<path opacity="0.35" d="M96.2188 83.5569C95.146 84.1147 94.0397 84.6054 92.9062 85.0263C89.3173 86.3627 85.5169 87.0405 81.6875 87.0272C66.9062 87.0272 54.0312 76.8666 54.0312 63.7984C54.0505 62.0485 54.5354 60.3354 55.4362 58.8353C56.337 57.3352 57.621 56.1023 59.1562 55.2635C45.7812 55.8262 42.3438 69.7697 42.3438 77.9295C42.3438 101.064 63.625 103.378 68.2188 103.378C70.6875 103.378 74.4062 102.659 76.6562 101.94L77.0625 101.815C85.6731 98.8378 93.0136 93.0159 97.875 85.3077C98.0163 85.0735 98.0769 84.7994 98.0476 84.5274C98.0183 84.2555 97.9006 84.0006 97.7127 83.8019C97.5247 83.6032 97.2768 83.4717 97.007 83.4275C96.7372 83.3832 96.4603 83.4287 96.2188 83.5569Z" fill="url(#paint2_radial_3_11)"/>
<path d="M57.0312 99.4388C54.2496 97.7104 51.8385 95.447 49.9375 92.7797C47.7667 89.8071 46.2724 86.3953 45.5595 82.7836C44.8467 79.172 44.9325 75.448 45.8109 71.8731C46.6894 68.2981 48.3392 64.9588 50.6447 62.0895C52.9501 59.2201 55.8552 56.8903 59.1562 55.2635C60.1562 54.7945 61.8125 53.9817 64.0312 54.0129C65.5925 54.025 67.1299 54.3982 68.5231 55.1032C69.9163 55.8083 71.1277 56.8261 72.0625 58.0772C73.3199 59.7688 74.0091 61.8155 74.0312 63.9235C74.0312 63.8609 81.6875 39.0377 49.0312 39.0377C35.3125 39.0377 24.0312 52.0433 24.0312 63.4858C23.9767 69.5301 25.2684 75.5107 27.8125 80.9933C31.979 89.8691 39.2579 96.9055 48.2676 100.767C57.2773 104.628 67.3905 105.046 76.6875 101.94C73.4303 102.969 69.9887 103.278 66.6003 102.847C63.212 102.415 59.9577 101.252 57.0625 99.4388H57.0312Z" fill="url(#paint3_linear_3_11)"/>
<path opacity="0.41" d="M57.0312 99.4388C54.2496 97.7104 51.8385 95.447 49.9375 92.7797C47.7667 89.8071 46.2724 86.3953 45.5595 82.7836C44.8467 79.172 44.9325 75.448 45.8109 71.8731C46.6894 68.2981 48.3392 64.9588 50.6447 62.0895C52.9501 59.2201 55.8552 56.8903 59.1562 55.2635C60.1562 54.7945 61.8125 53.9817 64.0312 54.0129C65.5925 54.025 67.1299 54.3982 68.5231 55.1032C69.9163 55.8083 71.1277 56.8261 72.0625 58.0772C73.3199 59.7688 74.0091 61.8155 74.0312 63.9235C74.0312 63.8609 81.6875 39.0377 49.0312 39.0377C35.3125 39.0377 24.0312 52.0433 24.0312 63.4858C23.9767 69.5301 25.2684 75.5107 27.8125 80.9933C31.979 89.8691 39.2579 96.9055 48.2676 100.767C57.2773 104.628 67.3905 105.046 76.6875 101.94C73.4303 102.969 69.9887 103.278 66.6003 102.847C63.212 102.415 59.9577 101.252 57.0625 99.4388H57.0312Z" fill="url(#paint4_radial_3_11)"/>
<path d="M71.625 70.5201C71.3438 70.8327 70.5625 71.3017 70.5625 72.2708C70.5625 73.0837 71.0937 73.8965 72.0625 74.5531C76.5312 77.6794 85 77.2417 85.0312 77.2417C88.3627 77.2395 91.6325 76.3434 94.5 74.6468C97.3869 72.9576 99.7823 70.5427 101.449 67.6417C103.115 64.7407 103.995 61.4544 104 58.1085C104.094 51.1054 101.5 46.4472 100.469 44.3838C93.8125 31.4407 79.5312 24 64 24C53.4881 23.999 43.3983 28.1377 35.9128 35.5211C28.4273 42.9045 24.1478 52.9391 24 63.4545C24.1562 52.0433 35.5 42.8206 49 42.8206C50.0938 42.8206 56.3438 42.9144 62.125 45.947C66.1866 47.9661 69.5501 51.1568 71.7812 55.1072C73.6875 58.4211 74.0312 62.6417 74.0312 64.3299C74.0312 66.0181 73.1875 68.4879 71.5937 70.5513L71.625 70.5201Z" fill="url(#paint5_radial_3_11)"/>
<path d="M71.625 70.5201C71.3438 70.8327 70.5625 71.3017 70.5625 72.2708C70.5625 73.0837 71.0937 73.8965 72.0625 74.5531C76.5312 77.6794 85 77.2417 85.0312 77.2417C88.3627 77.2395 91.6325 76.3434 94.5 74.6468C97.3869 72.9576 99.7823 70.5427 101.449 67.6417C103.115 64.7407 103.995 61.4544 104 58.1085C104.094 51.1054 101.5 46.4472 100.469 44.3838C93.8125 31.4407 79.5312 24 64 24C53.4881 23.999 43.3983 28.1377 35.9128 35.5211C28.4273 42.9045 24.1478 52.9391 24 63.4545C24.1562 52.0433 35.5 42.8206 49 42.8206C50.0938 42.8206 56.3438 42.9144 62.125 45.947C66.1866 47.9661 69.5501 51.1568 71.7812 55.1072C73.6875 58.4211 74.0312 62.6417 74.0312 64.3299C74.0312 66.0181 73.1875 68.4879 71.5937 70.5513L71.625 70.5201Z" fill="url(#paint6_radial_3_11)"/>
</g>
<defs>
<filter id="filter0_d_3_11" x="8" y="12" width="112.002" height="112" filterUnits="userSpaceOnUse" color-interpolation-filters="sRGB">
<feFlood flood-opacity="0" result="BackgroundImageFix"/>
<feColorMatrix in="SourceAlpha" type="matrix" values="0 0 0 0 0 0 0 0 0 0 0 0 0 0 0 0 0 0 127 0" result="hardAlpha"/>
<feOffset dy="4"/>
<feGaussianBlur stdDeviation="8"/>
<feComposite in2="hardAlpha" operator="out"/>
<feColorMatrix type="matrix" values="0 0 0 0 0 0 0 0 0 0 0 0 0 0 0 0 0 0 0.5 0"/>
<feBlend mode="normal" in2="BackgroundImageFix" result="effect1_dropShadow_3_11"/>
<feBlend mode="normal" in="SourceGraphic" in2="effect1_dropShadow_3_11" result="shape"/>
</filter>
<linearGradient id="paint0_linear_3_11" x1="64" y1="0" x2="64" y2="128" gradientUnits="userSpaceOnUse">
<stop stop-color="#328C9C"/>
<stop offset="1" stop-color="#1B242F"/>
</linearGradient>
<linearGradient id="paint1_linear_3_11" x1="42.3438" y1="79.3364" x2="98.0938" y2="79.3364" gradientUnits="userSpaceOnUse">
<stop stop-color="#0C59A4"/>
<stop offset="1" stop-color="#114A8B"/>
</linearGradient>
<radialGradient id="paint2_radial_3_11" cx="0" cy="0" r="1" gradientUnits="userSpaceOnUse" gradientTransform="translate(73.125 79.7569) scale(29.8125 28.3341)">
<stop offset="0.7" stop-opacity="0"/>
<stop offset="0.9" stop-opacity="0.5"/>
<stop offset="1"/>
</radialGradient>
<linearGradient id="paint3_linear_3_11" x1="71.7187" y1="55.1384" x2="36.9212" y2="93.0461" gradientUnits="userSpaceOnUse">
<stop stop-color="#1B9DE2"/>
<stop offset="0.2" stop-color="#1595DF"/>
<stop offset="0.7" stop-color="#0680D7"/>
<stop offset="1" stop-color="#0078D4"/>
</linearGradient>
<radialGradient id="paint4_radial_3_11" cx="0" cy="0" r="1" gradientTransform="matrix(6.7125 -44.3216 -35.8 -5.37232 46.0484 86.1946)" gradientUnits="userSpaceOnUse">
<stop offset="0.8" stop-opacity="0"/>
<stop offset="0.9" stop-opacity="0.5"/>
<stop offset="1"/>
</radialGradient>
<radialGradient id="paint5_radial_3_11" cx="0" cy="0" r="1" gradientTransform="matrix(-2.53 63.2773 134.723 5.06218 32.0906 38.7926)" gradientUnits="userSpaceOnUse">
<stop stop-color="#35C1F1"/>
<stop offset="0.1" stop-color="#34C1ED"/>
<stop offset="0.2" stop-color="#2FC2DF"/>
<stop offset="0.3" stop-color="#2BC3D2"/>
<stop offset="0.7" stop-color="#36C752"/>
</radialGradient>
<radialGradient id="paint6_radial_3_11" cx="0" cy="0" r="1" gradientTransform="matrix(8.51375 29.2026 23.7169 -6.99646 99.0188 48.1667)" gradientUnits="userSpaceOnUse">
<stop stop-color="#66EB6E"/>
<stop offset="1" stop-color="#66EB6E" stop-opacity="0"/>
</radialGradient>
</defs>
</svg>
