<svg width="128" height="128" viewBox="0 0 128 128" fill="none" xmlns="http://www.w3.org/2000/svg">
<rect width="128" height="128" rx="24" fill="url(#paint0_linear_15_30)"/>
<rect x="4" y="4" width="120" height="120" rx="20" stroke="black" stroke-opacity="0.25" stroke-width="8"/>
<g filter="url(#filter0_d_15_30)">
<path d="M64.6104 23.7771C62.3272 25.2419 61.6688 28.2763 63.14 30.5515C71.2272 43.0755 73.136 52.5219 72.308 60.8003C68.9608 76.6531 61.6848 79.8691 55.3264 79.8691C49.1184 79.8691 50.7808 69.6523 55.4472 66.6619C58.2328 64.9227 61.8008 63.7923 64.5392 63.7923C67.2528 63.7923 69.4528 61.5995 69.4528 58.8939C69.4528 56.1875 67.2528 53.9947 64.5392 53.9947C61.3408 53.9947 58.2032 54.6667 55.2744 55.8107C55.8728 52.9875 56.0936 49.9363 55.32 46.6931C54.1456 41.7683 50.7648 37.0643 44.8944 32.5043C43.8664 31.7043 42.5624 31.3451 41.2688 31.5051C39.9752 31.6651 38.7984 32.3307 37.9976 33.3563C36.332 35.4923 36.7176 38.5707 38.86 40.2323C43.6424 43.9467 45.2216 46.6963 45.7616 48.9595C46.3016 51.2227 45.8672 53.6507 44.7824 56.9867C43.396 61.4827 41.7864 65.4963 41.0808 69.3451C40.7336 71.2395 40.704 73.3011 40.6144 74.9483C37.1704 71.5915 35.8224 67.1595 35.8224 60.6835C35.8216 57.9779 33.6216 55.7843 30.9088 55.7851C28.1976 55.7875 26.0008 57.9795 26 60.6835C26 69.5283 28.5864 77.9443 35.5184 83.5587C41.7936 89.5371 57.7512 87.3275 57.7512 96.9251C57.7512 99.6339 61.716 100.952 64.4288 100.952C67.2112 100.952 70.7128 99.0923 70.7128 96.9251C70.7128 86.0355 82.1888 79.4171 101.081 79.4459C103.794 79.4499 105.996 77.2587 106 74.5531C106.005 71.8467 103.81 69.6491 101.096 69.6443C99.804 69.6427 98.5448 69.6867 97.3032 69.7603C99.4152 64.7931 100.352 59.3243 100.158 53.4171C100.069 50.7123 97.7984 48.5923 95.0872 48.6803C92.3728 48.7683 90.2464 51.0347 90.3352 53.7411C90.5912 61.4755 90.3016 68.3819 84.5392 72.0227C82.9008 73.0571 80.996 73.9547 79.1896 73.9547C80.592 70.1403 81.6512 66.1139 82.0848 61.7739C82.3616 59.0043 82.3912 55.7139 82.0752 53.1579C81.5848 49.1979 80.9928 44.7067 82.496 41.3235C83.8464 38.4099 86.872 37.1899 91.3144 37.1899C94.0256 37.1875 96.2224 34.9947 96.2232 32.2915C96.2248 29.5851 94.0272 27.3899 91.3144 27.3875C84.7128 27.3875 79.7088 30.8619 76.872 35.0595C75.3888 31.8915 73.5824 28.6267 71.4 25.2475C70.6952 24.1555 69.5848 23.3883 68.312 23.1123C67.6816 22.9755 67.0304 22.9635 66.3952 23.0771C65.76 23.1915 65.1536 23.4291 64.6104 23.7771Z" fill="url(#paint1_linear_15_30)"/>
</g>
<defs>
<filter id="filter0_d_15_30" x="10" y="7" width="112" height="109.952" filterUnits="userSpaceOnUse" color-interpolation-filters="sRGB">
<feFlood flood-opacity="0" result="BackgroundImageFix"/>
<feColorMatrix in="SourceAlpha" type="matrix" values="0 0 0 0 0 0 0 0 0 0 0 0 0 0 0 0 0 0 127 0" result="hardAlpha"/>
<feOffset/>
<feGaussianBlur stdDeviation="8"/>
<feComposite in2="hardAlpha" operator="out"/>
<feColorMatrix type="matrix" values="0 0 0 0 0 0 0 0 0 0 0 0 0 0 0 0 0 0 0.5 0"/>
<feBlend mode="normal" in2="BackgroundImageFix" result="effect1_dropShadow_15_30"/>
<feBlend mode="normal" in="SourceGraphic" in2="effect1_dropShadow_15_30" result="shape"/>
</filter>
<linearGradient id="paint0_linear_15_30" x1="64" y1="0" x2="64" y2="128" gradientUnits="userSpaceOnUse">
<stop stop-color="#62A0EA"/>
<stop offset="1" stop-color="#194272"/>
</linearGradient>
<linearGradient id="paint1_linear_15_30" x1="26" y1="22.9995" x2="103.334" y2="97.6163" gradientUnits="userSpaceOnUse">
<stop stop-color="white"/>
<stop offset="1" stop-color="#90AED3"/>
</linearGradient>
</defs>
</svg>
