<svg width="128" height="128" viewBox="0 0 128 128" fill="none" xmlns="http://www.w3.org/2000/svg">
<rect width="128" height="128" rx="24" fill="url(#paint0_linear_94_32)"/>
<rect x="4" y="4" width="120" height="120" rx="20" stroke="black" stroke-opacity="0.25" stroke-width="8"/>
<g filter="url(#filter0_d_94_32)">
<path d="M80.6329 50.8829C80.6329 50.8825 80.6324 50.8824 80.6322 50.8827C79.1747 53.3838 77.2223 55.5711 74.8909 57.3148C72.5591 59.0588 69.8956 60.3236 67.0584 61.0341C64.2212 61.7446 61.2682 61.8864 58.3743 61.451C55.4805 61.0157 52.7048 60.012 50.212 58.4997C48.377 57.381 46.7169 56.0051 45.2838 54.4154C41.512 50.2253 39.5478 44.7505 39.8086 39.1554C39.8398 38.5294 39.893 37.9051 39.9762 37.2837C40.0582 36.6713 40.1677 36.0615 40.3029 35.4592C40.4416 34.8408 40.6079 34.2294 40.8018 33.6251C40.99 33.0369 41.2044 32.4576 41.4452 31.8872C41.6948 31.2941 41.9731 30.7135 42.2733 30.1439C42.5894 29.5441 42.9397 28.9605 43.3136 28.394C43.6585 27.8715 44.0259 27.3646 44.4157 26.8735C44.8387 26.3382 45.2881 25.8217 45.7622 25.3299C46.2407 24.8334 46.7407 24.359 47.2621 23.9067C47.793 23.4458 48.3497 23.0147 48.9234 22.6068C49.2191 22.3965 49.5203 22.1943 49.8271 22C43.5944 25.138 38.8538 30.5529 36.6174 37.0883C34.3811 43.6237 34.8263 50.7618 37.858 56.9781C37.918 57.101 37.979 57.2233 38.041 57.3453C38.0691 57.4006 38.0975 57.4559 38.126 57.5111C38.1263 57.5118 38.1266 57.5126 38.1269 57.5133C38.1533 57.5813 38.2033 57.6429 38.2763 57.6416C38.5592 57.6365 38.8423 57.6378 39.1251 57.6438C39.6478 57.6549 40.1696 57.6843 40.6905 57.7319C45.5081 58.1807 50.0391 60.1893 53.5759 63.4438C57.1126 66.6984 59.4559 71.0156 60.2396 75.7211C60.5936 77.8739 60.6173 80.0669 60.31 82.2267C59.7262 86.3 57.9682 90.1227 55.2448 93.2405C53.6833 95.0269 51.8389 96.5526 49.7829 97.7585C45.6786 100.147 40.8964 101.153 36.1602 100.623C35.3037 100.527 34.4536 100.381 33.6142 100.188C33.0706 100.062 32.5323 99.9138 32 99.7473C34.3913 100.792 36.9257 101.483 39.5215 101.799C41.9434 102.093 44.3945 102.064 46.8085 101.713C51.1258 101.079 55.2199 99.4122 58.7326 96.859C61.3106 94.9867 63.53 92.6774 65.287 90.039C65.3632 89.9246 65.4384 89.8096 65.5128 89.694C65.5803 89.5891 65.5804 89.4688 65.5125 89.3641C65.5029 89.3493 65.4929 89.3348 65.4825 89.3206C65.336 89.0497 65.1954 88.7759 65.0607 88.499C64.7902 87.9428 64.5443 87.3758 64.3231 86.798C63.8752 85.6272 63.5322 84.4199 63.2982 83.1901C62.7971 80.5464 62.7986 77.834 63.3027 75.1908C63.7317 72.9455 64.5229 70.7824 65.6462 68.7837C67.5201 65.4296 70.2681 62.6287 73.6066 60.6699C76.9452 58.7111 80.7535 57.6652 84.6389 57.6401C85.1756 57.6364 85.7119 57.6517 86.2479 57.686C86.7648 57.7199 87.28 57.771 87.7937 57.8393C88.3023 57.9079 88.808 57.9941 89.3109 58.0982C89.8033 58.2006 90.2917 58.3192 90.7763 58.4539C91.251 58.5866 91.7208 58.7351 92.1856 58.8992C92.6567 59.0659 93.1215 59.2484 93.58 59.4468C94.0474 59.6479 94.5068 59.8658 94.9583 60.1005C95.4093 60.3342 95.8519 60.5832 96.286 60.8473C96.6935 61.0957 97.094 61.356 97.4834 61.6314C97.885 61.9153 98.2773 62.2112 98.6604 62.5189C99.0557 62.8358 99.4373 63.1697 99.8083 63.5139C100.203 63.8803 100.584 64.261 100.95 64.656C101.316 65.0487 101.666 65.4549 102 65.8746C102.374 66.3415 102.729 66.8231 103.061 67.3195C103.401 67.8295 103.723 68.3527 104.02 68.889C104.435 69.637 104.803 70.4084 105.125 71.1992C105.472 72.059 105.764 72.9391 106 73.8344C105.362 69.0458 103.4 64.5221 100.329 60.7575C98.0722 57.9855 95.2733 55.6882 92.0986 54.0015C88.8428 52.2724 85.2573 51.2302 81.5704 50.941C81.2584 50.9164 80.946 50.8972 80.6333 50.8833C80.6331 50.8833 80.6329 50.8831 80.6329 50.8829Z" fill="url(#paint1_linear_94_32)"/>
</g>
<defs>
<filter id="filter0_d_94_32" x="16" y="10" width="106" height="112" filterUnits="userSpaceOnUse" color-interpolation-filters="sRGB">
<feFlood flood-opacity="0" result="BackgroundImageFix"/>
<feColorMatrix in="SourceAlpha" type="matrix" values="0 0 0 0 0 0 0 0 0 0 0 0 0 0 0 0 0 0 127 0" result="hardAlpha"/>
<feOffset dy="4"/>
<feGaussianBlur stdDeviation="8"/>
<feComposite in2="hardAlpha" operator="out"/>
<feColorMatrix type="matrix" values="0 0 0 0 0 0 0 0 0 0 0 0 0 0 0 0 0 0 0.5 0"/>
<feBlend mode="normal" in2="BackgroundImageFix" result="effect1_dropShadow_94_32"/>
<feBlend mode="normal" in="SourceGraphic" in2="effect1_dropShadow_94_32" result="shape"/>
</filter>
<linearGradient id="paint0_linear_94_32" x1="65" y1="2.37632e-08" x2="64.9997" y2="128" gradientUnits="userSpaceOnUse">
<stop stop-color="#544259"/>
<stop offset="1" stop-color="#090708"/>
</linearGradient>
<linearGradient id="paint1_linear_94_32" x1="69" y1="22" x2="69" y2="102" gradientUnits="userSpaceOnUse">
<stop stop-color="white"/>
<stop offset="1" stop-color="#4A4557"/>
</linearGradient>
</defs>
</svg>
