<svg width="128" height="128" viewBox="0 0 128 128" fill="none" xmlns="http://www.w3.org/2000/svg">
<rect width="128" height="128" rx="24" fill="url(#paint0_linear_100_7)"/>
<rect x="4" y="4" width="120" height="120" rx="20" stroke="black" stroke-opacity="0.25" stroke-width="8"/>
<g filter="url(#filter0_d_100_7)">
<path d="M64.1279 24C74.724 24.0001 84.1293 27.7979 91.751 35.1533C95.4226 38.6967 97.8848 42.0579 99.9932 46.4043C102.845 52.2836 104 57.3974 104 64.1455C104 73.029 101.435 80.7765 96.1084 87.9834C94.5253 90.125 91.4328 93.3781 89.3809 95.0605C83.7521 99.6757 76.5771 102.799 69.458 103.732C66.9979 104.055 61.1874 104.095 58.9287 103.805C51.9137 102.904 45.2032 100.107 39.3477 95.6426C37.4378 94.1863 33.8543 90.5783 32.29 88.5371C27.9097 82.821 25.1857 76.334 24.2871 69.4775C23.9024 66.5423 23.9052 61.1459 24.292 58.4629C26.2262 45.0513 34.6641 33.5471 46.7812 27.8027C52.4173 25.1309 57.5767 24 64.1279 24ZM63.9961 30.0586C57.8387 30.0527 52.4393 31.4641 47.0957 34.4775C42.2312 37.2208 37.2025 42.2566 34.4482 47.1426C32.4198 50.7411 30.9348 55.0117 30.3555 58.9141C29.9757 61.4726 29.9684 66.5529 30.3408 69.0029C31.0862 73.9058 32.9452 78.7521 35.6406 82.8164C37.1125 85.0358 37.0668 85.0107 38.3652 84.2676C40.6877 82.9385 41.2934 82.2957 42.5586 79.8164C44.0382 76.9169 45.6204 74.3829 47.0498 72.623C48.6996 70.5918 48.9264 70.2301 49.7539 68.3125C50.1703 67.3475 50.9183 65.9303 51.415 65.1631L51.4277 65.1436C51.9462 64.3429 51.8296 63.2879 51.1494 62.6191C49.5973 61.0932 48.3064 59.3623 48.0635 58.4824C47.8156 57.584 48.1086 57.0828 49.2744 56.4092C50.4534 55.728 51.2964 55.5319 54.4473 55.208C55.9816 55.0503 57.6482 54.7619 58.1729 54.5625C58.6951 54.364 60.2545 53.5141 61.6387 52.6748C65.6353 50.2513 65.9739 50.1258 68.3701 50.1777C70.3936 50.2217 70.3977 50.2206 71.5977 49.4951C74.1124 47.9746 77.7242 45.2313 82.4766 41.2314C83.3879 40.4645 84.2661 39.8624 84.4277 39.8936C85.1001 40.0244 86.334 43.0538 86.5215 45.0342C86.6352 46.2355 86.4028 47.4239 85.6904 49.2832C85.4961 49.7904 85.4064 50.2748 85.4912 50.3594C85.6949 50.5623 86.3945 49.6879 86.3945 49.2305C86.3947 48.6476 86.7805 48.5816 87.3057 49.0742C87.6875 49.4323 88.0173 49.5342 88.7852 49.5342C89.6233 49.5342 89.831 49.6123 90.1582 50.0488C90.7135 50.7899 90.8438 52.8098 90.4189 54.0898C90.0054 55.3351 88.7553 56.7714 87.6211 57.3047C86.6062 57.782 84.5513 59.7883 83.5898 61.2412C83.2218 61.7974 82.532 62.9574 82.0566 63.8184C81.5812 64.6793 80.7843 65.9801 80.2852 66.709C79.3029 68.1432 78.4613 70.1435 77.6494 72.9766C77.1725 74.6409 77.132 75.0751 77.1123 78.7871C77.0884 83.2708 76.8574 84.3713 75.6455 85.752C74.2677 87.3215 72.8921 90.768 72.7764 92.9414C72.7034 94.3132 72.4917 95.6513 72.1914 96.6416C72.0594 97.0773 72.3071 97.0719 73.7773 96.6084C78.063 95.2571 81.556 93.4407 84.9277 90.8105C86.7207 89.4118 89.8189 86.2826 91.1182 84.5586C94.6423 79.8824 97.0405 74.0251 97.7461 68.3691C98.0859 65.645 97.8889 59.8815 97.3701 57.3799C95.9958 50.7532 93.0344 45.1559 88.3701 40.3662C85.4622 37.3802 82.815 35.4122 79.4092 33.7041C74.2411 31.1123 69.8128 30.0645 63.9961 30.0586ZM69.0996 52.4111L67.6162 52.6191C67.488 52.6372 67.3717 52.7046 67.292 52.8066L66.3711 53.9873C66.0945 54.3416 66.3889 54.8524 66.834 54.79L68.3164 54.582C68.4448 54.564 68.5618 54.4968 68.6416 54.3945L69.5625 53.2148C69.839 52.8606 69.5445 52.3491 69.0996 52.4111Z" fill="url(#paint1_linear_100_7)"/>
</g>
<defs>
<filter id="filter0_d_100_7" x="8.00024" y="12" width="112" height="112" filterUnits="userSpaceOnUse" color-interpolation-filters="sRGB">
<feFlood flood-opacity="0" result="BackgroundImageFix"/>
<feColorMatrix in="SourceAlpha" type="matrix" values="0 0 0 0 0 0 0 0 0 0 0 0 0 0 0 0 0 0 127 0" result="hardAlpha"/>
<feOffset dy="4"/>
<feGaussianBlur stdDeviation="8"/>
<feComposite in2="hardAlpha" operator="out"/>
<feColorMatrix type="matrix" values="0 0 0 0 0 0 0 0 0 0 0 0 0 0 0 0 0 0 0.5 0"/>
<feBlend mode="normal" in2="BackgroundImageFix" result="effect1_dropShadow_100_7"/>
<feBlend mode="normal" in="SourceGraphic" in2="effect1_dropShadow_100_7" result="shape"/>
</filter>
<linearGradient id="paint0_linear_100_7" x1="64" y1="0" x2="64" y2="128" gradientUnits="userSpaceOnUse">
<stop stop-color="#6DB2FF"/>
<stop offset="1" stop-color="#222661"/>
</linearGradient>
<linearGradient id="paint1_linear_100_7" x1="64" y1="24" x2="64" y2="104" gradientUnits="userSpaceOnUse">
<stop stop-color="white"/>
<stop offset="1" stop-color="#BEDDFF"/>
</linearGradient>
</defs>
</svg>
