<svg width="128" height="128" viewBox="0 0 128 128" fill="none" xmlns="http://www.w3.org/2000/svg">
<rect width="128" height="128" rx="24" fill="url(#paint0_linear_116_27)"/>
<rect x="4" y="4" width="120" height="120" rx="20" stroke="black" stroke-opacity="0.25" stroke-width="8"/>
<mask id="mask0_116_27" style="mask-type:luminance" maskUnits="userSpaceOnUse" x="73" y="71" width="44" height="45">
<path d="M73.9832 73.0624C73.9832 71.9579 74.8786 71.0624 75.9832 71.0624H114.269C115.373 71.0624 116.269 71.9579 116.269 73.0624V113.095C116.269 114.2 115.373 115.095 114.269 115.095H75.9832C74.8786 115.095 73.9832 114.2 73.9832 113.095V73.0624ZM90.4472 94.5577C90.5865 94.5972 90.705 94.4502 90.6368 94.3225L90.5307 94.1236C90.5186 94.101 90.51 94.0768 90.505 94.0517L90.28 92.9152C90.1392 92.2036 90.3947 91.4716 90.9477 91.0021L94.5468 87.9471C94.8866 87.6586 95.3131 87.492 95.7584 87.4735L96.4901 87.4433C96.5291 87.4417 96.5677 87.4515 96.6012 87.4715C96.8046 87.5931 97.0134 87.3231 96.8446 87.1568L96.5922 86.908C96.5588 86.8751 96.5166 86.8526 96.4708 86.8431L93.9209 86.317C93.4063 86.2108 92.8706 86.3114 92.4296 86.5969L90.5073 87.8417C89.9761 88.1857 89.6391 88.7608 89.5985 89.3923L89.4561 91.6111C89.4379 91.8944 89.4802 92.1783 89.5802 92.4439L90.3384 94.4576C90.3568 94.5063 90.3971 94.5435 90.4472 94.5577Z" fill="white"/>
</mask>
<g mask="url(#mask0_116_27)">
<path d="M99.546 99.3641C99.5427 99.3641 99.5411 99.3684 99.5427 99.3713C100.008 100.185 100.91 96.1419 100.58 93.3306C99.8438 87.0681 93.2336 85.2812 90.9147 87.7473C88.9472 89.7985 89.3842 92.9426 90.946 94.8218C92.4927 96.701 94.8568 96.7442 96.3683 97.0891C97.8769 97.4334 98.9947 98.3525 99.5497 99.3578C99.5513 99.3607 99.5492 99.3641 99.546 99.3641Z" fill="black"/>
</g>
<g filter="url(#filter0_d_116_27)">
<path d="M97.8065 30.0031C97.8062 30.0046 97.8073 30.0059 97.8087 30.0059C97.8923 30.0059 97.9705 30.0059 98.0434 30.0059C98.0537 30.0059 98.0639 30.0067 98.0741 30.0086C98.3801 30.0667 98.7397 30.3937 98.8657 30.7631C98.9938 31.1385 104.087 56.9036 96.8195 71.7345C89.5516 86.5654 73.4739 91.0555 64.2135 90.9911C49.8055 91.2022 37.1514 86.4562 30.4194 75.7032C29.6494 74.4732 30.5874 72.9319 31.9341 72.3916C36.3564 70.6173 37.9286 65.3245 38.0199 60.7909C38.0543 59.111 40.6862 40.8358 41.2903 40.0315C41.4558 39.8285 41.6985 39.9316 41.8178 40.1159C44.3479 44.0703 46.6759 46.1127 50.0902 47.9797C55.5152 50.3233 59.0485 51.1835 67.0522 49.7601C75.0569 48.3367 88.2385 43.5858 96.8823 30.6116C97.2124 30.1875 97.5335 30.0318 97.804 30.0004C97.8055 30.0002 97.8068 30.0016 97.8065 30.0031Z" fill="url(#paint1_linear_116_27)"/>
</g>
<path d="M49.8906 70.9149C54.818 70.9149 58.8124 66.4392 58.8124 60.9182C58.8124 55.3972 54.818 50.9215 49.8906 50.9215C44.9631 50.9215 40.9687 55.3972 40.9687 60.9182C40.9687 66.4392 44.9631 70.9149 49.8906 70.9149Z" fill="white"/>
<path d="M51.8153 67.8148C54.7799 67.8148 57.1833 64.893 57.1833 61.2888C57.1833 57.6846 54.7799 54.7628 51.8153 54.7628C48.8506 54.7628 46.4473 57.6846 46.4473 61.2888C46.4473 64.893 48.8506 67.8148 51.8153 67.8148Z" fill="black"/>
<path d="M51.8343 60.1282C53.185 60.1282 54.28 59.0333 54.28 57.6825C54.28 56.3318 53.185 55.2368 51.8343 55.2368C50.4836 55.2368 49.3887 56.3318 49.3887 57.6825C49.3887 59.0333 50.4836 60.1282 51.8343 60.1282Z" fill="white"/>
<g filter="url(#filter1_d_116_27)">
<path d="M30.3926 71.4015C34.4995 70.5442 36.9432 65.5539 35.8507 60.2554C34.7582 54.9568 30.5432 51.3565 26.4363 52.2138C22.3293 53.0711 19.8856 58.0614 20.9782 63.3599C22.0707 68.6585 26.2856 72.2589 30.3926 71.4015Z" fill="black"/>
</g>
<path d="M27.4908 60.9715C29.7745 60.9715 31.6258 59.1202 31.6258 56.8365C31.6258 54.5527 29.7745 52.7014 27.4908 52.7014C25.2072 52.7014 23.3559 54.5527 23.3559 56.8365C23.3559 59.1202 25.2072 60.9715 27.4908 60.9715Z" fill="white"/>
<path d="M78.6407 74.9517C78.0953 74.5725 78.7469 73.9809 79.9251 73.9394C80.6314 73.9082 81.5266 74.0893 82.4652 74.6241C84.9909 76.0671 85.0771 77.8432 84.2478 78.229C83.6677 78.4976 81.4291 76.8255 81.4291 76.8255C81.4291 76.8255 79.798 75.7567 78.6407 74.9517Z" fill="black"/>
<path d="M82.2325 76.1834C81.6187 75.7399 80.7641 75.8815 80.2919 76.4736C75.3075 82.7234 67.8596 86.3648 56.1045 84.6996C54.4825 84.4841 53.2515 86.6216 60.6424 86.9233C69.4466 87.2813 77.1035 84.8043 82.5121 78.0742C82.9855 77.4851 82.8451 76.6261 82.2325 76.1834Z" fill="black"/>
<path d="M80.0483 80.6772C80.0497 80.6752 80.0489 80.6725 80.0467 80.6716C77.9809 79.8142 75.1528 82.7433 76.2259 83.5289C77.872 84.5844 83.6112 88.2548 84.821 88.8977C85.82 89.4283 87.1237 88.9074 87.7929 88.5625C88.0882 88.4104 88.3133 88.1581 88.4693 87.8649L88.617 87.5874C88.775 87.2905 88.8585 86.9584 88.8173 86.6245C88.7247 85.8752 88.4216 84.5087 87.4326 83.9793C86.5249 83.4972 82.7367 81.838 80.0781 80.6843C80.0763 80.6835 80.0744 80.6831 80.0724 80.6831H80.0514C80.0484 80.6831 80.0466 80.6797 80.0483 80.6772Z" fill="url(#paint2_linear_116_27)"/>
<path d="M86.537 88.8043C86.7994 89.7317 87.7227 89.3109 88.2834 89.6221C88.8438 89.9344 88.9731 90.9399 89.8992 90.6731C90.8253 90.4076 92.0391 88.2227 91.7764 87.295C91.514 86.3673 90.5904 86.789 90.0301 86.4776C89.47 86.1652 89.3407 85.1591 88.4146 85.4259C87.4881 85.6914 86.2743 87.8766 86.537 88.8043Z" fill="#BBBBBB"/>
<path d="M69.5472 72.8973C76.0161 72.8973 81.2601 67.5443 81.2601 60.941C81.2601 54.3378 76.0161 48.9848 69.5472 48.9848C63.0783 48.9848 57.8342 54.3378 57.8342 60.941C57.8342 67.5443 63.0783 72.8973 69.5472 72.8973Z" fill="white"/>
<path d="M72.3805 69.3299C76.3859 69.3299 79.6328 65.7704 79.6328 61.3796C79.6328 56.9887 76.3859 53.4293 72.3805 53.4293C68.3752 53.4293 65.1282 56.9887 65.1282 61.3796C65.1282 65.7704 68.3752 69.3299 72.3805 69.3299Z" fill="black"/>
<path d="M72.3797 60.1612C74.0993 60.1612 75.4934 58.7671 75.4934 57.0475C75.4934 55.3278 74.0993 53.9338 72.3797 53.9338C70.6601 53.9338 69.2661 55.3278 69.2661 57.0475C69.2661 58.7671 70.6601 60.1612 72.3797 60.1612Z" fill="white"/>
<mask id="mask1_116_27" style="mask-type:luminance" maskUnits="userSpaceOnUse" x="89" y="86" width="12" height="14">
<path d="M99.5462 99.3641C99.5428 99.3641 99.5412 99.3686 99.5428 99.3715C100.009 100.185 100.91 96.1417 100.58 93.3306C99.8438 87.0681 93.2336 85.2811 90.9147 87.7473C88.9472 89.7985 89.3842 92.9426 90.946 94.8218C92.4927 96.701 94.8568 96.7442 96.3683 97.0892C97.8768 97.4334 98.995 98.3524 99.55 99.3576C99.5516 99.3606 99.5495 99.3641 99.5462 99.3641Z" fill="white"/>
</mask>
<g mask="url(#mask1_116_27)">
<path d="M95.2685 87.9088C95.6395 87.3005 96.2861 86.9601 95.6131 86.7263C93.8094 86.0999 91.5792 86.0057 90.2904 87.4251C89.0484 88.7929 89.1632 90.7163 89.6441 92.3169C89.7974 92.8272 90.289 92.4299 90.7224 92.1201C91.224 91.7604 92.3858 93.8038 93.3403 93.2135C94.2946 92.6231 92.437 90.9888 93.3716 90.2179C94.3461 89.4463 95.6638 91.605 96.4875 90.634C97.1918 89.7792 94.9087 88.4994 95.2685 87.9088Z" fill="url(#paint3_linear_116_27)"/>
</g>
<defs>
<filter id="filter0_d_116_27" x="14.1418" y="18.0003" width="102.578" height="92.9975" filterUnits="userSpaceOnUse" color-interpolation-filters="sRGB">
<feFlood flood-opacity="0" result="BackgroundImageFix"/>
<feColorMatrix in="SourceAlpha" type="matrix" values="0 0 0 0 0 0 0 0 0 0 0 0 0 0 0 0 0 0 127 0" result="hardAlpha"/>
<feOffset dy="4"/>
<feGaussianBlur stdDeviation="8"/>
<feComposite in2="hardAlpha" operator="out"/>
<feColorMatrix type="matrix" values="0 0 0 0 0 0 0 0 0 0 0 0 0 0 0 0 0 0 0.5 0"/>
<feBlend mode="normal" in2="BackgroundImageFix" result="effect1_dropShadow_116_27"/>
<feBlend mode="normal" in="SourceGraphic" in2="effect1_dropShadow_116_27" result="shape"/>
</filter>
<filter id="filter1_d_116_27" x="4.71765" y="40.0876" width="47.3936" height="51.4402" filterUnits="userSpaceOnUse" color-interpolation-filters="sRGB">
<feFlood flood-opacity="0" result="BackgroundImageFix"/>
<feColorMatrix in="SourceAlpha" type="matrix" values="0 0 0 0 0 0 0 0 0 0 0 0 0 0 0 0 0 0 127 0" result="hardAlpha"/>
<feOffset dy="4"/>
<feGaussianBlur stdDeviation="8"/>
<feComposite in2="hardAlpha" operator="out"/>
<feColorMatrix type="matrix" values="0 0 0 0 0 0 0 0 0 0 0 0 0 0 0 0 0 0 0.5 0"/>
<feBlend mode="normal" in2="BackgroundImageFix" result="effect1_dropShadow_116_27"/>
<feBlend mode="normal" in="SourceGraphic" in2="effect1_dropShadow_116_27" result="shape"/>
</filter>
<linearGradient id="paint0_linear_116_27" x1="64" y1="0" x2="64" y2="128" gradientUnits="userSpaceOnUse">
<stop stop-color="#B37DE2"/>
<stop offset="1" stop-color="#2D163C"/>
</linearGradient>
<linearGradient id="paint1_linear_116_27" x1="64.818" y1="30" x2="64.818" y2="90.9978" gradientUnits="userSpaceOnUse">
<stop stop-color="#B89670"/>
<stop offset="1" stop-color="#8C8073"/>
</linearGradient>
<linearGradient id="paint2_linear_116_27" x1="82.4242" y1="80.516" x2="82.4242" y2="89.1246" gradientUnits="userSpaceOnUse">
<stop stop-color="#F2840D"/>
<stop offset="1" stop-color="#872A08"/>
</linearGradient>
<linearGradient id="paint3_linear_116_27" x1="89.3053" y1="92.1272" x2="98.2959" y2="89.1833" gradientUnits="userSpaceOnUse">
<stop stop-color="#E31587"/>
<stop offset="1" stop-color="#846EFF"/>
</linearGradient>
</defs>
</svg>
