<svg width="128" height="128" viewBox="0 0 128 128" fill="none" xmlns="http://www.w3.org/2000/svg">
<rect width="128" height="128" rx="24" fill="url(#paint0_linear_119_38)"/>
<rect x="4" y="4" width="120" height="120" rx="20" stroke="black" stroke-opacity="0.25" stroke-width="8"/>
<g filter="url(#filter0_d_119_38)">
<path d="M69.6596 24C79.9983 24 86.1898 32.0815 88.5927 48.2445C88.6209 48.4345 88.6342 48.6292 88.6389 48.8213C88.6658 49.9352 88.8329 51.7947 89 54.4C89 70.0444 83.5263 84.0889 72.5789 96.5333C67.4702 101.511 62.3614 104 57.2526 104C49.407 104 43.386 98.3111 39.007 86.7556C37.7298 82.8444 37 78.4 37 73.4222C37 59.5938 41.1734 46.2958 49.7011 33.5282C49.7451 33.4622 49.8196 33.4222 49.8989 33.4222C50.0303 33.4222 50.1368 33.5287 50.1368 33.6601V33.839C50.1368 33.9153 50.1156 33.9905 50.0762 34.0557C47.7526 37.9036 46.313 41.2328 45.4076 44.0434C45.3978 44.0737 45.393 44.1051 45.393 44.137V44.2169C45.393 44.3426 45.4949 44.4444 45.6205 44.4444C45.705 44.4444 45.7832 44.3964 45.8226 44.3218C52.9224 30.8914 60.9283 24 69.6596 24ZM43.9333 75.3778C43.9333 88.8328 48.5165 96.9634 57.8561 99.6008C58.1797 99.6922 58.5175 99.7333 58.8539 99.7333H59.9895C60.9287 99.7333 61.788 99.5776 62.5299 99.2844C63.5161 98.8947 63.0569 97.7778 61.9965 97.7778C54.7698 97.7778 50.2266 92.0256 48.0125 80.6939C47.9785 80.52 48.1115 80.3556 48.2887 80.3556C48.4115 80.3556 48.5208 80.4368 48.5589 80.5535C51.4754 89.4869 55.6505 93.8667 61.0842 93.8667C69.6596 93.8667 76.2281 85.8667 81.3368 69.8667C82.614 64.7111 83.3439 59.5556 83.3439 54.5778V53.6889C83.3439 50.3746 82.9925 46.7179 82.1175 42.551C82.0882 42.4113 81.9647 42.3111 81.8219 42.3111C81.6548 42.3111 81.5193 42.4466 81.5193 42.6137V42.6667C81.7018 44.4444 81.8842 45.8667 81.8842 46.9333V47.6444C81.8842 54.3531 80.8593 58.898 78.8094 61.6012C78.7407 61.6918 78.6 61.6421 78.6 61.5285C78.6 61.517 78.6017 61.5055 78.6049 61.4944C79.6964 57.7672 80.2421 54.2174 80.2421 51.0222C80.2421 41.666 77.5691 35.077 72.2231 31.411C71.7452 31.0834 71.1861 30.8992 70.6104 30.8332L68.3825 30.5778C59.807 30.5778 52.5088 39.8222 46.4877 58.3111C44.8456 64.8889 43.9333 70.5778 43.9333 75.3778Z" fill="url(#paint1_linear_119_38)"/>
</g>
<defs>
<filter id="filter0_d_119_38" x="21" y="12" width="84" height="112" filterUnits="userSpaceOnUse" color-interpolation-filters="sRGB">
<feFlood flood-opacity="0" result="BackgroundImageFix"/>
<feColorMatrix in="SourceAlpha" type="matrix" values="0 0 0 0 0 0 0 0 0 0 0 0 0 0 0 0 0 0 127 0" result="hardAlpha"/>
<feOffset dy="4"/>
<feGaussianBlur stdDeviation="8"/>
<feComposite in2="hardAlpha" operator="out"/>
<feColorMatrix type="matrix" values="0 0 0 0 0 0 0 0 0 0 0 0 0 0 0 0 0 0 0.5 0"/>
<feBlend mode="normal" in2="BackgroundImageFix" result="effect1_dropShadow_119_38"/>
<feBlend mode="normal" in="SourceGraphic" in2="effect1_dropShadow_119_38" result="shape"/>
</filter>
<linearGradient id="paint0_linear_119_38" x1="64" y1="0" x2="64" y2="128" gradientUnits="userSpaceOnUse">
<stop stop-color="#68D6FD"/>
<stop offset="1" stop-color="#14303A"/>
</linearGradient>
<linearGradient id="paint1_linear_119_38" x1="63" y1="24" x2="63" y2="104" gradientUnits="userSpaceOnUse">
<stop stop-color="white"/>
<stop offset="1" stop-color="#64ABC4"/>
</linearGradient>
</defs>
</svg>
