<svg width="128" height="128" viewBox="0 0 128 128" fill="none" xmlns="http://www.w3.org/2000/svg">
<rect width="128" height="128" rx="24" fill="url(#paint0_linear_94_7)"/>
<rect x="4" y="4" width="120" height="120" rx="20" stroke="black" stroke-opacity="0.25" stroke-width="8"/>
<g filter="url(#filter0_d_94_7)">
<path d="M92.2755 35.7211C76.6663 20.093 51.3395 20.093 35.7069 35.7211C20.0977 51.3492 20.0977 76.6743 35.7069 92.2789C51.3161 107.907 76.6429 107.907 92.2755 92.2789C107.908 76.6508 107.908 51.3257 92.2755 35.7211ZM89.8813 54.103C83.2856 65.5652 76.6898 77.0274 70.094 88.5131C68.8735 90.6549 67.0896 91.9259 64.6484 92.1142C61.9256 92.3025 59.7662 91.1492 58.3813 88.7955C54.2032 81.617 50.072 74.3913 45.9409 67.1892C43.4293 62.8114 40.8943 58.4337 38.3827 54.0324C35.8477 49.6075 38.7114 44.2177 43.7814 43.9588C46.4573 43.8176 48.5229 45.065 49.8843 47.3951C51.7386 50.5725 53.5694 53.797 55.4238 56.9979C56.7617 59.3045 58.0527 61.6346 59.4141 63.8941C61.3858 67.2127 64.2963 69.0721 68.1693 69.3074C73.6384 69.637 78.7319 65.6593 79.3891 59.8458C79.4361 59.4222 79.4595 58.975 79.483 58.7632C79.4595 56.8803 79.1075 55.2798 78.3563 53.797C76.3142 49.7017 78.4972 45.1121 82.9335 44.1236C86.5482 43.3233 90.3038 45.9829 90.7733 49.6546C91.008 51.2315 90.6794 52.7143 89.8813 54.103Z" fill="url(#paint1_linear_94_7)"/>
</g>
<defs>
<filter id="filter0_d_94_7" x="8" y="12" width="112" height="112" filterUnits="userSpaceOnUse" color-interpolation-filters="sRGB">
<feFlood flood-opacity="0" result="BackgroundImageFix"/>
<feColorMatrix in="SourceAlpha" type="matrix" values="0 0 0 0 0 0 0 0 0 0 0 0 0 0 0 0 0 0 127 0" result="hardAlpha"/>
<feOffset dy="4"/>
<feGaussianBlur stdDeviation="8"/>
<feComposite in2="hardAlpha" operator="out"/>
<feColorMatrix type="matrix" values="0 0 0 0 0 0 0 0 0 0 0 0 0 0 0 0 0 0 0.5 0"/>
<feBlend mode="normal" in2="BackgroundImageFix" result="effect1_dropShadow_94_7"/>
<feBlend mode="normal" in="SourceGraphic" in2="effect1_dropShadow_94_7" result="shape"/>
</filter>
<linearGradient id="paint0_linear_94_7" x1="65" y1="2.37632e-08" x2="64.9997" y2="128" gradientUnits="userSpaceOnUse">
<stop stop-color="#EF3939"/>
<stop offset="1" stop-color="#45091A"/>
</linearGradient>
<linearGradient id="paint1_linear_94_7" x1="64" y1="24" x2="64" y2="104" gradientUnits="userSpaceOnUse">
<stop stop-color="white"/>
<stop offset="1" stop-color="#AA6171"/>
</linearGradient>
</defs>
</svg>
