<?xml version="1.0" encoding="UTF-8" standalone="no"?>
<svg
   width="22"
   height="22"
   version="1.1"
   id="svg2"
   sodipodi:docname="disk-quota.svg"
   inkscape:version="1.3.2 (091e20ef0f, 2023-11-25)"
   xmlns:inkscape="http://www.inkscape.org/namespaces/inkscape"
   xmlns:sodipodi="http://sodipodi.sourceforge.net/DTD/sodipodi-0.dtd"
   xmlns="http://www.w3.org/2000/svg"
   xmlns:svg="http://www.w3.org/2000/svg">
  <defs
     id="defs2" />
  <sodipodi:namedview
     id="namedview2"
     pagecolor="#ffffff"
     bordercolor="#999999"
     borderopacity="1"
     inkscape:showpageshadow="2"
     inkscape:pageopacity="0"
     inkscape:pagecheckerboard="0"
     inkscape:deskcolor="#d1d1d1"
     inkscape:zoom="11.90625"
     inkscape:cx="10.582677"
     inkscape:cy="10.750656"
     inkscape:window-width="1920"
     inkscape:window-height="996"
     inkscape:window-x="0"
     inkscape:window-y="0"
     inkscape:window-maximized="1"
     inkscape:current-layer="svg2"
     showgrid="true">
    <inkscape:grid
       id="grid1"
       units="px"
       originx="0"
       originy="0"
       spacingx="1"
       spacingy="1"
       empcolor="#0099e5"
       empopacity="0.30196078"
       color="#0099e5"
       opacity="0.14902"
       empspacing="5"
       dotted="false"
       gridanglex="30"
       gridanglez="30"
       visible="true" />
  </sodipodi:namedview>
  <style
     type="text/css"
     id="current-color-scheme">.ColorScheme-Text{color:#232629;}.ColorScheme-NeutralText{color:#f67400;}.ColorScheme-NegativeText { color: #da4453; } </style>
  <g
     id="22-22-disk-quota-3"
     style="fill:#1e2431;fill-opacity:1">
    <rect
       style="opacity:0.00100002;fill:#1e2431;fill-opacity:1"
       width="22"
       height="22"
       x="0"
       y="0"
       id="rect4-5" />
    <path
       id="icon_23_-7"
       style="color:#d1d5e9;fill:#1e2431;fill-opacity:1;stroke-width:1;stroke-dasharray:none"
       d="M 16.210775,3 H 5.79023 C 5.35443,3 5,3.188047 5,3.756493 v 3.2354572 c 0,0.568447 0,1.0413421 1.0115232,1.0383382 L 16.210775,8 C 17,7.9976563 17,7.5751337 17,7.0066867 l 2e-6,-3.2501937 C 17.000002,3.188047 16.645615,3 16.210775,3 Z M 16,7 H 6 V 4 H 16 Z M 13,5 v 0 0 h 2 v 0 0 1 h -2 z m 3.210785,4 H 5.79 C 5.3542,9 5.00001,8.934693 5.00001,9.504451 v 2.992424 c 0,0.567765 0.5645007,0.503138 1.0003007,0.503125 L 16,12.999695 c 0.43484,-1.3e-5 1.000012,0.06497 1.000012,-0.50282 V 9.780631 C 17.000012,9.210846 16.645625,9 16.210785,9 Z M 16,12 H 6 v -2 h 10 z m 0,0 v 0 0 -2 0 z m 0.07962,2 H 5.992089 C 5.201849,14 4.9999956,13.999906 5,14.769701 l 2e-5,3.473203 C 5.0000233,18.811955 5.35444,19 5.79024,19 h 10.420555 c 0.43484,0 0.789231,-0.188019 0.789227,-0.757096 L 17,14.799486 C 16.999995,13.999996 16.514462,14 16.079622,14 Z M 16,18 H 6 v -3 h 10 z m -3,-1 v -1 c 0,0 0.458463,-0.0025 0.59694,0 L 15.029316,16.02619 15,16 v 1 0 h -1 z"
       sodipodi:nodetypes="sssssssssccccccccccccccsssssssssccccccccccccccssssssssscccccccscccccc"
       class="ColorScheme-Text" />
  </g>
</svg>
