<?xml version="1.0" encoding="UTF-8" standalone="no"?>
<svg
   width="22"
   height="22"
   version="1.1"
   id="svg6"
   sodipodi:docname="konv_message.svg"
   inkscape:version="1.3.2 (091e20ef0f, 2023-11-25)"
   xmlns:inkscape="http://www.inkscape.org/namespaces/inkscape"
   xmlns:sodipodi="http://sodipodi.sourceforge.net/DTD/sodipodi-0.dtd"
   xmlns="http://www.w3.org/2000/svg"
   xmlns:svg="http://www.w3.org/2000/svg">
  <sodipodi:namedview
     id="namedview1"
     pagecolor="#ffffff"
     bordercolor="#999999"
     borderopacity="1"
     inkscape:showpageshadow="2"
     inkscape:pageopacity="0"
     inkscape:pagecheckerboard="0"
     inkscape:deskcolor="#d1d1d1"
     inkscape:zoom="17.318182"
     inkscape:cx="11.144357"
     inkscape:cy="10.971128"
     inkscape:window-width="1920"
     inkscape:window-height="994"
     inkscape:window-x="0"
     inkscape:window-y="0"
     inkscape:window-maximized="1"
     inkscape:current-layer="svg6" />
  <defs
     id="defs10" />
  <namedview
     id="namedview8"
     pagecolor="#ffffff"
     bordercolor="#000000"
     borderopacity="0.25"
     inkscape:showpageshadow="2"
     inkscape:pageopacity="0.0"
     inkscape:pagecheckerboard="0"
     inkscape:deskcolor="#d1d1d1"
     showgrid="false"
     inkscape:zoom="35.136364"
     inkscape:cx="9.4773609"
     inkscape:cy="10.98577"
     inkscape:window-width="1920"
     inkscape:window-height="1011"
     inkscape:window-x="0"
     inkscape:window-y="0"
     inkscape:window-maximized="1"
     inkscape:current-layer="svg6" />
  <style
     type="text/css"
     id="current-color-scheme">.ColorScheme-Text{color:#31363b;}.ColorScheme-Background{color:#eff0f1;}.ColorScheme-Highlight{color:#3daee9;}.ColorScheme-ViewText{color:#31363b;}.ColorScheme-ViewBackground{color:#fcfcfc;}.ColorScheme-ViewHover{color:#93cee9;}.ColorScheme-ViewFocus{color:#3daee9;}.ColorScheme-ButtonText{color:#31363b;}.ColorScheme-ButtonBackground{color:#eff0f1;}.ColorScheme-ButtonHover{color:#93cee9;}.ColorScheme-ButtonFocus { color: #3daee9; } </style>
  <g
     id="22-22-konv_message"
     style="fill:#556fa6;fill-opacity:1"
     transform="translate(-32,-10)">
    <rect
       style="opacity:0.00100002;fill:#556fa6;fill-opacity:1"
       width="22"
       height="22"
       x="32"
       y="10"
       id="rect2" />
    <path
       d="m 43.000001,28.999999 c -0.309459,3.92e-4 -0.608075,-0.114176 -0.838115,-0.321554 L 40.364,26.979 C 40.077339,26.686676 39.586706,26.003245 39.17768,26 H 35.515335 C 34.126153,25.999995 33.000001,25.38905 33,23.997295 l 0.0065,-8.477292 c 0,-1.391577 1.125874,-2.519745 2.514878,-2.520003 h 14.963287 c 1.389183,4e-6 2.515337,1.128246 2.515337,2.520003 v 8.478299 C 53.000001,25.390057 51.873847,26 50.484665,26 h -3.671411 c -0.40135,-0.0018 -0.886255,0.676881 -1.168254,0.963 l -1.806883,1.71343 c -0.229741,0.20811 -0.528389,0.323408 -0.838116,0.323569 z M 35.521378,14 C 34.68787,14.000005 34,14.683945 34,15.518997 v 8.478298 C 34.000001,24.83235 34.681376,25 35.514887,25 h 3.661346 c 0.667184,-0.0018 1.30735,0.773227 1.777846,1.247148 l 1.87544,1.680338 c 0.09508,0.08629 0.239968,0.08629 0.335044,0 l 1.885503,-1.695458 C 45.520286,25.769552 46.152873,25.000101 46.811812,25 h 3.671394 C 51.316717,25 51.999999,24.833357 52,23.998302 V 15.518997 C 52,14.683955 51.316741,14.00002 50.483243,14 Z"
       id="path1899-7"
       style="fill:#556fa6;fill-opacity:1;stroke-width:1.00714"
       sodipodi:nodetypes="cccccccccssscccccccsccccccscscc" />
    <path
       d="m 36.529333,18 h 10.274668 c 0.255341,0 0.529333,-0.224002 0.529333,-0.500001 C 47.333334,17.223998 47.059342,17 46.804001,17 H 36.529333 C 36.273992,17 36,17.223998 36,17.499999 36,17.775998 36.273992,18 36.529333,18 Z"
       id="path2653-0"
       style="fill:#556fa6;fill-opacity:1;stroke-width:0.24047"
       sodipodi:nodetypes="sssssss" />
    <path
       d="m 36.559138,21.000001 h 7.548389 c 0.308648,0 0.559141,-0.223999 0.559141,-0.499999 C 44.666668,20.224004 44.416173,20 44.107527,20 H 36.559138 C 36.250491,20 36,20.224004 36,20.500002 c 0,0.276 0.250491,0.499999 0.559138,0.499999 z"
       id="path2655-9"
       style="fill:#556fa6;fill-opacity:1;stroke-width:0.264367" />
  </g>
</svg>
