<?xml version="1.0" encoding="UTF-8" standalone="no"?>
<svg
   id="svg2"
   height="64"
   version="1.1"
   width="64"
   sodipodi:docname="folder-unlocked.svg"
   inkscape:version="1.3.2 (091e20ef0f, 2023-11-25)"
   xmlns:inkscape="http://www.inkscape.org/namespaces/inkscape"
   xmlns:sodipodi="http://sodipodi.sourceforge.net/DTD/sodipodi-0.dtd"
   xmlns:xlink="http://www.w3.org/1999/xlink"
   xmlns="http://www.w3.org/2000/svg"
   xmlns:svg="http://www.w3.org/2000/svg"
   xmlns:rdf="http://www.w3.org/1999/02/22-rdf-syntax-ns#"
   xmlns:cc="http://creativecommons.org/ns#"
   xmlns:dc="http://purl.org/dc/elements/1.1/">
  <sodipodi:namedview
     pagecolor="#ffffff"
     bordercolor="#666666"
     borderopacity="1"
     objecttolerance="10"
     gridtolerance="10"
     guidetolerance="10"
     inkscape:pageopacity="0"
     inkscape:pageshadow="2"
     inkscape:window-width="1920"
     inkscape:window-height="996"
     id="namedview18"
     showgrid="false"
     inkscape:zoom="3.4692426"
     inkscape:cx="-31.130714"
     inkscape:cy="44.966587"
     inkscape:window-x="0"
     inkscape:window-y="0"
     inkscape:window-maximized="1"
     inkscape:current-layer="svg2"
     inkscape:document-rotation="0"
     inkscape:showpageshadow="2"
     inkscape:pagecheckerboard="0"
     inkscape:deskcolor="#d1d1d1" />
  <defs
     id="defs5455">
    <linearGradient
       inkscape:collect="always"
       id="linearGradient844">
      <stop
         style="stop-color:#4b8bd4;stop-opacity:1"
         offset="0"
         id="stop840" />
      <stop
         style="stop-color:#3b6ca7;stop-opacity:1"
         offset="1"
         id="stop842" />
    </linearGradient>
    <linearGradient
       gradientTransform="matrix(1 0 0 0.99967455 0 0.17645)"
       x2="0"
       gradientUnits="userSpaceOnUse"
       y2="499.78421"
       y1="541.79797"
       xlink:href="#linearGradient4172-5"
       id="linearGradient4178" />
    <linearGradient
       id="linearGradient4172-5">
      <stop
         id="stop4174-6"
         style="stop-color:#3daee9" />
      <stop
         id="stop4176-6"
         style="stop-color:#6cc1ef"
         offset="1" />
    </linearGradient>
    <linearGradient
       inkscape:collect="always"
       xlink:href="#linearGradient844"
       id="linearGradient890"
       x1="23.999212"
       y1="35.422577"
       x2="38.999214"
       y2="35.422577"
       gradientUnits="userSpaceOnUse" />
    <linearGradient
       inkscape:collect="always"
       xlink:href="#linearGradient844"
       id="linearGradient854"
       gradientUnits="userSpaceOnUse"
       gradientTransform="matrix(0.7262917,0,0,0.74255507,-4.3577501,-5.1381074)"
       x1="6"
       y1="50.000134"
       x2="94.005508"
       y2="50.000134" />
  </defs>
  <metadata
     id="metadata5458">
    <rdf:RDF>
      <cc:Work
         rdf:about="">
        <dc:format>image/svg+xml</dc:format>
        <dc:type
           rdf:resource="http://purl.org/dc/dcmitype/StillImage" />
      </cc:Work>
    </rdf:RDF>
  </metadata>
  <path
     d="M 36.5,34.354168 V 31.125 C 36.5,28.375001 34.249999,26 31.5,26 c -2.729167,0 -4.958333,2.208334 -5,4.916668 0,0.479166 0.333333,0.895832 0.8125,0.916667 0.479167,0.02083 0.874999,-0.375001 0.874999,-0.833334 0,-1.895834 1.583334,-3.416666 3.5,-3.333333 1.791667,0.08333 3.166668,1.625 3.166668,3.395832 v 3.291668 H 26.083333 C 24.9375,34.354168 24,35.291667 24,36.437501 v 7.479167 C 24,45.0625 24.9375,46 26.083333,46 H 36.916667 C 38.0625,46 39,45.0625 39,43.916668 v -7.479167 c 0,-1.145834 -0.9375,-2.083333 -2.083333,-2.083333 z"
     id="path2-3"
     style="fill:url(#linearGradient890);fill-opacity:1;stroke-width:0.208333" />
  <path
     style="color:#000000;font-style:normal;font-variant:normal;font-weight:normal;font-stretch:normal;font-size:medium;line-height:normal;font-family:Sans;-inkscape-font-specification:Sans;text-indent:0;text-align:start;text-decoration:none;text-decoration-line:none;letter-spacing:normal;word-spacing:normal;text-transform:none;writing-mode:lr-tb;direction:ltr;baseline-shift:baseline;text-anchor:start;display:inline;overflow:visible;visibility:visible;opacity:1;fill:url(#linearGradient854);fill-opacity:1;fill-rule:nonzero;stroke:none;stroke-width:2.93752;marker:none;enable-background:accumulate"
     d="M 5.499656,6.0002183 C 2.5340003,6.0002183 0,8.1247211 0,10.944824 v 41.611948 c 0,1.75677 0.62192015,2.885533 1.8293537,3.909703 1.2074435,1.024168 2.4605458,1.533319 4.059523,1.533319 H 56.723439 c 1.220438,0.02154 1.185731,-1.65277 2.91e-4,-1.670524 L 5.8185563,56.299558 c -1.5732543,0 -2.8804862,-1.109004 -2.8804862,-1.109004 0,0 -1.2046098,-0.903678 -1.2046098,-2.633928 V 10.944675 c 0,-1.9434041 1.322832,-3.1902657 3.633505,-3.1648965 l 17.8937647,-0.00901 8.532742,7.6000225 c 0.257842,0.232439 0.587946,0.563825 0.931745,0.571253 l 24.811157,-0.0089 c 1.265085,-0.0074 1.225106,-1.741541 -0.04,-1.761821 H 33.247884 L 24.20299,6.3482111 C 23.941952,6.1241897 23.612167,6.0009436 23.271236,6.0000001 Z m 28.861838,2.1589115 c -1.154495,-0.00301 -1.1568,1.9840962 0.02885,2.0010272 l 22.128841,-0.03031 c 2.242282,-0.003 3.213695,0.722912 3.960293,1.418793 0.746603,0.695882 1.881143,2.399537 1.881143,4.155045 v 40.810404 c 0.0067,1.381035 1.634521,1.426498 1.639377,0.04754 l -0.0045,-40.858167 C 63.99527,13.318601 63.214859,11.321883 61.813815,10.016017 60.412774,8.7101507 58.505317,8.1588887 56.518684,8.1588887 H 34.497326 c -0.04543,-0.0022 -0.09092,-0.0022 -0.136354,0 z"
     id="path2-3-3"
     sodipodi:nodetypes="sssssccscsssccccccccsccsssccssscc" />
</svg>
