<?xml version="1.0" encoding="UTF-8" standalone="no"?>
<svg
   width="64"
   version="1.1"
   height="64"
   id="svg15"
   sodipodi:docname="folder-projects.svg"
   inkscape:version="1.3.2 (091e20ef0f, 2023-11-25)"
   xmlns:inkscape="http://www.inkscape.org/namespaces/inkscape"
   xmlns:sodipodi="http://sodipodi.sourceforge.net/DTD/sodipodi-0.dtd"
   xmlns:xlink="http://www.w3.org/1999/xlink"
   xmlns="http://www.w3.org/2000/svg"
   xmlns:svg="http://www.w3.org/2000/svg"
   xmlns:rdf="http://www.w3.org/1999/02/22-rdf-syntax-ns#"
   xmlns:cc="http://creativecommons.org/ns#"
   xmlns:dc="http://purl.org/dc/elements/1.1/">
  <sodipodi:namedview
     pagecolor="#ffffff"
     bordercolor="#666666"
     borderopacity="1"
     objecttolerance="10"
     gridtolerance="10"
     guidetolerance="10"
     inkscape:pageopacity="0"
     inkscape:pageshadow="2"
     inkscape:window-width="1920"
     inkscape:window-height="1001"
     id="namedview17"
     showgrid="true"
     inkscape:zoom="9.8125"
     inkscape:cx="32"
     inkscape:cy="32.050955"
     inkscape:window-x="0"
     inkscape:window-y="0"
     inkscape:window-maximized="1"
     inkscape:current-layer="layer1"
     inkscape:document-rotation="0"
     inkscape:showpageshadow="2"
     inkscape:pagecheckerboard="0"
     inkscape:deskcolor="#d1d1d1">
    <inkscape:grid
       type="xygrid"
       id="grid850"
       originx="0"
       originy="0"
       spacingy="1"
       spacingx="1"
       units="px"
       visible="true" />
  </sodipodi:namedview>
  <defs
     id="defs5455">
    <linearGradient
       inkscape:collect="always"
       xlink:href="#linearGradient836"
       id="linearGradient838"
       x1="6"
       y1="50.000134"
       x2="94.005508"
       y2="50.000134"
       gradientUnits="userSpaceOnUse"
       gradientTransform="matrix(0.97683962,0,0,0.99960072,64.337096,974.91885)" />
    <linearGradient
       inkscape:collect="always"
       id="linearGradient836">
      <stop
         style="stop-color:#4b8bd4;stop-opacity:1"
         offset="0"
         id="stop832" />
      <stop
         style="stop-color:#3b6ca7;stop-opacity:1"
         offset="1"
         id="stop834" />
    </linearGradient>
    <linearGradient
       inkscape:collect="always"
       xlink:href="#linearGradient836"
       id="linearGradient2"
       x1="406.07144"
       y1="519.79797"
       x2="426.07144"
       y2="519.79797"
       gradientUnits="userSpaceOnUse" />
    <linearGradient
       inkscape:collect="always"
       xlink:href="#linearGradient836"
       id="linearGradient5"
       x1="415.18631"
       y1="517.85144"
       x2="415.7388"
       y2="517.85144"
       gradientUnits="userSpaceOnUse" />
    <linearGradient
       inkscape:collect="always"
       xlink:href="#linearGradient836"
       id="linearGradient7"
       x1="416.7164"
       y1="521.44891"
       x2="417.3252"
       y2="521.44891"
       gradientUnits="userSpaceOnUse" />
  </defs>
  <metadata
     id="metadata5458">
    <rdf:RDF>
      <cc:Work
         rdf:about="">
        <dc:format>image/svg+xml</dc:format>
        <dc:type
           rdf:resource="http://purl.org/dc/dcmitype/StillImage" />
      </cc:Work>
    </rdf:RDF>
  </metadata>
  <g
     inkscape:label="Capa 1"
     inkscape:groupmode="layer"
     id="layer1"
     transform="translate(-384.57143,-483.798)">
    <g
       transform="matrix(0.7435117,0,0,0.74285165,332.43693,-245.2334)"
       id="g4"
       style="stroke-width:0.999157">
      <path
         style="color:#000000;font-style:normal;font-variant:normal;font-weight:normal;font-stretch:normal;font-size:medium;line-height:normal;font-family:Sans;-inkscape-font-specification:Sans;text-indent:0;text-align:start;text-decoration:none;text-decoration-line:none;letter-spacing:normal;word-spacing:normal;text-transform:none;writing-mode:lr-tb;direction:ltr;baseline-shift:baseline;text-anchor:start;display:inline;overflow:visible;visibility:visible;opacity:1;fill:url(#linearGradient838);fill-opacity:1;fill-rule:nonzero;stroke:none;stroke-width:3.95263;marker:none;enable-background:accumulate"
         d="m 77.516136,989.47294 c -3.988712,0 -7.396866,2.85993 -7.396866,6.65625 v 56.01651 c 0,2.3649 0.836461,3.8844 2.460429,5.2631 1.623967,1.3787 3.30936,2.0641 5.459931,2.0641 h 68.3709 c 1.64145,0.029 1.59477,-2.2249 3.9e-4,-2.2488 l -68.465873,-0.04 c -2.115981,0 -3.874159,-1.4929 -3.874159,-1.4929 0,0 -1.620163,-1.2165 -1.620163,-3.5457 v -56.01651 c 0,-2.61614 1.77916,-4.29462 4.886948,-4.26047 l 24.066557,-0.0121 11.47627,10.23088 c 0.34679,0.3129 0.79077,0.759 1.25317,0.769 l 33.37023,-0.012 c 1.7015,-0.01 1.64773,-2.3444 -0.0538,-2.3717 h -32.61346 l -12.1651,-10.53119 c -0.35109,-0.30157 -0.79464,-0.46748 -1.25318,-0.46875 z m 38.818274,2.90625 c -1.55276,-0.004 -1.55586,2.67092 0.0388,2.69371 l 29.7626,-0.0408 c 3.0158,-0.004 4.32232,0.97316 5.32647,1.90993 1.00416,0.93677 2.53008,3.23017 2.53008,5.59337 v 54.9375 c 0.009,1.8591 2.19838,1.9203 2.20491,0.064 l -0.006,-55.0018 c -3.1e-4,-3.21041 -1.04994,-5.89832 -2.9343,-7.65623 -1.88434,-1.75791 -4.44981,-2.5 -7.12177,-2.5 h -29.61804 c -0.0611,-0.003 -0.12228,-0.003 -0.18339,0 z"
         id="path2-3"
         sodipodi:nodetypes="sssssccscsssccccccccsccsssccssscc" />
    </g>
    <path
       d="m 426.07143,519.79807 c 0,-5.51655 -4.48806,-10.00007 -9.99997,-10.00007 -5.51197,0 -10.00003,4.48818 -10.00003,10.00007 0,5.51645 4.48806,9.99993 10.00003,9.99993 5.51191,0 9.99997,-4.48291 9.99997,-9.99993 z m -10.49628,4.06316 c -0.36325,0 -0.78815,-0.10227 -1.27417,-0.30682 -0.48634,-0.20474 -0.86502,-0.47091 -1.13086,-0.78816 l 1.03858,-1.29971 c 0.44022,0.45529 0.94669,0.73654 1.53,0.85443 v -1.99061 c -0.7215,-0.17933 -1.26892,-0.49677 -1.64269,-0.94681 -0.37887,-0.45057 -0.56799,-0.97245 -0.56799,-1.56609 0,-0.62906 0.18423,-1.15645 0.54763,-1.59113 0.36326,-0.43532 0.92078,-0.66536 1.67326,-0.70123 v -0.79809 h 0.98291 v 0.81357 c 0.79306,0.0758 1.48388,0.37858 2.06219,0.9056 l -1.08508,1.35101 c -0.39404,-0.33268 -0.72656,-0.53718 -0.99796,-0.62421 v 1.71438 c 1.50473,0.46044 2.25682,1.31007 2.25682,2.54835 0,0.62447 -0.18939,1.15165 -0.57334,1.57595 -0.38384,0.42494 -0.94669,0.70614 -1.69393,0.83934 v 1.03375 h -0.96733 v -1.01841 h -0.15817 z"
       id="path27341-3-1-5"
       style="stroke-width:0.0976882;fill-opacity:1;fill:url(#linearGradient2);" />
    <path
       d="m 415.7388,517.12239 c -0.36834,0.12781 -0.55248,0.36328 -0.55248,0.70605 0,0.37381 0.18414,0.62438 0.55248,0.75206 z"
       id="path27343-9-4-6"
       style="stroke-width:0.0976882;fill-opacity:1;fill:url(#linearGradient5);" />
    <path
       d="m 417.32519,521.4566 c 0,-0.37363 -0.20458,-0.62938 -0.60879,-0.77778 v 1.54014 c 0.40421,-0.10197 0.60879,-0.358 0.60879,-0.7624 z"
       id="path27345-0-6-3"
       style="stroke-width:0.0976882;fill-opacity:1;fill:url(#linearGradient7);" />
  </g>
</svg>
