<?xml version="1.0" encoding="UTF-8" standalone="no"?>
<svg
   width="64"
   version="1.1"
   height="64"
   id="svg15"
   sodipodi:docname="folder-arch.svg"
   inkscape:version="1.3.2 (091e20ef0f, 2023-11-25)"
   xmlns:inkscape="http://www.inkscape.org/namespaces/inkscape"
   xmlns:sodipodi="http://sodipodi.sourceforge.net/DTD/sodipodi-0.dtd"
   xmlns:xlink="http://www.w3.org/1999/xlink"
   xmlns="http://www.w3.org/2000/svg"
   xmlns:svg="http://www.w3.org/2000/svg"
   xmlns:rdf="http://www.w3.org/1999/02/22-rdf-syntax-ns#"
   xmlns:cc="http://creativecommons.org/ns#"
   xmlns:dc="http://purl.org/dc/elements/1.1/">
  <sodipodi:namedview
     pagecolor="#ffffff"
     bordercolor="#666666"
     borderopacity="1"
     objecttolerance="10"
     gridtolerance="10"
     guidetolerance="10"
     inkscape:pageopacity="0"
     inkscape:pageshadow="2"
     inkscape:window-width="1920"
     inkscape:window-height="1001"
     id="namedview17"
     showgrid="true"
     inkscape:zoom="9.8125"
     inkscape:cx="32"
     inkscape:cy="32.050955"
     inkscape:window-x="0"
     inkscape:window-y="0"
     inkscape:window-maximized="1"
     inkscape:current-layer="layer1"
     inkscape:document-rotation="0"
     inkscape:showpageshadow="2"
     inkscape:pagecheckerboard="0"
     inkscape:deskcolor="#d1d1d1">
    <inkscape:grid
       type="xygrid"
       id="grid850"
       originx="0"
       originy="0"
       spacingy="1"
       spacingx="1"
       units="px"
       visible="true" />
  </sodipodi:namedview>
  <defs
     id="defs5455">
    <linearGradient
       id="linearGradient1"
       inkscape:collect="always">
      <stop
         style="stop-color:#707375;stop-opacity:1;"
         offset="0"
         id="stop1" />
      <stop
         style="stop-color:#707375;stop-opacity:0;"
         offset="1"
         id="stop2" />
    </linearGradient>
    <linearGradient
       inkscape:collect="always"
       xlink:href="#linearGradient836"
       id="linearGradient838"
       x1="6"
       y1="50.000134"
       x2="94.005508"
       y2="50.000134"
       gradientUnits="userSpaceOnUse"
       gradientTransform="matrix(0.97683962,0,0,0.99960072,64.337096,974.91885)" />
    <linearGradient
       inkscape:collect="always"
       id="linearGradient836">
      <stop
         style="stop-color:#4b8bd4;stop-opacity:1"
         offset="0"
         id="stop832" />
      <stop
         style="stop-color:#3b6ca7;stop-opacity:1"
         offset="1"
         id="stop834" />
    </linearGradient>
    <linearGradient
       inkscape:collect="always"
       xlink:href="#linearGradient1"
       id="linearGradient2"
       x1="15.230184"
       y1="90.003683"
       x2="181.38192"
       y2="90.003683"
       gradientUnits="userSpaceOnUse" />
    <linearGradient
       inkscape:collect="always"
       xlink:href="#linearGradient836"
       id="linearGradient4"
       x1="406.07144"
       y1="519.79797"
       x2="426.1604"
       y2="519.79797"
       gradientUnits="userSpaceOnUse" />
  </defs>
  <metadata
     id="metadata5458">
    <rdf:RDF>
      <cc:Work
         rdf:about="">
        <dc:format>image/svg+xml</dc:format>
        <dc:type
           rdf:resource="http://purl.org/dc/dcmitype/StillImage" />
      </cc:Work>
    </rdf:RDF>
  </metadata>
  <g
     inkscape:label="Capa 1"
     inkscape:groupmode="layer"
     id="layer1"
     transform="translate(-384.57143,-483.798)">
    <g
       transform="matrix(0.7435117,0,0,0.74285165,332.43693,-245.2334)"
       id="g4"
       style="stroke-width:0.999157">
      <path
         style="color:#000000;font-style:normal;font-variant:normal;font-weight:normal;font-stretch:normal;font-size:medium;line-height:normal;font-family:Sans;-inkscape-font-specification:Sans;text-indent:0;text-align:start;text-decoration:none;text-decoration-line:none;letter-spacing:normal;word-spacing:normal;text-transform:none;writing-mode:lr-tb;direction:ltr;baseline-shift:baseline;text-anchor:start;display:inline;overflow:visible;visibility:visible;opacity:1;fill:url(#linearGradient838);fill-opacity:1;fill-rule:nonzero;stroke:none;stroke-width:3.95263;marker:none;enable-background:accumulate"
         d="m 77.516136,989.47294 c -3.988712,0 -7.396866,2.85993 -7.396866,6.65625 v 56.01651 c 0,2.3649 0.836461,3.8844 2.460429,5.2631 1.623967,1.3787 3.30936,2.0641 5.459931,2.0641 h 68.3709 c 1.64145,0.029 1.59477,-2.2249 3.9e-4,-2.2488 l -68.465873,-0.04 c -2.115981,0 -3.874159,-1.4929 -3.874159,-1.4929 0,0 -1.620163,-1.2165 -1.620163,-3.5457 v -56.01651 c 0,-2.61614 1.77916,-4.29462 4.886948,-4.26047 l 24.066557,-0.0121 11.47627,10.23088 c 0.34679,0.3129 0.79077,0.759 1.25317,0.769 l 33.37023,-0.012 c 1.7015,-0.01 1.64773,-2.3444 -0.0538,-2.3717 h -32.61346 l -12.1651,-10.53119 c -0.35109,-0.30157 -0.79464,-0.46748 -1.25318,-0.46875 z m 38.818274,2.90625 c -1.55276,-0.004 -1.55586,2.67092 0.0388,2.69371 l 29.7626,-0.0408 c 3.0158,-0.004 4.32232,0.97316 5.32647,1.90993 1.00416,0.93677 2.53008,3.23017 2.53008,5.59337 v 54.9375 c 0.009,1.8591 2.19838,1.9203 2.20491,0.064 l -0.006,-55.0018 c -3.1e-4,-3.21041 -1.04994,-5.89832 -2.9343,-7.65623 -1.88434,-1.75791 -4.44981,-2.5 -7.12177,-2.5 h -29.61804 c -0.0611,-0.003 -0.12228,-0.003 -0.18339,0 z"
         id="path2-3"
         sodipodi:nodetypes="sssssccscsssccccccccsccsssccssscc" />
    </g>
    <path
       d="m 425.37436,515.91901 c -0.50051,-1.1862 -1.23926,-2.2538 -2.14467,-3.17909 -0.92941,-0.92524 -2.00174,-1.63703 -3.19328,-2.13513 -1.23945,-0.52212 -2.54998,-0.80679 -3.90838,-0.80679 -1.35846,0 -2.66907,0.28466 -3.90825,0.80663 -1.19154,0.49829 -2.26386,1.23371 -3.1933,2.13513 -0.9294,0.92527 -1.64434,1.99287 -2.14465,3.17912 -0.52446,1.23392 -0.8104,2.53861 -0.8104,3.89104 0,1.35242 0.28592,2.65715 0.81022,3.89091 0.50054,1.18622 1.2392,2.25384 2.14469,3.17909 0.92938,0.92526 2.00174,1.63705 3.19326,2.13515 1.2392,0.52196 2.54997,0.78293 3.90825,0.78293 1.35842,0 2.66894,-0.26098 3.90824,-0.78293 1.19151,-0.49828 2.26386,-1.23372 3.19323,-2.13515 0.9294,-0.92525 1.64439,-1.99287 2.14472,-3.17909 0.52426,-1.23376 0.78636,-2.53866 0.78636,-3.89091 3.3e-4,-1.35243 -0.2618,-2.65712 -0.78607,-3.89091 z"
       id="path67-2-5-7"
       style="stroke-width:0.0452907;fill-opacity:1;fill:url(#linearGradient4);" />
    <g
       transform="matrix(0.07252907,0,0,0.07220722,408.95149,513.23484)"
       style="fill:url(#linearGradient2);fill-opacity:1;stroke-width:1.06668"
       id="g355-0-0-5">
      <g
         id="22-22-start-here-kde-3-7-2-5-0-7-2-4-3"
         style="fill:url(#linearGradient2);fill-opacity:1;stroke-width:1.06668">
        <g
           transform="translate(-50.6,-139.51)"
           id="g6-5-9-3-9-2-3-8-5"
           style="fill:url(#linearGradient2);fill-opacity:1;stroke-width:1.06668">
          <g
             transform="matrix(0.87464,0,0,0.87464,14.731,23.409)"
             id="g4-3-1-5-3-7-7-7-6"
             style="fill:url(#linearGradient2);fill-opacity:1;stroke-width:1.06668">
            <path
               d="m 153.38905,137.48436 c -8.45688,20.73375 -13.55725,34.29672 -22.97347,54.41422 5.77298,6.11929 12.85869,13.24513 24.36601,21.29397 -12.37165,-5.09089 -20.81149,-10.20213 -27.11793,-15.50544 -12.05039,25.1446 -30.929717,60.9619 -69.240556,129.79885 30.112235,-17.38388 53.453866,-28.10117 75.207436,-32.19076 -0.93411,-4.01755 -1.46526,-8.36346 -1.42913,-12.89756 l 0.0357,-0.96466 c 0.47781,-19.29205 10.51344,-34.12751 22.40182,-33.12026 11.88803,1.00729 21.12819,17.47191 20.65029,36.76396 -0.0899,3.63009 -0.49933,7.1223 -1.21476,10.36115 21.51805,4.20917 44.61042,14.89949 74.3145,32.04784 -5.85713,-10.78337 -11.08509,-20.50394 -16.07708,-29.76124 -7.86408,-6.09516 -16.0668,-14.02829 -32.799,-22.61562 11.50046,2.98836 19.73451,6.43598 26.15299,10.2897 -50.76023,-94.50746 -54.87154,-107.06547 -72.27828,-147.92015 z"
               id="path2-5-2-6-6-2-5-1-2"
               style="fill:#ffffff;fill-opacity:1;stroke-width:1.21953" />
          </g>
        </g>
      </g>
    </g>
  </g>
</svg>
