<?xml version="1.0" encoding="UTF-8" standalone="no"?>
<svg
   width="64"
   version="1.1"
   height="64"
   id="svg17"
   sodipodi:docname="folder_html.svg"
   inkscape:version="1.3.2 (091e20ef0f, 2023-11-25)"
   xmlns:inkscape="http://www.inkscape.org/namespaces/inkscape"
   xmlns:sodipodi="http://sodipodi.sourceforge.net/DTD/sodipodi-0.dtd"
   xmlns:xlink="http://www.w3.org/1999/xlink"
   xmlns="http://www.w3.org/2000/svg"
   xmlns:svg="http://www.w3.org/2000/svg"
   xmlns:rdf="http://www.w3.org/1999/02/22-rdf-syntax-ns#"
   xmlns:cc="http://creativecommons.org/ns#"
   xmlns:dc="http://purl.org/dc/elements/1.1/">
  <sodipodi:namedview
     pagecolor="#ffffff"
     bordercolor="#666666"
     borderopacity="1"
     objecttolerance="10"
     gridtolerance="10"
     guidetolerance="10"
     inkscape:pageopacity="0"
     inkscape:pageshadow="2"
     inkscape:window-width="1920"
     inkscape:window-height="996"
     id="namedview19"
     showgrid="false"
     inkscape:zoom="9.8125"
     inkscape:cx="32"
     inkscape:cy="32"
     inkscape:window-x="0"
     inkscape:window-y="0"
     inkscape:window-maximized="1"
     inkscape:current-layer="layer1"
     inkscape:document-rotation="0"
     inkscape:showpageshadow="2"
     inkscape:pagecheckerboard="0"
     inkscape:deskcolor="#d1d1d1" />
  <defs
     id="defs5455">
    <linearGradient
       inkscape:collect="always"
       id="linearGradient843">
      <stop
         style="stop-color:#4b8bd4;stop-opacity:1"
         offset="0"
         id="stop839" />
      <stop
         style="stop-color:#3b6ca7;stop-opacity:1"
         offset="1"
         id="stop841" />
    </linearGradient>
    <linearGradient
       inkscape:collect="always"
       xlink:href="#linearGradient843"
       id="linearGradient890"
       x1="406.05936"
       y1="519.07739"
       x2="425.9559"
       y2="519.07739"
       gradientUnits="userSpaceOnUse"
       gradientTransform="translate(-1.9838888e-8,0.72062193)" />
    <linearGradient
       inkscape:collect="always"
       xlink:href="#linearGradient843"
       id="linearGradient838"
       x1="6"
       y1="50.000134"
       x2="94.005508"
       y2="50.000134"
       gradientUnits="userSpaceOnUse"
       gradientTransform="matrix(0.97683962,0,0,0.99959872,127.22083,990.31135)" />
  </defs>
  <metadata
     id="metadata5458">
    <rdf:RDF>
      <cc:Work
         rdf:about="">
        <dc:format>image/svg+xml</dc:format>
        <dc:type
           rdf:resource="http://purl.org/dc/dcmitype/StillImage" />
      </cc:Work>
    </rdf:RDF>
  </metadata>
  <g
     inkscape:label="Capa 1"
     inkscape:groupmode="layer"
     id="layer1"
     transform="translate(-384.57143,-483.798)">
    <path
       d="m 425.6732,517.47052 z m -7.19594,12.04389 c -4.88781,1.19313 -10.06979,-1.46328 -11.81221,-6.34837 -0.63359,-1.77843 -0.76938,-3.60191 -0.36205,-5.44788 0.0226,-0.045 0.0453,-0.11257 0.0678,-0.15759 0,0.045 0,0.11256 0.0226,0.15759 0,0.0225 0.0226,0.0675 0.0453,0.0902 0,-0.045 0.0226,-0.0675 0.0226,-0.11256 0,-0.13508 0,-0.27015 0.0226,-0.42772 0.13577,0.11256 0.0453,0.27014 0.0905,0.3827 0.0678,0.18009 0.0678,0.36019 0.0678,0.56279 -0.0226,0.29267 0.24891,0.49527 0.45258,0.51778 0.38468,0.045 0.61097,0.33768 0.9504,0.45024 0.15841,0.045 0.24892,0.20261 0.27154,0.27015 0.0453,0.29265 0.27155,0.3827 0.45258,0.49526 0.0452,0.0225 0.0906,0.0675 0.13577,0 0.15841,-0.31517 0.18104,-0.0902 0.24891,0.045 0.15841,0.33768 0.0226,0.60783 -0.1584,0.87797 -0.13577,0.18009 -0.29415,0.36018 -0.13577,0.60781 0.0226,0.0225 0,0.0901 -0.0226,0.11257 -0.11316,0.1801 -0.0453,0.31516 0.0678,0.47274 0.15841,0.22513 0.29418,0.45025 0.40732,0.69787 0.1584,0.31517 0.29417,0.60783 0.65622,0.76542 0.2263,0.0901 0.36207,0.29264 0.3847,0.56279 0.0678,0.76541 0.18104,1.53082 0.29417,2.2737 0.0678,0.45025 0.42995,0.76541 0.58835,1.17062 0.0678,0.18009 0.18105,0.33768 0.31682,0.49528 0.24891,0.29264 0.61096,0.31516 0.92777,0.47274 0.0226,0 0.0678,0 0.0905,0 -0.0226,-0.0225 -0.0678,-0.045 -0.0905,-0.0675 -0.20366,-0.18009 -0.6336,-0.22511 -0.36207,-0.65283 0,-0.0225 -0.0226,-0.0675 -0.0226,-0.0675 -0.31681,-0.0675 -0.15841,-0.29264 -0.13579,-0.45022 0,-0.0901 0.0906,-0.15759 -0.0453,-0.1801 -0.0226,0 -0.0453,-0.045 -0.0453,-0.0675 0.24891,0.0675 0.1584,-0.29266 0.36207,-0.29266 0.29417,0 0.4073,-0.11256 0.24891,-0.40521 -0.0452,-0.0675 -0.11314,-0.15759 0.0678,-0.11256 0.18103,0.045 0.27154,-0.0225 0.31679,-0.18009 0.0453,-0.15759 0.11315,-0.31518 0.24893,-0.45026 0.11313,-0.13506 0.18102,-0.29264 0.13576,-0.49524 -0.0678,-0.33769 0.27155,-0.40523 0.47521,-0.42773 0.42995,-0.045 0.45257,-0.33768 0.54309,-0.63034 0.0678,-0.22512 0.0678,-0.45024 0.0453,-0.69786 -0.0226,-0.24765 0.18102,-0.40522 0.3168,-0.58531 0.18105,-0.22512 0.29417,-0.51778 0.11314,-0.72039 -0.18101,-0.20261 -0.4073,-0.42772 -0.7241,-0.45024 -0.45259,-0.0225 -0.79202,-0.31517 -1.1767,-0.47276 -0.13577,-0.045 -0.13577,-0.27013 -0.18103,-0.4052 -0.11315,-0.31517 -0.3168,-0.45025 -0.63361,-0.49527 -0.38469,-0.045 -0.54309,-0.33768 -0.7015,-0.60782 -0.11314,-0.20261 -0.27153,-0.11256 -0.36205,-0.0902 -0.22629,0.0675 -0.40732,0 -0.56571,-0.0902 -0.3847,-0.2026 -0.70151,-0.13508 -0.97305,0.27014 -0.0453,0.0675 -0.11313,0.1801 -0.22628,0.0675 -0.0678,-0.0675 -0.1584,-0.0675 -0.27154,-0.0225 -0.20367,0.0901 -0.38469,-0.0675 -0.36206,-0.29265 0,-0.0901 0.0226,-0.18009 0.0453,-0.27015 0.0678,-0.3827 0.0453,-0.42772 -0.33943,-0.3827 -0.1584,0.0225 -0.18103,-0.0225 -0.11313,-0.15758 0.0678,-0.13507 0.13576,-0.27014 0.15838,-0.42773 0.0226,-0.0902 0.15841,-0.20261 0,-0.27014 -0.11313,-0.045 -0.31681,0 -0.33943,0.15759 -0.0453,0.27014 -0.20365,0.33766 -0.42995,0.29264 -0.24891,-0.0675 -0.22629,-0.31516 -0.18102,-0.49525 0.0453,-0.3602 0.0678,-0.76541 0.45257,-0.99053 0.0904,-0.0675 0.18102,-0.0901 0.29418,-0.0675 0.11313,0.0225 0.20365,0.0225 0.3168,-0.0902 0.1584,-0.15758 0.33943,-0.045 0.52046,0 0.13578,0.045 0.0678,0.18011 0.0906,0.27015 0.0226,0.13507 0.0226,0.33768 0.1584,0.31517 0.1584,0 0.18103,-0.20261 0.13577,-0.36019 -0.0906,-0.33768 0.0226,-0.63034 0.33942,-0.78792 0.33944,-0.18009 0.49785,-0.47277 0.70151,-0.76541 0.13576,-0.22512 0.38469,-0.33768 0.61096,-0.49527 0.22629,-0.13506 0.40732,-0.38271 0.7015,-0.49525 0.0453,-0.0225 0.0906,-0.0225 0.11315,-0.045 -0.0226,0.045 -0.0226,0.0675 -0.0453,0.11255 -0.0226,0.045 -0.0453,0.0675 0,0.0902 0.0226,0 0.0678,0 0.0906,-0.0225 0.0678,-0.0902 0.18102,-0.11255 0.29417,-0.13507 0.0678,-0.0225 0.18102,-0.0675 0.20365,-0.11255 0,-0.0902 -0.11313,-0.045 -0.1584,-0.0902 -0.0905,-0.0675 -0.0905,-0.13507 -0.0453,-0.20261 0.0453,-0.11257 0.20366,-0.22511 -0.0678,-0.22511 0,0 -0.0226,-0.0226 -0.0226,-0.045 0.0226,0 0.0453,-0.0225 0.0678,-0.0225 0.31682,-0.0675 0.65624,0.045 0.95042,-0.1801 0.0226,0 0.0453,0.0225 0.0678,0.0225 -0.0226,0.0225 -0.0226,0.045 -0.0452,0.0675 -0.0678,0.1576 -0.36205,0.22513 -0.27155,0.40522 0.0453,0.0901 0.3168,-0.0675 0.49782,0.0675 0.0678,0.045 0.18105,0 0.13579,-0.0675 -0.0678,-0.11255 0.15839,-0.29265 -0.0453,-0.29265 -0.20366,-0.0225 -0.13578,-0.0902 -0.0905,-0.18011 0.13579,-0.2251 0.18105,-0.4052 -0.11312,-0.51776 -0.15841,-0.0675 -0.0678,-0.22511 -0.11316,-0.33767 -0.0453,-0.1801 -0.0678,-0.31518 -0.29417,-0.13508 -0.0905,0.0675 -0.33942,0.29266 -0.27153,-0.11255 0.0226,-0.0901 -0.13578,-0.1801 -0.20366,-0.1801 -0.18103,0 -0.40733,-0.11256 -0.49784,0.11255 -0.0906,0.1801 -0.3168,0.29266 -0.3168,0.54028 0,0.0675 -0.11316,0.13508 -0.20366,0.18011 -0.18103,0.0675 -0.31681,0.15758 -0.33943,0.36019 -0.0226,0.11256 -0.11315,0.2026 -0.22628,0.15758 -0.13579,-0.0675 -0.0226,-0.18009 0.0226,-0.24763 0.0905,-0.11256 0.0905,-0.20261 -0.0905,-0.1801 -0.18103,0.0225 -0.29418,-0.15758 -0.49784,-0.18008 -0.0678,0 -0.0678,-0.1801 0.0226,-0.24765 0.29418,-0.29264 0.67886,-0.3827 1.01829,-0.60781 0.0905,-0.0675 0.11313,0.2026 0.18102,0.0675 0.0678,-0.13507 0.49784,0.0902 0.29418,-0.29265 0.11315,-0.045 0.20366,-0.0675 0.31681,-0.11257 0.1584,-0.0675 0.20364,-0.27013 0.40732,-0.31516 0.18103,-0.0225 0.38468,-0.045 0.40731,0.11256 0.0226,0.15759 -0.20366,0.2026 -0.33943,0.27014 -0.0678,0.0226 -0.13577,0 -0.20365,0.0226 -0.0453,0.0225 -0.11315,0.0675 -0.11315,0.0901 0,0.0675 0.0905,0.045 0.13577,0.045 0.13577,-0.0226 0.24892,-0.0226 0.33942,0.11255 0.0678,0.0901 0.31682,0.13507 0.31682,0.0901 0.0226,-0.2026 0.54308,-0.045 0.27153,-0.40521 0,-0.0225 0,-0.0675 0,-0.0675 0.0453,-0.045 0.0905,-0.0225 0.13578,0.0225 0.1584,0.1801 0.29417,0.0225 0.36206,-0.0675 0.0906,-0.13508 -0.1584,-0.13508 -0.1584,-0.18009 0,-0.29266 -0.27154,-0.24763 -0.40731,-0.33769 -0.13577,-0.0901 -0.24892,-0.0901 -0.38469,-0.0675 0.0453,0.0225 0.0453,0.0901 0,0.0675 -0.18102,-0.11256 -0.3168,-0.0225 -0.47521,0 -0.1584,0.045 -0.29417,0.045 -0.42994,-0.045 -0.0905,-0.0675 -0.18103,-0.045 -0.27154,0 -0.0226,0 -0.0453,0.0225 -0.0453,0.045 0,0 0.0226,0.0225 0.0453,0.0225 0.0678,0 0.13577,-0.11255 0.20366,-0.0225 -0.0906,0.0675 -0.18105,0.11256 -0.29418,0.13508 v 0 c 0,0 0,0 0,0 -0.27155,-0.045 -0.36207,0.045 -0.33943,0.27013 0,0.045 -0.0226,0.0901 -0.0453,0.13507 -0.11315,-0.0901 -0.33944,0.0675 -0.33944,-0.0225 0,-0.13508 -0.0678,-0.33768 0.11314,-0.45023 2.17237,-1.28319 4.48049,-1.75594 6.96966,-1.32822 1.6519,0.29266 3.12276,0.94551 4.45786,1.95855 0.0678,0.045 0.11314,0.11254 0.15841,0.15758 -0.0906,0.045 -0.13578,-0.045 -0.20367,-0.0675 -0.20365,-0.0901 -0.38468,-0.24764 -0.61098,-0.29265 -0.29416,-0.045 -0.58833,-0.0901 -0.81464,0.15758 -0.15839,0.15757 -0.33942,0.27014 -0.56571,0.31517 -0.18102,0.045 -0.22628,0.13508 -0.13576,0.31516 0.0678,0.1801 0.15839,0.29265 0.33942,0.20261 0.15841,-0.0902 0.22629,-0.0225 0.31681,0.0901 0.11313,0.13507 0.0678,0.1801 -0.0226,0.27015 -0.0226,0.0226 0.0226,0.11256 -0.0678,0.0902 -0.11316,0.0225 -0.0905,-0.0226 -0.0905,-0.0902 0,-0.0675 0.0905,-0.18009 -0.0453,-0.18009 -0.11316,0 -0.20367,0.11255 -0.15841,0.22512 0.0906,0.1801 -0.0226,0.22512 -0.15839,0.22512 -0.2263,0.0226 -0.31681,0.29265 -0.52047,0.31517 -0.11313,0.24762 -0.38469,0.11255 -0.56572,0.22512 -0.0453,0.0225 -0.13577,0 -0.15839,0.0675 0,0.0225 0.0678,0.0675 0.11313,0.0902 0.0905,0.045 0.15841,0.11256 0.22629,0.18009 0.0905,0.11256 0.0678,0.22512 0.0226,0.33768 -0.0453,0.13507 -0.15842,0.0675 -0.24893,0.0675 -0.0226,0 -0.0453,0 -0.0453,0 -0.58836,-0.0675 -0.76938,0.11255 -0.67888,0.69786 0.0226,0.11256 0.0226,0.27015 0.22628,0.24763 0.15842,0 0.2263,0.11256 0.11316,0.24763 -0.22629,0.27014 -0.4752,0.54029 -0.58835,0.90048 -0.0678,0.15758 -0.3168,0.15758 -0.42994,0.36019 -0.15841,0.36019 -0.56572,0.60782 -0.40732,1.10308 0.0678,0.20261 0,0.40522 -0.0678,0.63033 -0.0678,0.20261 -0.0678,0.45026 0.13578,0.63034 0.33944,0.27014 0.45258,0.72039 0.83727,0.94551 0.15839,0.0901 0.27154,0.11256 0.45256,0.0901 0.42995,-0.045 0.83727,-0.18009 1.24459,-0.2026 0.2489,-0.0225 0.52046,0.24763 0.79201,0.3602 0.1584,0.0675 0,0.36018 -0.0226,0.54028 -0.0226,0.15758 -0.0226,0.27014 0.0906,0.38271 0.33943,0.36017 0.38469,0.81043 0.4752,1.26065 0.0453,0.20261 -0.18102,0.33769 -0.22628,0.54029 -0.0678,0.27015 -0.11316,0.51778 0.0453,0.76541 0.15838,0.24763 0.22628,0.51776 0.18102,0.81044 -0.0226,0.29264 0.22629,0.45022 0.27154,0.69787 0.0906,0.49525 0.11314,0.47275 0.6336,0.38269 0.58834,-0.11255 0.8599,-0.58531 1.10881,-1.05806 0.0678,-0.11257 0.0678,-0.22512 0.20366,-0.27014 0.13578,-0.0675 0.20366,-0.24763 0.1584,-0.3827 -0.0678,-0.29266 0.0906,-0.49527 0.29417,-0.63035 0.42995,-0.27013 0.47521,-0.67534 0.36207,-1.05805 -0.20366,-0.7429 0.15838,-1.26066 0.58834,-1.75593 0.33943,-0.38271 0.45258,-0.81043 0.52047,-1.26067 0.0226,-0.11255 0,-0.20261 -0.15841,-0.11255 -0.0678,0.045 -0.13577,0.0675 -0.22627,0.0901 -0.11316,0.0226 -0.24892,0.0675 -0.31681,-0.0901 -0.0906,-0.20262 0.11313,-0.15759 0.18102,-0.18011 0.40733,-0.22512 0.83726,-0.45023 0.90515,-0.99051 0.0226,-0.15759 0,-0.31518 -0.11314,-0.45024 -0.0678,-0.0902 -0.11315,-0.20261 -0.0678,-0.31517 0.49782,0.54029 0.42994,1.26065 0.45255,1.89099 0.24892,4.79505 -2.98698,8.95976 -7.58062,10.08536 z m -8.71206,-11.41356 c -0.24892,-0.15758 -0.45258,-0.40521 -0.79201,-0.40521 -0.0906,0.0225 -0.20366,0.045 -0.29417,0.13506 -0.0226,0.0226 -0.0453,0.11257 0.0226,0.0901 0.36204,-0.13508 0.56571,0.0225 0.792,0.27013 0.0453,0.045 0.18102,0.0902 0.29416,0.0226 0,-0.045 -0.0226,-0.11255 -0.0226,-0.11255 z m 0.67887,0.24764 c -0.0906,-0.13508 -0.2263,-0.15759 -0.3847,-0.1801 -0.20365,-0.045 -0.11314,0.24763 -0.27155,0.22512 0.0678,0.0226 0.13577,0.0675 0.2263,0.0902 0.13577,-0.0675 0.29417,-0.0902 0.42995,-0.13507 z m 7.82954,-6.50594 c 0,-0.0901 -0.0906,-0.11257 -0.15841,-0.11257 -0.18103,0 -0.36206,0 -0.54309,0 -0.0678,0 -0.1584,-0.0675 -0.20366,0.0225 0.0906,0.045 0.0226,0.20261 0.1584,0.24764 0.0678,0.0225 0.15842,0.0225 0.24892,0.045 0.11313,-0.0226 0.24892,-0.0675 0.36206,-0.0902 0.0678,-0.045 0.13578,-0.045 0.13578,-0.11254 z m 0.72411,1.21563 c 0.13577,0.0675 0.36205,0.0902 0.11315,0.31517 -0.0678,0.0675 0,0.22513 -0.0905,0.31516 0.11312,0.0675 0.20365,-0.0225 0.29416,-0.0225 0.13578,0 0.29418,-0.0225 0.42995,-0.045 0,-0.2026 -0.11314,-0.36019 -0.27154,-0.51777 -0.0453,-0.045 -0.11316,-0.11257 -0.11316,-0.18011 0.0226,-0.2251 -0.11314,-0.33767 -0.29417,-0.29264 -0.18102,0.0675 -0.1584,0.24763 -0.0678,0.42772 z m -0.20365,-0.045 c -0.11316,0.0225 -0.29418,0.0675 -0.29418,0.20261 0,0.0901 -0.13577,0.22511 0,0.27013 0.0905,0.0225 0.27154,-0.0225 0.33944,-0.0902 0.0906,-0.0901 0.11313,-0.22512 0.15839,-0.33768 -0.0678,-0.0225 -0.13577,-0.045 -0.20365,-0.045 z m -1.47087,-1.57585 c 0.0905,0 0.18102,-0.0675 0.27154,-0.11256 0.0453,-0.0225 0.0907,-0.045 0.0678,-0.0901 -0.24891,-0.27014 0.0905,-0.11255 0.13577,-0.18009 0.0453,-0.045 0.18104,-0.0675 0.20366,-0.11256 0.0678,-0.29265 0.29418,-0.33767 0.56572,-0.33767 -0.0226,0 0.0226,-0.0225 0.0453,-0.0225 -0.0226,-0.0225 -0.0453,-0.045 -0.0905,-0.045 -0.24891,-0.045 -0.49783,-0.0901 -0.74675,-0.13508 -1.06356,-0.13507 -2.1271,0.0902 -3.21327,0.0225 -0.61099,-0.045 -1.17671,0.22513 -1.78768,0.29267 -0.0906,0 -0.18102,0.0675 -0.27155,0.0902 -0.0226,0 -0.0906,0.0675 -0.0226,0.0675 0.20366,0.045 0,0.0901 0,0.0901 -0.0678,0.0902 -0.18104,0.045 -0.27156,0.0675 -0.0452,0.0225 -0.11312,0.0675 -0.11312,0.0902 0.0226,0.0675 0.0905,0.0226 0.13577,0.0226 0.15839,0 0.31679,0 0.47519,-0.0226 v 0 c 0.33943,-0.24762 0.72412,-0.33769 1.1088,-0.47275 0.0453,-0.0225 0.0905,0 0.13578,-0.0225 0,0.40522 0.29417,0.13508 0.42996,0.1801 0.18103,0.045 0.45256,-0.0675 0.38468,0.29265 0,0.0225 0.0226,0.045 0.0453,0.0675 0.13577,0.11257 0.0905,0.22512 -0.0453,0.27014 -0.27156,0.0675 -0.22629,0.29266 -0.24891,0.49527 0,0.31517 0.27153,0.33768 0.47519,0.42772 0.18103,0.0675 0.24892,-0.0902 0.33944,-0.18009 0.18102,-0.1576 0.29418,-0.38271 0.54309,-0.40521 0.49784,-0.0675 0.9504,-0.31517 1.44824,-0.33769 z m 7.8748,11.50361 c -0.0226,-0.0675 -0.0453,-0.11257 -0.0453,-0.18011 -0.0453,0.045 -0.0906,0.0901 -0.11316,0.13508 -0.0453,0.0675 -0.0678,0.20261 -0.1584,0.24763 -0.42995,0.29265 -0.31679,0.76541 -0.47519,1.17062 -0.0226,0.0675 -0.0226,0.15758 0.0678,0.18011 0.0678,0.0225 0.13577,-0.0226 0.18103,-0.0902 0.22628,-0.47275 0.42994,-0.9455 0.54309,-1.46327 z m -1.60663,-6.46093 c -0.0678,0.15758 -0.22629,0 -0.31681,0.0225 -0.3847,0.0902 -0.67888,-0.0902 -0.99567,-0.24764 -0.11315,-0.045 -0.24892,-0.0225 -0.27154,0.0675 -0.15841,0.51777 -0.36207,-0.045 -0.52046,0.0226 -0.0226,0 -0.0678,-0.11257 -0.0905,-0.11257 -0.36206,-0.045 -0.61098,-0.15758 -0.49784,-0.60782 0.0226,-0.0675 -0.11314,-0.11255 -0.18102,-0.0901 -0.45258,0.0675 -0.95041,-0.0902 -1.35774,0.22512 -0.0453,0.045 -0.13577,0 -0.20364,0 -0.0678,0 -0.20367,0.0226 -0.20367,-0.0675 0,-0.11254 0.11314,-0.0901 0.20367,-0.11254 0.22628,-0.0226 0.33941,-0.15759 0.42993,-0.3602 0.11316,-0.29266 0.40732,-0.42773 0.61099,-0.5628 0.45257,-0.33767 0.61097,0.0675 0.85988,0.24763 0.0905,0.0675 0.18103,0.13508 0.29417,0.1801 0.0678,0.045 0.13579,0.11256 0.11315,0.18009 -0.0226,0.11257 -0.11315,0.0901 -0.20365,0.0901 -0.0453,0.0226 -0.13577,-0.045 -0.15841,0.045 0,0.0225 0.0453,0.0675 0.0905,0.0902 0.0678,0.0226 0.1584,0.13508 0.20366,0.045 0.0452,-0.11256 0.13577,-0.1801 0.20366,-0.29265 0.22628,-0.33769 -0.1584,-0.29266 -0.24892,-0.42773 -0.0226,-0.045 -0.11315,-0.045 -0.11315,-0.0902 -0.0453,-0.11255 -0.27154,-0.20261 -0.15838,-0.31515 0.11313,-0.11257 0.20364,0.11254 0.31679,0.15758 0.42994,0.15757 0.4752,0.60782 0.70149,0.90047 0.0453,0.0675 0.0678,0.20261 0.18103,0.15758 0.0905,-0.045 0.13578,-0.15758 0.0905,-0.27014 -0.0226,-0.11256 -0.11315,-0.22512 0.0453,-0.27014 0.18101,-0.045 0.20364,0.11256 0.22629,0.22512 0.0453,0.29265 0.22628,0.40522 0.52045,0.40522 0.15841,0 0.29418,0.13507 0.4752,0.0675 0.0226,0 0.0678,0.0225 0.0678,0.0675 0.0226,0.27014 -0.0453,0.45023 -0.11313,0.63033 z m -2.87386,-1.32819 c -0.0452,-0.11257 0.0226,-0.24765 -0.0906,-0.36021 -0.0226,0.11256 -0.0678,0.22513 -0.0905,0.33768 0.0678,0.045 -0.0226,0.1801 0.11315,0.1801 0.0678,-0.0225 0.0905,-0.11256 0.0678,-0.15757 z m 2.67018,-0.42775 c -0.0905,0.0226 -0.15839,0.0226 -0.22627,-0.0675 -0.0678,-0.0902 -0.13578,-0.24763 -0.24892,-0.13508 -0.13577,0.11257 -0.20367,0.29267 -0.15842,0.47277 0.0452,0.13507 0.18105,0.2026 0.29419,0.15759 0.27155,-0.11257 0.49784,-0.045 0.72411,0.0902 0.0678,0.045 0.18104,0.11256 0.22629,0 0.0453,-0.11256 -0.0452,-0.15758 -0.11314,-0.2026 -0.11315,-0.0901 -0.24892,-0.18011 -0.33942,-0.29266 -0.0452,-0.0675 0.0453,-0.20261 -0.13577,-0.18009 -0.0226,0 -0.0453,0 -0.0453,0.0225 -0.0453,0.0902 0.0678,0.0675 0.0905,0.11256 0,0.0225 -0.0226,0.0225 -0.0678,0.0225 z m 0.7015,2.92657 c -0.0678,-0.20262 -0.20366,-0.3602 -0.31681,-0.54029 -0.0226,-0.045 -0.0678,-0.0902 -0.13577,-0.0675 -0.0905,0.0225 -0.0453,0.0902 -0.0226,0.13508 0.27154,0.54029 0.49783,1.10308 0.72413,1.64337 0.0453,0.11255 0.18102,0.2026 0.29416,0.31516 0.0226,0.0225 0.0452,0.0225 0.0678,0.045 0,-0.0226 0.0226,-0.0675 0,-0.0226 0,-0.65284 -0.42994,-1.01303 -0.61098,-1.50829 z m -2.48916,-5.0652 c -0.0905,-0.15757 -0.0226,-0.22512 0.11315,-0.29265 0.0226,-0.0225 0.0678,-0.0675 0.0226,-0.0675 -0.0453,-0.0225 -0.13578,-0.0225 -0.13578,0 -0.0678,0.15758 -0.58834,0.13507 -0.18103,0.47276 0,0 0,0.0675 0,0.0675 -0.15839,0.11257 -0.11313,0.45026 -0.42994,0.40522 -0.0226,0 -0.0905,0 -0.0453,0.045 0.18102,0.22511 0.42994,0 0.65622,0.0675 0.0678,0.0225 0.11315,-0.0675 0.13577,-0.15759 0.0226,-0.24763 0.0905,-0.45024 0.40732,-0.29265 0.0226,0.0225 0.0905,0.0225 0.0905,-0.0225 0,0 -0.0453,-0.045 -0.0905,-0.045 -0.0453,0 -0.11315,0 -0.15839,0 -0.15842,-0.0225 -0.29419,-0.0225 -0.3847,-0.18009 z m 4.07317,4.88509 c -0.22628,-0.11256 -0.42994,-0.24763 -0.49784,-0.49526 -0.0226,-0.045 -0.0678,-0.13507 -0.13577,-0.0902 -0.0678,0.045 -0.0453,0.11255 0,0.18008 0.0905,0.13507 0.20367,0.22513 0.24893,0.36019 0.11314,0.42774 0.22629,0.29267 0.38468,0.045 0,0 0,0 0,0 z m -14.21085,-6.07822 c -0.1584,0.0901 0.0906,0.11256 0.0226,0.22512 -0.0678,0.11256 0.11315,0.18009 0.1584,0.15759 0.20367,-0.0226 0.20367,-0.20261 0.1584,-0.36019 -0.0226,-0.0902 -0.11314,-0.0226 -0.18103,0 -0.0678,0.045 -0.11314,0.045 -0.1584,-0.0226 -0.0226,0 0,0 0,0 z m -1.60663,2.88153 c 0.0226,-0.0902 -0.0678,-0.11256 -0.13577,-0.11256 -0.13579,0.0226 -0.27156,0.0902 -0.33944,0.18009 -0.0226,0.045 0.13577,-0.0225 0.18103,0.045 0.0905,-0.0675 0.27153,0.0675 0.29418,-0.11255 z m -0.0226,0.36019 c -0.0453,0.045 0.0226,0.11256 0.0453,0.0902 0.0905,-0.0675 0.20366,-0.13507 0.27155,-0.22512 0.0226,-0.0225 -0.11315,-0.0675 -0.20366,-0.0675 -0.18103,-0.045 -0.0452,0.13508 -0.11316,0.2026 z m 13.87143,6.46091 c -0.11313,0 -0.15839,0.0675 -0.18104,0.1576 0,0.0675 -0.0226,0.15758 0.0907,0.15758 0.11315,0 0.11315,-0.13507 0.1584,-0.20261 0.0452,-0.0902 -0.0226,-0.0902 -0.0678,-0.11257 z m -14.09773,-6.55098 c -0.11313,0.0225 -0.18103,0.11256 -0.22628,0.20261 -0.0452,0.0675 -0.0905,0.18009 -0.11314,0.24763 0.0226,0 0.0453,0.0225 0.0678,0 0.13577,-0.11256 0.13577,-0.31517 0.3168,-0.42772 -0.0452,0 -0.0452,-0.0225 -0.0452,-0.0225 z"
       id="path2-3"
       style="fill:url(#linearGradient890);fill-opacity:1;stroke-width:0.225117" />
    <g
       transform="matrix(0.7435117,0,0,0.74285314,285.78513,-256.81962)"
       id="g4"
       style="stroke-width:0.999156">
      <path
         style="color:#000000;font-style:normal;font-variant:normal;font-weight:normal;font-stretch:normal;font-size:medium;line-height:normal;font-family:Sans;-inkscape-font-specification:Sans;text-indent:0;text-align:start;text-decoration:none;text-decoration-line:none;letter-spacing:normal;word-spacing:normal;text-transform:none;writing-mode:lr-tb;direction:ltr;baseline-shift:baseline;text-anchor:start;display:inline;overflow:visible;visibility:visible;opacity:1;fill:url(#linearGradient838);fill-opacity:1;fill-rule:nonzero;stroke:none;stroke-width:3.95263;marker:none;enable-background:accumulate"
         d="m 140.26136,1005.0678 c -3.98871,0 -7.39687,2.8599 -7.39687,6.6562 v 56.0165 c 0,2.3649 0.83647,3.8844 2.46043,5.2631 1.62397,1.3787 3.30936,2.0641 5.45993,2.0641 h 68.3709 c 1.64145,0.029 1.59477,-2.2249 3.9e-4,-2.2488 l -68.46587,-0.04 c -2.11598,0 -3.87416,-1.4929 -3.87416,-1.4929 0,0 -1.62016,-1.2165 -1.62016,-3.5457 v -56.0165 c 0,-2.6161 1.77916,-4.2946 4.88695,-4.2605 l 24.06655,-0.012 11.47627,10.2309 c 0.34679,0.3129 0.79077,0.759 1.25317,0.769 l 33.37023,-0.012 c 1.7015,-0.01 1.64773,-2.3444 -0.0538,-2.3717 h -32.61346 l -12.1651,-10.5312 c -0.35109,-0.3015 -0.79464,-0.4674 -1.25318,-0.4687 z m 38.81827,2.9062 c -1.55276,0 -1.55586,2.6709 0.0388,2.6937 l 29.7626,-0.041 c 3.0158,0 4.32232,0.9732 5.32647,1.91 1.00416,0.9367 2.53008,3.2301 2.53008,5.5933 v 54.9375 c 0.009,1.8591 2.19838,1.9203 2.20491,0.064 l -0.006,-55.0018 c -3.1e-4,-3.2104 -1.04994,-5.8983 -2.9343,-7.6562 -1.88434,-1.7579 -4.44981,-2.5 -7.12177,-2.5 h -29.61804 c -0.0611,0 -0.12228,0 -0.18339,0 z"
         id="path2-3-3"
         sodipodi:nodetypes="sssssccscsssccccccccsccsssccssscc" />
    </g>
  </g>
</svg>
