<svg width="128" height="128" viewBox="0 0 128 128" fill="none" xmlns="http://www.w3.org/2000/svg">
<rect width="128" height="128" rx="24" fill="url(#paint0_linear_113_5)"/>
<rect x="4" y="4" width="120" height="120" rx="20" stroke="black" stroke-opacity="0.25" stroke-width="8"/>
<g filter="url(#filter0_d_113_5)">
<path d="M32 51.3333V34C32 32.8954 32.8954 32 34 32H51.3333C52.4379 32 53.3333 32.8954 53.3333 34V53.3333H74.6667V34C74.6667 32.8954 75.5621 32 76.6667 32H94C95.1046 32 96 32.8954 96 34V51.3333C96 52.4379 95.1046 53.3333 94 53.3333H74.6667V62C74.6667 63.1046 75.5621 64 76.6667 64H83.3333C84.4379 64 85.3333 64.8954 85.3333 66V94C85.3333 95.1046 84.4379 96 83.3333 96H76.6667C75.5621 96 74.6667 95.1046 74.6667 94V87.3333C74.6667 86.2288 73.7712 85.3333 72.6667 85.3333H55.3333C54.2288 85.3333 53.3333 86.2288 53.3333 87.3333V94C53.3333 95.1046 52.4379 96 51.3333 96H44.6667C43.5621 96 42.6667 95.1046 42.6667 94V66C42.6667 64.8954 43.5621 64 44.6667 64H51.3333C52.4379 64 53.3333 63.1046 53.3333 62V53.3333H34C32.8954 53.3333 32 52.4379 32 51.3333Z" fill="url(#paint1_linear_113_5)"/>
</g>
<defs>
<filter id="filter0_d_113_5" x="16" y="20" width="96" height="96" filterUnits="userSpaceOnUse" color-interpolation-filters="sRGB">
<feFlood flood-opacity="0" result="BackgroundImageFix"/>
<feColorMatrix in="SourceAlpha" type="matrix" values="0 0 0 0 0 0 0 0 0 0 0 0 0 0 0 0 0 0 127 0" result="hardAlpha"/>
<feOffset dy="4"/>
<feGaussianBlur stdDeviation="8"/>
<feComposite in2="hardAlpha" operator="out"/>
<feColorMatrix type="matrix" values="0 0 0 0 0 0 0 0 0 0 0 0 0 0 0 0 0 0 0.5 0"/>
<feBlend mode="normal" in2="BackgroundImageFix" result="effect1_dropShadow_113_5"/>
<feBlend mode="normal" in="SourceGraphic" in2="effect1_dropShadow_113_5" result="shape"/>
</filter>
<linearGradient id="paint0_linear_113_5" x1="64" y1="0" x2="64" y2="128" gradientUnits="userSpaceOnUse">
<stop stop-color="#7DE27D"/>
<stop offset="1" stop-color="#163C17"/>
</linearGradient>
<linearGradient id="paint1_linear_113_5" x1="64" y1="32" x2="64" y2="96" gradientUnits="userSpaceOnUse">
<stop stop-color="white"/>
<stop offset="1" stop-color="#81BF81"/>
</linearGradient>
</defs>
</svg>
