<svg width="128" height="128" viewBox="0 0 128 128" fill="none" xmlns="http://www.w3.org/2000/svg">
<rect x="4" y="4" width="120" height="120" rx="20" fill="url(#paint0_linear_9_49)" stroke="url(#paint1_linear_9_49)" stroke-width="8"/>
<g filter="url(#filter0_d_9_49)">
<path d="M60.2403 24H45.2674C43.0582 24 41.2674 25.7909 41.2674 28V32.5C41.2674 34.7091 43.0582 36.5 45.2674 36.5H51.3876C53.0738 36.5 54.579 37.5575 55.1507 39.1438L57.2973 45.1004C57.7109 46.2479 57.5782 47.5214 56.9371 48.5591L28.7704 94.1475C27.1239 96.8124 29.0408 100.25 32.1733 100.25H37.4016C38.77 100.25 40.0435 99.5504 40.7775 98.3954L58.9464 69.8059C60.7011 67.045 64.8476 67.4431 66.0449 70.4874L77.8803 100.582C78.6405 102.515 80.754 103.544 82.7448 102.951L99.2429 98.036C101.33 97.4142 102.536 95.237 101.956 93.1378L100.748 88.7603C100.152 86.6032 97.9024 85.3545 95.7566 85.9896L91.9069 87.129C89.9219 87.7165 87.8165 86.6923 87.0534 84.7679L63.9587 26.5256C63.3542 25.0011 61.8803 24 60.2403 24Z" fill="url(#paint2_linear_9_49)"/>
</g>
<path d="M90.5193 48C89.6802 48 89 47.3198 89 46.4807C89 46.1183 89.1295 45.7678 89.3653 45.4925L96.3251 37.3642C97.1847 36.3622 97.8927 35.4913 98.4489 34.7514C99.0052 34.0039 99.4169 33.3025 99.6842 32.6474C99.9587 31.9846 100.096 31.2909 100.096 30.5665C100.096 29.7341 99.9082 29.0135 99.5325 28.4046C99.1641 27.7958 98.6584 27.3256 98.0155 26.9942C97.3725 26.6628 96.6502 26.4971 95.8483 26.4971C94.9959 26.4971 94.2518 26.6859 93.6161 27.0636C92.9876 27.4335 92.5 27.9538 92.1533 28.6243C91.984 28.9584 91.857 29.3213 91.7721 29.7129C91.6225 30.403 91.0715 30.9827 90.3653 30.9827C89.6592 30.9827 89.0737 30.4068 89.178 29.7084C89.3081 28.8367 89.5775 28.0437 89.9861 27.3295C90.5857 26.2813 91.402 25.4644 92.435 24.8786C93.4752 24.2929 94.6419 24 95.935 24C97.2353 24 98.3875 24.2929 99.3916 24.8786C100.396 25.4644 101.183 26.2543 101.754 27.2486C102.325 28.2428 102.61 29.3487 102.61 30.5665C102.61 31.4374 102.462 32.289 102.166 33.1214C101.877 33.9461 101.371 34.8671 100.649 35.8844C99.9334 36.894 98.9401 38.1272 97.6687 39.5838L92.7175 45.2337C92.6961 45.2582 92.6842 45.2896 92.6842 45.3222C92.6842 45.3965 92.7444 45.4566 92.8186 45.4566H101.728C102.431 45.4566 103 46.026 103 46.7283C103 47.4307 102.431 48 101.728 48H90.5193Z" fill="white"/>
<path d="M90.5193 48C89.6802 48 89 47.3198 89 46.4807C89 46.1183 89.1295 45.7678 89.3653 45.4925L96.3251 37.3642C97.1847 36.3622 97.8927 35.4913 98.4489 34.7514C99.0052 34.0039 99.4169 33.3025 99.6842 32.6474C99.9587 31.9846 100.096 31.2909 100.096 30.5665C100.096 29.7341 99.9082 29.0135 99.5325 28.4046C99.1641 27.7958 98.6584 27.3256 98.0155 26.9942C97.3725 26.6628 96.6502 26.4971 95.8483 26.4971C94.9959 26.4971 94.2518 26.6859 93.6161 27.0636C92.9876 27.4335 92.5 27.9538 92.1533 28.6243C91.984 28.9584 91.857 29.3213 91.7721 29.7129C91.6225 30.403 91.0715 30.9827 90.3653 30.9827C89.6592 30.9827 89.0737 30.4068 89.178 29.7084C89.3081 28.8367 89.5775 28.0437 89.9861 27.3295C90.5857 26.2813 91.402 25.4644 92.435 24.8786C93.4752 24.2929 94.6419 24 95.935 24C97.2353 24 98.3875 24.2929 99.3916 24.8786C100.396 25.4644 101.183 26.2543 101.754 27.2486C102.325 28.2428 102.61 29.3487 102.61 30.5665C102.61 31.4374 102.462 32.289 102.166 33.1214C101.877 33.9461 101.371 34.8671 100.649 35.8844C99.9334 36.894 98.9401 38.1272 97.6687 39.5838L92.7175 45.2337C92.6961 45.2582 92.6842 45.2896 92.6842 45.3222C92.6842 45.3965 92.7444 45.4566 92.8186 45.4566H101.728C102.431 45.4566 103 46.026 103 46.7283C103 47.4307 102.431 48 101.728 48H90.5193Z" fill="url(#paint3_linear_9_49)"/>
<defs>
<filter id="filter0_d_9_49" x="12.1669" y="12" width="105.935" height="111.119" filterUnits="userSpaceOnUse" color-interpolation-filters="sRGB">
<feFlood flood-opacity="0" result="BackgroundImageFix"/>
<feColorMatrix in="SourceAlpha" type="matrix" values="0 0 0 0 0 0 0 0 0 0 0 0 0 0 0 0 0 0 127 0" result="hardAlpha"/>
<feOffset dy="4"/>
<feGaussianBlur stdDeviation="8"/>
<feComposite in2="hardAlpha" operator="out"/>
<feColorMatrix type="matrix" values="0 0 0 0 0 0 0 0 0 0 0 0 0 0 0 0 0 0 0.5 0"/>
<feBlend mode="normal" in2="BackgroundImageFix" result="effect1_dropShadow_9_49"/>
<feBlend mode="normal" in="SourceGraphic" in2="effect1_dropShadow_9_49" result="shape"/>
</filter>
<linearGradient id="paint0_linear_9_49" x1="64" y1="0" x2="64" y2="128" gradientUnits="userSpaceOnUse">
<stop stop-color="#242424"/>
<stop offset="1" stop-color="#141414"/>
</linearGradient>
<linearGradient id="paint1_linear_9_49" x1="64" y1="0" x2="64" y2="128" gradientUnits="userSpaceOnUse">
<stop stop-color="#F07920"/>
<stop offset="1" stop-color="#FF5634"/>
</linearGradient>
<linearGradient id="paint2_linear_9_49" x1="64" y1="24" x2="64" y2="104" gradientUnits="userSpaceOnUse">
<stop stop-color="#F07920"/>
<stop offset="1" stop-color="#F9512F"/>
</linearGradient>
<linearGradient id="paint3_linear_9_49" x1="96" y1="24" x2="96" y2="48" gradientUnits="userSpaceOnUse">
<stop stop-color="#F07920"/>
<stop offset="1" stop-color="#F9512F"/>
</linearGradient>
</defs>
</svg>
