<svg width="128" height="128" viewBox="0 0 128 128" fill="none" xmlns="http://www.w3.org/2000/svg">
<rect width="128" height="128" rx="24" fill="url(#paint0_linear_3_2)"/>
<rect x="4" y="4" width="120" height="120" rx="20" stroke="black" stroke-opacity="0.25" stroke-width="8"/>
<g filter="url(#filter0_d_3_2)">
<path d="M75.2744 34.0253C75.269 34.0146 75.2539 34.0142 75.248 34.0246C74.697 35.0104 74.1856 36.0202 73.7082 37.0482C73.3632 37.7914 72.5757 38.229 71.7629 38.1252C66.9756 37.5137 62.1287 37.4696 57.3237 37.993C55.8497 38.1535 54.4316 37.3543 53.7726 36.0261C53.1619 34.7953 51.7956 34.1479 50.4503 34.4271C45.9091 35.3696 41.4729 36.7853 37.2158 38.6576C36.5422 38.9539 35.9691 39.444 35.5672 40.0605C26.0441 54.6668 23.1885 68.9219 24.1889 82.9858C24.2694 84.1168 24.8515 85.1527 25.7793 85.8045C30.7492 89.2967 36.1729 92.0943 41.9041 94.1074C43.4984 94.6675 45.2673 94.0868 46.1931 92.6732C46.6038 92.0461 46.9999 91.4095 47.3812 90.7644C48.2508 89.2931 47.5163 87.4367 45.9663 86.7166C45.0975 86.3129 44.2411 85.8799 43.398 85.4201C42.7766 85.0812 42.7373 84.2055 43.2986 83.7742C43.5911 83.5495 43.9778 83.5134 44.3131 83.667C56.8163 89.3945 71.1786 89.3947 83.6969 83.6676C84.0314 83.5146 84.4267 83.5665 84.7149 83.7951C85.2601 84.2275 85.2281 85.0898 84.6178 85.4242C83.7504 85.8995 82.8684 86.3436 81.9719 86.7574C80.4487 87.4603 79.7311 89.2809 80.5828 90.7262C80.974 91.3898 81.3808 92.0446 81.803 92.6893C82.7288 94.1029 84.4977 94.6834 86.0922 94.1241C91.8244 92.1133 97.2492 89.3254 102.22 85.8341C103.146 85.1838 103.728 84.1501 103.81 83.0215C104.978 66.8302 100.722 52.6748 92.3922 40.0576C91.9922 39.4519 91.4272 38.9721 90.7631 38.679C85.8168 36.4966 80.6139 34.9349 75.2852 34.0334C75.2805 34.0326 75.2765 34.0296 75.2744 34.0253ZM50.7081 75.5654C46.7674 75.5654 43.4967 71.9705 43.4967 67.5252C43.4967 63.0798 46.6397 59.4688 50.6922 59.4688C54.7446 59.4688 57.9673 63.0958 57.9035 67.5252C57.8397 71.9545 54.7286 75.5654 50.7081 75.5654ZM77.288 75.5654C73.3313 75.5654 70.0926 71.9705 70.0926 67.5252C70.0926 63.0798 73.2356 59.4688 77.288 59.4688C81.3405 59.4688 84.5473 63.0958 84.4834 67.5252C84.4196 71.9545 81.3085 75.5654 77.288 75.5654Z" fill="url(#paint1_linear_3_2)"/>
</g>
<defs>
<filter id="filter0_d_3_2" x="8" y="22.017" width="112" height="92.3177" filterUnits="userSpaceOnUse" color-interpolation-filters="sRGB">
<feFlood flood-opacity="0" result="BackgroundImageFix"/>
<feColorMatrix in="SourceAlpha" type="matrix" values="0 0 0 0 0 0 0 0 0 0 0 0 0 0 0 0 0 0 127 0" result="hardAlpha"/>
<feOffset dy="4"/>
<feGaussianBlur stdDeviation="8"/>
<feComposite in2="hardAlpha" operator="out"/>
<feColorMatrix type="matrix" values="0 0 0 0 0 0 0 0 0 0 0 0 0 0 0 0 0 0 0.5 0"/>
<feBlend mode="normal" in2="BackgroundImageFix" result="effect1_dropShadow_3_2"/>
<feBlend mode="normal" in="SourceGraphic" in2="effect1_dropShadow_3_2" result="shape"/>
</filter>
<linearGradient id="paint0_linear_3_2" x1="64" y1="0" x2="64" y2="128" gradientUnits="userSpaceOnUse">
<stop stop-color="#5865F2"/>
<stop offset="1" stop-color="#2C316C"/>
</linearGradient>
<linearGradient id="paint1_linear_3_2" x1="64" y1="34" x2="64" y2="95" gradientUnits="userSpaceOnUse">
<stop stop-color="white"/>
<stop offset="1" stop-color="#BEC2EF"/>
</linearGradient>
</defs>
</svg>
