<svg width="128" height="128" viewBox="0 0 128 128" fill="none" xmlns="http://www.w3.org/2000/svg">
<rect width="128" height="128" rx="24" fill="url(#paint0_linear_87_2)"/>
<rect x="4" y="4" width="120" height="120" rx="20" stroke="black" stroke-opacity="0.25" stroke-width="8"/>
<g filter="url(#filter0_d_87_2)">
<path fill-rule="evenodd" clip-rule="evenodd" d="M57.8257 102.527C56.119 102.926 56.3372 104.854 58.0832 104.7C60.515 104.487 69.7481 103.584 76.6511 102.076C76.6511 102.076 85.0675 100.282 89.5702 98.6298C93.8593 97.0556 96.3686 95.6982 97.6545 93.8986C97.8985 93.5573 98.0189 93.1278 97.9944 92.709C97.9566 92.0621 97.6919 91.1399 96.1819 90.5091C90.6272 88.1889 84.1851 88.6085 71.4377 88.3394C57.3014 87.8557 52.5988 85.4991 50.0938 83.6012C47.6916 81.6758 48.8995 76.3491 59.1923 71.6571C62.6431 69.9941 72.8008 67.3954 79.2089 65.8432C81.0407 65.3995 81.3177 62.9007 79.6173 62.0876C72.8303 58.8424 64.5281 54.979 62.4693 53.9753C60.1681 52.8534 56.4855 51.1642 55.6873 49.1205C54.7822 47.1584 57.8247 45.4683 59.5242 44.9843C64.9975 43.412 72.7243 42.4347 79.7565 42.325C82.2584 42.286 83.2769 42.1611 83.6585 42.0915C83.7978 42.066 83.9365 42.0322 84.0758 42.0068C88.8343 41.141 91.9337 37.8382 90.6153 32.6514C89.4144 27.2792 83.0806 24.1225 77.0616 25.2153C75.6762 25.4668 73.8134 25.8929 71.7893 26.3933C69.5318 26.9513 69.9728 30.1866 72.2952 30.3059C76.6776 30.5311 77.9638 31.054 78.7073 32.0892C79.4528 33.1272 78.3685 34.5505 73.8649 35.283C68.9619 36.0805 58.7699 37.0409 58.7699 37.0409C48.9925 37.6192 42.1054 37.6579 40.0397 42.0134C38.6902 44.8589 41.4788 47.3745 42.7011 48.9491C47.866 54.6695 55.3265 57.7547 60.1287 60.0267C61.1019 60.4871 60.784 62.452 59.7096 62.521C47.991 63.2739 39.3053 67.334 33.8275 71.892C26.3715 78.7602 29.6698 86.9469 44.9451 91.9877C53.9674 94.965 58.4418 96.3652 71.8999 95.1583C79.8268 94.7328 81.0764 94.986 81.1554 95.6338C81.2667 96.5458 72.3509 98.8112 69.9168 99.5105C67.1264 100.312 62.2971 101.482 57.8257 102.527Z" fill="url(#paint1_linear_87_2)"/>
<path fill-rule="evenodd" clip-rule="evenodd" d="M57.8257 102.527C56.119 102.926 56.3372 104.854 58.0832 104.7C60.515 104.487 69.7481 103.584 76.6511 102.076C76.6511 102.076 85.0675 100.282 89.5702 98.6298C93.8593 97.0556 96.3686 95.6982 97.6545 93.8986C97.8985 93.5573 98.0189 93.1278 97.9944 92.709C97.9566 92.0621 97.6919 91.1399 96.1819 90.5091C90.6272 88.1889 84.1851 88.6085 71.4377 88.3394C57.3014 87.8557 52.5988 85.4991 50.0938 83.6012C47.6916 81.6758 48.8995 76.3491 59.1923 71.6571C62.6431 69.9941 72.8008 67.3954 79.2089 65.8432C81.0407 65.3995 81.3177 62.9007 79.6173 62.0876C72.8303 58.8424 64.5281 54.979 62.4693 53.9753C60.1681 52.8534 56.4855 51.1642 55.6873 49.1205C54.7822 47.1584 57.8247 45.4683 59.5242 44.9843C64.9975 43.412 72.7243 42.4347 79.7565 42.325C82.2584 42.286 83.2769 42.1611 83.6585 42.0915C83.7978 42.066 83.9365 42.0322 84.0758 42.0068C88.8343 41.141 91.9337 37.8382 90.6153 32.6514C89.4144 27.2792 83.0806 24.1225 77.0616 25.2153C75.6762 25.4668 73.8134 25.8929 71.7893 26.3933C69.5318 26.9513 69.9728 30.1866 72.2952 30.3059C76.6776 30.5311 77.9638 31.054 78.7073 32.0892C79.4528 33.1272 78.3685 34.5505 73.8649 35.283C68.9619 36.0805 58.7699 37.0409 58.7699 37.0409C48.9925 37.6192 42.1054 37.6579 40.0397 42.0134C38.6902 44.8589 41.4788 47.3745 42.7011 48.9491C47.866 54.6695 55.3265 57.7547 60.1287 60.0267C61.1019 60.4871 60.784 62.452 59.7096 62.521C47.991 63.2739 39.3053 67.334 33.8275 71.892C26.3715 78.7602 29.6698 86.9469 44.9451 91.9877C53.9674 94.965 58.4418 96.3652 71.8999 95.1583C79.8268 94.7328 81.0764 94.986 81.1554 95.6338C81.2667 96.5458 72.3509 98.8112 69.9168 99.5105C67.1264 100.312 62.2971 101.482 57.8257 102.527Z" stroke="black"/>
</g>
<defs>
<filter id="filter0_d_87_2" x="14" y="13" width="99.9975" height="111.709" filterUnits="userSpaceOnUse" color-interpolation-filters="sRGB">
<feFlood flood-opacity="0" result="BackgroundImageFix"/>
<feColorMatrix in="SourceAlpha" type="matrix" values="0 0 0 0 0 0 0 0 0 0 0 0 0 0 0 0 0 0 127 0" result="hardAlpha"/>
<feOffset dy="4"/>
<feGaussianBlur stdDeviation="8"/>
<feComposite in2="hardAlpha" operator="out"/>
<feColorMatrix type="matrix" values="0 0 0 0 0 0 0 0 0 0 0 0 0 0 0 0 0 0 0.5 0"/>
<feBlend mode="normal" in2="BackgroundImageFix" result="effect1_dropShadow_87_2"/>
<feBlend mode="normal" in="SourceGraphic" in2="effect1_dropShadow_87_2" result="shape"/>
</filter>
<linearGradient id="paint0_linear_87_2" x1="65" y1="2.37632e-08" x2="64.9997" y2="128" gradientUnits="userSpaceOnUse">
<stop stop-color="#ACA9F6"/>
<stop offset="1" stop-color="#4C1263"/>
</linearGradient>
<linearGradient id="paint1_linear_87_2" x1="64" y1="25" x2="64" y2="105" gradientUnits="userSpaceOnUse">
<stop stop-color="white"/>
<stop offset="1" stop-color="#AC8BC8"/>
</linearGradient>
</defs>
</svg>
