<svg width="128" height="128" viewBox="0 0 128 128" fill="none" xmlns="http://www.w3.org/2000/svg">
<rect width="128" height="128" rx="24" fill="url(#paint0_linear_59_23)"/>
<rect x="4" y="4" width="120" height="120" rx="20" stroke="black" stroke-opacity="0.25" stroke-width="8"/>
<g filter="url(#filter0_d_59_23)">
<path d="M88.2596 98.217C87.3758 101.411 84.0701 103.283 80.8766 102.399L29.7826 88.2586C26.589 87.3747 24.7165 84.0692 25.6004 80.8756L32.1289 57.2868L54.6467 63.5187L53.5501 67.4811C53.1082 69.0778 54.0445 70.7306 55.6412 71.1726L67.4813 74.4495C69.0781 74.8914 70.7308 73.9552 71.1728 72.3583L72.2694 68.396L94.7882 74.6282L88.2596 98.217ZM98.2181 39.7411C101.411 40.6251 103.284 43.9306 102.4 47.1241L95.8718 70.7129L73.353 64.4807L74.4497 60.5183C74.8916 58.9215 73.9554 57.2687 72.3586 56.8268L60.5185 53.5499C58.9217 53.1081 57.2689 54.0443 56.827 55.6411L55.7303 59.6034L33.2126 53.3714L39.7411 29.7826C40.625 26.589 43.9305 24.7165 47.1241 25.6004L98.2181 39.7411Z" fill="url(#paint1_linear_59_23)"/>
</g>
<defs>
<filter id="filter0_d_59_23" x="9.38153" y="13.3815" width="109.238" height="109.237" filterUnits="userSpaceOnUse" color-interpolation-filters="sRGB">
<feFlood flood-opacity="0" result="BackgroundImageFix"/>
<feColorMatrix in="SourceAlpha" type="matrix" values="0 0 0 0 0 0 0 0 0 0 0 0 0 0 0 0 0 0 127 0" result="hardAlpha"/>
<feOffset dy="4"/>
<feGaussianBlur stdDeviation="8"/>
<feComposite in2="hardAlpha" operator="out"/>
<feColorMatrix type="matrix" values="0 0 0 0 0 0 0 0 0 0 0 0 0 0 0 0 0 0 0.5 0"/>
<feBlend mode="normal" in2="BackgroundImageFix" result="effect1_dropShadow_59_23"/>
<feBlend mode="normal" in="SourceGraphic" in2="effect1_dropShadow_59_23" result="shape"/>
</filter>
<linearGradient id="paint0_linear_59_23" x1="64" y1="0" x2="64" y2="128" gradientUnits="userSpaceOnUse">
<stop stop-color="#5EE357"/>
<stop offset="1" stop-color="#307E65"/>
</linearGradient>
<linearGradient id="paint1_linear_59_23" x1="64.0529" y1="30.2856" x2="63.9476" y2="97.7141" gradientUnits="userSpaceOnUse">
<stop stop-color="white"/>
<stop offset="1" stop-color="#A6EF9C"/>
</linearGradient>
</defs>
</svg>
