<svg width="128" height="128" viewBox="0 0 128 128" fill="none" xmlns="http://www.w3.org/2000/svg">
<rect width="128" height="128" rx="24" fill="url(#paint0_linear_120_2)"/>
<rect x="4" y="4" width="120" height="120" rx="20" stroke="black" stroke-opacity="0.25" stroke-width="8"/>
<g filter="url(#filter0_d_120_2)">
<path d="M69.6596 24C79.9983 24 86.1898 32.0815 88.5927 48.2445C88.6209 48.4345 88.6342 48.6292 88.6389 48.8213C88.6658 49.9352 88.8329 51.7947 89 54.4C89 70.0444 83.5263 84.0889 72.5789 96.5333C67.4702 101.511 62.3614 104 57.2526 104C49.407 104 43.386 98.3111 39.007 86.7556C37.7298 82.8444 37 78.4 37 73.4222C37 59.5938 41.1734 46.2958 49.7011 33.5282C49.7451 33.4622 49.8196 33.4222 49.8989 33.4222C50.0303 33.4222 50.1368 33.5287 50.1368 33.6601V33.839C50.1368 33.9153 50.1156 33.9905 50.0762 34.0557C47.7526 37.9036 46.313 41.2328 45.4076 44.0434C45.3978 44.0737 45.393 44.1051 45.393 44.137V44.2169C45.393 44.3426 45.4949 44.4444 45.6205 44.4444C45.705 44.4444 45.7832 44.3964 45.8226 44.3218C52.9224 30.8914 60.9283 24 69.6596 24ZM43.9333 75.3778C43.9333 88.8328 48.5165 96.9634 57.8561 99.6008C58.1797 99.6922 58.5175 99.7333 58.8539 99.7333H59.9895C60.9287 99.7333 61.788 99.5776 62.5299 99.2844C63.5161 98.8947 63.0569 97.7778 61.9965 97.7778C54.7698 97.7778 50.2266 92.0256 48.0125 80.6939C47.9785 80.52 48.1115 80.3556 48.2887 80.3556C48.4115 80.3556 48.5208 80.4368 48.5589 80.5535C51.4754 89.4869 55.6505 93.8667 61.0842 93.8667C69.6596 93.8667 76.2281 85.8667 81.3368 69.8667C82.614 64.7111 83.3439 59.5556 83.3439 54.5778V53.6889C83.3439 50.3746 82.9925 46.7179 82.1175 42.551C82.0882 42.4113 81.9647 42.3111 81.8219 42.3111C81.6548 42.3111 81.5193 42.4466 81.5193 42.6137V42.6667C81.7018 44.4444 81.8842 45.8667 81.8842 46.9333V47.6444C81.8842 54.3531 80.8593 58.898 78.8094 61.6012C78.7407 61.6918 78.6 61.6421 78.6 61.5285C78.6 61.517 78.6017 61.5055 78.6049 61.4944C79.6964 57.7672 80.2421 54.2174 80.2421 51.0222C80.2421 41.666 77.5691 35.077 72.2231 31.411C71.7452 31.0834 71.1861 30.8992 70.6104 30.8332L68.3825 30.5778C59.807 30.5778 52.5088 39.8222 46.4877 58.3111C44.8456 64.8889 43.9333 70.5778 43.9333 75.3778Z" fill="url(#paint1_linear_120_2)"/>
</g>
<g filter="url(#filter1_d_120_2)">
<path d="M98.5193 48C97.6802 48 97 47.3198 97 46.4807C97 46.1183 97.1295 45.7678 97.3653 45.4925L104.325 37.3642C105.185 36.3622 105.893 35.4913 106.449 34.7514C107.005 34.0039 107.417 33.3025 107.684 32.6474C107.959 31.9846 108.096 31.2909 108.096 30.5665C108.096 29.7341 107.908 29.0135 107.533 28.4046C107.164 27.7958 106.658 27.3256 106.015 26.9942C105.373 26.6628 104.65 26.4971 103.848 26.4971C102.996 26.4971 102.252 26.6859 101.616 27.0636C100.988 27.4335 100.5 27.9538 100.153 28.6243C99.984 28.9584 99.857 29.3213 99.7721 29.7129C99.6225 30.403 99.0715 30.9827 98.3653 30.9827C97.6592 30.9827 97.0737 30.4068 97.178 29.7084C97.3081 28.8367 97.5775 28.0437 97.9861 27.3295C98.5857 26.2813 99.402 25.4644 100.435 24.8786C101.475 24.2929 102.642 24 103.935 24C105.235 24 106.388 24.2929 107.392 24.8786C108.396 25.4644 109.183 26.2543 109.754 27.2486C110.325 28.2428 110.61 29.3487 110.61 30.5665C110.61 31.4374 110.462 32.289 110.166 33.1214C109.877 33.9461 109.371 34.8671 108.649 35.8844C107.933 36.894 106.94 38.1272 105.669 39.5838L100.718 45.2337C100.696 45.2582 100.684 45.2896 100.684 45.3222C100.684 45.3965 100.744 45.4566 100.819 45.4566H109.728C110.431 45.4566 111 46.026 111 46.7283C111 47.4307 110.431 48 109.728 48H98.5193Z" fill="url(#paint2_linear_120_2)"/>
</g>
<defs>
<filter id="filter0_d_120_2" x="21" y="12" width="84" height="112" filterUnits="userSpaceOnUse" color-interpolation-filters="sRGB">
<feFlood flood-opacity="0" result="BackgroundImageFix"/>
<feColorMatrix in="SourceAlpha" type="matrix" values="0 0 0 0 0 0 0 0 0 0 0 0 0 0 0 0 0 0 127 0" result="hardAlpha"/>
<feOffset dy="4"/>
<feGaussianBlur stdDeviation="8"/>
<feComposite in2="hardAlpha" operator="out"/>
<feColorMatrix type="matrix" values="0 0 0 0 0 0 0 0 0 0 0 0 0 0 0 0 0 0 0.5 0"/>
<feBlend mode="normal" in2="BackgroundImageFix" result="effect1_dropShadow_120_2"/>
<feBlend mode="normal" in="SourceGraphic" in2="effect1_dropShadow_120_2" result="shape"/>
</filter>
<filter id="filter1_d_120_2" x="81" y="12" width="46" height="56" filterUnits="userSpaceOnUse" color-interpolation-filters="sRGB">
<feFlood flood-opacity="0" result="BackgroundImageFix"/>
<feColorMatrix in="SourceAlpha" type="matrix" values="0 0 0 0 0 0 0 0 0 0 0 0 0 0 0 0 0 0 127 0" result="hardAlpha"/>
<feOffset dy="4"/>
<feGaussianBlur stdDeviation="8"/>
<feComposite in2="hardAlpha" operator="out"/>
<feColorMatrix type="matrix" values="0 0 0 0 0 0 0 0 0 0 0 0 0 0 0 0 0 0 0.5 0"/>
<feBlend mode="normal" in2="BackgroundImageFix" result="effect1_dropShadow_120_2"/>
<feBlend mode="normal" in="SourceGraphic" in2="effect1_dropShadow_120_2" result="shape"/>
</filter>
<linearGradient id="paint0_linear_120_2" x1="64" y1="0" x2="64" y2="128" gradientUnits="userSpaceOnUse">
<stop stop-color="#68BAFD"/>
<stop offset="1" stop-color="#14303A"/>
</linearGradient>
<linearGradient id="paint1_linear_120_2" x1="63" y1="24" x2="63" y2="104" gradientUnits="userSpaceOnUse">
<stop stop-color="white"/>
<stop offset="1" stop-color="#64ABC4"/>
</linearGradient>
<linearGradient id="paint2_linear_120_2" x1="104" y1="24" x2="104" y2="48" gradientUnits="userSpaceOnUse">
<stop stop-color="white"/>
<stop offset="1" stop-color="#D1E5ED"/>
</linearGradient>
</defs>
</svg>
