<svg width="128" height="128" viewBox="0 0 128 128" fill="none" xmlns="http://www.w3.org/2000/svg">
<rect x="4" y="4" width="120" height="120" rx="20" fill="url(#paint0_linear_119_20)" stroke="url(#paint1_linear_119_20)" stroke-width="8"/>
<g filter="url(#filter0_d_119_20)">
<path d="M60.2403 24H45.2674C43.0582 24 41.2674 25.7909 41.2674 28V32.5C41.2674 34.7091 43.0582 36.5 45.2674 36.5H51.3876C53.0738 36.5 54.579 37.5575 55.1507 39.1438L57.2973 45.1004C57.7109 46.2479 57.5782 47.5214 56.9371 48.5591L28.7704 94.1475C27.1239 96.8124 29.0408 100.25 32.1733 100.25H37.4016C38.77 100.25 40.0435 99.5504 40.7775 98.3954L58.9464 69.8059C60.7011 67.045 64.8476 67.4431 66.0449 70.4874L77.8803 100.582C78.6405 102.515 80.754 103.544 82.7448 102.951L99.2429 98.036C101.33 97.4142 102.536 95.237 101.956 93.1378L100.748 88.7603C100.152 86.6032 97.9024 85.3545 95.7566 85.9896L91.9069 87.129C89.9219 87.7165 87.8165 86.6923 87.0534 84.7679L63.9587 26.5256C63.3542 25.0011 61.8803 24 60.2403 24Z" fill="url(#paint2_linear_119_20)"/>
</g>
<defs>
<filter id="filter0_d_119_20" x="12.1669" y="12" width="105.935" height="111.119" filterUnits="userSpaceOnUse" color-interpolation-filters="sRGB">
<feFlood flood-opacity="0" result="BackgroundImageFix"/>
<feColorMatrix in="SourceAlpha" type="matrix" values="0 0 0 0 0 0 0 0 0 0 0 0 0 0 0 0 0 0 127 0" result="hardAlpha"/>
<feOffset dy="4"/>
<feGaussianBlur stdDeviation="8"/>
<feComposite in2="hardAlpha" operator="out"/>
<feColorMatrix type="matrix" values="0 0 0 0 0 0 0 0 0 0 0 0 0 0 0 0 0 0 0.5 0"/>
<feBlend mode="normal" in2="BackgroundImageFix" result="effect1_dropShadow_119_20"/>
<feBlend mode="normal" in="SourceGraphic" in2="effect1_dropShadow_119_20" result="shape"/>
</filter>
<linearGradient id="paint0_linear_119_20" x1="64" y1="0" x2="64" y2="128" gradientUnits="userSpaceOnUse">
<stop stop-color="#242424"/>
<stop offset="1" stop-color="#141414"/>
</linearGradient>
<linearGradient id="paint1_linear_119_20" x1="64" y1="0" x2="64" y2="128" gradientUnits="userSpaceOnUse">
<stop stop-color="#F07920"/>
<stop offset="1" stop-color="#8B3F2F"/>
</linearGradient>
<linearGradient id="paint2_linear_119_20" x1="64" y1="24" x2="64" y2="104" gradientUnits="userSpaceOnUse">
<stop stop-color="#F07920"/>
<stop offset="1" stop-color="#8A3E2F"/>
</linearGradient>
</defs>
</svg>
