<svg width="128" height="128" viewBox="0 0 128 128" fill="none" xmlns="http://www.w3.org/2000/svg">
<rect width="128" height="128" rx="24" fill="url(#paint0_linear_81_85)"/>
<rect x="4" y="4" width="120" height="120" rx="20" stroke="black" stroke-opacity="0.25" stroke-width="8"/>
<g filter="url(#filter0_d_81_85)">
<path d="M82 35H48V54H82V35Z" fill="url(#paint1_linear_81_85)"/>
<rect x="43.63" y="56.29" width="40.75" height="40.75" rx="8" fill="url(#paint2_linear_81_85)"/>
<rect x="45.13" y="57.79" width="37.75" height="37.75" rx="6.5" stroke="black" stroke-opacity="0.25" stroke-width="3"/>
<g filter="url(#filter1_f_81_85)">
<path d="M54 78.7838V77.6486C54 77.0108 54.1899 76.5027 54.5697 76.1243C54.9495 75.7351 55.4454 75.5405 56.0573 75.5405C56.4476 75.5405 56.78 75.6108 57.0543 75.7514C57.3286 75.8919 57.5607 76.0703 57.7506 76.2865C57.951 76.4919 58.1304 76.7027 58.2887 76.9189C58.4469 77.1243 58.6104 77.2973 58.7792 77.4378C58.948 77.5784 59.1379 77.6486 59.349 77.6486C59.5916 77.6486 59.7762 77.573 59.9028 77.4216C60.0294 77.2703 60.0927 77.0486 60.0927 76.7568V75.6216H61.4379V76.7568C61.4379 77.3838 61.248 77.8919 60.8682 78.2811C60.4989 78.6703 60.0031 78.8649 59.3806 78.8649C58.9902 78.8649 58.6579 78.7946 58.3836 78.6541C58.1093 78.5135 57.8719 78.3405 57.6715 78.1351C57.4816 77.9189 57.3075 77.7081 57.1492 77.5027C56.991 77.2865 56.8275 77.1081 56.6587 76.9676C56.4898 76.827 56.2999 76.7568 56.0889 76.7568C55.8568 76.7568 55.6722 76.8324 55.5351 76.9838C55.4085 77.1351 55.3452 77.3568 55.3452 77.6486V78.7838H54Z" fill="#57E389" fill-opacity="0.5"/>
<path d="M63.9479 82.9189L71.8289 71.0811H73L65.119 82.9189H63.9479ZM70.7686 83C70.104 83 69.5712 82.8054 69.1703 82.4162C68.7694 82.027 68.5689 81.4919 68.5689 80.8108V79.7568C68.5689 79.0757 68.7694 78.5405 69.1703 78.1514C69.5712 77.7622 70.104 77.5676 70.7686 77.5676C71.4333 77.5676 71.9661 77.7622 72.367 78.1514C72.7679 78.5405 72.9684 79.0757 72.9684 79.7568V80.8108C72.9684 81.4919 72.7679 82.027 72.367 82.4162C71.9661 82.8054 71.4333 83 70.7686 83ZM70.7686 81.8811C71.4544 81.8811 71.7973 81.5243 71.7973 80.8108V79.7568C71.7973 79.0324 71.4544 78.6703 70.7686 78.6703C70.0829 78.6703 69.74 79.0324 69.74 79.7568V80.8108C69.74 81.5243 70.0829 81.8811 70.7686 81.8811ZM66.1793 76.4324C65.5146 76.4324 64.9819 76.2378 64.5809 75.8486C64.18 75.4595 63.9796 74.9243 63.9796 74.2432V73.1892C63.9796 72.5081 64.18 71.973 64.5809 71.5838C64.9819 71.1946 65.5146 71 66.1793 71C66.844 71 67.3767 71.1946 67.7777 71.5838C68.1786 71.973 68.379 72.5081 68.379 73.1892V74.2432C68.379 74.9243 68.1786 75.4595 67.7777 75.8486C67.3767 76.2378 66.844 76.4324 66.1793 76.4324ZM66.1793 75.3297C66.8651 75.3297 67.2079 74.9676 67.2079 74.2432V73.1892C67.2079 72.4649 66.8651 72.1027 66.1793 72.1027C65.8417 72.1027 65.5832 72.1946 65.4039 72.3784C65.2351 72.5514 65.1507 72.8216 65.1507 73.1892V74.2432C65.1507 74.6108 65.2351 74.8865 65.4039 75.0703C65.5832 75.2432 65.8417 75.3297 66.1793 75.3297Z" fill="#57E389" fill-opacity="0.5"/>
</g>
<path d="M54 78.7838V77.6486C54 77.0108 54.1899 76.5027 54.5697 76.1243C54.9495 75.7351 55.4454 75.5405 56.0573 75.5405C56.4476 75.5405 56.78 75.6108 57.0543 75.7514C57.3286 75.8919 57.5607 76.0703 57.7506 76.2865C57.951 76.4919 58.1304 76.7027 58.2887 76.9189C58.4469 77.1243 58.6104 77.2973 58.7792 77.4378C58.948 77.5784 59.1379 77.6486 59.349 77.6486C59.5916 77.6486 59.7762 77.573 59.9028 77.4216C60.0294 77.2703 60.0927 77.0486 60.0927 76.7568V75.6216H61.4379V76.7568C61.4379 77.3838 61.248 77.8919 60.8682 78.2811C60.4989 78.6703 60.0031 78.8649 59.3806 78.8649C58.9902 78.8649 58.6579 78.7946 58.3836 78.6541C58.1093 78.5135 57.8719 78.3405 57.6715 78.1351C57.4816 77.9189 57.3075 77.7081 57.1492 77.5027C56.991 77.2865 56.8275 77.1081 56.6587 76.9676C56.4898 76.827 56.2999 76.7568 56.0889 76.7568C55.8568 76.7568 55.6722 76.8324 55.5351 76.9838C55.4085 77.1351 55.3452 77.3568 55.3452 77.6486V78.7838H54Z" fill="#57E389"/>
<path d="M63.9479 82.9189L71.8289 71.0811H73L65.119 82.9189H63.9479ZM70.7686 83C70.104 83 69.5712 82.8054 69.1703 82.4162C68.7694 82.027 68.5689 81.4919 68.5689 80.8108V79.7568C68.5689 79.0757 68.7694 78.5405 69.1703 78.1514C69.5712 77.7622 70.104 77.5676 70.7686 77.5676C71.4333 77.5676 71.9661 77.7622 72.367 78.1514C72.7679 78.5405 72.9683 79.0757 72.9683 79.7568V80.8108C72.9683 81.4919 72.7679 82.027 72.367 82.4162C71.9661 82.8054 71.4333 83 70.7686 83ZM70.7686 81.8811C71.4544 81.8811 71.7973 81.5243 71.7973 80.8108V79.7568C71.7973 79.0324 71.4544 78.6703 70.7686 78.6703C70.0829 78.6703 69.74 79.0324 69.74 79.7568V80.8108C69.74 81.5243 70.0829 81.8811 70.7686 81.8811ZM66.1793 76.4324C65.5146 76.4324 64.9818 76.2378 64.5809 75.8486C64.18 75.4595 63.9796 74.9243 63.9796 74.2432V73.1892C63.9796 72.5081 64.18 71.973 64.5809 71.5838C64.9818 71.1946 65.5146 71 66.1793 71C66.844 71 67.3767 71.1946 67.7777 71.5838C68.1786 71.973 68.379 72.5081 68.379 73.1892V74.2432C68.379 74.9243 68.1786 75.4595 67.7777 75.8486C67.3767 76.2378 66.844 76.4324 66.1793 76.4324ZM66.1793 75.3297C66.8651 75.3297 67.2079 74.9676 67.2079 74.2432V73.1892C67.2079 72.4649 66.8651 72.1027 66.1793 72.1027C65.8417 72.1027 65.5832 72.1946 65.4039 72.3784C65.2351 72.5514 65.1507 72.8216 65.1507 73.1892V74.2432C65.1507 74.6108 65.2351 74.8865 65.4039 75.0703C65.5832 75.2432 65.8417 75.3297 66.1793 75.3297Z" fill="#57E389"/>
<g filter="url(#filter2_i_81_85)">
<path fill-rule="evenodd" clip-rule="evenodd" d="M89.1813 30.6444C87.7111 29.0929 81.3854 30.7278 76.9703 33.1527C76.3555 33.4904 75.6155 33.52 74.977 33.2298C71.7615 31.7684 68.0076 30.9081 64.0385 30.9081C59.9902 30.9081 56.2282 31.7684 53.0119 33.2298C52.3733 33.52 51.6334 33.4905 51.0189 33.1523C46.5934 30.7166 40.1961 29.0108 38.8075 30.6444C37.3238 32.2931 39.6279 38.8118 42.6024 42.9519C42.9676 43.4603 43.1051 44.0984 42.9884 44.7135C42.8484 45.4517 42.7637 46.2028 42.7637 46.996C42.7637 50.2397 44.0353 53.2592 46.2337 55.7781C46.5902 56.1866 47.1139 56.4029 47.6561 56.4029H61.313H80.5965C81.1387 56.4029 81.6626 56.1867 82.0183 55.7774C84.217 53.2471 85.4889 50.1594 85.4889 46.996C85.4889 46.191 85.4017 45.4295 85.258 44.6807C85.1435 44.0845 85.2682 43.4655 85.6098 42.9636C88.4339 38.815 90.6666 32.2123 89.1813 30.6444ZM55.7745 53.8533C52.6978 53.8533 50.1483 51.3038 50.1483 48.2267C50.1483 45.1496 52.6978 42.6004 55.7749 42.6004C58.852 42.6004 61.4012 45.15 61.4012 48.2271C61.4012 51.3041 58.8516 53.8533 55.7745 53.8533ZM72.3022 53.8533C69.2251 53.8533 66.6755 51.3038 66.6755 48.2267C66.6755 45.1496 69.2251 42.6004 72.3022 42.6004C75.3792 42.6004 77.9288 45.15 77.9288 48.2271C77.9288 51.3041 75.4667 53.8533 72.3022 53.8533Z" fill="url(#paint3_linear_81_85)"/>
<path fill-rule="evenodd" clip-rule="evenodd" d="M89.1813 30.6444C87.7111 29.0929 81.3854 30.7278 76.9703 33.1527C76.3555 33.4904 75.6155 33.52 74.977 33.2298C71.7615 31.7684 68.0076 30.9081 64.0385 30.9081C59.9902 30.9081 56.2282 31.7684 53.0119 33.2298C52.3733 33.52 51.6334 33.4905 51.0189 33.1523C46.5934 30.7166 40.1961 29.0108 38.8075 30.6444C37.3238 32.2931 39.6279 38.8118 42.6024 42.9519C42.9676 43.4603 43.1051 44.0984 42.9884 44.7135C42.8484 45.4517 42.7637 46.2028 42.7637 46.996C42.7637 50.2397 44.0353 53.2592 46.2337 55.7781C46.5902 56.1866 47.1139 56.4029 47.6561 56.4029H61.313H80.5965C81.1387 56.4029 81.6626 56.1867 82.0183 55.7774C84.217 53.2471 85.4889 50.1594 85.4889 46.996C85.4889 46.191 85.4017 45.4295 85.258 44.6807C85.1435 44.0845 85.2682 43.4655 85.6098 42.9636C88.4339 38.815 90.6666 32.2123 89.1813 30.6444ZM55.7745 53.8533C52.6978 53.8533 50.1483 51.3038 50.1483 48.2267C50.1483 45.1496 52.6978 42.6004 55.7749 42.6004C58.852 42.6004 61.4012 45.15 61.4012 48.2271C61.4012 51.3041 58.8516 53.8533 55.7745 53.8533ZM72.3022 53.8533C69.2251 53.8533 66.6755 51.3038 66.6755 48.2267C66.6755 45.1496 69.2251 42.6004 72.3022 42.6004C75.3792 42.6004 77.9288 45.15 77.9288 48.2271C77.9288 51.3041 75.4667 53.8533 72.3022 53.8533Z" fill="url(#paint4_linear_81_85)" fill-opacity="0.2"/>
</g>
<path fill-rule="evenodd" clip-rule="evenodd" d="M85.609 50.9442C84.5907 51.396 83.8491 50.4031 84.7698 49.7758C89.0766 46.8418 94.6531 45.4523 99.5666 46.5181C100.626 46.7481 100.296 47.9364 99.2115 47.9342C94.454 47.9242 89.9432 49.0209 85.609 50.9442Z" fill="#2B1100"/>
<path fill-rule="evenodd" clip-rule="evenodd" d="M84.1115 48.7304C83.2329 49.3758 82.2789 48.5988 83.0056 47.7862C86.084 44.3442 90.6759 42.1265 95.1576 42.1036C96.2139 42.0982 96.1834 43.3023 95.1583 43.5574C91.1024 44.5666 87.4723 46.262 84.1115 48.7304ZM80.2634 55.3478C84.9193 50.9175 94.3849 48.9886 99.3479 51.9165C100.165 52.3986 99.5931 53.3117 98.665 53.1153C92.3253 51.7739 86.5629 52.8894 80.2638 55.3478" fill="#2B1100"/>
<path fill-rule="evenodd" clip-rule="evenodd" d="M42.3909 50.9442C43.4092 51.396 44.1508 50.4031 43.2301 49.7758C38.9233 46.8418 33.3468 45.4523 28.4333 46.5181C27.3734 46.7481 27.7039 47.9364 28.7884 47.9342C33.5459 47.9242 38.0567 49.0209 42.3909 50.9442Z" fill="#2B1100"/>
<path fill-rule="evenodd" clip-rule="evenodd" d="M43.8884 48.7304C44.7671 49.3758 45.7211 48.5988 44.9943 47.7862C41.916 44.3442 37.324 42.1266 32.8424 42.1036C31.786 42.0982 31.8165 43.3023 32.8417 43.5574C36.8976 44.5667 40.5276 46.262 43.8884 48.7304ZM42.9211 53.7246C43.978 54.017 44.5132 53.0128 43.5208 52.5462C38.6572 50.259 32.3826 49.7157 28.652 51.9165C27.8349 52.3986 28.4068 53.3117 29.335 53.1153C34.0294 52.122 38.4074 52.4759 42.9211 53.7246Z" fill="#2B1100"/>
<path fill-rule="evenodd" clip-rule="evenodd" d="M44.8898 50C43.1522 50 41.6815 51.0098 40.9264 52.581C40.8694 52.6998 40.7511 52.7788 40.6193 52.7788C38.6649 52.7788 37 54.463 37 56.5683C37 58.8132 38.512 60.2765 40.2884 60.3996C41.2866 60.4687 42.3431 60.812 43.1619 61.3872C44.4103 62.2641 45.9925 62.2187 47.0385 61.1293C47.5619 60.5841 48.1927 60.1041 48.9401 59.9918C50.5465 59.7503 52.366 59.0189 52.7076 56.5683C52.9971 54.463 51.1151 52.7788 49.0884 52.7788C48.9584 52.7788 48.8438 52.6957 48.7951 52.5753C48.1616 51.007 46.6256 50 44.8901 50M83.1102 50C84.8478 50 86.3185 51.0098 87.0736 52.581C87.1306 52.6998 87.2489 52.7788 87.3807 52.7788C88.3941 52.7788 91 54.463 91 56.5683C91 58.8133 89.4879 60.2766 87.7115 60.3996C86.7133 60.4687 85.6569 60.8119 84.8382 61.3871C83.5897 62.2641 82.0075 62.2187 80.9615 61.1293C80.4381 60.5841 79.8073 60.1041 79.0599 59.9918C77.4535 59.7503 75.634 59.0189 75.2924 56.5683C75.0029 54.463 77.898 52.7788 78.9116 52.7788C79.0416 52.7788 79.1562 52.6958 79.2049 52.5753C79.8384 51.007 81.3744 50 83.1099 50" fill="url(#paint5_linear_81_85)"/>
<path fill-rule="evenodd" clip-rule="evenodd" d="M44.8898 50C43.1522 50 41.6815 51.0098 40.9264 52.581C40.8694 52.6998 40.7511 52.7788 40.6193 52.7788C38.6649 52.7788 37 54.463 37 56.5683C37 58.8132 38.512 60.2765 40.2884 60.3996C41.2866 60.4687 42.3431 60.812 43.1619 61.3872C44.4103 62.2641 45.9925 62.2187 47.0385 61.1293C47.5619 60.5841 48.1927 60.1041 48.9401 59.9918C50.5465 59.7503 52.366 59.0189 52.7076 56.5683C52.9971 54.463 51.1151 52.7788 49.0884 52.7788C48.9584 52.7788 48.8438 52.6957 48.7951 52.5753C48.1616 51.007 46.6256 50 44.8901 50M83.1102 50C84.8478 50 86.3185 51.0098 87.0736 52.581C87.1306 52.6998 87.2489 52.7788 87.3807 52.7788C88.3941 52.7788 91 54.463 91 56.5683C91 58.8133 89.4879 60.2766 87.7115 60.3996C86.7133 60.4687 85.6569 60.8119 84.8382 61.3871C83.5897 62.2641 82.0075 62.2187 80.9615 61.1293C80.4381 60.5841 79.8073 60.1041 79.0599 59.9918C77.4535 59.7503 75.634 59.0189 75.2924 56.5683C75.0029 54.463 77.898 52.7788 78.9116 52.7788C79.0416 52.7788 79.1562 52.6958 79.2049 52.5753C79.8384 51.007 81.3744 50 83.1099 50" fill="url(#paint6_linear_81_85)" fill-opacity="0.2"/>
</g>
<path d="M55.0156 47.9143L55.5081 45.2056C55.6076 44.6582 56.3924 44.6582 56.4919 45.2056L56.9844 47.9143C56.9947 47.971 56.9952 48.0291 56.9857 48.0859L56.4932 51.0408C56.4004 51.5979 55.5996 51.5979 55.5068 51.0408L55.0143 48.0859C55.0048 48.0291 55.0053 47.971 55.0156 47.9143Z" fill="#1E402A"/>
<path d="M71.0156 47.9143L71.5081 45.2056C71.6076 44.6582 72.3924 44.6582 72.4919 45.2056L72.9844 47.9143C72.9947 47.971 72.9952 48.0291 72.9857 48.0859L72.4932 51.0408C72.4004 51.5979 71.5996 51.5979 71.5068 51.0408L71.0143 48.0859C71.0048 48.0291 71.0053 47.971 71.0156 47.9143Z" fill="#1E402A"/>
<defs>
<filter id="filter0_d_81_85" x="11.7865" y="18" width="104.427" height="99.04" filterUnits="userSpaceOnUse" color-interpolation-filters="sRGB">
<feFlood flood-opacity="0" result="BackgroundImageFix"/>
<feColorMatrix in="SourceAlpha" type="matrix" values="0 0 0 0 0 0 0 0 0 0 0 0 0 0 0 0 0 0 127 0" result="hardAlpha"/>
<feOffset dy="4"/>
<feGaussianBlur stdDeviation="8"/>
<feComposite in2="hardAlpha" operator="out"/>
<feColorMatrix type="matrix" values="0 0 0 0 0 0 0 0 0 0 0 0 0 0 0 0 0 0 0.5 0"/>
<feBlend mode="normal" in2="BackgroundImageFix" result="effect1_dropShadow_81_85"/>
<feBlend mode="normal" in="SourceGraphic" in2="effect1_dropShadow_81_85" result="shape"/>
</filter>
<filter id="filter1_f_81_85" x="46" y="63" width="35" height="28" filterUnits="userSpaceOnUse" color-interpolation-filters="sRGB">
<feFlood flood-opacity="0" result="BackgroundImageFix"/>
<feBlend mode="normal" in="SourceGraphic" in2="BackgroundImageFix" result="shape"/>
<feGaussianBlur stdDeviation="4" result="effect1_foregroundBlur_81_85"/>
</filter>
<filter id="filter2_i_81_85" x="38.3448" y="26" width="51.3102" height="30.4029" filterUnits="userSpaceOnUse" color-interpolation-filters="sRGB">
<feFlood flood-opacity="0" result="BackgroundImageFix"/>
<feBlend mode="normal" in="SourceGraphic" in2="BackgroundImageFix" result="shape"/>
<feColorMatrix in="SourceAlpha" type="matrix" values="0 0 0 0 0 0 0 0 0 0 0 0 0 0 0 0 0 0 127 0" result="hardAlpha"/>
<feOffset dy="-4"/>
<feGaussianBlur stdDeviation="2"/>
<feComposite in2="hardAlpha" operator="arithmetic" k2="-1" k3="1"/>
<feColorMatrix type="matrix" values="0 0 0 0 0 0 0 0 0 0 0 0 0 0 0 0 0 0 0.25 0"/>
<feBlend mode="normal" in2="shape" result="effect1_innerShadow_81_85"/>
</filter>
<linearGradient id="paint0_linear_81_85" x1="64" y1="0" x2="64" y2="128" gradientUnits="userSpaceOnUse">
<stop stop-color="#575757"/>
<stop offset="1" stop-color="#222222"/>
</linearGradient>
<linearGradient id="paint1_linear_81_85" x1="63.5" y1="44.5" x2="65" y2="54" gradientUnits="userSpaceOnUse">
<stop stop-color="#DDDDDD"/>
<stop offset="1" stop-color="#97D0AC"/>
</linearGradient>
<linearGradient id="paint2_linear_81_85" x1="64.005" y1="56.29" x2="64.005" y2="97.04" gradientUnits="userSpaceOnUse">
<stop stop-color="#242424"/>
<stop offset="1" stop-color="#141414"/>
</linearGradient>
<linearGradient id="paint3_linear_81_85" x1="63.9999" y1="30" x2="63.9999" y2="56.4029" gradientUnits="userSpaceOnUse">
<stop stop-color="#8D4C20"/>
<stop offset="1" stop-color="#271509"/>
</linearGradient>
<linearGradient id="paint4_linear_81_85" x1="64.0419" y1="30" x2="63.592" y2="56.3966" gradientUnits="userSpaceOnUse">
<stop stop-opacity="0"/>
<stop offset="1" stop-color="#57E389"/>
</linearGradient>
<linearGradient id="paint5_linear_81_85" x1="64" y1="50" x2="64" y2="62" gradientUnits="userSpaceOnUse">
<stop stop-color="#9D6A47"/>
<stop offset="1" stop-color="#2C241F"/>
</linearGradient>
<linearGradient id="paint6_linear_81_85" x1="64.0442" y1="50" x2="63.9558" y2="62" gradientUnits="userSpaceOnUse">
<stop stop-opacity="0"/>
<stop offset="1" stop-color="#57E389"/>
</linearGradient>
</defs>
</svg>
