<svg width="128" height="128" viewBox="0 0 128 128" fill="none" xmlns="http://www.w3.org/2000/svg">
<rect width="128" height="128" rx="24" fill="url(#paint0_linear_60_21)"/>
<rect x="4" y="4" width="120" height="120" rx="20" stroke="black" stroke-opacity="0.25" stroke-width="8"/>
<g filter="url(#filter0_d_60_21)">
<path d="M98.2181 39.7411C101.411 40.6251 103.284 43.9306 102.4 47.1241L88.2596 98.217C87.3758 101.411 84.0701 103.283 80.8766 102.399L73.11 100.25C73.1659 99.8837 73.2296 99.5004 73.3163 99.0869C73.6839 97.3439 74.1089 95.9616 74.4524 94.5903C74.8457 93.0177 75.6009 90.8808 76.0209 89.9884C76.6811 88.5849 77.1856 87.8156 78.2075 86.8252C79.4067 85.9603 79.6367 85.8386 81.0189 84.7874C82.3078 83.8088 82.8312 83.3884 84.1684 82.1177C85.9927 80.3848 86.7026 79.0975 88.9819 74.6253C90.7399 71.1741 92.2252 67.3509 93.4194 63.7833C94.0882 61.7835 94.7028 59.7656 95.2623 57.7324C95.3729 57.3332 95.4653 56.9919 95.541 56.7142C95.322 56.4822 95.0691 56.2837 94.7919 56.1259C94.5153 55.971 94.2123 55.8688 93.8984 55.8249C93.7392 55.8031 93.5783 55.7937 93.4177 55.7972C93.2478 55.8012 93.0777 55.8162 92.9098 55.8421C92.5328 55.9035 92.1621 55.999 91.8023 56.1273C91.0148 56.4001 90.1631 56.8147 89.2607 57.2671C88.3094 57.7444 87.3515 58.2383 86.3079 58.6882C85.2085 59.1622 84.0921 59.5536 82.9253 59.7948C81.6654 60.0647 80.3698 60.1267 79.0896 59.9795C77.6035 59.8032 76.1809 59.3384 74.8112 58.6374C74.5363 58.5111 74.1874 58.3327 73.8141 58.1395C73.3515 57.4452 72.6478 56.9069 71.7807 56.6668L60.5185 53.5499C58.9217 53.1081 57.2689 54.0443 56.827 55.6411L53.5501 67.4811C53.1082 69.0778 54.0445 70.7306 55.6412 71.1726L67.9415 74.5768C67.9958 74.9195 68.0578 75.2644 68.0979 75.5787C68.2892 77.0847 68.6117 78.5391 69.1065 79.8572C69.2661 80.2846 69.4504 80.6891 69.6475 81.084L69.5991 81.0098C70.0216 82.1915 70.4008 82.8548 70.7493 83.836C71.0886 84.7899 71.4131 87.4874 71.3424 88.6126C71.1919 91.0298 71.1613 90.9784 70.8686 92.7372C70.6266 94.19 70.1516 95.8682 69.3816 97.9746C69.2426 98.3517 69.0929 98.7249 68.9349 99.0943L29.7826 88.2586C26.589 87.3747 24.7165 84.0692 25.6004 80.8756L39.7411 29.7826C40.625 26.589 43.9305 24.7165 47.1241 25.6004L98.2181 39.7411ZM87.3832 39.7042C86.7148 39.5048 86.0385 39.3315 85.3568 39.1839L82.7809 38.7233C82.1159 38.6319 81.448 38.5611 80.7787 38.5107C80.2498 38.4704 79.7198 38.4452 79.1894 38.4356C78.8818 38.4306 78.6087 38.4326 78.3734 38.4367C77.9011 38.4459 77.3146 38.473 76.7233 38.5445C76.278 38.5947 75.8372 38.6806 75.4058 38.802C75.0517 38.9067 74.7509 39.035 74.5322 39.1905C74.4416 39.2524 74.3597 39.3271 74.2904 39.4123C74.2361 39.4798 74.1955 39.5576 74.1715 39.6408C73.8405 40.8217 73.4734 42.2385 73.0967 43.7511C72.7341 45.2056 72.3732 46.7094 72.0472 48.0923C71.6801 49.6523 71.3206 51.2147 70.9692 52.7783C72.5225 54.3191 73.9771 55.419 75.3384 56.1832C76.7404 56.9699 78.0459 57.4012 79.2667 57.5825C80.4998 57.7654 81.6577 57.6963 82.7512 57.4768C83.8613 57.2548 84.9111 56.8744 85.9065 56.4371C86.9169 55.9946 87.8867 55.4862 88.8006 55.023C89.7401 54.5483 90.6314 54.1153 91.5003 53.8176C91.9271 53.6672 92.3667 53.5536 92.813 53.4787C93.2438 53.4072 93.682 53.3916 94.1168 53.4322C94.5614 53.4754 94.9967 53.5877 95.4068 53.7649C95.7087 53.8955 96.0022 54.0635 96.2907 54.2689L96.352 54.1025C96.4327 53.8813 96.5284 53.6261 96.6349 53.3367C96.8876 52.6596 97.1277 51.9778 97.354 51.2913C97.8554 49.7604 98.3999 47.8033 98.6927 45.6379C98.702 45.5628 98.696 45.4863 98.6758 45.4134C98.6482 45.3155 98.6066 45.2217 98.5531 45.1352C98.4309 44.9307 98.2313 44.7026 97.9511 44.4549C97.6709 44.2072 97.3193 43.9479 96.9045 43.6819C96.4437 43.3891 95.9698 43.1167 95.4846 42.8664C94.412 42.3068 93.148 41.7474 91.7893 41.2185C90.3405 40.6579 88.8707 40.1523 87.3832 39.7042Z" fill="url(#paint1_linear_60_21)"/>
</g>
<defs>
<filter id="filter0_d_60_21" x="9.38153" y="13.3815" width="109.238" height="109.237" filterUnits="userSpaceOnUse" color-interpolation-filters="sRGB">
<feFlood flood-opacity="0" result="BackgroundImageFix"/>
<feColorMatrix in="SourceAlpha" type="matrix" values="0 0 0 0 0 0 0 0 0 0 0 0 0 0 0 0 0 0 127 0" result="hardAlpha"/>
<feOffset dy="4"/>
<feGaussianBlur stdDeviation="8"/>
<feComposite in2="hardAlpha" operator="out"/>
<feColorMatrix type="matrix" values="0 0 0 0 0 0 0 0 0 0 0 0 0 0 0 0 0 0 0.5 0"/>
<feBlend mode="normal" in2="BackgroundImageFix" result="effect1_dropShadow_60_21"/>
<feBlend mode="normal" in="SourceGraphic" in2="effect1_dropShadow_60_21" result="shape"/>
</filter>
<linearGradient id="paint0_linear_60_21" x1="65" y1="2.37632e-08" x2="64.9997" y2="128" gradientUnits="userSpaceOnUse">
<stop stop-color="#FF7BB0"/>
<stop offset="1" stop-color="#5C0002"/>
</linearGradient>
<linearGradient id="paint1_linear_60_21" x1="64.0529" y1="30.2856" x2="63.9476" y2="97.7141" gradientUnits="userSpaceOnUse">
<stop stop-color="white"/>
<stop offset="1" stop-color="#EF9C9E"/>
</linearGradient>
</defs>
</svg>
