<svg width="128" height="128" viewBox="0 0 128 128" fill="none" xmlns="http://www.w3.org/2000/svg">
<rect width="128" height="128" rx="24" fill="url(#paint0_linear_49_7)"/>
<rect x="4" y="4" width="120" height="120" rx="20" stroke="black" stroke-opacity="0.25" stroke-width="8"/>
<g filter="url(#filter0_d_49_7)">
<path fill-rule="evenodd" clip-rule="evenodd" d="M31.5 29C30.1193 29 29 30.1193 29 31.5V86.5H24V31.5C24 27.3579 27.3579 24 31.5 24H98.4822C101.823 24 103.496 28.0393 101.134 30.4016L59.8792 71.6562H71.5V66.5H76.5V72.9062C76.5 74.9773 74.8211 76.6562 72.75 76.6562H54.8792L46.2855 85.25H85.25V54H90.25V85.25C90.25 88.0114 88.0114 90.25 85.25 90.25H41.2855L32.5355 99H96.5C97.8807 99 99 97.8807 99 96.5V41.5H104V96.5C104 100.642 100.642 104 96.5 104H29.5178C26.1769 104 24.5038 99.9607 26.8661 97.5983L67.9645 56.5H56.5V61.5H51.5V55.25C51.5 53.1789 53.1789 51.5 55.25 51.5H72.9645L81.7145 42.75H42.75V74H37.75V42.75C37.75 39.9886 39.9886 37.75 42.75 37.75H86.7145L95.4645 29H31.5Z" fill="url(#paint1_linear_49_7)" shape-rendering="crispEdges"/>
</g>
<g filter="url(#filter1_d_49_7)">
<path fill-rule="evenodd" clip-rule="evenodd" d="M31.5 29C30.1193 29 29 30.1193 29 31.5V86.5H24V31.5C24 27.3579 27.3579 24 31.5 24H98.4822C101.823 24 103.496 28.0393 101.134 30.4016L59.8792 71.6562H71.5V66.5H76.5V72.9062C76.5 74.9773 74.8211 76.6562 72.75 76.6562H54.8792L46.2855 85.25H85.25V54H90.25V85.25C90.25 88.0114 88.0114 90.25 85.25 90.25H41.2855L32.5355 99H96.5C97.8807 99 99 97.8807 99 96.5V41.5H104V96.5C104 100.642 100.642 104 96.5 104H29.5178C26.1769 104 24.5038 99.9607 26.8661 97.5983L67.9645 56.5H56.5V61.5H51.5V55.25C51.5 53.1789 53.1789 51.5 55.25 51.5H72.9645L81.7145 42.75H42.75V74H37.75V42.75C37.75 39.9886 39.9886 37.75 42.75 37.75H86.7145L95.4645 29H31.5Z" fill="url(#paint2_linear_49_7)" shape-rendering="crispEdges"/>
</g>
<defs>
<filter id="filter0_d_49_7" x="12" y="12" width="104" height="104" filterUnits="userSpaceOnUse" color-interpolation-filters="sRGB">
<feFlood flood-opacity="0" result="BackgroundImageFix"/>
<feColorMatrix in="SourceAlpha" type="matrix" values="0 0 0 0 0 0 0 0 0 0 0 0 0 0 0 0 0 0 127 0" result="hardAlpha"/>
<feOffset/>
<feGaussianBlur stdDeviation="6"/>
<feComposite in2="hardAlpha" operator="out"/>
<feColorMatrix type="matrix" values="0 0 0 0 0 0 0 0 0 0 0 0 0 0 0 0 0 0 0.75 0"/>
<feBlend mode="normal" in2="BackgroundImageFix" result="effect1_dropShadow_49_7"/>
<feBlend mode="normal" in="SourceGraphic" in2="effect1_dropShadow_49_7" result="shape"/>
</filter>
<filter id="filter1_d_49_7" x="12" y="12" width="104" height="104" filterUnits="userSpaceOnUse" color-interpolation-filters="sRGB">
<feFlood flood-opacity="0" result="BackgroundImageFix"/>
<feColorMatrix in="SourceAlpha" type="matrix" values="0 0 0 0 0 0 0 0 0 0 0 0 0 0 0 0 0 0 127 0" result="hardAlpha"/>
<feOffset/>
<feGaussianBlur stdDeviation="6"/>
<feComposite in2="hardAlpha" operator="out"/>
<feColorMatrix type="matrix" values="0 0 0 0 0 0 0 0 0 0 0 0 0 0 0 0 0 0 0.75 0"/>
<feBlend mode="normal" in2="BackgroundImageFix" result="effect1_dropShadow_49_7"/>
<feBlend mode="normal" in="SourceGraphic" in2="effect1_dropShadow_49_7" result="shape"/>
</filter>
<linearGradient id="paint0_linear_49_7" x1="64" y1="0" x2="64" y2="128" gradientUnits="userSpaceOnUse">
<stop stop-color="#575757"/>
<stop offset="1" stop-color="#222222"/>
</linearGradient>
<linearGradient id="paint1_linear_49_7" x1="75.5" y1="107.5" x2="69.2217" y2="24.0888" gradientUnits="userSpaceOnUse">
<stop stop-color="white" stop-opacity="0"/>
<stop offset="1" stop-color="white"/>
</linearGradient>
<linearGradient id="paint2_linear_49_7" x1="75.5" y1="107.5" x2="69.2217" y2="24.0888" gradientUnits="userSpaceOnUse">
<stop stop-color="white" stop-opacity="0"/>
<stop offset="1" stop-color="white"/>
</linearGradient>
</defs>
</svg>
