<svg width="128" height="128" viewBox="0 0 128 128" fill="none" xmlns="http://www.w3.org/2000/svg">
<rect width="128" height="128" rx="24" fill="url(#paint0_linear_46_2)"/>
<rect x="4" y="4" width="120" height="120" rx="20" stroke="black" stroke-opacity="0.25" stroke-width="8"/>
<g filter="url(#filter0_d_46_2)">
<path d="M64.5 104C86.8675 104 105 85.8675 105 63.5C105 41.1325 86.8675 23 64.5 23C42.1325 23 24 41.1325 24 63.5C24 85.8675 42.1325 104 64.5 104Z" stroke="url(#paint1_linear_46_2)" stroke-width="8.23529"/>
<path d="M64.5 90C79.1355 90 91 78.1355 91 63.5C91 48.8645 79.1355 37 64.5 37C49.8645 37 38 48.8645 38 63.5C38 78.1355 49.8645 90 64.5 90Z" stroke="url(#paint2_linear_46_2)" stroke-width="6"/>
<path d="M64.5 79C73.0604 79 80 72.0604 80 63.5C80 54.9396 73.0604 48 64.5 48C55.9396 48 49 54.9396 49 63.5C49 72.0604 55.9396 79 64.5 79Z" stroke="url(#paint3_linear_46_2)" stroke-width="3.64706"/>
</g>
<defs>
<filter id="filter0_d_46_2" x="3.88232" y="2.88235" width="121.235" height="121.235" filterUnits="userSpaceOnUse" color-interpolation-filters="sRGB">
<feFlood flood-opacity="0" result="BackgroundImageFix"/>
<feColorMatrix in="SourceAlpha" type="matrix" values="0 0 0 0 0 0 0 0 0 0 0 0 0 0 0 0 0 0 127 0" result="hardAlpha"/>
<feOffset/>
<feGaussianBlur stdDeviation="8"/>
<feComposite in2="hardAlpha" operator="out"/>
<feColorMatrix type="matrix" values="0 0 0 0 0 0 0 0 0 0 0 0 0 0 0 0 0 0 0.5 0"/>
<feBlend mode="normal" in2="BackgroundImageFix" result="effect1_dropShadow_46_2"/>
<feBlend mode="normal" in="SourceGraphic" in2="effect1_dropShadow_46_2" result="shape"/>
</filter>
<linearGradient id="paint0_linear_46_2" x1="64" y1="0" x2="64" y2="128" gradientUnits="userSpaceOnUse">
<stop stop-color="#6B6356"/>
<stop offset="1" stop-color="#202020"/>
</linearGradient>
<linearGradient id="paint1_linear_46_2" x1="64.5" y1="23" x2="64.5" y2="104" gradientUnits="userSpaceOnUse">
<stop stop-color="#F2F0E3"/>
<stop offset="1" stop-color="#8C8B83"/>
</linearGradient>
<linearGradient id="paint2_linear_46_2" x1="64.5" y1="37" x2="64.5" y2="90" gradientUnits="userSpaceOnUse">
<stop stop-color="#F2F0E3"/>
<stop offset="1" stop-color="#8C8B83"/>
</linearGradient>
<linearGradient id="paint3_linear_46_2" x1="64.5" y1="48" x2="64.5" y2="79" gradientUnits="userSpaceOnUse">
<stop stop-color="#F2F0E3"/>
<stop offset="1" stop-color="#8C8B83"/>
</linearGradient>
</defs>
</svg>
