<svg width="128" height="128" viewBox="0 0 128 128" fill="none" xmlns="http://www.w3.org/2000/svg">
<rect width="128" height="128" rx="24" fill="url(#paint0_linear_81_126)"/>
<rect x="4" y="4" width="120" height="120" rx="20" stroke="black" stroke-opacity="0.25" stroke-width="8"/>
<g filter="url(#filter0_d_81_126)">
<path d="M67.1422 43.1063C67.1456 42.5142 66.6367 42.0488 66.0473 42.105L61.3731 42.5506C60.8599 42.5995 60.468 43.0305 60.468 43.546V68.8679C60.468 69.4793 61.0117 69.9475 61.6162 69.8569L66.2262 69.1658C66.7158 69.0924 67.078 68.6719 67.078 68.1768V60.5851C67.078 59.6025 68.3468 59.2091 68.9026 60.0194L75.5443 69.702C75.7931 70.0648 76.2498 70.2223 76.6694 70.0901L81.6001 68.5366C82.2526 68.331 82.5106 67.5455 82.1071 66.993L74.2759 56.2704C74.0123 55.9096 74.0202 55.4177 74.2951 55.0654L82.0329 45.1503C82.4833 44.5732 82.1813 43.7236 81.4677 43.5603L76.5257 42.4288C76.1406 42.3407 75.7397 42.4875 75.5026 42.8035L68.8958 51.6102C68.3173 52.3812 67.0902 51.9681 67.0959 51.0042L67.1422 43.1063ZM52.0052 48.6744C52.0052 48.6748 52.0049 48.6751 52.0046 48.6751C51.9294 48.6831 51.8568 48.7162 51.8003 48.7727L49.1782 51.3831C49.068 51.4932 49.0472 51.6639 49.1285 51.7972L51.8841 56.3164C52.0774 56.6333 52.0763 57.0297 51.9009 57.3568C51.5856 57.9447 51.314 58.5594 51.0901 59.1964C50.9685 59.5427 50.6817 59.809 50.3224 59.8835L45.2698 60.93C45.113 60.9623 45 61.1006 45 61.2609V64.9527C45 65.1088 45.1073 65.244 45.2584 65.2804L50.137 66.4678C50.5003 66.5563 50.7809 66.841 50.8856 67.1999C51.1147 67.9849 51.4137 68.74 51.7782 69.4565C51.949 69.7923 51.9391 70.1951 51.7319 70.5096L48.9034 74.8046C48.815 74.9389 48.8335 75.1159 48.9476 75.2291L51.5687 77.8395C51.679 77.949 51.8511 77.9704 51.9855 77.89L56.4426 75.1946C56.7539 75.0063 57.1415 75.0047 57.4646 75.1718C58.1118 75.5066 58.7898 75.7899 59.4941 76.0154C59.8531 76.1304 60.1321 76.4216 60.2092 76.7906L61.2412 81.7313C61.2738 81.8884 61.4132 82 61.573 82H65.2811C65.437 82 65.573 81.894 65.6102 81.7418L66.8328 76.762C66.9197 76.408 67.1934 76.1323 67.5408 76.0218C68.2772 75.7876 68.9854 75.4903 69.659 75.1368C69.9949 74.9604 70.401 74.9673 70.7187 75.1747L75.0896 78.0285C75.224 78.1167 75.4019 78.099 75.516 77.9854L78.138 75.375C78.2489 75.2646 78.2688 75.0939 78.1873 74.9609L76.7174 72.5488C76.5323 72.2451 76.1641 72.1068 75.8249 72.2136C75.7407 72.2401 75.6489 72.2089 75.5994 72.1359C75.5994 72.1359 74.923 71.1499 73.9396 69.7166C73.5112 69.0922 72.5578 69.1479 72.11 69.7586C70.1786 72.3931 67.0549 74.1054 63.5272 74.1054C57.66 74.1054 52.9034 69.3688 52.9034 63.5263C52.9034 59.458 55.21 55.9289 58.5909 54.159C58.94 53.9762 59.1737 53.6226 59.1737 53.2285V52.402C59.1737 51.7883 58.5674 51.3585 58.0088 51.6129C57.7465 51.7323 57.4889 51.8602 57.2368 51.9969C57.2348 51.998 57.2322 51.9973 57.2305 51.9957L52.226 48.7274C52.1588 48.6837 52.081 48.6662 52.0057 48.6737C52.0054 48.6737 52.0051 48.6741 52.0052 48.6744Z" fill="url(#paint1_linear_81_126)"/>
</g>
<g filter="url(#filter1_d_81_126)">
<path d="M104 96C104 100.418 100.418 104 96 104H32C27.5817 104 24 100.418 24 96V32C24 27.5817 27.5817 24 32 24H96C100.418 24 104 27.5817 104 32V96ZM60 98C60 100.209 61.7909 102 64 102C66.2091 102 68 100.209 68 98C68 95.7909 66.2091 94 64 94C61.7909 94 60 95.7909 60 98ZM28 84C28 88.4183 31.5817 92 36 92H92C96.4183 92 100 88.4183 100 84V40C100 35.5817 96.4183 32 92 32H36C31.5817 32 28 35.5817 28 40V84ZM55 27C54.4477 27 54 27.4477 54 28C54 28.5523 54.4477 29 55 29H73C73.5523 29 74 28.5523 74 28C74 27.4477 73.5523 27 73 27H55Z" fill="url(#paint2_linear_81_126)"/>
</g>
<defs>
<filter id="filter0_d_81_126" x="29" y="30.1004" width="69.3001" height="71.8996" filterUnits="userSpaceOnUse" color-interpolation-filters="sRGB">
<feFlood flood-opacity="0" result="BackgroundImageFix"/>
<feColorMatrix in="SourceAlpha" type="matrix" values="0 0 0 0 0 0 0 0 0 0 0 0 0 0 0 0 0 0 127 0" result="hardAlpha"/>
<feOffset dy="4"/>
<feGaussianBlur stdDeviation="8"/>
<feComposite in2="hardAlpha" operator="out"/>
<feColorMatrix type="matrix" values="0 0 0 0 0 0 0 0 0 0 0 0 0 0 0 0 0 0 0.5 0"/>
<feBlend mode="normal" in2="BackgroundImageFix" result="effect1_dropShadow_81_126"/>
<feBlend mode="normal" in="SourceGraphic" in2="effect1_dropShadow_81_126" result="shape"/>
</filter>
<filter id="filter1_d_81_126" x="8" y="12" width="112" height="112" filterUnits="userSpaceOnUse" color-interpolation-filters="sRGB">
<feFlood flood-opacity="0" result="BackgroundImageFix"/>
<feColorMatrix in="SourceAlpha" type="matrix" values="0 0 0 0 0 0 0 0 0 0 0 0 0 0 0 0 0 0 127 0" result="hardAlpha"/>
<feOffset dy="4"/>
<feGaussianBlur stdDeviation="8"/>
<feComposite in2="hardAlpha" operator="out"/>
<feColorMatrix type="matrix" values="0 0 0 0 0 0 0 0 0 0 0 0 0 0 0 0 0 0 0.5 0"/>
<feBlend mode="normal" in2="BackgroundImageFix" result="effect1_dropShadow_81_126"/>
<feBlend mode="normal" in="SourceGraphic" in2="effect1_dropShadow_81_126" result="shape"/>
</filter>
<linearGradient id="paint0_linear_81_126" x1="65" y1="2.37632e-08" x2="64.9997" y2="128" gradientUnits="userSpaceOnUse">
<stop stop-color="#65BEFF"/>
<stop offset="1" stop-color="#152E3D"/>
</linearGradient>
<linearGradient id="paint1_linear_81_126" x1="64" y1="42" x2="64" y2="82" gradientUnits="userSpaceOnUse">
<stop stop-color="white"/>
<stop offset="1" stop-color="#AACEE5"/>
</linearGradient>
<linearGradient id="paint2_linear_81_126" x1="64" y1="24" x2="64" y2="104" gradientUnits="userSpaceOnUse">
<stop stop-color="white"/>
<stop offset="1" stop-color="#AACEE5"/>
</linearGradient>
</defs>
</svg>
