<svg width="128" height="128" viewBox="0 0 128 128" fill="none" xmlns="http://www.w3.org/2000/svg">
<rect width="128" height="128" rx="24" fill="url(#paint0_linear_117_20)"/>
<rect x="4" y="4" width="120" height="120" rx="20" stroke="black" stroke-opacity="0.25" stroke-width="8"/>
<g filter="url(#filter0_d_117_20)">
<path d="M56.9316 26.7211C60.4308 23.094 66.6438 23.094 70.4287 26.7211L100.922 58.4222C112.776 70.464 87.0677 73.0028 80.0693 78.0082C77.1416 80.1119 88.1389 82.4333 86.8535 85.6976C84.4968 91.7911 78.7835 88.1637 72.3564 94.765C69.7858 97.4489 77.5691 97.4494 74.7138 99.9154C70.1436 103.76 59.9315 106.009 59.1455 101.512C58.0743 95.4185 52.0756 97.9569 49.5761 95.2728C47.0058 92.5888 54.7895 89.7596 52.2187 87.0756C49.6479 84.4641 36.7224 81.9978 34.1513 79.3138C31.5091 76.6298 44.4344 74.0179 41.3642 71.9867C34.7229 67.7067 16.3694 68.6499 27.5097 57.3334L56.9316 26.7211ZM41.0781 93.7494C37.1196 90.352 45.6214 86.8888 48.6253 89.5666C48.8851 89.7982 48.9317 90.1773 48.7793 90.4902C47.3011 93.5263 43.5809 95.9482 41.0781 93.7494ZM88.9226 89.253C89.1356 89.0149 89.4694 88.9213 89.7783 89.0027C93.0767 89.8712 93.8837 92.4712 93.0664 93.0248C89.9807 95.0445 86.3022 92.1814 88.9226 89.253ZM90.7395 85.8301C90.7026 85.7477 90.7218 85.6522 90.7487 85.5661C92.162 81.0486 100.787 80.7364 101.707 85.3344C102.331 88.01 91.3833 87.2689 90.7395 85.8301ZM49.9873 70.8949C47.7013 70.8949 46.2638 72.0383 50.2892 73.5463C50.3743 73.5782 50.4654 73.5985 50.5559 73.606C55.4625 74.0153 62.2001 75.8044 64.8888 76.7148C65.3723 76.8785 65.9633 76.6824 65.9966 76.173C66.2665 72.0518 50.5296 70.8949 49.9873 70.8949ZM68.9052 28.434C66.3059 25.8077 61.7565 25.7346 59.1572 28.434C56.63 31.1333 48.6156 38.9403 44.5 43.5365C42.4064 45.652 42.1174 47.7677 44.1386 47.7679L53.9602 47.8357C54.3545 47.8385 54.7136 47.6092 54.8771 47.2504L57.6027 41.2685C57.996 40.4055 59.2576 40.5236 59.4838 41.4446L61.0623 47.8704C61.2257 48.5359 61.9949 48.8435 62.5722 48.4743L68.7694 44.5108C69.0761 44.3146 69.4653 44.3006 69.7853 44.4744L72.8663 46.147C73.4712 46.4755 74.2194 46.1087 74.3303 45.4293L74.9786 41.4587C75.1029 40.6974 76.0057 40.3575 76.6011 40.8478L80.4029 43.978C80.802 44.3065 81.3771 44.2451 81.4813 43.7388C81.6798 42.7742 81.4677 41.3468 80.6748 40.5453L68.9052 28.434Z" fill="url(#paint1_linear_117_20)"/>
</g>
<defs>
<filter id="filter0_d_117_20" x="7.99994" y="12.0007" width="112.001" height="112" filterUnits="userSpaceOnUse" color-interpolation-filters="sRGB">
<feFlood flood-opacity="0" result="BackgroundImageFix"/>
<feColorMatrix in="SourceAlpha" type="matrix" values="0 0 0 0 0 0 0 0 0 0 0 0 0 0 0 0 0 0 127 0" result="hardAlpha"/>
<feOffset dy="4"/>
<feGaussianBlur stdDeviation="8"/>
<feComposite in2="hardAlpha" operator="out"/>
<feColorMatrix type="matrix" values="0 0 0 0 0 0 0 0 0 0 0 0 0 0 0 0 0 0 0.5 0"/>
<feBlend mode="normal" in2="BackgroundImageFix" result="effect1_dropShadow_117_20"/>
<feBlend mode="normal" in="SourceGraphic" in2="effect1_dropShadow_117_20" result="shape"/>
</filter>
<linearGradient id="paint0_linear_117_20" x1="64" y1="0" x2="64" y2="128" gradientUnits="userSpaceOnUse">
<stop stop-color="#688094"/>
<stop offset="1" stop-color="#19181A"/>
</linearGradient>
<linearGradient id="paint1_linear_117_20" x1="64.0004" y1="24.0004" x2="64.0004" y2="104.001" gradientUnits="userSpaceOnUse">
<stop stop-color="white"/>
<stop offset="1" stop-color="#505F70"/>
</linearGradient>
</defs>
</svg>
