<svg width="128" height="128" viewBox="0 0 128 128" fill="none" xmlns="http://www.w3.org/2000/svg">
<rect width="128" height="128" rx="24" fill="url(#paint0_linear_7_239)"/>
<rect x="4" y="4" width="120" height="120" rx="20" stroke="black" stroke-opacity="0.25" stroke-width="8"/>
<g filter="url(#filter0_d_7_239)">
<path d="M57.1538 39.1038H57.1607C59.6795 30.2982 70.6553 26 81.8403 26C89.5693 26 96.5075 28.4468 101.264 32.3313C98.4254 32.4652 95.6227 33.0222 92.9487 33.9839C96.7921 35.4124 100.094 37.6101 102.541 40.3289C100.695 40.0111 98.8226 39.8696 96.9498 39.9061C101.553 46.5738 104.012 54.487 103.999 62.5892C103.999 84.6803 86.0905 102.589 63.9994 102.589C42.2489 102.589 24 84.3775 24 62.5892C24 59.1481 24.4571 55.595 25.3451 52.2625C25.5783 51.5631 25.9028 50.8922 26.3337 50.6465C26.8731 50.3391 27.3645 51.2556 27.4434 51.5539C28.0283 53.7447 28.8152 55.8765 29.7942 57.9218C29.7085 53.355 31.6593 49.1951 34.3427 45.5974C36.1324 43.1986 37.7918 40.9758 38.5575 34.561C38.6089 34.1302 39.0169 33.8205 39.4295 33.9553C45.2534 35.8616 48.3665 45.5597 47.8831 53.6693C51.1002 54.1299 51.0853 50.7688 51.0853 50.7688C50.0568 47.6077 50.7425 41.7323 57.1424 39.1038H57.1538Z" fill="url(#paint1_linear_7_239)"/>
<path opacity="0.9" d="M102.69 52.4031C103.663 74.4027 85.5774 93.3705 63.524 93.3705C42.8786 93.3705 25.9611 77.413 24.4308 57.1596C24.1578 59.0561 24.0143 60.9691 24.0011 62.8852C24.1577 84.5557 42.362 102.589 64.0006 102.589C86.0917 102.589 104 84.6803 104 62.5892C104 59.0692 103.544 55.6556 102.69 52.4031Z" fill="url(#paint2_radial_7_239)"/>
<path style="mix-blend-mode:screen" d="M63.0246 42.0192C62.5937 41.2569 60.604 40.1289 59.7343 39.9324C63.0257 29.3897 79.7935 26.1531 90.0562 28.0183C94.327 28.7954 99.6458 31.1222 101.264 32.3313C96.5075 28.4468 89.5682 26 81.8403 26C70.6553 26 59.6795 30.2982 57.1607 39.1038H57.1424C50.7425 41.7323 50.0568 47.61 51.0853 50.7699C52.0727 46.9997 56.771 42.3666 63.0246 42.0192Z" fill="url(#paint3_radial_7_239)"/>
<path d="M74.6484 34.7382C65.6634 36.5061 62.7275 37.0844 59.7206 39.9427C63.0977 31.0022 71.7182 29.1897 81.99 33.265C79.5453 33.769 77.0981 34.2605 74.6484 34.7393V34.7382Z" fill="url(#paint4_linear_7_239)"/>
<path d="M26.1714 51.0385C23.7166 61.0886 25.6137 72.901 36.7655 82.814C33.4456 79.1832 29.3919 65.7777 38.3369 56.2007C38.9392 55.555 39.9758 56.0293 40.0089 56.9116C40.746 76.8153 56.8064 88.9717 75.3227 86.6986C69.5856 86.3763 50.6122 79.7307 64.7263 77.1021C72.1033 75.7273 83.67 73.573 83.67 63.1938C83.67 46.3688 70.661 41.4501 62.772 42.1815C57.3732 42.682 52.5676 46.1083 51.0888 50.7676C51.6568 52.6042 49.3928 53.8899 47.8831 53.6739C48.3677 45.5654 45.2546 35.8616 39.4295 33.9553C39.0181 33.8205 38.6089 34.1302 38.5575 34.561C37.7918 40.9758 36.1324 43.1986 34.3439 45.5974C31.6593 49.1962 29.7085 53.355 29.7942 57.9218C28.8152 55.8765 28.0283 53.7447 27.4434 51.5539C27.3782 51.3071 27.0205 50.6179 26.5885 50.5859C26.3543 50.5688 26.2297 50.7974 26.1714 51.0385Z" fill="url(#paint5_radial_7_239)"/>
<path style="mix-blend-mode:screen" d="M59.7698 78.1204C70.6313 86.9397 92.4744 80.3272 92.4744 58.8841C83.6563 72.2508 72.4245 81.4712 59.7709 78.1204H59.7698Z" fill="url(#paint6_linear_7_239)"/>
<path style="mix-blend-mode:screen" d="M38.3369 56.2007C38.4357 56.0902 38.5601 56.0057 38.6992 55.9547C38.8384 55.9037 38.9879 55.8877 39.1346 55.9081C31.1279 65.6737 37.5861 82.8243 42.018 87.038C42.266 87.7397 37.8135 84.0906 37.1998 83.2369C33.8284 80.3764 28.9965 66.2017 38.3369 56.2007Z" fill="url(#paint7_linear_7_239)"/>
<path d="M63.9994 78.9284C74.8633 78.9284 83.6711 71.7422 83.6711 62.8772C83.6711 54.0122 74.8633 46.826 63.9994 46.826C54.731 46.826 44.3231 52.8556 44.3277 63.1115C44.3323 78.9592 61.0749 88.0768 75.3467 86.6963C74.2747 86.5717 67.5868 86.2163 63.0669 81.1032C62.6589 80.6426 61.9514 79.8381 62.2726 79.3158C62.5926 78.7935 63.4749 78.9272 63.9983 78.9272L63.9994 78.9284Z" fill="url(#paint8_linear_7_239)"/>
<path opacity="0.6" d="M81.5283 55.5836L65.9811 70.4611C64.6017 71.4416 63.1332 71.5125 61.684 70.6234L46.4351 55.6384C46.8702 54.9392 47.3592 54.2751 47.898 53.6522L49.4979 55.1493C53.5024 58.9024 56.7401 61.9343 61.3035 65.8291C63.3629 67.5868 64.0029 67.5525 66.0234 65.8291C71.2439 61.3721 75.0621 58.0007 80.0255 53.5676C80.5786 54.1991 81.0808 54.8736 81.5272 55.5847L81.5283 55.5836Z" fill="white"/>
<mask id="mask0_7_239" style="mask-type:luminance" maskUnits="userSpaceOnUse" x="44" y="55" width="40" height="32">
<path d="M83.6711 62.8772C83.6711 71.7422 74.8633 78.9284 63.9994 78.9284C63.4749 78.9284 62.5937 78.7935 62.2726 79.317C61.9515 79.8381 62.6589 80.6426 63.0669 81.1032C67.3137 85.9077 73.4747 86.5123 75.0918 86.6711L75.3467 86.6963C61.0749 88.0768 44.3323 78.9592 44.3277 63.1115C44.3128 60.4729 45.0471 57.8842 46.4454 55.6464L61.7686 69.564C62.8589 70.5537 64.6954 70.5537 65.7857 69.564L81.3992 55.3824C82.8506 57.6201 83.6711 60.1709 83.6711 62.8772Z" fill="white"/>
</mask>
<g mask="url(#mask0_7_239)">
<path opacity="0.7" d="M39.7712 44.3643H89.4928V89.446H39.7712V44.3643Z" fill="url(#paint9_linear_7_239)"/>
<g filter="url(#filter1_f_7_239)">
<path fill-rule="evenodd" clip-rule="evenodd" d="M59.4327 69.6577C56.5356 66.6429 47.8591 56.6259 47.8591 56.6259L48.53 56.6556L62.1138 66.8006C63.1309 67.54 64.5823 67.532 65.5903 66.7834L78.9101 56.6693L79.6164 56.6133C79.6164 56.6133 71.2233 66.3926 68.0085 69.6142C64.7937 72.8359 62.3298 72.6725 59.4327 69.6577Z" fill="#458FCD"/>
</g>
</g>
<path d="M66.7594 38.7964C68.8645 38.1335 68.6794 36.0501 68.6794 36.0501C68.6794 36.0501 67.6268 34.8102 65.5411 35.497C63.5891 36.1404 63.2863 37.5313 63.2863 37.5313C63.2863 37.5313 64.3526 39.5541 66.7594 38.7964Z" fill="white"/>
</g>
<defs>
<filter id="filter0_d_7_239" x="8" y="10" width="112" height="108.589" filterUnits="userSpaceOnUse" color-interpolation-filters="sRGB">
<feFlood flood-opacity="0" result="BackgroundImageFix"/>
<feColorMatrix in="SourceAlpha" type="matrix" values="0 0 0 0 0 0 0 0 0 0 0 0 0 0 0 0 0 0 127 0" result="hardAlpha"/>
<feOffset/>
<feGaussianBlur stdDeviation="8"/>
<feComposite in2="hardAlpha" operator="out"/>
<feColorMatrix type="matrix" values="0 0 0 0 0 0 0 0 0 0 0 0 0 0 0 0 0 0 0.5 0"/>
<feBlend mode="normal" in2="BackgroundImageFix" result="effect1_dropShadow_7_239"/>
<feBlend mode="normal" in="SourceGraphic" in2="effect1_dropShadow_7_239" result="shape"/>
</filter>
<filter id="filter1_f_7_239" x="15.8591" y="24.6133" width="95.7573" height="79.3616" filterUnits="userSpaceOnUse" color-interpolation-filters="sRGB">
<feFlood flood-opacity="0" result="BackgroundImageFix"/>
<feBlend mode="normal" in="SourceGraphic" in2="BackgroundImageFix" result="shape"/>
<feGaussianBlur stdDeviation="16" result="effect1_foregroundBlur_7_239"/>
</filter>
<linearGradient id="paint0_linear_7_239" x1="64" y1="0" x2="64" y2="128" gradientUnits="userSpaceOnUse">
<stop stop-color="#0D55A4"/>
<stop offset="1" stop-color="#05203E"/>
</linearGradient>
<linearGradient id="paint1_linear_7_239" x1="37.8832" y1="39.1838" x2="94.271" y2="91.7796" gradientUnits="userSpaceOnUse">
<stop stop-color="#1B91F3"/>
<stop offset="1" stop-color="#0B68CB"/>
</linearGradient>
<radialGradient id="paint2_radial_7_239" cx="0" cy="0" r="1" gradientUnits="userSpaceOnUse" gradientTransform="translate(37.7792 57.2807) rotate(66.5177) scale(33.8235 32.4017)">
<stop offset="0.53" stop-color="#0B4186" stop-opacity="0"/>
<stop offset="1" stop-color="#0B4186" stop-opacity="0.45"/>
</radialGradient>
<radialGradient id="paint3_radial_7_239" cx="0" cy="0" r="1" gradientUnits="userSpaceOnUse" gradientTransform="translate(65.028 43.3895) rotate(-127.997) scale(7.23078 11.9653)">
<stop stop-color="#EF3ACC" stop-opacity="0"/>
<stop offset="1" stop-color="#EF3ACC" stop-opacity="0.64"/>
</radialGradient>
<linearGradient id="paint4_linear_7_239" x1="53.5733" y1="52.6476" x2="73.8633" y2="30.0605" gradientUnits="userSpaceOnUse">
<stop stop-color="#0F5DB0"/>
<stop offset="1" stop-color="#0F5DB0" stop-opacity="0"/>
</linearGradient>
<radialGradient id="paint5_radial_7_239" cx="0" cy="0" r="1" gradientUnits="userSpaceOnUse" gradientTransform="translate(48.9139 84.3832) rotate(-64.2624) scale(52.7668 65.1825)">
<stop offset="0.02" stop-color="#094188"/>
<stop offset="0.97" stop-color="#0B4186" stop-opacity="0"/>
</radialGradient>
<linearGradient id="paint6_linear_7_239" x1="89.1328" y1="69.0017" x2="79.6986" y2="92.1659" gradientUnits="userSpaceOnUse">
<stop stop-color="#E247C4" stop-opacity="0"/>
<stop offset="1" stop-color="#E247C4" stop-opacity="0.64"/>
</linearGradient>
<linearGradient id="paint7_linear_7_239" x1="30.6296" y1="48.2283" x2="38.9415" y2="81.6815" gradientUnits="userSpaceOnUse">
<stop offset="0.1" stop-color="#EF3ACC"/>
<stop offset="1" stop-color="#EF3ACC" stop-opacity="0"/>
</linearGradient>
<linearGradient id="paint8_linear_7_239" x1="63.9994" y1="52.7036" x2="63.9994" y2="86.5317" gradientUnits="userSpaceOnUse">
<stop stop-color="white"/>
<stop offset="0.91" stop-color="#BEE1FE"/>
<stop offset="1" stop-color="#96CEFD"/>
</linearGradient>
<linearGradient id="paint9_linear_7_239" x1="64.6325" y1="71.8462" x2="64.6325" y2="86.0174" gradientUnits="userSpaceOnUse">
<stop stop-color="#BCE0FD"/>
<stop offset="1" stop-color="#88CCFC"/>
</linearGradient>
</defs>
</svg>
