<svg width="128" height="128" viewBox="0 0 128 128" fill="none" xmlns="http://www.w3.org/2000/svg">
<rect width="128" height="128" rx="24" fill="url(#paint0_linear_121_2)"/>
<rect x="4" y="4" width="120" height="120" rx="20" stroke="black" stroke-opacity="0.25" stroke-width="8"/>
<g filter="url(#filter0_i_121_2)">
<rect x="52" y="8" width="24" height="112" fill="#202645"/>
</g>
<path d="M52 8H64V24H52V8Z" fill="#C6C6C6"/>
<path d="M64 8H76V24H64V8Z" fill="#D9D9D9"/>
<path d="M76 24H64V40H76V24Z" fill="#C6C6C6"/>
<path d="M64 24H52V40H64V24Z" fill="#D9D9D9"/>
<g filter="url(#filter1_d_121_2)">
<path d="M52 40H64V56H52V40Z" fill="#A8A8A8"/>
<path d="M64 40H76V56H64V40Z" fill="#CACACA"/>
<path d="M76 56H64V72H76V56Z" fill="#A8A8A8"/>
<path d="M64 56H52V72H64V56Z" fill="#CACACA"/>
</g>
<g filter="url(#filter2_d_121_2)">
<path d="M67 87L77.3923 81L85.3923 94.8564C86.4969 96.7696 85.8414 99.2159 83.9282 100.321L80.4641 102.321C78.5509 103.425 76.1046 102.77 75 100.856L67 87Z" fill="#C6C6C6"/>
</g>
<g filter="url(#filter3_d_121_2)">
<path d="M52.3923 101.856C51.2878 103.77 48.8414 104.425 46.9282 103.32L43.4641 101.32C41.551 100.216 40.8955 97.7696 42 95.8564L50 82L60.3923 88L52.3923 101.856Z" fill="#D9D9D9"/>
</g>
<rect x="60.7694" y="87.0336" width="12" height="16" transform="rotate(-168.75 60.7694 87.0336)" fill="#C6C6C6"/>
<rect x="64" y="71.3411" width="12" height="16" transform="rotate(-11.25 64 71.3411)" fill="#D9D9D9"/>
<g filter="url(#filter4_d_121_2)">
<rect x="56" y="71" width="16" height="30" rx="4" fill="url(#paint1_linear_121_2)"/>
</g>
<defs>
<filter id="filter0_i_121_2" x="52" y="8" width="24" height="116" filterUnits="userSpaceOnUse" color-interpolation-filters="sRGB">
<feFlood flood-opacity="0" result="BackgroundImageFix"/>
<feBlend mode="normal" in="SourceGraphic" in2="BackgroundImageFix" result="shape"/>
<feColorMatrix in="SourceAlpha" type="matrix" values="0 0 0 0 0 0 0 0 0 0 0 0 0 0 0 0 0 0 127 0" result="hardAlpha"/>
<feOffset dy="4"/>
<feGaussianBlur stdDeviation="8"/>
<feComposite in2="hardAlpha" operator="arithmetic" k2="-1" k3="1"/>
<feColorMatrix type="matrix" values="0 0 0 0 0 0 0 0 0 0 0 0 0 0 0 0 0 0 0.5 0"/>
<feBlend mode="normal" in2="shape" result="effect1_innerShadow_121_2"/>
</filter>
<filter id="filter1_d_121_2" x="36" y="28" width="56" height="64" filterUnits="userSpaceOnUse" color-interpolation-filters="sRGB">
<feFlood flood-opacity="0" result="BackgroundImageFix"/>
<feColorMatrix in="SourceAlpha" type="matrix" values="0 0 0 0 0 0 0 0 0 0 0 0 0 0 0 0 0 0 127 0" result="hardAlpha"/>
<feOffset dy="4"/>
<feGaussianBlur stdDeviation="8"/>
<feComposite in2="hardAlpha" operator="out"/>
<feColorMatrix type="matrix" values="0 0 0 0 0 0 0 0 0 0 0 0 0 0 0 0 0 0 0.5 0"/>
<feBlend mode="normal" in2="BackgroundImageFix" result="effect1_dropShadow_121_2"/>
<feBlend mode="normal" in="SourceGraphic" in2="effect1_dropShadow_121_2" result="shape"/>
</filter>
<filter id="filter2_d_121_2" x="51" y="69" width="50.9289" height="53.8571" filterUnits="userSpaceOnUse" color-interpolation-filters="sRGB">
<feFlood flood-opacity="0" result="BackgroundImageFix"/>
<feColorMatrix in="SourceAlpha" type="matrix" values="0 0 0 0 0 0 0 0 0 0 0 0 0 0 0 0 0 0 127 0" result="hardAlpha"/>
<feOffset dy="4"/>
<feGaussianBlur stdDeviation="8"/>
<feComposite in2="hardAlpha" operator="out"/>
<feColorMatrix type="matrix" values="0 0 0 0 0 0 0 0 0 0 0 0 0 0 0 0 0 0 0.5 0"/>
<feBlend mode="normal" in2="BackgroundImageFix" result="effect1_dropShadow_121_2"/>
<feBlend mode="normal" in="SourceGraphic" in2="effect1_dropShadow_121_2" result="shape"/>
</filter>
<filter id="filter3_d_121_2" x="25.4634" y="70" width="50.9289" height="53.8571" filterUnits="userSpaceOnUse" color-interpolation-filters="sRGB">
<feFlood flood-opacity="0" result="BackgroundImageFix"/>
<feColorMatrix in="SourceAlpha" type="matrix" values="0 0 0 0 0 0 0 0 0 0 0 0 0 0 0 0 0 0 127 0" result="hardAlpha"/>
<feOffset dy="4"/>
<feGaussianBlur stdDeviation="8"/>
<feComposite in2="hardAlpha" operator="out"/>
<feColorMatrix type="matrix" values="0 0 0 0 0 0 0 0 0 0 0 0 0 0 0 0 0 0 0.5 0"/>
<feBlend mode="normal" in2="BackgroundImageFix" result="effect1_dropShadow_121_2"/>
<feBlend mode="normal" in="SourceGraphic" in2="effect1_dropShadow_121_2" result="shape"/>
</filter>
<filter id="filter4_d_121_2" x="40" y="59" width="48" height="62" filterUnits="userSpaceOnUse" color-interpolation-filters="sRGB">
<feFlood flood-opacity="0" result="BackgroundImageFix"/>
<feColorMatrix in="SourceAlpha" type="matrix" values="0 0 0 0 0 0 0 0 0 0 0 0 0 0 0 0 0 0 127 0" result="hardAlpha"/>
<feOffset dy="4"/>
<feGaussianBlur stdDeviation="8"/>
<feComposite in2="hardAlpha" operator="out"/>
<feColorMatrix type="matrix" values="0 0 0 0 0 0 0 0 0 0 0 0 0 0 0 0 0 0 0.5 0"/>
<feBlend mode="normal" in2="BackgroundImageFix" result="effect1_dropShadow_121_2"/>
<feBlend mode="normal" in="SourceGraphic" in2="effect1_dropShadow_121_2" result="shape"/>
</filter>
<linearGradient id="paint0_linear_121_2" x1="64" y1="0" x2="64" y2="128" gradientUnits="userSpaceOnUse">
<stop stop-color="#78B3FF"/>
<stop offset="1" stop-color="#1B365B"/>
</linearGradient>
<linearGradient id="paint1_linear_121_2" x1="64" y1="71" x2="64" y2="101" gradientUnits="userSpaceOnUse">
<stop stop-color="white"/>
<stop offset="1" stop-color="#B1B1B1"/>
</linearGradient>
</defs>
</svg>
