<?xml version="1.0" encoding="UTF-8" standalone="no"?>
<svg
   viewBox="0 0 22 22"
   version="1.1"
   id="svg1"
   sodipodi:docname="compass.svg"
   width="22"
   height="22"
   inkscape:version="1.3.2 (091e20ef0f, 2023-11-25)"
   xmlns:inkscape="http://www.inkscape.org/namespaces/inkscape"
   xmlns:sodipodi="http://sodipodi.sourceforge.net/DTD/sodipodi-0.dtd"
   xmlns="http://www.w3.org/2000/svg"
   xmlns:svg="http://www.w3.org/2000/svg">
  <sodipodi:namedview
     id="namedview1"
     pagecolor="#ffffff"
     bordercolor="#999999"
     borderopacity="1"
     inkscape:showpageshadow="2"
     inkscape:pageopacity="0"
     inkscape:pagecheckerboard="0"
     inkscape:deskcolor="#d1d1d1"
     inkscape:zoom="10.482736"
     inkscape:cx="11.256603"
     inkscape:cy="18.697409"
     inkscape:window-width="1920"
     inkscape:window-height="996"
     inkscape:window-x="0"
     inkscape:window-y="0"
     inkscape:window-maximized="1"
     inkscape:current-layer="svg1" />
  <defs
     id="defs3051">
    <style
       type="text/css"
       id="current-color-scheme">.ColorScheme-Text { color:#d8d8d8; }
</style>
  </defs>
  <g
     id="22-22-compass-2"
     transform="translate(-32,-9.9999997)">
    <path
       style="clip-rule:evenodd;fill:#ffffc1;fill-opacity:0;fill-rule:evenodd;stroke-width:0.688964;stroke-linejoin:round;stroke-miterlimit:1.41421"
       d="M 32,9.9999997 V 32 H 54 V 9.9999997 Z"
       id="rect817-5-7"
       inkscape:connector-curvature="0" />
    <path
       d="m 43.01518,27.498193 a 0.572455,0.57245497 0 0 0 0.454216,-0.327516 l 3.235935,-6.471819 a 4.3132912,4.313291 0 0 0 -0.334598,-4.481746 4.2220534,4.2220531 0 0 0 -7.174486,4.394122 l 3.29584,6.591351 a 0.53485421,0.53485418 0 0 0 0.523093,0.295608 z m -2.340139,-8.87342 a 2.2976638,2.2976637 0 1 1 2.297664,2.297664 2.300243,2.3002429 0 0 1 -2.297664,-2.297664 z"
       id="path6-6"
       style="color:#d1d5e9;fill:#1e2431;fill-opacity:1;stroke-width:0.199991"
       class="ColorScheme-Text" />
    <path
       style="color:#d1d5e9;fill:#1e2431;fill-opacity:1;stroke-width:1.25"
       d="M 43,11 C 37.47,11 33,15.47 33,20.999999 33,26.53 37.47,31 43,31 48.53,31 53,26.53 53,20.999999 53,15.47 48.53,11 43,11 Z m 0,1.25 c 4.837487,0 8.75,3.912502 8.75,8.749999 C 51.75,25.837487 47.837487,29.75 43,29.75 38.162487,29.75 34.25,25.837487 34.25,20.999999 34.25,16.162502 38.162487,12.25 43,12.25 Z m 0.937487,7.148751 v 0 0 0 0 0 c 0,0 -0.04244,0.0099 0,0 z m -0.97624,5.625 z"
       id="path58-3"
       sodipodi:nodetypes="ssssssssssccccccccccccccccc"
       class="ColorScheme-Text" />
  </g>
</svg>
