<?xml version="1.0" encoding="UTF-8" standalone="no"?>
<svg
   viewBox="0 0 22 22"
   version="1.1"
   id="svg1"
   sodipodi:docname="configure.svg"
   width="22"
   height="22"
   inkscape:version="1.3.2 (091e20ef0f, 2023-11-25)"
   xmlns:inkscape="http://www.inkscape.org/namespaces/inkscape"
   xmlns:sodipodi="http://sodipodi.sourceforge.net/DTD/sodipodi-0.dtd"
   xmlns="http://www.w3.org/2000/svg"
   xmlns:svg="http://www.w3.org/2000/svg">
  <sodipodi:namedview
     id="namedview1"
     pagecolor="#ffffff"
     bordercolor="#999999"
     borderopacity="1"
     inkscape:showpageshadow="2"
     inkscape:pageopacity="0"
     inkscape:pagecheckerboard="0"
     inkscape:deskcolor="#d1d1d1"
     inkscape:zoom="17.318182"
     inkscape:cx="10.913386"
     inkscape:cy="15.186352"
     inkscape:window-width="1920"
     inkscape:window-height="996"
     inkscape:window-x="0"
     inkscape:window-y="0"
     inkscape:window-maximized="1"
     inkscape:current-layer="svg1" />
  <defs
     id="defs3051">
    <style
       type="text/css"
       id="current-color-scheme">.ColorScheme-Text { color:#d8d8d8; }
</style>
  </defs>
  <g
     id="22-22-configure-2"
     transform="translate(0,-10)">
    <path
       id="path7-7"
       d="m 11.5,13 c -1.21321,0 -2.2202619,0.85686 -2.4511719,2 H 3 v 1 h 6.0488281 c 0.23019,1.14407 1.2373119,2 2.4511719,2 1.21386,0 2.219019,-0.85593 2.449219,-2 H 19 V 15 H 13.949219 C 13.718309,13.85686 12.7132,13 11.5,13 Z m -6,11 C 4.115,24 3,25.115 3,26.5 3,27.885 4.115,29 5.5,29 6.71386,29 7.7190188,28.14407 7.9492188,27 H 19 V 26 H 7.9492188 C 7.7183087,24.85686 6.7132,24 5.5,24 Z m 0,1 C 6.331,25 7,25.669 7,26.5 7,27.331 6.331,28 5.5,28 4.669,28 4,27.331 4,26.5 4,25.669 4.669,25 5.5,25 Z"
       class="ColorScheme-Text"
       style="color:#d1d5e9;fill:#1e2431;fill-opacity:1" />
    <path
       id="path9-0"
       d="M 0,10 V 32 H 22 V 10 Z"
       fill="none" />
  </g>
</svg>
