<?xml version="1.0" encoding="UTF-8" standalone="no"?>
<svg
   width="22"
   height="22"
   version="1.1"
   id="svg3"
   sodipodi:docname="notification-active.svg"
   inkscape:version="1.3.2 (091e20ef0f, 2023-11-25)"
   xmlns:inkscape="http://www.inkscape.org/namespaces/inkscape"
   xmlns:sodipodi="http://sodipodi.sourceforge.net/DTD/sodipodi-0.dtd"
   xmlns="http://www.w3.org/2000/svg"
   xmlns:svg="http://www.w3.org/2000/svg">
  <defs
     id="defs3" />
  <sodipodi:namedview
     id="namedview3"
     pagecolor="#ffffff"
     bordercolor="#999999"
     borderopacity="1"
     inkscape:showpageshadow="2"
     inkscape:pageopacity="0"
     inkscape:pagecheckerboard="0"
     inkscape:deskcolor="#d1d1d1"
     showgrid="true"
     inkscape:zoom="17.318182"
     inkscape:cx="11.144357"
     inkscape:cy="15.186352"
     inkscape:window-width="1920"
     inkscape:window-height="996"
     inkscape:window-x="0"
     inkscape:window-y="0"
     inkscape:window-maximized="1"
     inkscape:current-layer="svg3">
    <inkscape:grid
       id="grid1"
       units="px"
       originx="0"
       originy="0"
       spacingx="1"
       spacingy="1"
       empcolor="#0099e5"
       empopacity="0.30196078"
       color="#0099e5"
       opacity="0.14902"
       empspacing="5"
       dotted="false"
       gridanglex="30"
       gridanglez="30"
       visible="true" />
  </sodipodi:namedview>
  <style
     type="text/css"
     id="current-color-scheme">.ColorScheme-Text{color:#232629;}.ColorScheme-ButtonFocus{color:#3daee9;}.ColorScheme-NegativeText { color: #da4453; } </style>
  <g
     id="notification-active"
     transform="translate(-209.82493,-726.24546)">
    <path
       style="fill:none"
       inkscape:connector-curvature="0"
       d="m 209.82493,726.24546 h 22 v 22 h -22 z"
       id="path14" />
    <path
       style="color:#d1d5e9;fill:#1e2431;fill-opacity:1;fill-rule:evenodd;stroke-width:1.336"
       id="path16"
       class="ColorScheme-Text"
       d="m 213.27879,728.24546 c -2.00479,2.00299 -3.13204,4.72017 -3.13386,7.5541 h 1.336 c 8.2e-4,-1.12721 0.20512,-2.23328 0.59253,-3.26914 0.46479,-1.24278 1.19317,-2.38447 2.14993,-3.34027 z m 15.10829,0 -0.9446,0.94469 c 1.75421,1.75245 2.74066,4.12981 2.74245,6.60941 h 1.336 c -0.002,-2.83393 -1.12906,-5.55111 -3.13385,-7.5541 z m -1.8918,1.89207 -0.94721,0.94669 c 1.25381,1.2494 1.96049,2.94531 1.96486,4.71534 h 1.336 c -0.001,-0.80062 -0.12214,-1.58872 -0.35289,-2.34036 -0.38162,-1.24305 -1.06354,-2.38635 -2.00076,-3.32167 z m -11.31947,0.004 c -0.5465,0.54436 -1.00643,1.15944 -1.37085,1.82377 -0.63896,1.16481 -0.98434,2.48115 -0.98803,3.83361 h 1.336 c 0.002,-1.77105 0.70649,-3.46896 1.95964,-4.72048 z"
       inkscape:connector-curvature="0"
       sodipodi:nodetypes="cccscccccccccccsccscccc" />
    <path
       d="m 227.23913,740.59731 c -0.3185,-0.31678 -0.73892,-0.51617 -1.19026,-0.56448 v -4.20082 c 0.003,-1.35763 -0.54793,-2.66015 -1.53031,-3.6179 -0.57689,-0.5509 -1.27023,-0.97099 -2.03118,-1.23067 v -0.0562 c 0.0103,-0.85886 -0.64875,-1.58418 -1.52077,-1.67481 -0.97157,-0.0877 -1.80899,0.66352 -1.80433,1.61923 v 0.11102 c -2.12383,0.70351 -3.55541,2.65254 -3.56132,4.84856 v 4.2009 c -1.0127,0.11384 -1.77694,0.95394 -1.77603,1.9524 v 0.49039 c 5.3e-4,1.08315 0.89688,1.77003 2.00266,1.77053 h 3.39137 c 0.3105,1.76727 2.90141,1.76727 3.21189,0 h 3.39126 c 1.10588,-5.1e-4 2.00213,-0.68739 2.00279,-1.77053 v -0.49032 c 0.003,-0.52084 -0.20844,-1.0209 -0.58577,-1.38797 z m -0.35891,1.87833 c 8.7e-4,0.57277 -0.47326,0.91286 -1.05811,0.91185 h -9.99452 c -0.58473,0.001 -1.05909,-0.33905 -1.05805,-0.91185 v -0.49044 c -8.7e-4,-0.57278 0.47334,-1.03733 1.05805,-1.03627 0.39986,-10e-4 0.72221,-0.32095 0.718,-0.71251 l 3.4e-4,-4.40441 c 0.009,-1.85185 1.25023,-3.48116 3.06024,-4.01578 0.29931,-0.0831 0.50451,-0.35239 0.50079,-0.65699 v -0.28685 c -0.002,-0.19816 0.0842,-0.38739 0.23619,-0.51813 0.1307,-0.11944 0.30298,-0.18561 0.48175,-0.18506 h 0.0664 c 0.38215,0.0545 0.66215,0.38062 0.65194,0.75872 v 0.23132 c -0.004,0.30458 0.20144,0.57387 0.50061,0.65699 0.67945,0.20409 1.29846,0.56596 1.80424,1.05483 0.80852,0.78124 1.26132,1.84858 1.25651,2.96095 v 4.40441 c 2.3e-4,0.18941 0.0745,0.37156 0.20777,0.50891 0.13643,0.13049 0.31944,0.20357 0.51016,0.2036 0.58283,0.003 1.05439,0.46542 1.05792,1.03627 z"
       id="path539-3"
       style="fill:#1e2431;fill-opacity:1;stroke-width:0.934916"
       sodipodi:nodetypes="ccccccccccccccccccccccccccccccccccccccccccccc" />
  </g>
</svg>
