<?xml version="1.0" encoding="UTF-8" standalone="no"?>
<svg
   width="22"
   height="22"
   version="1.1"
   id="svg6"
   sodipodi:docname="system-user-list.svg"
   inkscape:version="1.3.2 (091e20ef0f, 2023-11-25)"
   xmlns:inkscape="http://www.inkscape.org/namespaces/inkscape"
   xmlns:sodipodi="http://sodipodi.sourceforge.net/DTD/sodipodi-0.dtd"
   xmlns="http://www.w3.org/2000/svg"
   xmlns:svg="http://www.w3.org/2000/svg">
  <defs
     id="defs10">
    <linearGradient
       id="a-5"
       x1="16"
       x2="16"
       y1="1"
       y2="31"
       gradientUnits="userSpaceOnUse">
      <stop
         stop-color="#f4282c"
         offset="0"
         id="stop1009" />
      <stop
         stop-color="#fac136"
         offset="1"
         id="stop1011" />
    </linearGradient>
  </defs>
  <sodipodi:namedview
     id="namedview8"
     pagecolor="#ffffff"
     bordercolor="#000000"
     borderopacity="0.25"
     inkscape:showpageshadow="2"
     inkscape:pageopacity="0.0"
     inkscape:pagecheckerboard="0"
     inkscape:deskcolor="#d1d1d1"
     showgrid="false"
     inkscape:zoom="12.422581"
     inkscape:cx="15.053232"
     inkscape:cy="10.70631"
     inkscape:window-width="1920"
     inkscape:window-height="996"
     inkscape:window-x="0"
     inkscape:window-y="0"
     inkscape:window-maximized="1"
     inkscape:current-layer="svg6" />
  <style
     type="text/css"
     id="current-color-scheme">
        .ColorScheme-Text {
            color:#d8d8d8;
        }
    </style>
  <path
     style="color:#e5e9ef;fill:#1e2431;fill-opacity:1;stroke:none;stroke-width:0.999994"
     d="m 16.791601,5.8571429 c -0.331056,0 -0.636818,0.09161 -0.909037,0.2385608 1.67e-4,0.00171 -0.08427,0.051651 -0.08401,0.053453 0.101403,1.2840485 -0.220499,2.1009836 -0.587898,2.7389466 0.35009,0.498094 0.92674,0.826189 1.580897,0.826189 0.906738,0 1.667171,-0.625813 1.873323,-1.46903 0.036,-0.147293 0.05534,-0.3011506 0.05534,-0.4595414 -1.3e-5,-1.0651226 -0.863458,-1.9285714 -1.928573,-1.9285714 z m -11.5772755,0 c 0.3310587,0 0.6368144,0.09161 0.9090381,0.2385608 -1.668e-4,0.00171 0.084218,0.051651 0.083948,0.053453 -0.1014403,1.2840483 0.2205038,2.1009826 0.5878962,2.7389466 -0.3500862,0.498094 -0.9267293,0.826189 -1.5808879,0.826189 -0.9067373,0 -1.6671728,-0.625814 -1.8733244,-1.469031 -0.036,-0.147294 -0.055278,-0.3011511 -0.055278,-0.4595421 1.21e-5,-1.0651227 0.8634604,-1.9285714 1.928571,-1.9285714 z m -3.88e-5,5.1428441 c 1.0841145,0 2.0349898,0.49988 2.6166342,1.305803 -0.3264035,0.173019 -0.6585302,0.38559 -0.9466713,0.557459 -0.3167609,-0.373597 -0.9060303,-0.57755 -1.6699629,-0.57755 -1.157464,0 -1.9285729,0.849283 -1.9285729,2.571441 H 4.8928565 L 4.2499992,16.142853 H 2 l 8e-7,-1.953694 c 8e-7,-1.850101 1.4337391,-3.189173 3.2142859,-3.189172 z m 11.5714333,1.5e-5 c -1.084115,0 -2.034995,0.499879 -2.616638,1.305801 0.326402,0.173019 0.658528,0.385588 0.94667,0.557459 0.316762,-0.373598 0.906027,-0.577548 1.669968,-0.577548 1.157457,0 1.928565,0.878524 1.928565,2.571426 h -1.607146 l 0.642862,1.285713 H 20 l 1e-6,-1.953683 c 3e-6,-1.8501 -1.433739,-3.189168 -3.214281,-3.189168 z m -5.785719,2.571423 c 2.571423,0 5.142852,1.285715 5.142852,5.14286 H 5.8571421 c 0,-3.857145 2.5714315,-5.14286 5.1428589,-5.14286 z m 0,-1.285711 c -3.7392192,0 -6.4184019,2.629096 -6.4260013,6.428571 L 4.5714797,20 H 17.428577 l -0.0021,-1.285715 c -0.0072,-3.819733 -2.686873,-6.428571 -6.426074,-6.428571 z M 11.000065,2 C 8.5147396,2 6.500027,4.0147104 6.500027,6.4999956 c 0,2.4852907 2.0147126,4.5000074 4.500038,4.5000074 2.115729,0 3.890433,-1.4600727 4.371466,-3.4275803 0.08401,-0.3436836 0.12858,-0.7028495 0.12858,-1.0724271 C 15.500111,4.0147104 13.485362,2 11.000065,2 Z"
     id="path340-1-2" />
  <path
     style="fill:none;stroke-width:1"
     d="M 0,0 V 22 H 22 V 0 Z"
     id="path84-3-7" />
</svg>
