<?xml version="1.0" encoding="UTF-8" standalone="no"?>
<svg
   viewBox="0 0 22 22"
   version="1.1"
   id="svg1"
   sodipodi:docname="system-reboot.svg"
   inkscape:version="1.3.2 (091e20ef0f, 2023-11-25)"
   width="22"
   height="22"
   xmlns:inkscape="http://www.inkscape.org/namespaces/inkscape"
   xmlns:sodipodi="http://sodipodi.sourceforge.net/DTD/sodipodi-0.dtd"
   xmlns:xlink="http://www.w3.org/1999/xlink"
   xmlns="http://www.w3.org/2000/svg"
   xmlns:svg="http://www.w3.org/2000/svg">
  <sodipodi:namedview
     id="namedview1"
     pagecolor="#ffffff"
     bordercolor="#000000"
     borderopacity="0.25"
     inkscape:showpageshadow="2"
     inkscape:pageopacity="0.0"
     inkscape:pagecheckerboard="0"
     inkscape:deskcolor="#d1d1d1"
     inkscape:zoom="12.326157"
     inkscape:cx="11.439088"
     inkscape:cy="11.439088"
     inkscape:window-width="1920"
     inkscape:window-height="996"
     inkscape:window-x="0"
     inkscape:window-y="0"
     inkscape:window-maximized="1"
     inkscape:current-layer="svg1" />
  <defs
     id="defs1">
    <style
       type="text/css"
       id="style1">.ColorScheme-Text {
        color:#d8dee9;
      }
      .ColorScheme-Highlight {
        color:#88c0d0;
      }</style>
    <linearGradient
       id="a-5"
       x1="16"
       x2="16"
       y1="1"
       y2="31"
       gradientUnits="userSpaceOnUse">
      <stop
         stop-color="#f4282c"
         offset="0"
         id="stop1009" />
      <stop
         stop-color="#fac136"
         offset="1"
         id="stop1011" />
    </linearGradient>
    <linearGradient
       inkscape:collect="always"
       xlink:href="#linearGradient52"
       id="linearGradient5"
       gradientUnits="userSpaceOnUse"
       gradientTransform="matrix(0.6875,0,0,0.6875,108.66985,103.7705)"
       x1="-199"
       y1="91"
       x2="-167"
       y2="91" />
    <linearGradient
       inkscape:collect="always"
       id="linearGradient52">
      <stop
         style="stop-color:#4e51ac;stop-opacity:1"
         offset="0"
         id="stop39" />
      <stop
         style="stop-color:#008080;stop-opacity:1"
         offset="1"
         id="stop40" />
    </linearGradient>
  </defs>
  <g
     id="22-22-system-reboot-0"
     transform="translate(0,32)">
    <path
       style="fill:none"
       d="m 0,-32 v 22 h 22 v -22 z"
       id="path29-9" />
    <path
       d="m 1.8838318,-19.139886 a 9.1537392,8.9040429 0 0 0 13.9629872,6.791589 9.2722176,9.0192867 0 0 0 4.336463,-7.574807 0.57512833,0.55943967 0 0 0 -1.150255,0 8.024188,7.8053011 0 0 1 -12.6527652,6.377607 8.0161359,7.7974683 0 0 1 1.15022,-13.392982 11.588834,11.272704 0 0 1 5.3371762,-0.772025 v 1.622381 a 0.57512818,0.55943954 0 0 0 0.931701,0.43636 l 2.841135,-2.181811 a 0.57512818,0.55943954 0 0 0 0,-0.883923 l -2.864141,-2.170615 a 0.57512818,0.55943954 0 0 0 -0.920205,0.447549 v 1.611186 c -0.816679,-0.01113 -1.644886,-0.03353 -2.450016,0.02241 a 9.1847965,8.93425 0 0 0 -8.5233802,9.667119 z"
       id="path7861-3"
       style="color:#e5e9ef;fill:#1e2431;fill-opacity:1"
       class="ColorScheme-Text" />
  </g>
</svg>
