<?xml version="1.0" encoding="UTF-8" standalone="no"?>
<svg
   viewBox="0 0 22 22"
   version="1.1"
   id="svg1"
   sodipodi:docname="system-suspend.svg"
   width="22"
   height="22"
   inkscape:version="1.3.2 (091e20ef0f, 2023-11-25)"
   xmlns:inkscape="http://www.inkscape.org/namespaces/inkscape"
   xmlns:sodipodi="http://sodipodi.sourceforge.net/DTD/sodipodi-0.dtd"
   xmlns="http://www.w3.org/2000/svg"
   xmlns:svg="http://www.w3.org/2000/svg">
  <defs
     id="defs1" />
  <sodipodi:namedview
     id="namedview1"
     pagecolor="#ffffff"
     bordercolor="#999999"
     borderopacity="1"
     inkscape:showpageshadow="2"
     inkscape:pageopacity="0"
     inkscape:pagecheckerboard="0"
     inkscape:deskcolor="#d1d1d1"
     inkscape:zoom="12.245804"
     inkscape:cx="11.187506"
     inkscape:cy="17.06707"
     inkscape:window-width="1920"
     inkscape:window-height="996"
     inkscape:window-x="0"
     inkscape:window-y="0"
     inkscape:window-maximized="1"
     inkscape:current-layer="svg1" />
  <style
     type="text/css"
     id="current-color-scheme">.ColorScheme-Text {color:#fcfcfc;}</style>
  <g
     id="22-22-system-suspend-5"
     transform="translate(54,-2)">
    <path
       style="fill:none"
       d="m -54,2 v 22 h 22 V 2 Z"
       id="path49-5-9" />
    <path
       d="M -42.999997,23 A 10,10 0 1 1 -33,13.000001 10.011081,10.011081 0 0 1 -42.999997,23 Z m 0,-18.9932482 a 8.9932542,8.9932542 0 1 0 8.993257,8.9932492 9.0033196,9.0033196 0 0 0 -8.993257,-8.9932492 z"
       id="path2592-5-6"
       style="color:#e5e9ef;fill:#1e2431;fill-opacity:1"
       class="ColorScheme-Text" />
    <path
       d="m -47.784829,14.999542 h 1.64309 l -2.158438,2.961016 c -0.136841,0.187841 -0.154516,0.434266 -0.04568,0.639274 0.108386,0.204613 0.32483,0.333428 0.561641,0.334168 h 2.868196 c 0.339421,-0.01378 0.607455,-0.285638 0.607455,-0.616459 0,-0.330813 -0.268034,-0.602651 -0.607455,-0.616471 h -1.641826 l 2.158395,-2.961027 v 4.02e-4 c 0.136561,-0.188201 0.154617,-0.435008 0.04495,-0.63962 C -44.463741,13.895817 -44.680063,13.767 -44.91678,13.767 h -2.868304 c -0.339346,0.01344 -0.607485,0.28564 -0.607485,0.616461 0,0.330813 0.268139,0.602651 0.607485,0.616092 z"
       id="path5336-2"
       style="color:#e5e9ef;fill:#1e2431;fill-opacity:1"
       class="ColorScheme-Text" />
    <path
       d="m -42.4661,8.2413437 h 2.899493 L -42.90159,12.98175 c -0.115776,0.16431 -0.130537,0.380225 -0.03824,0.559234 0.09167,0.179 0.274521,0.291702 0.474527,0.292349 h 3.936016 c 0.286791,-0.01209 0.51338,-0.249888 0.51338,-0.539298 0,-0.289409 -0.22659,-0.527218 -0.51338,-0.538976 H -41.4333 l 3.33502,-4.7368153 v -3.335e-4 c 0.115403,-0.1642833 0.130296,-0.3798756 0.03856,-0.5588924 -0.09215,-0.179316 -0.274797,-0.2920252 -0.474442,-0.2923489 h -3.931583 c -0.286766,0.011909 -0.513368,0.2495657 -0.513368,0.5389657 0,0.2894251 0.226602,0.5272159 0.513368,0.5393091 z"
       id="path5338-9"
       style="color:#e5e9ef;fill:#1e2431;fill-opacity:1"
       class="ColorScheme-Text" />
  </g>
</svg>
