<?xml version="1.0" encoding="UTF-8" standalone="no"?>
<svg
   viewBox="0 0 22 22"
   version="1.1"
   id="svg1"
   sodipodi:docname="system-shutdown.svg"
   width="22"
   height="22"
   inkscape:version="1.3.2 (091e20ef0f, 2023-11-25)"
   xmlns:inkscape="http://www.inkscape.org/namespaces/inkscape"
   xmlns:sodipodi="http://sodipodi.sourceforge.net/DTD/sodipodi-0.dtd"
   xmlns="http://www.w3.org/2000/svg"
   xmlns:svg="http://www.w3.org/2000/svg">
  <sodipodi:namedview
     id="namedview1"
     pagecolor="#ffffff"
     bordercolor="#999999"
     borderopacity="1"
     inkscape:showpageshadow="2"
     inkscape:pageopacity="0"
     inkscape:pagecheckerboard="0"
     inkscape:deskcolor="#d1d1d1"
     inkscape:zoom="12.245804"
     inkscape:cx="11.432487"
     inkscape:cy="17.148731"
     inkscape:window-width="1920"
     inkscape:window-height="996"
     inkscape:window-x="0"
     inkscape:window-y="0"
     inkscape:window-maximized="1"
     inkscape:current-layer="svg1"
     showgrid="false">
    <inkscape:grid
       id="grid1"
       units="px"
       originx="3"
       originy="-81.007004"
       spacingx="1"
       spacingy="1"
       empcolor="#0099e5"
       empopacity="0.30196078"
       color="#0099e5"
       opacity="0.14902"
       empspacing="5"
       dotted="false"
       gridanglex="30"
       gridanglez="30"
       visible="false" />
  </sodipodi:namedview>
  <defs
     id="defs3051">
    <style
       type="text/css"
       id="current-color-scheme">.ColorScheme-Text {color:#fcfcfc;}</style>
  </defs>
  <g
     id="22-22-system-shutdown"
     transform="translate(54,64)">
    <path
       style="fill:none"
       d="m -54,-64 v 22 h 22 v -22 z"
       id="path49-0" />
    <path
       d="m -48.934099,-60.584946 a 9.8159203,9.8159203 0 1 0 15.555477,10.014881 9.9154007,9.9154007 0 0 0 -3.564445,-10.014881 c -0.55886,-0.435921 -1.356922,0.348728 -0.790233,0.790241 a 8.8636163,8.8636163 0 0 1 3.444843,7.950435 8.7037799,8.7037799 0 0 1 -17.110243,1.068545 8.830087,8.830087 0 0 1 3.254836,-9.01898 c 0.566698,-0.440391 -0.229127,-1.229512 -0.790235,-0.790241 z"
       id="path1231-6"
       style="color:#e5e9ef;fill:#1e2431;fill-opacity:1"
       class="ColorScheme-Text" />
    <path
       d="m -42.381947,-52.414328 a 0.55887162,0.55887162 0 0 1 -1.117743,0 v -10.027167 0 a 0.55887162,0.55887162 0 0 1 1.117743,0 z"
       id="path1233-7"
       style="color:#e5e9ef;fill:#1e2431;fill-opacity:1;stroke-width:1.11768"
       class="ColorScheme-Text" />
  </g>
</svg>
