<?xml version="1.0" encoding="UTF-8" standalone="no"?>
<svg
   viewBox="0 0 22 22"
   version="1.1"
   id="svg1"
   sodipodi:docname="system-lock-screen.svg"
   width="22"
   height="22"
   inkscape:version="1.3.2 (091e20ef0f, 2023-11-25)"
   xmlns:inkscape="http://www.inkscape.org/namespaces/inkscape"
   xmlns:sodipodi="http://sodipodi.sourceforge.net/DTD/sodipodi-0.dtd"
   xmlns="http://www.w3.org/2000/svg"
   xmlns:svg="http://www.w3.org/2000/svg">
  <sodipodi:namedview
     id="namedview1"
     pagecolor="#ffffff"
     bordercolor="#999999"
     borderopacity="1"
     inkscape:showpageshadow="2"
     inkscape:pageopacity="0"
     inkscape:pagecheckerboard="0"
     inkscape:deskcolor="#d1d1d1"
     inkscape:zoom="8.6590909"
     inkscape:cx="11.317585"
     inkscape:cy="11.2021"
     inkscape:window-width="1920"
     inkscape:window-height="996"
     inkscape:window-x="0"
     inkscape:window-y="0"
     inkscape:window-maximized="1"
     inkscape:current-layer="svg1" />
  <defs
     id="defs3051">
    <style
       type="text/css"
       id="current-color-scheme">.ColorScheme-Text {color:#fcfcfc;}</style>
  </defs>
  <g
     id="22-22-system-lock-screen-7">
    <path
       style="fill:none"
       d="M 0,0 V 22 H 22 V 0 Z"
       id="path19-5" />
    <path
       d="M 11.000001,21 A 10,10 0 1 1 21,11.000001 10.011078,10.011078 0 0 1 11.000001,21 Z m 0,-18.993254 a 8.9932545,8.9932545 0 1 0 8.993258,8.993255 9.0033196,9.0033196 0 0 0 -8.993258,-8.993255 z"
       id="path2592-5-2-3-3"
       style="color:#e5e9ef;fill:#1e2431;fill-opacity:1" />
    <path
       d="M 13.331791,6.12785 C 12.7395,5.535549 11.921332,5.166668 11.02208,5.166668 c -0.876719,0 -1.688177,0.358103 -2.27299,0.935251 L 8.7122,6.127809 C 8.119893,6.720092 7.75101,7.541632 7.75101,8.437514 V 9.78271 l -0.09129,1.51e-4 c -0.34382,0 -0.649977,0.138928 -0.877572,0.369708 v 0.0039 c -0.22674,0.226853 -0.36551,0.533854 -0.36551,0.873454 v 4.557657 c 0,0.34381 0.13892,0.65756 0.365505,0.88092 0.226748,0.23012 0.533748,0.36546 0.877577,0.36546 h 6.725268 c 0.321278,0 0.621551,-0.12039 0.847459,-0.33284 l 0.03686,-0.0323 c 0.219189,-0.22337 0.365533,-0.53711 0.365533,-0.88096 v -4.557623 c 0,-0.339625 -0.146361,-0.646604 -0.365533,-0.876709 C 15.039212,9.922542 14.72887,9.783767 14.385041,9.783767 h -0.0878 V 8.437684 c 0,-0.895213 -0.365664,-1.717565 -0.965365,-2.308995 z M 8.781703,8.436846 c 0,-0.613987 0.259377,-1.176307 0.661747,-1.578646 l 0.0216,-0.02591 c 0.401518,-0.391586 0.9578,-0.635816 1.5568,-0.635816 0.621548,0 1.176981,0.25181 1.586918,0.661732 0.401513,0.401511 0.654164,0.964512 0.654164,1.578645 V 9.78205 H 8.781696 Z m 5.603439,2.375816 c 0.05859,0 0.112889,0.02925 0.153079,0.06613 0.03688,0.04349 0.0619,0.09538 0.0619,0.149718 v 4.5576 c 0,0.0583 -0.02502,0.11367 -0.0619,0.153 l -0.0143,0.0142 c -0.0403,0.0298 -0.08778,0.0443 -0.138927,0.0443 l -6.724916,-1.5e-4 c -0.05104,0 -0.109654,-0.017 -0.146355,-0.0583 -0.04353,-0.0402 -0.06521,-0.0952 -0.06521,-0.15315 v -4.55754 c 0,-0.06276 0.0216,-0.112876 0.06521,-0.14971 0.03689,-0.03685 0.09538,-0.06613 0.146355,-0.06613 h 6.725278 z"
       id="path7208-6-6-3"
       style="color:#e5e9ef;fill:#1e2431;fill-opacity:1" />
  </g>
</svg>
