<?xml version="1.0" encoding="UTF-8" standalone="no"?>
<svg
   viewBox="0 0 22 22"
   version="1.1"
   id="svg1"
   sodipodi:docname="system-suspend-hibernate.svg"
   width="22"
   height="22"
   inkscape:version="1.3.2 (091e20ef0f, 2023-11-25)"
   xmlns:inkscape="http://www.inkscape.org/namespaces/inkscape"
   xmlns:sodipodi="http://sodipodi.sourceforge.net/DTD/sodipodi-0.dtd"
   xmlns="http://www.w3.org/2000/svg"
   xmlns:svg="http://www.w3.org/2000/svg">
  <defs
     id="defs1" />
  <sodipodi:namedview
     id="namedview1"
     pagecolor="#ffffff"
     bordercolor="#999999"
     borderopacity="1"
     inkscape:showpageshadow="2"
     inkscape:pageopacity="0"
     inkscape:pagecheckerboard="0"
     inkscape:deskcolor="#d1d1d1"
     inkscape:zoom="8.6590909"
     inkscape:cx="10.855643"
     inkscape:cy="11.433071"
     inkscape:window-width="1920"
     inkscape:window-height="996"
     inkscape:window-x="0"
     inkscape:window-y="0"
     inkscape:window-maximized="1"
     inkscape:current-layer="svg1" />
  <style
     type="text/css"
     id="current-color-scheme">.ColorScheme-Text {color:#fcfcfc;}</style>
  <g
     id="22-22-system-suspend-hibernate-1">
    <path
       style="fill:none"
       d="M 0,0 V 22 H 22 V 0 Z"
       id="path49-1-8" />
    <path
       d="M 11.000001,21 A 10,10 0 1 1 21,11 10.011077,10.011077 0 0 1 11.000001,21 Z m 0,-18.99326 A 8.9932546,8.9932546 0 1 0 19.993254,11 9.0033196,9.0033196 0 0 0 11.000001,2.00674 Z"
       id="path2592-53"
       style="color:#e5e9ef;fill:#1e2431;fill-opacity:1"
       class="ColorScheme-Text" />
    <path
       d="M 11.025006,4 C 10.544664,4 10.157959,4.39025 10.157959,4.875 V 9.48243 L 6.202077,7.17871 C 5.786093,6.93633 5.256837,7.08021 5.016667,7.5 4.776494,7.91981 4.919027,8.45392 5.335035,8.69629 L 9.29092,11 5.335035,13.30371 C 4.919047,13.54608 4.776494,14.08019 5.016667,14.5 c 0.24017,0.41981 0.769426,0.56367 1.18541,0.32129 l 3.955882,-2.30371 V 17.125 c 0,0.48475 0.386705,0.875 0.867047,0.875 0.480342,0 0.867045,-0.39025 0.867045,-0.875 v -4.60742 l 3.955886,2.30371 c 0.415982,0.24238 0.945239,0.0985 1.185408,-0.32129 0.240172,-0.41981 0.09764,-0.95392 -0.318369,-1.19629 L 12.759092,11 16.714976,8.69629 C 17.130964,8.45392 17.273517,7.91981 17.033345,7.5 16.793176,7.08019 16.263919,6.93633 15.847937,7.17871 L 11.892051,9.48243 V 4.875 C 11.892051,4.39025 11.505348,4 11.025006,4 Z"
       inkscape:connector-curvature="0"
       id="path3174-3"
       style="color:#000000;display:inline;overflow:visible;visibility:visible;fill:#1e2431;fill-opacity:1;stroke:none;stroke-width:1.30654;marker:none;enable-background:accumulate" />
  </g>
</svg>
