<?xml version="1.0" encoding="UTF-8" standalone="no"?>
<svg
   width="22"
   height="22"
   version="1.1"
   id="svg1"
   sodipodi:docname="folder-videos.svg"
   inkscape:version="1.3.2 (091e20ef0f, 2023-11-25)"
   xmlns:inkscape="http://www.inkscape.org/namespaces/inkscape"
   xmlns:sodipodi="http://sodipodi.sourceforge.net/DTD/sodipodi-0.dtd"
   xmlns="http://www.w3.org/2000/svg"
   xmlns:svg="http://www.w3.org/2000/svg">
  <sodipodi:namedview
     id="namedview1"
     pagecolor="#ffffff"
     bordercolor="#999999"
     borderopacity="1"
     inkscape:showpageshadow="2"
     inkscape:pageopacity="0"
     inkscape:pagecheckerboard="0"
     inkscape:deskcolor="#d1d1d1"
     inkscape:zoom="34.636364"
     inkscape:cx="11"
     inkscape:cy="11"
     inkscape:window-width="1920"
     inkscape:window-height="994"
     inkscape:window-x="0"
     inkscape:window-y="0"
     inkscape:window-maximized="1"
     inkscape:current-layer="svg1" />
  <defs
     id="defs1">
    <style
       type="text/css"
       id="style1">.ColorScheme-Text { color:#d8dee9; }</style>
  </defs>
  <path
     d="m5 5c-1.108 0-2 0.892-2 2v9c0 1.108 0.892 2 2 2h12c1.108 0 2-0.892 2-2v-9c0-1.108-0.892-2-2-2zm0 1h1v1h-2c0-0.554 0.446-1 1-1zm2 0h8v5h-8zm9 0h1c0.554 0 1 0.446 1 1h-2zm-12 2h2v1h-2zm12 0h2v1h-2zm-12 2h2v1h-2zm12 0h2v1h-2zm-12 2h2v1h-2zm3 0h8v5h-8zm9 0h2v1h-2zm-12 2h2v1h-2zm12 0h2v1h-2zm-12 2h2v1h-1c-0.554 0-1-0.446-1-1zm12 0h2c0 0.554-0.446 1-1 1h-1z"
     id="path1"
     style="fill:#1e2431;fill-opacity:1" />
</svg>
