<?xml version="1.0" encoding="UTF-8" standalone="no"?>
<svg
   sodipodi:docname="cantata-symbolic.svg"
   inkscape:version="1.3.2 (091e20ef0f, 2023-11-25)"
   viewBox="0 0 32 32"
   id="svg2"
   version="1.1"
   width="32"
   height="32"
   xmlns:inkscape="http://www.inkscape.org/namespaces/inkscape"
   xmlns:sodipodi="http://sodipodi.sourceforge.net/DTD/sodipodi-0.dtd"
   xmlns="http://www.w3.org/2000/svg"
   xmlns:svg="http://www.w3.org/2000/svg"
   xmlns:rdf="http://www.w3.org/1999/02/22-rdf-syntax-ns#"
   xmlns:cc="http://creativecommons.org/ns#"
   xmlns:dc="http://purl.org/dc/elements/1.1/">
  <sodipodi:namedview
     inkscape:document-rotation="0"
     inkscape:lockguides="true"
     inkscape:current-layer="svg2"
     inkscape:window-maximized="1"
     inkscape:window-y="0"
     inkscape:window-x="0"
     inkscape:cy="35.875"
     inkscape:cx="15.75"
     inkscape:zoom="8"
     showgrid="true"
     id="namedview14"
     inkscape:window-height="996"
     inkscape:window-width="1920"
     inkscape:pageshadow="2"
     inkscape:pageopacity="0"
     guidetolerance="10"
     gridtolerance="10"
     objecttolerance="10"
     borderopacity="1"
     bordercolor="#000000"
     pagecolor="#201933"
     inkscape:pagecheckerboard="true"
     inkscape:showpageshadow="true"
     inkscape:deskcolor="#201933">
    <inkscape:grid
       type="xygrid"
       id="grid1388"
       originx="7"
       originy="-105"
       spacingy="1"
       spacingx="1"
       units="px"
       visible="true" />
  </sodipodi:namedview>
  <metadata
     id="metadata20">
    <rdf:RDF>
      <cc:Work
         rdf:about="">
        <dc:format>image/svg+xml</dc:format>
        <dc:type
           rdf:resource="http://purl.org/dc/dcmitype/StillImage" />
      </cc:Work>
    </rdf:RDF>
  </metadata>
  <defs
     id="defs3051">
    <style
       type="text/css"
       id="current-color-scheme">.ColorScheme-Text { color:#d1d5e9; }
</style>
    <linearGradient
       id="oomox"
       x1="0"
       x2="0"
       y1="0"
       y2="16"
       gradientUnits="userSpaceOnUse"
       gradientTransform="matrix(1.5000001,0,0,1.5000001,25.843999,4.0940002)">
      <stop
         offset="0%"
         style="stop-color:#303b3d; stop-opacity:1"
         id="stop18" />
      <stop
         offset="100%"
         style="stop-color:#bc985d; stop-opacity:1"
         id="stop20" />
    </linearGradient>
  </defs>
  <g
     id="cantata-3"
     transform="translate(-22)">
    <path
       style="color:#d1d5e9;fill:#1e2431;fill-opacity:1;stroke:none;stroke-width:1"
       d="m 38.202213,4.2 v 16.993872 c -1.255763,-0.541607 -3.213967,-0.82785 -4.768528,-0.183681 -2.602125,1.077211 -3.764563,3.471448 -3.004382,5.307376 0.760165,1.836517 3.158478,2.421299 5.761203,1.343498 2.053128,-0.852293 3.045682,-3.113787 3.042522,-4.448302 l -0.03082,-13.014926 c 0,0 5.100556,0.599118 5.100556,5.397356 0,3.59867 -1.100655,4.59906 -4.100562,7.597958 C 43.202109,21.39381 45.501,19.193863 45.501,15.595193 45.501,10.796955 41.797247,8.6391234 40.848682,7.6908764 40.248701,7.0910921 39.501035,4.800336 39.501035,4.800336 Z"
       class="ColorScheme-Text"
       id="path15" />
    <path
       style="fill:none"
       d="M 22,0 V 32 H 54 V 0 Z"
       id="path18-6" />
    <path
       style="color:#d1d5e9;fill:#1e2431;fill-opacity:1;stroke-width:1.5"
       d="m 37.844,4.094 c -6.636,0 -12,5.364 -12,11.999999 0,6.636001 5.364,12.000001 12,12.000001 6.636,0 12,-5.364 12,-12.000001 C 49.844,9.458 44.48,4.094 37.844,4.094 Z m 0,1.4999999 c 5.80498,0 10.5,4.6950001 10.5,10.4999991 0,5.804981 -4.69502,10.500001 -10.5,10.500001 -5.80502,0 -10.5,-4.69502 -10.5,-10.500001 0,-5.804999 4.69498,-10.4999991 10.5,-10.4999991 z m 1.12498,8.5784981 v 0 0 0 0 0 c 0,0 -0.05091,0.012 0,0 z m -1.171491,6.750005 z"
       id="path58"
       sodipodi:nodetypes="ssssssssssccccccccccccccccc"
       class="ColorScheme-Text" />
  </g>
</svg>
