<?xml version="1.0" encoding="UTF-8" standalone="no"?>
<svg
   id="svg"
   version="1.1"
   viewBox="0 0 32 32"
   sodipodi:docname="device-notifier-symbolic.svg"
   inkscape:version="1.3.2 (091e20ef0f, 2023-11-25)"
   width="32"
   height="32"
   xmlns:inkscape="http://www.inkscape.org/namespaces/inkscape"
   xmlns:sodipodi="http://sodipodi.sourceforge.net/DTD/sodipodi-0.dtd"
   xmlns="http://www.w3.org/2000/svg"
   xmlns:svg="http://www.w3.org/2000/svg"
   xmlns:rdf="http://www.w3.org/1999/02/22-rdf-syntax-ns#"
   xmlns:cc="http://creativecommons.org/ns#"
   xmlns:dc="http://purl.org/dc/elements/1.1/">
  <sodipodi:namedview
     id="namedview27"
     pagecolor="#201933"
     bordercolor="#000000"
     borderopacity="1"
     inkscape:pageshadow="2"
     inkscape:pageopacity="0.0"
     inkscape:pagecheckerboard="true"
     showgrid="true"
     inkscape:zoom="9.208459"
     inkscape:cx="16.397966"
     inkscape:cy="42.352363"
     inkscape:window-width="1920"
     inkscape:window-height="996"
     inkscape:window-x="0"
     inkscape:window-y="0"
     inkscape:window-maximized="1"
     inkscape:current-layer="svg"
     inkscape:showpageshadow="2"
     inkscape:deskcolor="#201933">
    <inkscape:grid
       type="xygrid"
       id="grid951"
       originx="-6.0000114"
       originy="-51.000011"
       spacingy="1"
       spacingx="1"
       units="px"
       visible="true" />
  </sodipodi:namedview>
  <metadata
     id="metadata47">
    <rdf:RDF>
      <cc:Work
         rdf:about="">
        <dc:format>image/svg+xml</dc:format>
        <dc:type
           rdf:resource="http://purl.org/dc/dcmitype/StillImage" />
      </cc:Work>
    </rdf:RDF>
  </metadata>
  <defs
     id="defs3">
    <style
       id="current-color-scheme"
       type="text/css">.ColorScheme-Text { color:#333333; } .ColorScheme-Highlight { color:#5294e2; } .ColorScheme-ButtonBackground { color:#dedede; }</style>
  </defs>
  <g
     id="device-notifier-6">
    <rect
       style="opacity:0.00100002;fill:#d1d5e9;fill-opacity:1"
       width="32"
       height="32"
       x="0"
       y="-4.6325681e-08"
       id="rect7-7" />
    <path
       d="m 12,5.8104104 v 2.1895895 l -0.338107,0.3811927 c -0.915196,-0.00471 -1.66,0.7742327 -1.661892,1.7379934 v 11.562485 c 0,8.424438 12,8.424438 12,0 V 10.119186 C 21.998053,9.1554253 21.253306,8.3765157 20.33811,8.3811926 L 20,7.9999999 V 5.8104104 C 19.9931,4.8135588 19.405082,4.0072312 18.458454,4.0000004 h -4.916905 c -0.949487,0 -1.47262,0.8129272 -1.541549,1.81041 z m 8,4.1895893 h 1 V 22.000407 C 21,22.000407 10,22 11,22 V 9.9999997 h 1 z m -1.541546,-5 c 0.314438,0.00519 0.568153,0.2788804 0.573066,0.6100007 L 19,7.9999999 H 13 V 5.6100004 c 0,-0.3332868 0.225053,-0.6100007 0.541549,-0.6100007 z"
       id="path1084"
       style="fill:#1e2431;fill-opacity:1;stroke-width:1.17614"
       sodipodi:nodetypes="scccsscccccsscccccccccccssc" />
    <path
       d="m 17.999999,16.002768 c -0.0025,1.78193 -2.157973,2.671021 -3.416094,1.409418 -1.258122,-1.261604 -0.363075,-3.414644 1.418856,-3.412184 1.104254,0.0023 1.998003,0.89851 1.997238,2.002766 z"
       id="path1086"
       style="fill:#1e2431;fill-opacity:1;stroke-width:1.38312"
       sodipodi:nodetypes="csccccc" />
  </g>
</svg>
