<?xml version="1.0" encoding="UTF-8" standalone="no"?>
<svg
   width="64"
   version="1.1"
   height="64"
   id="svg17"
   sodipodi:docname="document-open-recent.svg"
   inkscape:version="1.3.2 (091e20ef0f, 2023-11-25)"
   xmlns:inkscape="http://www.inkscape.org/namespaces/inkscape"
   xmlns:sodipodi="http://sodipodi.sourceforge.net/DTD/sodipodi-0.dtd"
   xmlns:xlink="http://www.w3.org/1999/xlink"
   xmlns="http://www.w3.org/2000/svg"
   xmlns:svg="http://www.w3.org/2000/svg"
   xmlns:rdf="http://www.w3.org/1999/02/22-rdf-syntax-ns#"
   xmlns:cc="http://creativecommons.org/ns#"
   xmlns:dc="http://purl.org/dc/elements/1.1/">
  <sodipodi:namedview
     pagecolor="#ffffff"
     bordercolor="#666666"
     borderopacity="1"
     objecttolerance="10"
     gridtolerance="10"
     guidetolerance="10"
     inkscape:pageopacity="0"
     inkscape:pageshadow="2"
     inkscape:window-width="1920"
     inkscape:window-height="996"
     id="namedview19"
     showgrid="false"
     inkscape:zoom="3.4692426"
     inkscape:cx="-20.465562"
     inkscape:cy="29.977725"
     inkscape:window-x="0"
     inkscape:window-y="0"
     inkscape:window-maximized="1"
     inkscape:current-layer="layer1"
     inkscape:document-rotation="0"
     inkscape:showpageshadow="2"
     inkscape:pagecheckerboard="0"
     inkscape:deskcolor="#d1d1d1" />
  <defs
     id="defs5455">
    <linearGradient
       inkscape:collect="always"
       id="linearGradient842">
      <stop
         style="stop-color:#4b8bd4;stop-opacity:1"
         offset="0"
         id="stop838" />
      <stop
         style="stop-color:#3b6ca7;stop-opacity:1"
         offset="1"
         id="stop840" />
    </linearGradient>
    <linearGradient
       inkscape:collect="always"
       xlink:href="#linearGradient853"
       id="linearGradient892"
       x1="1"
       y1="16"
       x2="31"
       y2="16"
       gradientUnits="userSpaceOnUse"
       gradientTransform="translate(-0.08541712,0.44979956)" />
    <linearGradient
       inkscape:collect="always"
       xlink:href="#linearGradient842"
       id="linearGradient854"
       gradientUnits="userSpaceOnUse"
       gradientTransform="matrix(0.72629163,0,0,0.74255505,380.21366,478.65998)"
       x1="6"
       y1="50.000134"
       x2="94.005508"
       y2="50.000134" />
    <linearGradient
       inkscape:collect="always"
       id="linearGradient853">
      <stop
         style="stop-color:#008080;stop-opacity:1"
         offset="0"
         id="stop849" />
      <stop
         style="stop-color:#00e5e5;stop-opacity:1"
         offset="1"
         id="stop851" />
    </linearGradient>
    <linearGradient
       inkscape:collect="always"
       xlink:href="#linearGradient842"
       id="linearGradient844"
       gradientUnits="userSpaceOnUse"
       x1="1"
       y1="16"
       x2="31"
       y2="16"
       gradientTransform="translate(-0.08541712,0.44979956)" />
  </defs>
  <metadata
     id="metadata5458">
    <rdf:RDF>
      <cc:Work
         rdf:about="">
        <dc:format>image/svg+xml</dc:format>
        <dc:type
           rdf:resource="http://purl.org/dc/dcmitype/StillImage" />
      </cc:Work>
    </rdf:RDF>
  </metadata>
  <g
     inkscape:label="Capa 1"
     inkscape:groupmode="layer"
     id="layer1"
     transform="translate(-384.57143,-483.798)">
    <g
       id="g6"
       transform="matrix(0.66666667,0,0,0.66666667,405.90476,508.13133)"
       style="fill:url(#linearGradient892);fill-opacity:1;stroke-width:0.999999">
      <path
         d="M 16,1 A 15,15 0 1 0 31,16 15,15 0 0 0 16,1 Z m 5.64,21.77 a 1,1 0 0 1 -1.41,-0.13 l -5,-6 A 1,1 0 0 1 15,16 V 6 a 1,1 0 0 1 2,0 v 9.64 l 4.77,5.72 a 1,1 0 0 1 -0.13,1.41 z"
         id="path4"
         style="fill:url(#linearGradient844);fill-opacity:1;stroke-width:0.999999" />
    </g>
    <path
       style="color:#000000;font-style:normal;font-variant:normal;font-weight:normal;font-stretch:normal;font-size:medium;line-height:normal;font-family:Sans;-inkscape-font-specification:Sans;text-indent:0;text-align:start;text-decoration:none;text-decoration-line:none;letter-spacing:normal;word-spacing:normal;text-transform:none;writing-mode:lr-tb;direction:ltr;baseline-shift:baseline;text-anchor:start;display:inline;overflow:visible;visibility:visible;opacity:1;fill:url(#linearGradient854);fill-opacity:1;fill-rule:nonzero;stroke:none;stroke-width:2.93752;marker:none;enable-background:accumulate"
       d="m 390.07108,489.79832 c -2.96566,0 -5.49967,2.12449 -5.49967,4.9446 v 41.61193 c 0,1.75677 0.62193,2.88553 1.82936,3.9097 1.20744,1.02417 2.46056,1.53332 4.05953,1.53332 h 50.8346 c 1.22044,0.0215 1.18574,-1.65277 2.9e-4,-1.67053 l -50.90521,-0.0297 c -1.57326,0 -2.88049,-1.109 -2.88049,-1.109 0,0 -1.20462,-0.90367 -1.20462,-2.63392 v -41.61194 c 0,-1.94341 1.32283,-3.19026 3.63351,-3.16489 l 17.89378,-0.009 8.53275,7.60002 c 0.25784,0.23244 0.58795,0.56382 0.93174,0.57125 l 24.81118,-0.009 c 1.26509,-0.007 1.22512,-1.74153 -0.04,-1.76181 h -24.2485 l -9.04492,-7.82312 c -0.26102,-0.22402 -0.59081,-0.34727 -0.93175,-0.34821 z m 28.86185,2.15891 c -1.15449,-0.003 -1.1568,1.98409 0.0288,2.00102 l 22.12886,-0.0303 c 2.24229,-0.003 3.21371,0.72291 3.9603,1.4188 0.74661,0.69587 1.88115,2.39953 1.88115,4.15503 v 40.81039 c 0.007,1.38104 1.63451,1.42649 1.63937,0.0475 l -0.004,-40.85815 c -2.3e-4,-2.38486 -0.78064,-4.38158 -2.18169,-5.68744 -1.40102,-1.30586 -3.30849,-1.85713 -5.29512,-1.85713 h -22.02138 c -0.0455,-0.002 -0.0909,-0.002 -0.13636,0 z"
       id="path2-3"
       sodipodi:nodetypes="sssssccscsssccccccccsccsssccssscc" />
  </g>
</svg>
