<?xml version="1.0" encoding="UTF-8" standalone="no"?>
<svg
   width="32"
   height="32"
   version="1.1"
   id="svg2046"
   sodipodi:docname="lutris-symbolic.svg"
   inkscape:version="1.3.2 (091e20ef0f, 2023-11-25)"
   xmlns:inkscape="http://www.inkscape.org/namespaces/inkscape"
   xmlns:sodipodi="http://sodipodi.sourceforge.net/DTD/sodipodi-0.dtd"
   xmlns="http://www.w3.org/2000/svg"
   xmlns:svg="http://www.w3.org/2000/svg">
  <sodipodi:namedview
     id="namedview2048"
     pagecolor="#02334b"
     bordercolor="#000000"
     borderopacity="1"
     inkscape:showpageshadow="true"
     inkscape:pageopacity="0"
     inkscape:pagecheckerboard="true"
     inkscape:deskcolor="#02334b"
     showgrid="true"
     inkscape:zoom="10.429825"
     inkscape:cx="16.395289"
     inkscape:cy="16.203532"
     inkscape:window-width="1920"
     inkscape:window-height="996"
     inkscape:window-x="0"
     inkscape:window-y="0"
     inkscape:window-maximized="1"
     inkscape:current-layer="svg2046">
    <inkscape:grid
       type="xygrid"
       id="grid224"
       originx="15.138004"
       originy="20.721615"
       spacingy="1"
       spacingx="1"
       units="px"
       visible="true" />
  </sodipodi:namedview>
  <defs
     id="l4k1">
    <style
       id="current-color-scheme"
       type="text/css">
   .ColorScheme-Background {color:#181818; } .ColorScheme-ButtonBackground { color:#343434; } .ColorScheme-Highlight { color:#4285f4; } .ColorScheme-Text { color:#dfdfdf; } .ColorScheme-ViewBackground { color:#242424; } .ColorScheme-NegativeText { color:#f44336; } .ColorScheme-PositiveText { color:#4caf50; } .ColorScheme-NeutralText { color:#ff9800; }
  </style>
  </defs>
  <g
     id="g1"
     style="fill:#1e2431;fill-opacity:1">
    <g
       id="lutris-3"
       style="fill:#1e2431;fill-opacity:1">
      <rect
         style="opacity:0.00100002;fill:#1e2431;fill-opacity:1"
         width="32"
         height="32"
         x="0"
         y="0"
         id="rect2039" />
      <path
         inkscape:connector-curvature="0"
         id="path178"
         d="m 9.8988656,14.219033 c 0.06235,-0.004 1.0302824,0.05354 1.1572344,0.251846 0.154471,0.241294 -0.557322,0.548046 -0.819952,2.915587 -0.119363,1.076032 -0.04614,1.957139 0.409115,2.663691 0.110335,0.171234 1.701938,1.880332 1.532715,1.602089 -1.453256,-2.389491 -0.933148,-4.31318 -0.894619,-4.68495 0.06389,-0.616488 0.537468,-2.058371 0.761288,-1.910341 0.455143,0.301021 0.619732,1.001377 1.613463,1.434178 0.578504,0.251956 1.619367,0.02664 1.862686,-0.917152 0.448667,-1.740308 -0.622681,-2.48263 -1.103359,-3.080223 0.551503,-0.31075 1.60614,-0.718022 2.364482,-0.759232 1.537443,-0.105991 1.494359,0.01695 2.72249,0.224904 0.47316,0.0598 -2.659696,-1.143868 -2.714724,-1.160976 -1.215274,0.09964 -2.103999,0.57015 -2.258148,0.625304 -0.650768,0.297468 -0.847004,0.435307 -1.240613,0.426366 -0.212334,-0.0048 -0.624936,-0.224784 -0.743138,-0.460618 -0.18587,-0.37085 -0.746371,0.537289 -0.722087,0.660049 0.03383,0.171088 0.57523,0.554394 0.787625,0.618933 0.176834,0.05374 0.868891,0.218153 1.426468,0.891728 0.788106,0.952066 0.752475,1.816022 0.342808,1.952998 -0.3882,0.129798 -0.687724,-0.01307 -0.901182,-0.308406 -0.186803,-0.258463 -0.403507,-0.485085 -0.610388,-0.666266 -0.12532,-0.109751 -0.354658,-0.318221 -0.53721,-0.464106 -0.143954,-0.115045 -0.504525,-0.336973 -0.6595,-0.409631 -0.297445,-0.139451 -0.691966,-0.308067 -0.873375,-0.298912"
         style="fill:#1e2431;fill-opacity:1;stroke-width:0.0995645"
         sodipodi:nodetypes="ccccccccccccccssssssssssc" />
      <path
         inkscape:connector-curvature="0"
         id="path176-7-1"
         d="m 9.0164021,13.670528 c -0.1747451,0.162931 -0.3625134,0.51454 -0.6148042,1.388898 -0.1595192,0.552831 -0.2709068,1.288767 -0.308507,1.824089 -0.053029,0.69198 0.00609,1.395421 0.053901,1.747596 0.0772,0.568582 0.118792,0.780973 0.2318746,1.181012 0.1589216,0.5622 0.4038044,0.989218 0.8522037,1.657778 0.061734,0.09204 0.1262938,0.807435 1.1732188,1.383658 1.046922,0.576224 2.981715,1.788646 2.890624,1.721546 C 12.597602,24.061427 12.211308,23.996756 11.085085,22.818622 10.454402,22.158866 9.8732174,21.151371 9.7117589,20.777858 8.9159406,18.936838 8.996745,17.558627 9.1251023,16.193924 c 0.2495321,-1.485549 0.4935692,-1.742783 0.5271742,-1.786853 0.080049,-0.104973 0.1696748,-0.162972 0.2859672,-0.187861 0.3554733,-0.03263 0.3458143,7.53e-4 0.5231003,-0.08782 0.152051,-0.07592 0.462542,-0.654846 0.524178,-0.739064 -0.355879,-0.09477 -0.460618,-0.100147 -0.9936216,-0.08391 -0.2818179,0.0086 -0.4873903,0.06655 -0.5425729,0.08315 -0.118025,0.03553 -0.2816147,0.101199 -0.4329253,0.278898 z"
         style="fill:#1e2431;fill-opacity:1;stroke-width:0.0794784"
         sodipodi:nodetypes="cscssssssscscscsssc" />
      <path
         inkscape:connector-curvature="0"
         id="path176"
         d="m 23.063347,13.327185 c -1.606306,-0.718089 -2.600962,-1.024728 -4.306019,-1.563818 -0.178268,-0.05636 -1.338008,-0.54638 -1.591577,-0.625847 -0.253565,-0.07947 -0.630696,-0.131765 -1.153463,-0.211834 -0.145805,-0.02233 1.024945,-0.185599 1.593064,-0.19812 0.599654,-0.01322 2.185873,0.266774 4.277002,1.108113 0.628884,0.253022 1.506128,1.409202 1.687612,1.589811 0.181483,0.180608 0.05366,0.152166 -0.506619,-0.0983 z"
         style="fill:#1e2431;fill-opacity:1;stroke-width:0.0995645"
         sodipodi:nodetypes="ssssssss" />
      <path
         inkscape:connector-curvature="0"
         id="path176-57"
         d="m 12.594365,11.099569 c -0.148262,0.354341 0.253968,0.492677 0.06446,0.7257 -0.249112,0.174656 -0.428615,0.322086 -0.632311,0.36122 -0.321497,0.02604 -0.521728,-0.926638 -0.368437,-1.3768 0.08213,-0.241177 0.2821,-1.0268835 1.439285,-1.562443 0.479268,-0.2218109 3.948667,-0.6228589 3.522044,-0.4383888 -0.187505,0.081075 -1.101965,0.3419755 -2.154209,0.8020581 -0.892592,0.3902727 -1.634627,0.8263967 -1.870831,1.4886537 z"
         style="fill:#1e2431;fill-opacity:1;stroke-width:0.0995645"
         sodipodi:nodetypes="cccssssc" />
      <path
         inkscape:connector-curvature="0"
         id="path174"
         d="M 14.879517,27.953848 C 8.3657003,27.368992 3.4790683,21.527572 4.0445343,15.001842 4.5538893,9.1236304 9.1039719,4.5495504 14.947997,4.0408759 c 1.536789,-0.1337644 3.473218,0.071772 4.2963,0.4560175 0.535691,0.2500795 1.055563,0.2802617 1.552243,0.090119 0.500753,-0.1917017 0.978483,-0.1040846 1.285261,0.2357199 0.131931,0.1461346 0.326739,0.1865686 0.95395,0.1979958 1.044325,0.019027 1.902599,0.2961989 2.818322,0.9101549 1.216592,0.8156743 1.754309,1.5801053 1.754309,2.49396 0,0.3606515 0.05868,0.5863769 0.198889,0.7650526 0.256493,0.3268634 0.255346,0.8801564 -0.0026,1.3044204 l -0.200841,0.330213 0.201212,0.256421 c 0.253978,0.323661 0.260495,0.936754 0.01567,1.475591 -0.168674,0.371261 -0.761047,0.998046 -1.148864,1.215603 -0.156964,0.08805 -0.153918,0.164438 0.04518,1.13405 0.519465,2.529793 0.128222,5.294992 -1.054295,7.451531 -0.57864,1.055246 -1.599249,2.459874 -2.144287,2.951097 -1.057219,0.952831 -3.083413,1.96815 -4.69187,2.351084 -1.363165,0.316121 -2.699155,0.40605 -3.946973,0.293942 z m 2.784441,-1.196916 c 1.393837,-0.221856 3.245342,-0.937832 4.241293,-1.640113 0.377522,-0.266199 0.378702,-0.269037 0.08453,-0.203142 -0.164082,0.03677 -0.734873,0.266617 -1.268426,0.510803 -1.363329,0.623948 -2.437677,0.865196 -3.852952,0.865196 -3.700765,0 -6.855226,-2.158446 -8.2067604,-5.615493 -0.2736694,-0.700008 -0.2715692,-0.812956 -0.2917916,-0.891456 -0.041702,-0.161875 0.1049985,-0.05884 0.2267483,0.202465 0.561825,1.205792 1.0069992,1.775732 1.4407787,2.22372 0.705787,0.728905 2.18162,1.768196 3.333013,2.35082 0.65334,0.330605 1.975232,0.752756 2.051902,0.676673 0.01093,-0.01552 -0.04592,-0.03108 -0.07767,-0.04392 -0.162819,-0.06584 -1.567786,-0.685523 -1.567786,-0.768821 0,-0.03278 0.0548,-0.03773 0.111027,-0.003 0.05623,0.03485 0.246416,0.0809 0.422639,0.102371 0.176222,0.02147 0.499402,0.0623 0.718178,0.09073 0.218776,0.02845 1.427024,0.0099 2.684994,-0.04121 1.864829,-0.07576 2.486877,-0.139485 3.368348,-0.345084 2.456878,-0.573048 3.606613,-1.719719 4.405792,-4.394046 0.247488,-0.828189 0.267908,-1.031276 0.26559,-2.641646 -0.0019,-1.420118 -0.03788,-1.864968 -0.192674,-2.392438 l -0.190162,-0.647955 -0.695951,-0.223175 c -1.60185,-0.513673 -1.901182,-0.690017 -2.382626,-1.403626 -0.243895,-0.361511 -0.427268,-0.673507 -0.407498,-0.693325 0.01977,-0.01982 0.610921,0.21006 1.313667,0.51084 0.70275,0.300777 1.601248,0.641893 1.996663,0.75803 0.681274,0.200102 0.735974,0.202487 1.044162,0.04556 0.594693,-0.302804 0.605615,-0.344756 0.149845,-0.575421 -0.546004,-0.276336 -0.842735,-0.830116 -0.698033,-1.302733 0.09659,-0.315478 0.09034,-0.324215 -0.425926,-0.595167 -0.44434,-0.233204 -0.557691,-0.256895 -0.745959,-0.155893 -0.353252,0.189515 -1.168104,0.148893 -1.464602,-0.07301 C 22.593501,10.098571 22.425229,9.780893 22.405862,9.2192203 22.387822,8.6957587 22.382142,8.6865695 21.989781,8.545231 21.762725,8.463436 21.027491,8.3782841 20.276668,8.3468207 c -1.411639,-0.059148 -2.322273,0.063349 -3.41916,0.4026717 -0.347838,0.1076032 -0.958176,0.2481542 -1.348716,0.2666418 -0.796101,0.037691 -1.33626,0.056488 -1.785573,0.1459012 -0.501346,0.09977 -0.910338,0.2347753 -0.64302,0.07585 1.783641,-0.8848855 2.838144,-1.2343848 3.876341,-1.5107095 1.710223,-0.4551847 4.087168,-0.4562812 5.466054,-0.00264 0.473273,0.1557457 0.691729,0.179316 1.005953,0.1085451 0.584819,-0.1317198 1.090885,0.016314 1.469981,0.430036 0.316407,0.3452983 0.375113,0.5612168 0.331044,1.2175812 -0.01537,0.2289544 0.04042,0.3568574 0.20656,0.4735029 0.31987,0.2245909 0.382254,0.2019139 0.382254,-0.1389498 0,-0.2014319 0.113394,-0.4245804 0.348053,-0.684953 0.229007,-0.2540957 0.348058,-0.4849527 0.348058,-0.6749424 0,-0.6087643 -0.860851,-1.452157 -2.029752,-1.9885942 C 24.056371,6.270173 23.680162,6.192432 22.880194,6.1351981 22.048098,6.0756622 21.776958,6.0172565 21.549249,5.8484974 21.310775,5.6717585 21.208114,5.6524229 20.93108,5.7320666 20.322324,5.9070764 19.629756,5.8395493 18.704367,5.5149539 17.924254,5.241323 17.645729,5.196285 16.470628,5.1537561 15.687648,5.1254235 14.817287,5.1530029 14.382299,5.2203827 9.0415878,6.0453781 5.1309127,10.596993 5.1347351,15.983572 c 0.0015,2.284521 0.5778391,4.175919 1.8685006,6.133242 1.5488986,2.348936 4.3675763,4.166801 7.1801733,4.630747 0.767403,0.126587 2.710616,0.131685 3.480549,0.0091 z M 27,12 Z m 0.207107,-1.879186 c 0.167205,-0.3131799 0.119295,-0.4970661 -0.146958,-0.5640543 -0.483226,-0.1215735 -0.775094,0.4714763 -0.321903,0.6540813 0.32235,0.129881 0.354779,0.123653 0.468861,-0.09003 z M 24.326722,9.7155195 c 0.430414,-0.4314526 0.112529,-1.1962188 -0.497219,-1.1962188 -0.382791,0 -0.696113,0.31408 -0.696113,0.6977968 0,0.3837132 0.313322,0.6977931 0.696113,0.6977931 0.16574,0 0.386725,-0.088607 0.497219,-0.1993711 z"
         style="fill:#1e2431;fill-opacity:1;stroke-width:0.0995645"
         sodipodi:nodetypes="csscssscsccccccccscccccccsssssccsscccccccccscscccccccccccscscccccscscscccsccccccccccccccscccssscss" />
      <path
         inkscape:connector-curvature="0"
         id="path176-7"
         d="m 13.584781,24.345656 c -0.68141,-0.50856 -1.349944,-1.101915 -1.888627,-1.788131 -0.359458,-0.457904 -0.902704,-1.577734 -1.023273,-2.034057 -0.07541,-0.28542 -0.395912,-1.168222 -0.360604,-1.368844 0.03541,-0.224113 0.411697,0.799851 0.78906,1.165117 0.42321,0.409642 0.909446,0.99293 1.092889,1.286992 0.421637,0.6759 1.387402,1.624327 2.286147,2.123257 0.48892,0.271418 1.086258,0.520281 1.388061,0.60341 0.222417,0.06127 0.705125,0.185612 1.366357,0.211932 0.243921,0.0097 0.570935,0.03991 0.661419,0.02189 0.0386,-0.0077 -2.514836,0.146696 -2.658792,0.128601 -0.381339,-0.04793 -1.160571,0.01707 -1.652637,-0.350167 z"
         style="fill:#1e2431;fill-opacity:1;stroke-width:0.0995645"
         sodipodi:nodetypes="ssscssssssss" />
    </g>
  </g>
</svg>
