<?xml version="1.0" encoding="UTF-8" standalone="no"?>
<svg
   width="32"
   height="32"
   version="1.1"
   id="svg1"
   sodipodi:docname="yakuake-symbolic.svg"
   inkscape:version="1.3.2 (091e20ef0f, 2023-11-25)"
   xmlns:inkscape="http://www.inkscape.org/namespaces/inkscape"
   xmlns:sodipodi="http://sodipodi.sourceforge.net/DTD/sodipodi-0.dtd"
   xmlns="http://www.w3.org/2000/svg"
   xmlns:svg="http://www.w3.org/2000/svg">
  <defs
     id="defs1" />
  <sodipodi:namedview
     id="namedview1"
     pagecolor="#ffffff"
     bordercolor="#999999"
     borderopacity="1"
     inkscape:showpageshadow="2"
     inkscape:pageopacity="0"
     inkscape:pagecheckerboard="0"
     inkscape:deskcolor="#d1d1d1"
     inkscape:zoom="17.318182"
     inkscape:cx="15.937008"
     inkscape:cy="20.729659"
     inkscape:window-width="1920"
     inkscape:window-height="996"
     inkscape:window-x="0"
     inkscape:window-y="0"
     inkscape:window-maximized="1"
     inkscape:current-layer="svg1"
     showgrid="true">
    <inkscape:grid
       id="grid1"
       units="px"
       originx="0"
       originy="0"
       spacingx="1"
       spacingy="1"
       empcolor="#0099e5"
       empopacity="0.30196078"
       color="#0099e5"
       opacity="0.14902"
       empspacing="5"
       dotted="false"
       gridanglex="30"
       gridanglez="30"
       visible="true" />
  </sodipodi:namedview>
  <style
     type="text/css"
     id="current-color-scheme">.ColorScheme-Background{color:#181818;}.ColorScheme-ButtonBackground{color:#343434;}.ColorScheme-Highlight{color:#1a73e8;}.ColorScheme-Text{color:#232629;}.ColorScheme-ViewBackground{color:#242424;}.ColorScheme-NegativeText { color: #ff4747; } </style>
  <g
     id="yakuake">
    <rect
       id="rect11"
       width="32"
       height="32"
       opacity="0.00100002"
       style="fill:#fcfcfc;fill-opacity:1"
       x="0"
       y="0" />
    <path
       id="rect43"
       class="ColorScheme-Text"
       d="M 4,8 V 8 H 28 V 8 Z M 27,8 V 24 H 5 V 8 H 3 v 16 c 0,1 1,2 2,2 h 22 c 1,0 2,-1 2,-2 V 8 Z"
       fill-opacity=".3"
       style="color:#d1d5e9;fill:#1e2431;fill-opacity:0.4509804"
       sodipodi:nodetypes="cccccccccccccccc" />
    <path
       id="rect63"
       class="ColorScheme-Text"
       d="m 3,6 h 26 c 1,0 1,1 1,1 v 0 c 0,0 0,1 -1,1 H 3 C 2,8 2,7 2,7 V 7 C 2,7 2,6 3,6 Z"
       style="color:#d1d5e9;fill:#1e2431;fill-opacity:1;stroke-width:0.925815"
       sodipodi:nodetypes="scsssssss" />
    <path
       d="m 14.790987,16.492286 c 2.68e-4,0.158754 -0.06321,0.311081 -0.176413,0.423228 l -4.7973384,4.76219 C 8.8221982,22.657069 7.3380765,21.183803 8.324686,20.196072 l 3.73143,-3.703786 -3.73143,-3.703785 c -0.4110294,-0.409612 -0.4110294,-1.072032 0,-1.481628 v 0 c 0.4121467,-0.409164 1.0804029,-0.409164 1.4925496,0 l 4.7973384,4.762164 c 0.113177,0.112165 0.176682,0.264488 0.176413,0.423249 z m -0.602771,0 z"
       id="path4-3-9-2"
       style="color:#d6dbf1;fill:#1e2431;fill-opacity:1;stroke-width:0.30043"
       sodipodi:nodetypes="ccccccsscccccccccccc"
       class="ColorScheme-Text" />
    <path
       d="m 12.790732,15.931437 4.835756,-4.504991 c 1.238195,-1.145114 2.560012,0.253091 1.330287,1.407149 l -4.835756,4.505011 c -1.238257,1.145051 -2.560024,-0.253091 -1.330287,-1.407169 z m 5.101807,-4.223575 z"
       id="path8-6-7-36-2-9"
       style="color:#d6dbf1;fill:#1e2431;fill-opacity:0.44999999;stroke-width:0.221869"
       sodipodi:nodetypes="cccccccccc"
       class="ColorScheme-Text" />
    <path
       d="m 16.245654,20 h 6.508691 c 1.660873,0.0063 1.660873,1.993619 0,2 h -6.508691 c -1.660872,-0.0063 -1.660872,-1.993619 0,-2 z m 6.508691,0.399995 z"
       id="path8-6-7-36-2-9-3"
       style="color:#d6dbf1;fill:#1e2431;fill-opacity:1;stroke-width:0.223758"
       sodipodi:nodetypes="cccccccccc"
       class="ColorScheme-Text" />
  </g>
</svg>
