<svg width="128" height="128" viewBox="0 0 128 128" fill="none" xmlns="http://www.w3.org/2000/svg">
<rect width="128" height="128" rx="24" fill="url(#paint0_linear_56_8)"/>
<rect x="4" y="4" width="120" height="120" rx="20" stroke="black" stroke-opacity="0.25" stroke-width="8"/>
<g filter="url(#filter0_d_56_8)">
<path d="M87.069 73.2637C89.1134 72.5817 91.3788 73.5262 92.1891 75.5233C92.4318 76.1215 92.6702 76.7169 92.9041 77.3096C94.7107 81.5276 96.1222 85.3456 97.1385 88.7637C98.2676 92.1818 98.8328 94.909 98.8328 96.9453C98.9457 98.9817 98.3806 100 97.1385 100C95.219 99.9999 93.4122 99.3818 91.7186 98.1455C90.1378 96.9092 88.6702 95.3816 87.3152 93.5635C86.0731 91.6726 84.9998 89.8182 84.0965 88C83.1933 86.1094 82.5159 84.5458 82.0643 83.3096C81.6572 82.1954 80.5974 81.4541 79.4112 81.4541H62.7557C50.3347 81.4541 42.7124 84.5457 39.8895 90.7275C37.0665 96.9092 33.2834 100 28.5408 100C27.4118 99.9999 26.8475 98.9816 26.8475 96.9453C26.9604 94.909 27.5246 92.1817 28.5408 88.7637C29.5571 85.3456 30.9126 81.5276 32.6063 77.3096C32.8707 76.6814 33.1389 76.0502 33.4107 75.4158C34.231 73.5009 36.3938 72.5686 38.384 73.184C54.7006 78.2293 70.6005 78.7574 87.069 73.2637ZM62.7557 28C63.9977 28.0002 65.5224 29.0185 67.3289 31.0547C69.1355 33.091 71.1674 35.8184 73.4256 39.2363C75.684 42.6545 77.9996 46.5089 80.3709 50.7998C81.0631 52.0312 81.7454 53.2782 82.4181 54.5408C83.7937 57.1229 81.9308 60.2014 79.0058 60.2664L74.6023 60.3642C72.8488 60.4031 71.2886 59.2881 70.5961 57.6767C70.4722 57.3884 70.3428 57.0961 70.2078 56.7998C65.2395 45.8909 60.2709 45.8909 55.3026 56.7998C55.1035 57.2471 54.9168 57.6852 54.7425 58.1142C54.0941 59.7097 52.6048 60.8529 50.883 60.8911L46.4185 60.9901C43.4331 61.0563 41.4355 57.9486 42.7934 55.289C43.5689 53.7704 44.3512 52.2739 45.1404 50.7998C47.5117 46.509 49.8265 42.6544 52.0848 39.2363C54.3431 35.8182 56.3758 33.091 58.1824 31.0547C60.102 29.0184 61.6265 28 62.7557 28Z" fill="url(#paint1_linear_56_8)"/>
<path d="M98.8375 62.0041L30.6415 63.709C28.3945 63.7651 27.9335 66.9566 30.0677 67.662C54.3431 75.6863 66.8994 78.7556 99.6056 65.6977C101.642 64.8845 101.03 61.9492 98.8375 62.0041Z" fill="url(#paint2_linear_56_8)"/>
</g>
<defs>
<filter id="filter0_d_56_8" x="10.8475" y="16" width="106.002" height="104" filterUnits="userSpaceOnUse" color-interpolation-filters="sRGB">
<feFlood flood-opacity="0" result="BackgroundImageFix"/>
<feColorMatrix in="SourceAlpha" type="matrix" values="0 0 0 0 0 0 0 0 0 0 0 0 0 0 0 0 0 0 127 0" result="hardAlpha"/>
<feOffset dy="4"/>
<feGaussianBlur stdDeviation="8"/>
<feComposite in2="hardAlpha" operator="out"/>
<feColorMatrix type="matrix" values="0 0 0 0 0 0 0 0 0 0 0 0 0 0 0 0 0 0 0.5 0"/>
<feBlend mode="normal" in2="BackgroundImageFix" result="effect1_dropShadow_56_8"/>
<feBlend mode="normal" in="SourceGraphic" in2="effect1_dropShadow_56_8" result="shape"/>
</filter>
<linearGradient id="paint0_linear_56_8" x1="64" y1="0" x2="64" y2="128" gradientUnits="userSpaceOnUse">
<stop stop-color="#5D8797"/>
<stop offset="1" stop-color="#0B1B21"/>
</linearGradient>
<linearGradient id="paint1_linear_56_8" x1="62.8471" y1="28" x2="62.8471" y2="100" gradientUnits="userSpaceOnUse">
<stop stop-color="white"/>
<stop offset="1" stop-color="#B2C6CF"/>
</linearGradient>
<linearGradient id="paint2_linear_56_8" x1="63.9997" y1="61.75" x2="63.9997" y2="74.5911" gradientUnits="userSpaceOnUse">
<stop stop-color="white"/>
<stop offset="1" stop-color="#B2C6CF"/>
</linearGradient>
</defs>
</svg>
