<svg width="128" height="128" viewBox="0 0 128 128" fill="none" xmlns="http://www.w3.org/2000/svg">
<rect width="128" height="128" rx="24" fill="url(#paint0_linear_19_23)"/>
<rect x="4" y="4" width="120" height="120" rx="20" stroke="black" stroke-opacity="0.25" stroke-width="8"/>
<g filter="url(#filter0_d_19_23)">
<path d="M56.7284 33.2308C56.7284 33.2308 52.4615 43.6995 52.4615 44.3966V100.923H75.5385V44.3936C75.5385 44.3966 71.6923 33.2308 71.6923 33.2308H56.7284Z" fill="url(#paint1_linear_19_23)"/>
<path d="M56.3077 33.2308C56.3077 33.2308 52.4615 43.6995 52.4615 44.3936H75.5385C75.5385 44.018 71.6923 33.2308 71.6923 33.2308H56.3077Z" fill="url(#paint2_linear_19_23)"/>
<path d="M24 51.6112C24.3816 51.6232 52.4615 51.6112 52.4615 51.6112C52.4615 41.7524 43.351 33.2308 43.2308 27.0769H33.2308C33.2308 33.2308 23.997 41.7524 24 51.6112Z" fill="url(#paint3_linear_19_23)"/>
<path d="M75.5385 100.923H52.4615V104H75.5385V100.923Z" fill="#C0BFBC"/>
<path d="M56.3077 29.3395V33.2308H71.6923V29.3395H56.3077Z" fill="url(#paint4_linear_19_23)"/>
<path d="M64 57.8732C58.2308 57.8732 58.2308 65.1478 58.2308 65.1478H52.4615V76.2776H75.5385V65.1478H69.7692C69.7692 65.1478 69.7692 57.8732 64 57.8732ZM64 59.4117C64 59.4117 68.1947 64.5288 66.6593 67.0589C65.1238 69.5889 62.8732 69.5889 61.3377 67.0589C59.8023 64.5288 64 59.4117 64 59.4117Z" fill="url(#paint5_linear_19_23)"/>
<path d="M52.4615 100.923H29.7121C29.616 100.923 29.5168 100.92 29.4207 100.914C29.3215 100.911 29.2254 100.902 29.1292 100.89C29.03 100.881 28.9369 100.869 28.8407 100.851C28.7446 100.836 28.6544 100.818 28.5583 100.797C28.4651 100.779 28.372 100.755 28.2819 100.728C28.1917 100.704 28.1016 100.677 28.0114 100.647C27.8311 100.587 27.6569 100.517 27.4856 100.439C27.3143 100.364 27.146 100.277 26.9838 100.181C26.8245 100.088 26.6683 99.9856 26.515 99.8744C26.3618 99.7632 26.2145 99.646 26.0763 99.5198C25.9351 99.3966 25.7969 99.2644 25.6707 99.1232C25.5415 98.985 25.4183 98.8377 25.3011 98.6875C25.1839 98.5343 25.0757 98.378 24.9736 98.2127C24.8714 98.0505 24.7752 97.8822 24.6881 97.7079C24.601 97.5336 24.5198 97.3534 24.4477 97.1671C24.3756 96.9838 24.3095 96.7975 24.2554 96.6022C24.2013 96.4099 24.1532 96.2145 24.1172 96.0132C24.0781 95.8119 24.0481 95.6076 24.03 95.4002C24.012 95.1929 24 94.9826 24 94.7692V97.5246V97.5276C24 97.75 24.012 97.9724 24.0331 98.1887V98.1917C24.0541 98.408 24.0871 98.6214 24.1292 98.8317C24.1683 99.0421 24.2224 99.2494 24.2825 99.4507V99.4537C24.3425 99.655 24.4147 99.8504 24.4928 100.046C24.5709 100.238 24.6611 100.427 24.7602 100.611C25.0487 101.157 25.4153 101.659 25.8419 102.098C26.9808 103.267 28.5553 103.991 30.3041 104H52.4615V100.923Z" fill="#E66100"/>
<path d="M31.2356 33.2308C31.2326 33.2338 31.2296 33.2368 31.2266 33.2398C28.5102 38.4742 23.997 44.7121 24 51.6082V94.7692C24 94.9826 24.012 95.1929 24.03 95.4002C24.0481 95.6076 24.0781 95.8119 24.1142 96.0132C24.1532 96.2146 24.2013 96.4099 24.2554 96.6052C24.3095 96.7975 24.3756 96.9838 24.4477 97.1671C24.5198 97.3534 24.601 97.5337 24.6881 97.7079C24.7752 97.8822 24.8714 98.0505 24.9736 98.2158C25.0757 98.378 25.1839 98.5343 25.3011 98.6875C25.4183 98.8408 25.5415 98.985 25.6677 99.1262C25.7969 99.2644 25.9351 99.3966 26.0733 99.5198C26.2145 99.646 26.3618 99.7632 26.515 99.8744C26.6683 99.9856 26.8245 100.088 26.9838 100.184C27.146 100.277 27.3143 100.364 27.4856 100.442C27.6569 100.517 27.8311 100.587 28.0114 100.647C28.1016 100.677 28.1917 100.704 28.2819 100.731C28.372 100.755 28.4651 100.779 28.5583 100.797C28.6544 100.818 28.7446 100.836 28.8407 100.851C28.9369 100.869 29.03 100.881 29.1262 100.89C29.2254 100.902 29.3215 100.911 29.4177 100.914C29.5168 100.92 29.616 100.923 29.7121 100.923H52.4615V51.6082C52.4615 44.7121 48.0084 38.4742 45.2891 33.2398C45.2861 33.2368 45.2831 33.2338 45.2801 33.2308H31.2356Z" fill="url(#paint6_linear_19_23)"/>
<path d="M81.6923 43.1887C78.4201 44.7873 75.5385 48.351 75.5385 52.0559V104H97.6959C101.19 103.985 104 101.103 104 97.5276V52.0559C104 48.342 101.13 44.7843 97.8461 43.1887H81.6923Z" fill="url(#paint7_linear_19_23)"/>
<path d="M33.2308 24H43.2308V27.0769H33.2308V24Z" fill="url(#paint8_linear_19_23)"/>
<path d="M104 94.7692C104 98.1797 101.452 100.923 98.2879 100.923H75.5385V104H97.6959C101.19 103.985 104 101.103 104 97.5276V94.7692Z" fill="#C01C28"/>
<path d="M81.6923 41.6502H97.8462V43.2127H81.6923V41.6502Z" fill="url(#paint9_linear_19_23)"/>
<path d="M81.6923 36.3077H97.8462V41.6502H81.6923V36.3077Z" fill="url(#paint10_linear_19_23)"/>
<path d="M94.7692 91.3017H104V94.7692H94.7692V91.3017Z" fill="url(#paint11_linear_19_23)"/>
<path d="M38.2308 56.3077C33.982 56.3077 30.5385 59.7512 30.5385 64C30.5385 68.2488 33.982 71.6923 38.2308 71.6923C42.4796 71.6923 45.9231 68.2488 45.9231 64C45.9231 59.7512 42.4796 56.3077 38.2308 56.3077Z" fill="#33D17A" fill-opacity="0.854902"/>
</g>
<defs>
<filter id="filter0_d_19_23" x="8" y="8" width="112" height="112" filterUnits="userSpaceOnUse" color-interpolation-filters="sRGB">
<feFlood flood-opacity="0" result="BackgroundImageFix"/>
<feColorMatrix in="SourceAlpha" type="matrix" values="0 0 0 0 0 0 0 0 0 0 0 0 0 0 0 0 0 0 127 0" result="hardAlpha"/>
<feOffset/>
<feGaussianBlur stdDeviation="8"/>
<feComposite in2="hardAlpha" operator="out"/>
<feColorMatrix type="matrix" values="0 0 0 0 0 0 0 0 0 0 0 0 0 0 0 0 0 0 0.5 0"/>
<feBlend mode="normal" in2="BackgroundImageFix" result="effect1_dropShadow_19_23"/>
<feBlend mode="normal" in="SourceGraphic" in2="effect1_dropShadow_19_23" result="shape"/>
</filter>
<linearGradient id="paint0_linear_19_23" x1="64" y1="0" x2="64" y2="128" gradientUnits="userSpaceOnUse">
<stop stop-color="#FCD5FF"/>
<stop offset="1" stop-color="#9A71CC"/>
</linearGradient>
<linearGradient id="paint1_linear_19_23" x1="52.4615" y1="67.0768" x2="75.5385" y2="67.0768" gradientUnits="userSpaceOnUse">
<stop stop-color="#DEDDDA"/>
<stop offset="0.25" stop-color="#F6F5F4"/>
<stop offset="0.75" stop-color="white"/>
<stop offset="1" stop-color="#DEDDDA" stop-opacity="0.854902"/>
</linearGradient>
<linearGradient id="paint2_linear_19_23" x1="52.4616" y1="38.9639" x2="75.605" y2="38.9639" gradientUnits="userSpaceOnUse">
<stop stop-color="#C0BFBC"/>
<stop offset="0.25" stop-color="#DEDDDA"/>
<stop offset="0.75" stop-color="#F6F5F4"/>
<stop offset="1" stop-color="#C0BFBC"/>
</linearGradient>
<linearGradient id="paint3_linear_19_23" x1="24" y1="47.7823" x2="52.4615" y2="47.7823" gradientUnits="userSpaceOnUse">
<stop stop-color="#C0BFBC"/>
<stop offset="0.25" stop-color="#DEDDDA"/>
<stop offset="0.75" stop-color="#DEDDDA"/>
<stop offset="1" stop-color="#C0BFBC"/>
</linearGradient>
<linearGradient id="paint4_linear_19_23" x1="52.4615" y1="31.2855" x2="75.5384" y2="31.2855" gradientUnits="userSpaceOnUse">
<stop stop-color="#1A5FB4"/>
<stop offset="0.25" stop-color="#1C71D8"/>
<stop offset="0.75" stop-color="#3584E4"/>
<stop offset="1" stop-color="#1A5FB4"/>
</linearGradient>
<linearGradient id="paint5_linear_19_23" x1="52.4616" y1="67.0768" x2="75.5386" y2="67.0768" gradientUnits="userSpaceOnUse">
<stop stop-color="#1A5FB4"/>
<stop offset="0.25" stop-color="#1C71D8"/>
<stop offset="0.75" stop-color="#3584E4"/>
<stop offset="1" stop-color="#1A5FB4"/>
</linearGradient>
<linearGradient id="paint6_linear_19_23" x1="24.0001" y1="72.4383" x2="52.4616" y2="72.4383" gradientUnits="userSpaceOnUse">
<stop stop-color="#FFA348"/>
<stop offset="0.25" stop-color="#FFBE6F"/>
<stop offset="0.75" stop-color="#FFBE6F"/>
<stop offset="1" stop-color="#FFA348"/>
</linearGradient>
<linearGradient id="paint7_linear_19_23" x1="75.5388" y1="72.8955" x2="104" y2="72.8955" gradientUnits="userSpaceOnUse">
<stop stop-color="#E01B24"/>
<stop offset="0.25" stop-color="#ED333B"/>
<stop offset="0.75" stop-color="#F66151"/>
<stop offset="1" stop-color="#E01B24"/>
</linearGradient>
<linearGradient id="paint8_linear_19_23" x1="33.2308" y1="25.5385" x2="43.2308" y2="25.5385" gradientUnits="userSpaceOnUse">
<stop stop-color="#33D17A"/>
<stop offset="0.388454" stop-color="#57E389"/>
<stop offset="0.75" stop-color="#57E389"/>
<stop offset="1" stop-color="#2EC27E" stop-opacity="0.854902"/>
</linearGradient>
<linearGradient id="paint9_linear_19_23" x1="75.5385" y1="42.4322" x2="104" y2="42.4322" gradientUnits="userSpaceOnUse">
<stop stop-color="#3D3846"/>
<stop offset="0.25" stop-color="#5E5C64"/>
<stop offset="0.75" stop-color="#77767B"/>
<stop offset="1" stop-color="#77767B"/>
</linearGradient>
<linearGradient id="paint10_linear_19_23" x1="75.5385" y1="38.9788" x2="104" y2="38.9788" gradientUnits="userSpaceOnUse">
<stop stop-color="#9A9996"/>
<stop offset="0.25" stop-color="#C0BFBC"/>
<stop offset="0.75" stop-color="#DEDDDA"/>
<stop offset="1" stop-color="#9A9996"/>
</linearGradient>
<linearGradient id="paint11_linear_19_23" x1="75.5384" y1="93.0353" x2="104" y2="93.0353" gradientUnits="userSpaceOnUse">
<stop stop-color="#9A9996"/>
<stop offset="0.25" stop-color="#C0BFBC"/>
<stop offset="0.75" stop-color="#DEDDDA"/>
<stop offset="1" stop-color="#9A9996"/>
</linearGradient>
</defs>
</svg>
