<svg width="128" height="128" viewBox="0 0 128 128" fill="none" xmlns="http://www.w3.org/2000/svg">
<rect width="128" height="128" rx="24" fill="url(#paint0_linear_2_2)"/>
<rect x="4" y="4" width="120" height="120" rx="20" stroke="black" stroke-opacity="0.25" stroke-width="8"/>
<g filter="url(#filter0_d_2_2)">
<path d="M101.115 50.8315C99.3753 46.7788 95.8487 42.4037 93.0805 41.0216C95.3336 45.2968 96.637 49.5849 97.1353 52.7843C97.1353 52.7843 97.1353 52.8069 97.1436 52.8488C92.6153 41.9247 84.9357 37.5189 78.6643 27.9284C78.3461 27.4446 78.0295 26.9608 77.7195 26.4432C77.5443 26.1513 77.4026 25.8868 77.2795 25.6368C77.0195 25.1519 76.8186 24.6394 76.6812 24.1097C76.6824 24.0845 76.6735 24.0598 76.6569 24.0405C76.6404 24.0211 76.6169 24.0084 76.5912 24.0048C76.5666 23.9984 76.5406 23.9984 76.5161 24.0048C76.5095 24.0078 76.5032 24.0116 76.4978 24.0161C76.4878 24.0161 76.4778 24.0274 76.4678 24.0306L76.4844 24.0097C66.4233 29.712 63.0099 40.2604 62.6968 45.5387C58.6762 45.8047 54.832 47.2372 51.6654 49.6494C51.3346 49.3785 50.9886 49.1256 50.6289 48.8914C49.7163 45.8004 49.6778 42.529 50.5172 39.4186C46.4024 41.2329 43.2025 44.0953 40.876 46.6288H40.8576C39.2694 44.6823 39.381 38.2624 39.471 36.9222C39.4527 36.8384 38.2877 37.5076 38.1377 37.6092C36.7362 38.5767 35.4262 39.6625 34.2229 40.8539C32.8536 42.1972 31.6027 43.6488 30.4831 45.1936C27.9072 48.7259 26.0804 52.7173 25.1083 56.9371C25.09 57.0209 25.0733 57.1078 25.055 57.1933C24.98 57.5338 24.7083 59.2413 24.66 59.6124V59.6979C24.3058 61.4625 24.0853 63.2498 24 65.0454V65.2438C24 86.6469 41.9326 103.999 64.0516 103.999C83.8626 103.999 100.31 90.0819 103.532 71.8009C103.598 71.3058 103.653 70.8059 103.713 70.3058C104.51 63.6584 103.625 56.6725 101.115 50.8315ZM54.9503 81.1688C55.1371 81.2544 55.3137 81.3495 55.5054 81.4331L55.532 81.4494C55.3403 81.3592 55.1437 81.2657 54.9503 81.1688ZM97.147 52.8665V52.8295V52.8715V52.8665Z" fill="url(#paint1_linear_2_2)"/>
<path d="M101.116 50.8315C99.3759 46.7788 95.8493 42.4037 93.0811 41.0217C95.3342 45.2968 96.6376 49.5849 97.1359 52.7843V52.8634C100.916 62.7781 98.8559 72.8605 95.8893 79.0207C91.2994 88.5517 80.1883 98.3209 62.7939 97.8454C44.0164 97.3292 27.4621 83.8298 24.3706 66.1629C23.8073 63.3748 24.3706 61.9605 24.6539 59.6979C24.3089 61.441 24.1772 61.9458 24.0056 65.0454V65.2437C24.0056 86.6471 41.9382 103.999 64.0574 103.999C83.868 103.999 100.316 90.0818 103.537 71.8009C103.604 71.3057 103.659 70.8059 103.719 70.306C104.511 63.6587 103.626 56.6725 101.116 50.8315Z" fill="url(#paint2_radial_2_2)"/>
<path d="M101.116 50.8315C99.3759 46.7788 95.8493 42.4037 93.0811 41.0217C95.3342 45.2968 96.6376 49.5849 97.1359 52.7843V52.8634C100.916 62.7781 98.8559 72.8605 95.8893 79.0207C91.2994 88.5517 80.1883 98.3209 62.7939 97.8454C44.0164 97.3292 27.4621 83.8298 24.3706 66.1629C23.8073 63.3748 24.3706 61.9605 24.6539 59.6979C24.3089 61.441 24.1772 61.9458 24.0056 65.0454V65.2437C24.0056 86.6471 41.9382 103.999 64.0574 103.999C83.868 103.999 100.316 90.0818 103.537 71.8009C103.604 71.3057 103.659 70.8059 103.719 70.306C104.511 63.6587 103.626 56.6725 101.116 50.8315Z" fill="url(#paint3_radial_2_2)"/>
<path d="M81.6498 55.3854C81.738 55.4449 81.8163 55.5045 81.8998 55.5644C80.8946 53.8372 79.6421 52.2563 78.1798 50.8682C65.7305 38.8217 74.9167 24.7464 76.465 24.0304L76.4815 24.0094C66.4205 29.7118 63.0071 40.2602 62.6939 45.5384C63.1605 45.5078 63.6254 45.4691 64.1005 45.4691C71.6084 45.4691 78.1481 49.4651 81.6498 55.3854Z" fill="url(#paint4_radial_2_2)"/>
<path d="M64.1271 57.7925C64.0622 58.7599 60.5422 62.0821 59.3108 62.0821C47.9212 62.0821 46.0729 68.7488 46.0729 68.7488C46.5729 74.3642 50.616 78.9876 55.5074 81.4339C55.7308 81.5454 55.9557 81.6452 56.1743 81.7454C56.5657 81.9065 56.9591 82.0679 57.3508 82.2113C59.0282 82.784 60.7848 83.1101 62.5622 83.179C82.5246 84.0852 86.3946 60.0824 71.9867 53.1125C75.6749 52.4916 79.5049 53.9285 81.6432 55.3815C78.1432 49.4615 71.6018 45.4653 64.0939 45.4653C63.6188 45.4653 63.1539 45.504 62.6871 45.5347C58.6697 45.804 54.8291 47.2381 51.666 49.6502C52.2777 50.1517 52.9677 50.8193 54.4191 52.203C57.1425 54.8027 64.1122 57.478 64.1271 57.7925Z" fill="url(#paint5_radial_2_2)"/>
<path d="M64.1271 57.7925C64.0622 58.7599 60.5422 62.0821 59.3108 62.0821C47.9212 62.0821 46.0729 68.7488 46.0729 68.7488C46.5729 74.3642 50.616 78.9876 55.5074 81.4339C55.7308 81.5454 55.9557 81.6452 56.1743 81.7454C56.5657 81.9065 56.9591 82.0679 57.3508 82.2113C59.0282 82.784 60.7848 83.1101 62.5622 83.179C82.5246 84.0852 86.3946 60.0824 71.9867 53.1125C75.6749 52.4916 79.5049 53.9285 81.6432 55.3815C78.1432 49.4615 71.6018 45.4653 64.0939 45.4653C63.6188 45.4653 63.1539 45.504 62.6871 45.5347C58.6697 45.804 54.8291 47.2381 51.666 49.6502C52.2777 50.1517 52.9677 50.8193 54.4191 52.203C57.1425 54.8027 64.1122 57.478 64.1271 57.7925Z" fill="url(#paint6_radial_2_2)"/>
<path d="M49.8029 48.361C50.1278 48.5642 50.3946 48.7351 50.636 48.8916C49.7238 45.8005 49.6852 42.5291 50.5246 39.4188C46.4096 41.233 43.2098 44.0955 40.8832 46.629C41.0715 46.6241 46.8812 46.5225 49.8029 48.361Z" fill="url(#paint7_radial_2_2)"/>
<path d="M24.3706 66.1624C27.4621 83.8292 44.0164 97.3287 62.8073 97.8448C80.2015 98.3204 91.3062 88.5511 95.9025 79.0202C98.869 72.8583 100.929 62.7776 97.1493 52.8629V52.7887C97.1493 52.7983 97.1493 52.8113 97.1576 52.8532C98.5776 61.8308 93.8593 70.5278 86.4828 76.4094C86.4754 76.4257 86.4683 76.4425 86.4614 76.4594C72.087 87.785 58.3325 83.2921 55.5477 81.4585C55.3543 81.3683 55.1594 81.2748 54.966 81.1779C46.5846 77.3076 43.1231 69.9135 43.8648 63.5773C36.7901 63.5773 34.3768 57.8008 34.3768 57.8008C34.3768 57.8008 40.7299 53.4176 49.1029 57.23C56.8577 60.7616 64.1405 57.8008 64.1405 57.8008C64.1256 57.4863 57.156 54.803 54.4377 52.2113C52.986 50.8276 52.296 50.16 51.6843 49.6585C51.3535 49.3876 51.0075 49.1347 50.6478 48.9004C50.4095 48.7393 50.1478 48.5781 49.8146 48.37C46.8929 46.5316 41.0832 46.6332 40.8916 46.638H40.8732C39.2849 44.6915 39.3966 38.2715 39.4866 36.9314C39.4683 36.8476 38.3033 37.5168 38.1533 37.6184C36.7518 38.5859 35.4418 39.6717 34.2385 40.8631C32.8692 42.2064 31.6183 43.658 30.4987 45.2027C27.9228 48.7351 26.096 52.7263 25.1239 56.9462C25.0922 57.0204 23.6673 63.0405 24.3706 66.1624Z" fill="url(#paint8_radial_2_2)"/>
<path d="M78.1806 50.8684C79.6429 52.2566 80.8952 53.8375 81.9003 55.5647C82.1089 55.7158 82.3089 55.8775 82.5003 56.0483C91.5799 64.1376 86.8303 75.589 86.4686 76.4114C93.8451 70.53 98.563 61.833 97.143 52.8552C92.6151 41.9247 84.9354 37.5189 78.6638 27.9284C78.3455 27.4446 78.0289 26.9608 77.7189 26.4432C77.5441 26.1513 77.4024 25.8868 77.2789 25.6368C77.0192 25.1519 76.8184 24.6394 76.6807 24.1097C76.6818 24.0845 76.6732 24.0598 76.6567 24.0405C76.6398 24.0211 76.6164 24.0084 76.5907 24.0048C76.5661 23.9984 76.5404 23.9984 76.5158 24.0048C76.5089 24.0078 76.5029 24.0116 76.4972 24.0161C76.4872 24.0161 76.4772 24.0274 76.4672 24.0306C74.9175 24.7466 65.731 38.822 78.1806 50.8684Z" fill="url(#paint9_radial_2_2)"/>
<path d="M82.4974 56.04C82.306 55.8689 82.1057 55.7076 81.8974 55.5561C81.8157 55.4965 81.7309 55.4369 81.6474 55.3771C79.5092 53.9258 75.6795 52.4872 71.9912 53.1081C86.3974 60.078 82.5291 84.0808 62.5668 83.1746C60.7893 83.1056 59.0328 82.7796 57.3551 82.2069C56.9637 82.0651 56.5702 81.9087 56.1785 81.741C55.952 81.6408 55.7268 81.541 55.512 81.4298L55.5385 81.4458C58.3234 83.2844 72.0778 87.7771 86.4522 76.4467C86.4522 76.4467 86.4605 76.4257 86.474 76.3965C86.8305 75.5888 91.5805 64.1373 82.4974 56.04Z" fill="url(#paint10_radial_2_2)"/>
<path d="M46.0721 68.7485C46.0721 68.7485 47.9203 62.0818 59.3099 62.0818C60.5416 62.0818 64.0613 58.7566 64.1265 57.7922C64.1913 56.8278 56.8434 60.753 49.0886 57.2212C40.7157 53.4088 34.3626 57.7922 34.3626 57.7922C34.3626 57.7922 36.7758 63.5687 43.8505 63.5687C43.1089 69.9049 46.5704 77.2924 54.9517 81.1694C55.1386 81.2546 55.3151 81.3498 55.5068 81.4337C50.6152 78.9923 46.5771 74.3639 46.0721 68.7485Z" fill="url(#paint11_radial_2_2)"/>
<path d="M101.115 50.8315C99.3753 46.7788 95.8487 42.4037 93.0805 41.0216C95.3336 45.2968 96.637 49.5849 97.1353 52.7843C97.1353 52.7843 97.1353 52.8069 97.1436 52.8488C92.6153 41.9247 84.9357 37.5189 78.6643 27.9284C78.3461 27.4446 78.0295 26.9608 77.7195 26.4432C77.5443 26.1513 77.4026 25.8868 77.2795 25.6368C77.0195 25.1519 76.8186 24.6394 76.6812 24.1097C76.6824 24.0845 76.6735 24.0598 76.6569 24.0405C76.6404 24.0211 76.6169 24.0084 76.5912 24.0048C76.5666 23.9984 76.5406 23.9984 76.5161 24.0048C76.5095 24.0078 76.5032 24.0116 76.4978 24.0161C76.4878 24.0161 76.4778 24.0274 76.4678 24.0306L76.4844 24.0097C66.4233 29.712 63.0099 40.2604 62.6968 45.5387C63.1633 45.508 63.6285 45.4693 64.1033 45.4693C71.6113 45.4693 78.1512 49.4654 81.6526 55.3856C79.5143 53.9341 75.6847 52.4957 71.9964 53.1167C86.4023 60.0866 82.5343 84.0894 62.5716 83.1829C60.7945 83.1139 59.0377 82.7879 57.3603 82.2155C56.9685 82.0734 56.5754 81.917 56.1837 81.7492C55.9571 81.6494 55.732 81.5493 55.5171 81.4381L55.5437 81.4541C55.3503 81.3639 55.1554 81.2704 54.962 81.1735C55.1486 81.259 55.3254 81.3542 55.5171 81.4381C50.6155 78.9918 46.5774 74.3634 46.0724 68.748C46.0724 68.748 47.9206 62.0813 59.3102 62.0813C60.5419 62.0813 64.0616 58.7561 64.1268 57.7917C64.1116 57.4772 57.142 54.7936 54.4237 52.2022C52.972 50.8185 52.282 50.1509 51.6706 49.6494C51.3395 49.3785 50.9935 49.1256 50.6337 48.8914C49.7215 45.8004 49.6829 42.529 50.5223 39.4186C46.4074 41.2329 43.2075 44.0953 40.881 46.6288H40.8626C39.2744 44.6823 39.386 38.2624 39.476 36.9222C39.4577 36.8384 38.2927 37.5076 38.1427 37.6092C36.7412 38.5767 35.4312 39.6625 34.2279 40.8539C32.8586 42.1972 31.6077 43.6488 30.4881 45.1936C27.9122 48.7259 26.0854 52.7173 25.1133 56.9371C25.095 57.0209 25.0783 57.1078 25.06 57.1933C24.985 57.5338 24.645 59.2656 24.5983 59.6366C24.5983 59.609 24.5983 59.6656 24.5983 59.6366C24.2863 61.4261 24.0865 63.2325 24 65.0454V65.2438C24 86.6469 41.9326 103.999 64.0516 103.999C83.8626 103.999 100.31 90.0819 103.532 71.8009C103.598 71.3058 103.653 70.8059 103.713 70.3058C104.51 63.6584 103.625 56.6725 101.115 50.8315Z" fill="url(#paint12_linear_2_2)"/>
</g>
<defs>
<filter id="filter0_d_2_2" x="8" y="12" width="112" height="111.999" filterUnits="userSpaceOnUse" color-interpolation-filters="sRGB">
<feFlood flood-opacity="0" result="BackgroundImageFix"/>
<feColorMatrix in="SourceAlpha" type="matrix" values="0 0 0 0 0 0 0 0 0 0 0 0 0 0 0 0 0 0 127 0" result="hardAlpha"/>
<feOffset dy="4"/>
<feGaussianBlur stdDeviation="8"/>
<feComposite in2="hardAlpha" operator="out"/>
<feColorMatrix type="matrix" values="0 0 0 0 0 0 0 0 0 0 0 0 0 0 0 0 0 0 0.5 0"/>
<feBlend mode="normal" in2="BackgroundImageFix" result="effect1_dropShadow_2_2"/>
<feBlend mode="normal" in="SourceGraphic" in2="effect1_dropShadow_2_2" result="shape"/>
</filter>
<linearGradient id="paint0_linear_2_2" x1="64" y1="0" x2="64" y2="128" gradientUnits="userSpaceOnUse">
<stop offset="0.00961538" stop-color="#6E3682"/>
<stop offset="1" stop-color="#311B38"/>
</linearGradient>
<linearGradient id="paint1_linear_2_2" x1="95.8136" y1="36.3933" x2="31.434" y2="100.585" gradientUnits="userSpaceOnUse">
<stop offset="0.05" stop-color="#FFF44F"/>
<stop offset="0.11" stop-color="#FFE847"/>
<stop offset="0.22" stop-color="#FFC830"/>
<stop offset="0.37" stop-color="#FF980E"/>
<stop offset="0.4" stop-color="#FF8B16"/>
<stop offset="0.46" stop-color="#FF672A"/>
<stop offset="0.53" stop-color="#FF3647"/>
<stop offset="0.7" stop-color="#E31587"/>
</linearGradient>
<radialGradient id="paint2_radial_2_2" cx="0" cy="0" r="1" gradientUnits="userSpaceOnUse" gradientTransform="translate(92.7411 32.8793) scale(83.4981 80.7959)">
<stop offset="0.13" stop-color="#FFBD4F"/>
<stop offset="0.19" stop-color="#FFAC31"/>
<stop offset="0.25" stop-color="#FF9D17"/>
<stop offset="0.28" stop-color="#FF980E"/>
<stop offset="0.4" stop-color="#FF563B"/>
<stop offset="0.47" stop-color="#FF3750"/>
<stop offset="0.71" stop-color="#F5156C"/>
<stop offset="0.78" stop-color="#EB0878"/>
<stop offset="0.86" stop-color="#E50080"/>
</radialGradient>
<radialGradient id="paint3_radial_2_2" cx="0" cy="0" r="1" gradientUnits="userSpaceOnUse" gradientTransform="translate(62.2308 65.9099) scale(83.4981 80.7959)">
<stop offset="0.3" stop-color="#960E18"/>
<stop offset="0.35" stop-color="#B11927" stop-opacity="0.74"/>
<stop offset="0.43" stop-color="#DB293D" stop-opacity="0.34"/>
<stop offset="0.5" stop-color="#F5334B" stop-opacity="0.09"/>
<stop offset="0.53" stop-color="#FF3750" stop-opacity="0"/>
</radialGradient>
<radialGradient id="paint4_radial_2_2" cx="0" cy="0" r="1" gradientUnits="userSpaceOnUse" gradientTransform="translate(72.2967 14.5431) scale(60.4909 58.533)">
<stop offset="0.13" stop-color="#FFF44F"/>
<stop offset="0.25" stop-color="#FFDC3E"/>
<stop offset="0.51" stop-color="#FF9D12"/>
<stop offset="0.53" stop-color="#FF980E"/>
</radialGradient>
<radialGradient id="paint5_radial_2_2" cx="0" cy="0" r="1" gradientUnits="userSpaceOnUse" gradientTransform="translate(52.996 87.0154) scale(39.7568 38.47)">
<stop offset="0.35" stop-color="#3A8EE6"/>
<stop offset="0.47" stop-color="#5C79F0"/>
<stop offset="0.67" stop-color="#9059FF"/>
<stop offset="1" stop-color="#C139E6"/>
</radialGradient>
<radialGradient id="paint6_radial_2_2" cx="0" cy="0" r="1" gradientTransform="matrix(20.4467 -4.89526 5.96772 23.2368 63.4296 56.3084)" gradientUnits="userSpaceOnUse">
<stop offset="0.21" stop-color="#9059FF" stop-opacity="0"/>
<stop offset="0.28" stop-color="#8C4FF3" stop-opacity="0.06"/>
<stop offset="0.75" stop-color="#7716A8" stop-opacity="0.6"/>
<stop offset="0.97" stop-color="#6E008B" stop-opacity="0.8"/>
</radialGradient>
<radialGradient id="paint7_radial_2_2" cx="0" cy="0" r="1" gradientUnits="userSpaceOnUse" gradientTransform="translate(61.1739 29.5735) scale(28.602 27.6764)">
<stop stop-color="#FFE226"/>
<stop offset="0.12" stop-color="#FFDB27"/>
<stop offset="0.3" stop-color="#FFC82A"/>
<stop offset="0.5" stop-color="#FFA930"/>
<stop offset="0.73" stop-color="#FF7E37"/>
<stop offset="0.79" stop-color="#FF7139"/>
</radialGradient>
<radialGradient id="paint8_radial_2_2" cx="0" cy="0" r="1" gradientUnits="userSpaceOnUse" gradientTransform="translate(83.658 12.0191) scale(122.03 118.081)">
<stop offset="0.11" stop-color="#FFF44F"/>
<stop offset="0.46" stop-color="#FF980E"/>
<stop offset="0.62" stop-color="#FF5634"/>
<stop offset="0.72" stop-color="#FF3647"/>
<stop offset="0.9" stop-color="#E31587"/>
</radialGradient>
<radialGradient id="paint9_radial_2_2" cx="0" cy="0" r="1" gradientTransform="matrix(8.93905 85.6332 -58.1457 5.65832 71.8616 24.9207)" gradientUnits="userSpaceOnUse">
<stop stop-color="#FFF44F"/>
<stop offset="0.06" stop-color="#FFE847"/>
<stop offset="0.17" stop-color="#FFC830"/>
<stop offset="0.3" stop-color="#FF980E"/>
<stop offset="0.36" stop-color="#FF8B16"/>
<stop offset="0.45" stop-color="#FF672A"/>
<stop offset="0.57" stop-color="#FF3647"/>
<stop offset="0.74" stop-color="#E31587"/>
</radialGradient>
<radialGradient id="paint10_radial_2_2" cx="0" cy="0" r="1" gradientUnits="userSpaceOnUse" gradientTransform="translate(60.5016 39.8231) scale(76.1833 73.7179)">
<stop offset="0.14" stop-color="#FFF44F"/>
<stop offset="0.48" stop-color="#FF980E"/>
<stop offset="0.59" stop-color="#FF5634"/>
<stop offset="0.66" stop-color="#FF3647"/>
<stop offset="0.9" stop-color="#E31587"/>
</radialGradient>
<radialGradient id="paint11_radial_2_2" cx="0" cy="0" r="1" gradientUnits="userSpaceOnUse" gradientTransform="translate(80.6123 44.1394) scale(83.3832 80.6845)">
<stop offset="0.09" stop-color="#FFF44F"/>
<stop offset="0.23" stop-color="#FFE141"/>
<stop offset="0.51" stop-color="#FFAF1E"/>
<stop offset="0.63" stop-color="#FF980E"/>
</radialGradient>
<linearGradient id="paint12_linear_2_2" x1="95.0136" y1="36.0611" x2="40.3" y2="92.6064" gradientUnits="userSpaceOnUse">
<stop offset="0.17" stop-color="#FFF44F" stop-opacity="0.8"/>
<stop offset="0.27" stop-color="#FFF44F" stop-opacity="0.63"/>
<stop offset="0.49" stop-color="#FFF44F" stop-opacity="0.22"/>
<stop offset="0.6" stop-color="#FFF44F" stop-opacity="0"/>
</linearGradient>
</defs>
</svg>
