<svg width="128" height="128" viewBox="0 0 128 128" fill="none" xmlns="http://www.w3.org/2000/svg">
<rect width="128" height="128" rx="24" fill="url(#paint0_linear_48_12)"/>
<rect x="4" y="4" width="120" height="120" rx="20" stroke="black" stroke-opacity="0.25" stroke-width="8"/>
<g filter="url(#filter0_d_48_12)">
<path d="M65.972 31.1175C64.7487 30.4243 63.2513 30.4243 62.028 31.1175L30.0279 49.2508C28.7746 49.9611 28 51.2903 28 52.7309V88.8691C28 90.3097 28.7746 91.639 30.0279 92.3492L38.028 96.8825C39.2513 97.5757 40.7487 97.5757 41.972 96.8825L49.972 92.3492C51.2254 91.639 52 90.3097 52 88.8691V79.9309C52 78.4903 51.2254 77.1611 49.972 76.4508L42.0279 71.9492C40.7746 71.239 40 69.9097 40 68.4691V59.5309C40 58.0903 40.7746 56.761 42.0279 56.0508L62.028 44.7175C63.2513 44.0243 64.7487 44.0243 65.972 44.7175L85.972 56.0508C87.2254 56.761 88 58.0903 88 59.5309V68.4691C88 69.9097 87.2254 71.239 85.972 71.9492L78.028 76.4508C76.7746 77.1611 76 78.4903 76 79.9309V88.8691C76 90.3097 76.7746 91.639 78.028 92.3492L86.028 96.8825C87.2513 97.5757 88.7487 97.5757 89.972 96.8825L97.9721 92.3492C99.2254 91.639 100 90.3097 100 88.8691V52.7309C100 51.2903 99.2254 49.9611 97.9721 49.2508L65.972 31.1175Z" fill="url(#paint1_linear_48_12)"/>
</g>
<defs>
<filter id="filter0_d_48_12" x="12" y="14.5976" width="104" height="98.8048" filterUnits="userSpaceOnUse" color-interpolation-filters="sRGB">
<feFlood flood-opacity="0" result="BackgroundImageFix"/>
<feColorMatrix in="SourceAlpha" type="matrix" values="0 0 0 0 0 0 0 0 0 0 0 0 0 0 0 0 0 0 127 0" result="hardAlpha"/>
<feOffset/>
<feGaussianBlur stdDeviation="8"/>
<feComposite in2="hardAlpha" operator="out"/>
<feColorMatrix type="matrix" values="0 0 0 0 0 0 0 0 0 0 0 0 0 0 0 0 0 0 0.5 0"/>
<feBlend mode="normal" in2="BackgroundImageFix" result="effect1_dropShadow_48_12"/>
<feBlend mode="normal" in="SourceGraphic" in2="effect1_dropShadow_48_12" result="shape"/>
</filter>
<linearGradient id="paint0_linear_48_12" x1="64" y1="0" x2="64" y2="128" gradientUnits="userSpaceOnUse">
<stop stop-color="#57E389"/>
<stop offset="1" stop-color="#196253"/>
</linearGradient>
<linearGradient id="paint1_linear_48_12" x1="64" y1="30" x2="64" y2="98" gradientUnits="userSpaceOnUse">
<stop stop-color="white"/>
<stop offset="1" stop-color="#B8EDCB"/>
</linearGradient>
</defs>
</svg>
