<svg width="128" height="128" viewBox="0 0 128 128" fill="none" xmlns="http://www.w3.org/2000/svg">
<rect width="128" height="128" rx="24" fill="url(#paint0_linear_94_28)"/>
<rect x="4" y="4" width="120" height="120" rx="20" stroke="black" stroke-opacity="0.25" stroke-width="8"/>
<g filter="url(#filter0_d_94_28)">
<path d="M55.3054 42.7309C54.3825 42.7309 53.6343 43.4791 53.6343 44.4021C53.6343 45.3251 54.3825 46.0733 55.3054 46.0733H56.5525C57.4755 46.0733 58.2237 45.3251 58.2237 44.4021C58.2237 43.4791 57.4755 42.7309 56.5525 42.7309H55.3054Z" fill="url(#paint1_linear_94_28)"/>
<path d="M51.6959 48.1233C50.773 48.1233 50.0248 48.8715 50.0248 49.7944C50.0248 50.7174 50.773 51.4656 51.6959 51.4656H56.5968C57.5198 51.4656 58.268 50.7174 58.268 49.7944C58.268 48.8715 57.5198 48.1233 56.5968 48.1233H51.6959Z" fill="url(#paint2_linear_94_28)"/>
<path d="M42.0258 53.5156C41.1028 53.5156 40.3546 54.2638 40.3546 55.1867C40.3546 56.1097 41.1028 56.8579 42.0258 56.8579H56.5531C57.4761 56.8579 58.2243 56.1097 58.2243 55.1867C58.2243 54.2638 57.4761 53.5156 56.5531 53.5156H42.0258Z" fill="url(#paint3_linear_94_28)"/>
<path d="M32.1774 58.8632C31.2544 58.8632 30.5062 59.6114 30.5062 60.5344C30.5062 61.4574 31.2544 62.2056 32.1774 62.2056H56.5531C57.476 62.2056 58.2242 61.4574 58.2242 60.5344C58.2242 59.6114 57.476 58.8632 56.5531 58.8632H32.1774Z" fill="url(#paint4_linear_94_28)"/>
<path d="M25.6712 64.2556C24.7482 64.2556 24 65.0038 24 65.9268C24 66.8497 24.7482 67.5979 25.6712 67.5979H56.553C57.4759 67.5979 58.2241 66.8497 58.2241 65.9268C58.2241 65.0038 57.4759 64.2556 56.553 64.2556H25.6712Z" fill="url(#paint5_linear_94_28)"/>
<path d="M36.4999 69.6033C35.5769 69.6033 34.8287 70.3515 34.8287 71.2745C34.8287 72.1975 35.5769 72.9457 36.4999 72.9457H56.553C57.476 72.9457 58.2242 72.1975 58.2242 71.2745C58.2242 70.3515 57.476 69.6033 56.553 69.6033H36.4999Z" fill="url(#paint6_linear_94_28)"/>
<path d="M46.0364 74.9955C45.1134 74.9955 44.3652 75.7438 44.3652 76.6667C44.3652 77.5897 45.1134 78.3379 46.0364 78.3379H56.5977C57.5206 78.3379 58.2688 77.5897 58.2688 76.6667C58.2688 75.7438 57.5206 74.9955 56.5977 74.9955H46.0364Z" fill="url(#paint7_linear_94_28)"/>
<path d="M42.293 80.3434C41.37 80.3434 40.6218 81.0916 40.6218 82.0145C40.6218 82.9375 41.37 83.6857 42.293 83.6857H56.5975C57.5205 83.6857 58.2687 82.9375 58.2687 82.0145C58.2687 81.0916 57.5205 80.3434 56.5975 80.3434H42.293Z" fill="url(#paint8_linear_94_28)"/>
<path d="M51.3838 85.4682C50.4609 85.4682 49.7126 86.2165 49.7126 87.1394C49.7126 88.0624 50.4609 88.8106 51.3838 88.8106H56.552C57.475 88.8106 58.2232 88.0624 58.2232 87.1394C58.2232 86.2165 57.475 85.4682 56.552 85.4682H51.3838Z" fill="url(#paint9_linear_94_28)"/>
<g filter="url(#filter1_i_94_28)">
<path d="M70.1458 37.1039C71.0259 35.7744 70.0725 34 68.4781 34H61.3862C59.8007 34 58.8456 35.7568 59.7077 37.0875L63.2155 42.5019C63.9991 43.7114 65.7662 43.7202 66.5617 42.5184L70.1458 37.1039Z" fill="white"/>
<path d="M64.8761 36.026C65.3925 36.026 65.811 36.4446 65.811 36.9609V93.0651C65.811 93.5814 65.3925 94 64.8761 94C64.3598 94 63.9412 93.5814 63.9412 93.0651V36.9609C63.9412 36.4446 64.3598 36.026 64.8761 36.026Z" fill="white"/>
</g>
<path d="M74.6543 45.2611C73.3296 44.3249 71.5 45.2723 71.5 46.8944L71.5 85.1344C71.5 86.7572 73.3307 87.7044 74.6553 86.767L101.692 67.6337C102.818 66.8363 102.818 65.1644 101.69 64.3678L74.6543 45.2611Z" fill="url(#paint10_linear_94_28)"/>
</g>
<defs>
<filter id="filter0_d_94_28" x="8" y="22" width="110.536" height="92" filterUnits="userSpaceOnUse" color-interpolation-filters="sRGB">
<feFlood flood-opacity="0" result="BackgroundImageFix"/>
<feColorMatrix in="SourceAlpha" type="matrix" values="0 0 0 0 0 0 0 0 0 0 0 0 0 0 0 0 0 0 127 0" result="hardAlpha"/>
<feOffset dy="4"/>
<feGaussianBlur stdDeviation="8"/>
<feComposite in2="hardAlpha" operator="out"/>
<feColorMatrix type="matrix" values="0 0 0 0 0 0 0 0 0 0 0 0 0 0 0 0 0 0 0.5 0"/>
<feBlend mode="normal" in2="BackgroundImageFix" result="effect1_dropShadow_94_28"/>
<feBlend mode="normal" in="SourceGraphic" in2="effect1_dropShadow_94_28" result="shape"/>
</filter>
<filter id="filter1_i_94_28" x="59.3829" y="30" width="11.0985" height="64" filterUnits="userSpaceOnUse" color-interpolation-filters="sRGB">
<feFlood flood-opacity="0" result="BackgroundImageFix"/>
<feBlend mode="normal" in="SourceGraphic" in2="BackgroundImageFix" result="shape"/>
<feColorMatrix in="SourceAlpha" type="matrix" values="0 0 0 0 0 0 0 0 0 0 0 0 0 0 0 0 0 0 127 0" result="hardAlpha"/>
<feOffset dy="-4"/>
<feGaussianBlur stdDeviation="4"/>
<feComposite in2="hardAlpha" operator="arithmetic" k2="-1" k3="1"/>
<feColorMatrix type="matrix" values="0 0 0 0 1 0 0 0 0 0.211765 0 0 0 0 0.278431 0 0 0 1 0"/>
<feBlend mode="normal" in2="shape" result="effect1_innerShadow_94_28"/>
</filter>
<linearGradient id="paint0_linear_94_28" x1="65" y1="2.37632e-08" x2="64.9997" y2="128" gradientUnits="userSpaceOnUse">
<stop stop-color="#83B9F5"/>
<stop offset="1" stop-color="#16263A"/>
</linearGradient>
<linearGradient id="paint1_linear_94_28" x1="55.929" y1="42.7309" x2="55.929" y2="46.0733" gradientUnits="userSpaceOnUse">
<stop stop-color="white"/>
<stop offset="1" stop-color="#83B9F5"/>
</linearGradient>
<linearGradient id="paint2_linear_94_28" x1="54.1464" y1="48.1233" x2="54.1464" y2="51.4656" gradientUnits="userSpaceOnUse">
<stop stop-color="white"/>
<stop offset="1" stop-color="#83B9F5"/>
</linearGradient>
<linearGradient id="paint3_linear_94_28" x1="49.2894" y1="53.5156" x2="49.2894" y2="56.8579" gradientUnits="userSpaceOnUse">
<stop stop-color="white"/>
<stop offset="1" stop-color="#83B9F5"/>
</linearGradient>
<linearGradient id="paint4_linear_94_28" x1="44.3652" y1="58.8632" x2="44.3652" y2="62.2056" gradientUnits="userSpaceOnUse">
<stop stop-color="white"/>
<stop offset="1" stop-color="#83B9F5"/>
</linearGradient>
<linearGradient id="paint5_linear_94_28" x1="41.1121" y1="64.2556" x2="41.1121" y2="67.5979" gradientUnits="userSpaceOnUse">
<stop stop-color="white"/>
<stop offset="1" stop-color="#83B9F5"/>
</linearGradient>
<linearGradient id="paint6_linear_94_28" x1="46.5265" y1="69.6033" x2="46.5265" y2="72.9457" gradientUnits="userSpaceOnUse">
<stop stop-color="white"/>
<stop offset="1" stop-color="#83B9F5"/>
</linearGradient>
<linearGradient id="paint7_linear_94_28" x1="51.317" y1="74.9955" x2="51.317" y2="78.3379" gradientUnits="userSpaceOnUse">
<stop stop-color="white"/>
<stop offset="1" stop-color="#83B9F5"/>
</linearGradient>
<linearGradient id="paint8_linear_94_28" x1="49.4453" y1="80.3434" x2="49.4453" y2="83.6857" gradientUnits="userSpaceOnUse">
<stop stop-color="white"/>
<stop offset="1" stop-color="#83B9F5"/>
</linearGradient>
<linearGradient id="paint9_linear_94_28" x1="53.9679" y1="85.4682" x2="53.9679" y2="88.8106" gradientUnits="userSpaceOnUse">
<stop stop-color="white"/>
<stop offset="1" stop-color="#83B9F5"/>
</linearGradient>
<linearGradient id="paint10_linear_94_28" x1="87.7188" y1="42.7233" x2="87.7188" y2="88.8996" gradientUnits="userSpaceOnUse">
<stop stop-color="white"/>
<stop offset="1" stop-color="#527EB2"/>
</linearGradient>
</defs>
</svg>
