<svg width="128" height="128" viewBox="0 0 128 128" fill="none" xmlns="http://www.w3.org/2000/svg">
<rect width="128" height="128" rx="24" fill="url(#paint0_linear_4_83)"/>
<rect x="4" y="4" width="120" height="120" rx="20" stroke="black" stroke-opacity="0.25" stroke-width="8"/>
<rect x="16" y="18" width="96" height="30" rx="15" fill="url(#paint1_linear_4_83)"/>
<rect x="16" y="26" width="96" height="21" rx="10.5" fill="url(#paint2_linear_4_83)"/>
<rect x="8" y="32" width="112" height="88" rx="16" fill="url(#paint3_linear_4_83)"/>
<path d="M40 24C40 19.5817 43.5817 16 48 16V32H40V24Z" fill="white"/>
<path d="M80 16C84.4183 16 88 19.5817 88 24V32H80V16Z" fill="white"/>
<rect x="48" y="16" width="32" height="8" fill="url(#paint4_linear_4_83)"/>
<g filter="url(#filter0_f_4_83)">
<path d="M47.3846 63.7692H54.7692C58.8474 63.7692 62.1538 67.0757 62.1538 71.1538V78.5385C62.1538 82.6166 58.8474 85.9231 54.7692 85.9231H47.3846C43.3065 85.9231 40 82.6166 40 78.5385V71.1538C40 67.0757 43.3065 63.7692 47.3846 63.7692Z" fill="url(#paint5_linear_4_83)"/>
<path d="M76.9231 71.1538C70.8041 71.1538 65.8462 66.1959 65.8462 60.0769C65.8462 53.9579 70.8041 49 76.9231 49C83.0421 49 88 53.9579 88 60.0769C88 66.1959 83.0421 71.1538 76.9231 71.1538Z" fill="url(#paint6_linear_4_83)"/>
<path d="M83.1899 77.5938L66.9639 86.8678C65.976 87.4303 65.3666 88.4796 65.3666 89.6154C65.3666 90.7512 65.976 91.8005 66.9639 92.363L83.1899 101.637C84.1851 102.207 85.4074 102.2 86.399 101.626C87.3906 101.049 88 99.9928 88 98.8462V80.3846C88 79.238 87.3906 78.1815 86.399 77.6046C85.4074 77.0313 84.1851 77.024 83.1899 77.5938Z" fill="url(#paint7_linear_4_83)"/>
</g>
<path d="M47.3846 63.7692H54.7692C58.8474 63.7692 62.1538 67.0757 62.1538 71.1538V78.5385C62.1538 82.6166 58.8474 85.9231 54.7692 85.9231H47.3846C43.3065 85.9231 40 82.6166 40 78.5385V71.1538C40 67.0757 43.3065 63.7692 47.3846 63.7692Z" fill="url(#paint8_linear_4_83)"/>
<path d="M76.9231 71.1538C70.8041 71.1538 65.8462 66.1959 65.8462 60.0769C65.8462 53.9579 70.8041 49 76.9231 49C83.0421 49 88 53.9579 88 60.0769C88 66.1959 83.0421 71.1538 76.9231 71.1538Z" fill="url(#paint9_linear_4_83)"/>
<path d="M83.1899 77.5938L66.9639 86.8678C65.976 87.4303 65.3666 88.4796 65.3666 89.6154C65.3666 90.7512 65.976 91.8005 66.9639 92.363L83.1899 101.637C84.1851 102.207 85.4074 102.2 86.399 101.626C87.3906 101.049 88 99.9928 88 98.8462V80.3846C88 79.238 87.3906 78.1815 86.399 77.6046C85.4074 77.0313 84.1851 77.024 83.1899 77.5938Z" fill="url(#paint10_linear_4_83)"/>
<defs>
<filter id="filter0_f_4_83" x="36" y="45" width="56" height="61.0603" filterUnits="userSpaceOnUse" color-interpolation-filters="sRGB">
<feFlood flood-opacity="0" result="BackgroundImageFix"/>
<feBlend mode="normal" in="SourceGraphic" in2="BackgroundImageFix" result="shape"/>
<feGaussianBlur stdDeviation="2" result="effect1_foregroundBlur_4_83"/>
</filter>
<linearGradient id="paint0_linear_4_83" x1="64" y1="0" x2="64" y2="128" gradientUnits="userSpaceOnUse">
<stop stop-color="white"/>
<stop offset="1" stop-color="#BBBDD7"/>
</linearGradient>
<linearGradient id="paint1_linear_4_83" x1="16" y1="33" x2="112" y2="33" gradientUnits="userSpaceOnUse">
<stop stop-color="#5865F2"/>
<stop offset="1" stop-color="#97EA92"/>
</linearGradient>
<linearGradient id="paint2_linear_4_83" x1="16" y1="36.5" x2="112" y2="36.5" gradientUnits="userSpaceOnUse">
<stop stop-color="#FF5F37"/>
<stop offset="1" stop-color="#C061CB"/>
</linearGradient>
<linearGradient id="paint3_linear_4_83" x1="64" y1="32" x2="64" y2="120" gradientUnits="userSpaceOnUse">
<stop stop-color="white"/>
<stop offset="1" stop-color="#BBBDD7"/>
</linearGradient>
<linearGradient id="paint4_linear_4_83" x1="64" y1="16" x2="64" y2="24" gradientUnits="userSpaceOnUse">
<stop stop-color="white"/>
<stop offset="1" stop-color="#BBBDD7"/>
</linearGradient>
<linearGradient id="paint5_linear_4_83" x1="40" y1="74.8462" x2="62.1538" y2="74.8462" gradientUnits="userSpaceOnUse">
<stop stop-color="#ED336C"/>
<stop offset="1" stop-color="#FFA348"/>
</linearGradient>
<linearGradient id="paint6_linear_4_83" x1="76.9231" y1="49" x2="76.9231" y2="71.1538" gradientUnits="userSpaceOnUse">
<stop stop-color="#404CE6"/>
<stop offset="1" stop-color="#C061CB"/>
</linearGradient>
<linearGradient id="paint7_linear_4_83" x1="70.3223" y1="89.6154" x2="94.6993" y2="89.6154" gradientUnits="userSpaceOnUse">
<stop stop-color="#33D1C6"/>
<stop offset="1" stop-color="#1C25D8"/>
</linearGradient>
<linearGradient id="paint8_linear_4_83" x1="40" y1="74.8462" x2="62.1538" y2="74.8462" gradientUnits="userSpaceOnUse">
<stop stop-color="#ED336C"/>
<stop offset="1" stop-color="#FFA348"/>
</linearGradient>
<linearGradient id="paint9_linear_4_83" x1="76.9231" y1="49" x2="76.9231" y2="71.1538" gradientUnits="userSpaceOnUse">
<stop stop-color="#404CE6"/>
<stop offset="1" stop-color="#C061CB"/>
</linearGradient>
<linearGradient id="paint10_linear_4_83" x1="70.3223" y1="89.6154" x2="94.6993" y2="89.6154" gradientUnits="userSpaceOnUse">
<stop stop-color="#33D1C6"/>
<stop offset="1" stop-color="#1C25D8"/>
</linearGradient>
</defs>
</svg>
