<svg width="2560" height="1440" viewBox="0 0 2560 1440" fill="none" xmlns="http://www.w3.org/2000/svg">
<rect width="2560" height="1440" fill="#F5F5F5"/>
<rect width="2560" height="1440" fill="#FAF4ED"/>
<path d="M2133 1282L2114 1295L2145.5 1282L2075 1199.5L2160.5 1124L2102.5 987L2368.5 752L2388 938L2172.5 1086.5L2201 1158.5L2123.5 1221L2179 1303L2117.5 1346.5L2205.5 1303L2139 1221L2223 1163L2193 1097L2470.5 917L2417.5 660.5L2079 990L2149.5 1129L2054 1203L2133 1282Z" fill="#EA9D34"/>
<path d="M1585 550.5C1508.2 636.9 1496.33 699.833 1500 720.5C1558.4 652.1 1592 640.667 1601.5 643.5C1595.9 575.1 1588.17 553 1585 550.5Z" fill="#2A273F"/>
<path d="M1421 987.5C1421 1015.5 1430.9 1077.3 1470.5 1100.5C1472.67 1072.17 1465.8 1009.9 1421 987.5Z" fill="#EB6F92"/>
<path d="M2042.5 713C2022.1 805 1992.67 847.667 1980.5 857.5C2121.7 806.3 2182 730.5 2194.5 699C2194.5 699 2066.17 709.167 2042.5 713Z" fill="#2A273F"/>
<ellipse cx="1759" cy="997" rx="48" ry="60" fill="#EB6F92"/>
</svg>
