<svg width="64" height="64" viewBox="0 0 64 64" fill="none" xmlns="http://www.w3.org/2000/svg">
<path d="M28.25 2H9C6.79086 2 5 3.79086 5 6V58C5 60.2091 6.79086 62 9 62H55C57.2091 62 59 60.2091 59 58V13.5C59 11.2909 57.2091 9.5 55 9.5H35.75C33.6789 9.5 32 7.82107 32 5.75C32 3.67893 30.3211 2 28.25 2Z" fill="url(#paint0_linear_4_9)"/>
<rect x="2" y="17" width="60" height="45" rx="4" fill="url(#paint1_linear_4_9)"/>
<g clip-path="url(#clip0_4_9)" filter="url(#filter0_i_4_9)">
<path d="M37.625 50.75C39.9596 50.75 41.8438 48.8658 41.8438 46.5312V38.0938C41.8438 36.7864 41.2615 35.5449 40.2562 34.7045L33.983 29.475C32.835 28.5192 31.165 28.5192 30.017 29.475L23.7438 34.7045C22.7385 35.5449 22.1562 36.7864 22.1562 38.0938V46.5312C22.1562 48.8658 24.0404 50.75 26.375 50.75H37.625ZM24.9688 46.5312V38.0938C24.9688 37.6213 25.1775 37.1709 25.5455 36.8688L31.8187 31.6393C31.9231 31.5514 32.0769 31.5514 32.1813 31.6393L38.4545 36.8688C38.8225 37.1709 39.0312 37.6213 39.0312 38.0938V46.5312C39.0312 47.3003 38.394 47.9375 37.625 47.9375H26.375C25.606 47.9375 24.9688 47.3003 24.9688 46.5312Z" fill="#204C86"/>
<path d="M30.5938 39.5H33.4062C34.1808 39.5 34.8125 40.1317 34.8125 40.9062V47.9375C34.8125 48.712 34.1808 49.3438 33.4062 49.3438H30.5938C29.8192 49.3438 29.1875 48.712 29.1875 47.9375V40.9062C29.1875 40.1317 29.8192 39.5 30.5938 39.5Z" fill="#204C86"/>
</g>
<defs>
<filter id="filter0_i_4_9" x="20.75" y="28.25" width="22.5" height="26.5" filterUnits="userSpaceOnUse" color-interpolation-filters="sRGB">
<feFlood flood-opacity="0" result="BackgroundImageFix"/>
<feBlend mode="normal" in="SourceGraphic" in2="BackgroundImageFix" result="shape"/>
<feColorMatrix in="SourceAlpha" type="matrix" values="0 0 0 0 0 0 0 0 0 0 0 0 0 0 0 0 0 0 127 0" result="hardAlpha"/>
<feOffset dy="4"/>
<feGaussianBlur stdDeviation="2"/>
<feComposite in2="hardAlpha" operator="arithmetic" k2="-1" k3="1"/>
<feColorMatrix type="matrix" values="0 0 0 0 0 0 0 0 0 0 0 0 0 0 0 0 0 0 0.25 0"/>
<feBlend mode="normal" in2="shape" result="effect1_innerShadow_4_9"/>
</filter>
<linearGradient id="paint0_linear_4_9" x1="32" y1="2" x2="32" y2="17" gradientUnits="userSpaceOnUse">
<stop stop-color="#558ACF"/>
<stop offset="1" stop-color="#2E67B2"/>
</linearGradient>
<linearGradient id="paint1_linear_4_9" x1="32" y1="17" x2="32" y2="62" gradientUnits="userSpaceOnUse">
<stop stop-color="#78B3FF"/>
<stop offset="1" stop-color="#406EAC"/>
</linearGradient>
<clipPath id="clip0_4_9">
<rect width="22.5" height="22.5" fill="white" transform="translate(20.75 28.25)"/>
</clipPath>
</defs>
</svg>
