<?xml version="1.0" encoding="UTF-8" standalone="no"?>
<svg
   width="32"
   version="1.1"
   height="32"
   viewBox="0 0 32 32"
   id="svg17"
   sodipodi:docname="folder_html.svg"
   inkscape:version="1.3.2 (091e20ef0f, 2023-11-25)"
   xmlns:inkscape="http://www.inkscape.org/namespaces/inkscape"
   xmlns:sodipodi="http://sodipodi.sourceforge.net/DTD/sodipodi-0.dtd"
   xmlns:xlink="http://www.w3.org/1999/xlink"
   xmlns="http://www.w3.org/2000/svg"
   xmlns:svg="http://www.w3.org/2000/svg"
   xmlns:rdf="http://www.w3.org/1999/02/22-rdf-syntax-ns#"
   xmlns:cc="http://creativecommons.org/ns#"
   xmlns:dc="http://purl.org/dc/elements/1.1/">
  <sodipodi:namedview
     pagecolor="#ffffff"
     bordercolor="#666666"
     borderopacity="1"
     objecttolerance="10"
     gridtolerance="10"
     guidetolerance="10"
     inkscape:pageopacity="0"
     inkscape:pageshadow="2"
     inkscape:window-width="1920"
     inkscape:window-height="996"
     id="namedview19"
     showgrid="true"
     inkscape:zoom="9.8125"
     inkscape:cx="0.30573248"
     inkscape:cy="7.7452229"
     inkscape:window-x="0"
     inkscape:window-y="0"
     inkscape:window-maximized="1"
     inkscape:current-layer="layer1"
     inkscape:document-rotation="0"
     inkscape:showpageshadow="2"
     inkscape:pagecheckerboard="0"
     inkscape:deskcolor="#d1d1d1">
    <inkscape:grid
       type="xygrid"
       id="grid838"
       originx="0"
       originy="0"
       spacingy="1"
       spacingx="1"
       units="px"
       visible="true" />
  </sodipodi:namedview>
  <defs
     id="defs5455">
    <linearGradient
       inkscape:collect="always"
       id="linearGradient843">
      <stop
         style="stop-color:#4b8bd4;stop-opacity:1"
         offset="0"
         id="stop839" />
      <stop
         style="stop-color:#3b6ca7;stop-opacity:1"
         offset="1"
         id="stop841" />
    </linearGradient>
    <linearGradient
       inkscape:collect="always"
       xlink:href="#linearGradient843"
       id="linearGradient890"
       x1="406.05936"
       y1="519.07739"
       x2="425.9559"
       y2="519.07739"
       gradientUnits="userSpaceOnUse"
       gradientTransform="matrix(0.50020055,0,0,0.5002006,192.12761,274.21247)" />
    <linearGradient
       inkscape:collect="always"
       xlink:href="#linearGradient843"
       id="linearGradient838"
       x1="6"
       y1="50.000134"
       x2="94.005508"
       y2="50.000134"
       gradientUnits="userSpaceOnUse"
       gradientTransform="matrix(0.9483706,0,0,0.99999804,128.52046,988.72209)" />
  </defs>
  <metadata
     id="metadata5458">
    <rdf:RDF>
      <cc:Work
         rdf:about="">
        <dc:format>image/svg+xml</dc:format>
        <dc:type
           rdf:resource="http://purl.org/dc/dcmitype/StillImage" />
      </cc:Work>
    </rdf:RDF>
  </metadata>
  <g
     inkscape:label="Capa 1"
     inkscape:groupmode="layer"
     id="layer1"
     transform="translate(-384.57143,-515.798)">
    <path
       d="m 405.37419,532.6354 z m -3.59865,6.02082 c -2.44442,0.59637 -5.03591,-0.73156 -5.9072,-3.17364 -0.31689,-0.88905 -0.38482,-1.80062 -0.18111,-2.72337 0.0119,-0.0225 0.0223,-0.0564 0.0342,-0.079 0,0.0226 0,0.0565 0.0116,0.079 0,0.0121 0.012,0.0338 0.0224,0.0449 0,-0.0223 0.0117,-0.0341 0.0117,-0.0563 0,-0.0674 0,-0.13507 0.0118,-0.21376 0.0675,0.0564 0.0223,0.13503 0.0449,0.19122 0.0342,0.0902 0.0342,0.18012 0.0342,0.2814 -0.0119,0.14634 0.12441,0.24761 0.22627,0.2588 0.19237,0.0223 0.30554,0.16878 0.4753,0.2251 0.0794,0.0223 0.12447,0.10129 0.13578,0.13505 0.0224,0.14623 0.13579,0.19126 0.22635,0.24751 0.0225,0.0121 0.0451,0.0338 0.0677,0 0.0794,-0.15752 0.0906,-0.0446 0.12443,0.0225 0.0795,0.16883 0.012,0.30387 -0.0795,0.4389 -0.0675,0.0902 -0.14701,0.18004 -0.0675,0.30381 0.012,0.0118 0,0.0447 -0.0114,0.0563 -0.0569,0.0904 -0.0228,0.15761 0.0339,0.23629 0.0794,0.11261 0.14711,0.22519 0.20372,0.34888 0.0794,0.15756 0.14709,0.30387 0.32815,0.38272 0.11314,0.0445 0.18104,0.14627 0.19237,0.28135 0.0342,0.38254 0.0908,0.76519 0.14707,1.13653 0.0339,0.22514 0.21508,0.38271 0.29429,0.58528 0.0342,0.0901 0.0908,0.1688 0.15844,0.24759 0.12443,0.14621 0.3055,0.15752 0.46397,0.23632 0.0118,0 0.0343,0 0.0449,0 -0.0119,-0.0119 -0.0342,-0.0224 -0.0449,-0.0339 -0.10187,-0.0903 -0.31684,-0.11256 -0.18105,-0.32642 0,-0.0115 -0.012,-0.0339 -0.012,-0.0339 -0.1584,-0.034 -0.0794,-0.14628 -0.0675,-0.22505 0,-0.0446 0.0451,-0.0791 -0.0225,-0.09 -0.012,0 -0.0224,-0.0225 -0.0224,-0.0341 0.1245,0.0341 0.0795,-0.14631 0.18107,-0.14631 0.14711,0 0.20369,-0.0562 0.12449,-0.20254 -0.0223,-0.0339 -0.0564,-0.079 0.0339,-0.0564 0.0906,0.0222 0.13579,-0.0118 0.15845,-0.0902 0.0226,-0.079 0.0567,-0.15747 0.12447,-0.22498 0.0564,-0.0671 0.0907,-0.14636 0.0676,-0.24764 -0.034,-0.16879 0.13578,-0.20256 0.2376,-0.21383 0.21507,-0.0224 0.22642,-0.16878 0.27164,-0.31507 0.0342,-0.11256 0.0342,-0.22513 0.0223,-0.34886 -0.012,-0.12382 0.0908,-0.20257 0.15844,-0.29263 0.0909,-0.11248 0.14718,-0.25884 0.0564,-0.36012 -0.0907,-0.10127 -0.2037,-0.21383 -0.36211,-0.22503 -0.22632,-0.012 -0.39607,-0.15759 -0.58847,-0.23635 -0.0676,-0.0223 -0.0676,-0.13506 -0.0906,-0.20259 -0.0565,-0.15761 -0.1584,-0.22514 -0.31688,-0.24757 -0.19234,-0.0224 -0.27158,-0.1688 -0.35084,-0.30382 -0.0564,-0.10127 -0.13578,-0.0561 -0.181,-0.0449 -0.11319,0.0341 -0.20372,0 -0.28292,-0.0445 -0.19237,-0.1013 -0.35084,-0.0671 -0.48662,0.13504 -0.0224,0.0339 -0.0565,0.0904 -0.11314,0.0339 -0.0342,-0.0339 -0.0794,-0.0339 -0.13581,-0.0111 -0.10186,0.0446 -0.19242,-0.0338 -0.18107,-0.14633 0,-0.0446 0.0117,-0.09 0.0224,-0.13506 0.0339,-0.19123 0.0223,-0.21382 -0.16976,-0.19123 -0.0794,0.0112 -0.0907,-0.012 -0.0567,-0.0791 0.0341,-0.0671 0.0675,-0.13503 0.0794,-0.21387 0.0118,-0.0449 0.0794,-0.10126 0,-0.13501 -0.0564,-0.0224 -0.15845,0 -0.16977,0.079 -0.0225,0.13502 -0.10184,0.16877 -0.21495,0.14631 -0.12453,-0.034 -0.11323,-0.15762 -0.0906,-0.24757 0.0223,-0.18009 0.034,-0.38269 0.22632,-0.49526 0.0448,-0.0341 0.0908,-0.0446 0.14709,-0.0341 0.0568,0.012 0.10186,0.012 0.15846,-0.0447 0.0794,-0.079 0.16975,-0.0222 0.26025,0 0.0676,0.0224 0.0341,0.0902 0.0449,0.13507 0.0118,0.0671 0.0118,0.16882 0.0794,0.15753 0.0794,0 0.0907,-0.10132 0.0676,-0.18011 -0.0449,-0.16883 0.0115,-0.31507 0.16976,-0.39388 0.16974,-0.0899 0.24892,-0.23633 0.35077,-0.38263 0.0677,-0.11248 0.19243,-0.16881 0.30553,-0.24754 0.11317,-0.0673 0.20373,-0.19135 0.35081,-0.24754 0.0223,-0.0121 0.045,-0.0121 0.0566,-0.0226 -0.012,0.0226 -0.012,0.034 -0.0224,0.0564 -0.0117,0.0224 -0.0225,0.0339 0,0.0446 0.012,0 0.0341,0 0.0451,-0.012 0.0342,-0.0447 0.0907,-0.0564 0.14709,-0.0671 0.034,-0.0118 0.0908,-0.0342 0.10185,-0.0563 0,-0.0445 -0.0569,-0.0223 -0.0794,-0.0445 -0.0451,-0.0341 -0.0451,-0.0671 -0.0225,-0.1013 0.0225,-0.0561 0.10182,-0.11256 -0.0342,-0.11256 0,0 -0.0119,-0.0116 -0.0119,-0.0223 0.0119,0 0.0225,-0.0121 0.0342,-0.0121 0.15843,-0.0338 0.32816,0.0223 0.47532,-0.09 0.0119,0 0.0225,0.0118 0.0339,0.0118 -0.012,0.0119 -0.012,0.0223 -0.0226,0.034 -0.0342,0.079 -0.18104,0.11253 -0.13583,0.20261 0.0224,0.0447 0.15848,-0.0341 0.249,0.0341 0.0342,0.0226 0.0905,0 0.0675,-0.0341 -0.034,-0.0564 0.0795,-0.14628 -0.0224,-0.14628 -0.10185,-0.0121 -0.0676,-0.0449 -0.045,-0.0903 0.0675,-0.11249 0.0906,-0.20258 -0.0567,-0.25886 -0.0795,-0.0339 -0.0342,-0.11254 -0.0564,-0.16878 -0.0225,-0.0903 -0.0342,-0.15749 -0.14709,-0.0671 -0.0451,0.034 -0.1698,0.14631 -0.13583,-0.0561 0.0115,-0.0445 -0.0676,-0.0903 -0.10187,-0.0903 -0.0906,0 -0.20366,-0.0561 -0.2489,0.0564 -0.0448,0.0901 -0.15848,0.1462 -0.15848,0.27006 0,0.0341 -0.0564,0.0671 -0.10182,0.0901 -0.0907,0.0339 -0.15843,0.079 -0.16972,0.1801 -0.0118,0.0561 -0.0566,0.10128 -0.11317,0.079 -0.0676,-0.0338 -0.0119,-0.0901 0.0118,-0.12373 0.0449,-0.0564 0.0449,-0.10129 -0.0449,-0.0901 -0.0906,0.0118 -0.14716,-0.0791 -0.24902,-0.0903 -0.0341,0 -0.0341,-0.09 0.012,-0.12379 0.14709,-0.14632 0.33946,-0.19124 0.5092,-0.30383 0.0451,-0.0341 0.0567,0.10127 0.0908,0.0338 0.034,-0.0671 0.24903,0.0447 0.14715,-0.14635 0.0564,-0.0222 0.10188,-0.0341 0.15839,-0.0564 0.0795,-0.0342 0.10186,-0.13502 0.20373,-0.1575 0.0906,-0.012 0.19244,-0.0224 0.20367,0.0565 0.012,0.079 -0.10183,0.10126 -0.16972,0.13502 -0.0343,0.0118 -0.0675,0 -0.10186,0.0118 -0.0224,0.0119 -0.0567,0.0338 -0.0567,0.0445 0,0.0341 0.0448,0.0223 0.0675,0.0223 0.0676,-0.0121 0.12451,-0.0121 0.16974,0.0564 0.0339,0.0448 0.15845,0.0671 0.15845,0.0448 0.0118,-0.1013 0.27163,-0.0224 0.13581,-0.20258 0,-0.0121 0,-0.0341 0,-0.0341 0.0223,-0.0222 0.0449,-0.0121 0.0677,0.0113 0.0794,0.0906 0.14708,0.0121 0.18102,-0.0341 0.0451,-0.0671 -0.0794,-0.0671 -0.0794,-0.09 0,-0.14636 -0.13584,-0.12379 -0.20372,-0.16884 -0.0677,-0.0447 -0.12451,-0.0447 -0.19243,-0.0338 0.0224,0.0117 0.0224,0.0446 0,0.0338 -0.0907,-0.0561 -0.15842,-0.0119 -0.23766,0 -0.0794,0.0224 -0.1471,0.0224 -0.21498,-0.0223 -0.045,-0.0341 -0.0908,-0.0223 -0.13579,0 -0.0118,0 -0.0223,0.0118 -0.0223,0.0223 0,0 0.0118,0.0119 0.0223,0.0119 0.0342,0 0.0677,-0.0564 0.10184,-0.0119 -0.0451,0.0339 -0.091,0.0564 -0.14711,0.0671 v 0 c 0,0 0,0 0,0 -0.1358,-0.0224 -0.18106,0.0223 -0.16973,0.13505 0,0.0223 -0.012,0.0447 -0.0223,0.0671 -0.0567,-0.0446 -0.16975,0.0338 -0.16975,-0.0115 0,-0.0672 -0.034,-0.16881 0.0564,-0.22511 1.08637,-0.64143 2.24066,-0.87777 3.48551,-0.66396 0.82607,0.1463 1.56165,0.47268 2.22933,0.97909 0.0343,0.0224 0.0567,0.0564 0.0794,0.0789 -0.0449,0.0223 -0.0675,-0.0225 -0.10182,-0.0338 -0.10186,-0.0446 -0.19238,-0.12384 -0.30556,-0.14632 -0.14714,-0.0223 -0.29418,-0.0447 -0.40738,0.079 -0.0795,0.0789 -0.16978,0.13506 -0.28297,0.15755 -0.0909,0.0225 -0.11312,0.0671 -0.0676,0.15755 0.0343,0.0905 0.0794,0.14631 0.16971,0.10129 0.0794,-0.0447 0.11316,-0.0118 0.15847,0.0448 0.0569,0.0671 0.0343,0.0903 -0.0119,0.13502 -0.012,0.0118 0.0119,0.0561 -0.0341,0.0448 -0.0564,0.0117 -0.045,-0.012 -0.045,-0.0448 0,-0.0341 0.045,-0.09 -0.0224,-0.09 -0.0567,0 -0.10184,0.0565 -0.0795,0.11251 0.0449,0.0902 -0.0118,0.11249 -0.0794,0.11249 -0.11318,0.0119 -0.1584,0.14634 -0.26024,0.1576 -0.0565,0.12377 -0.19241,0.0564 -0.28297,0.11252 -0.0224,0.012 -0.0675,0 -0.0794,0.034 0,0.012 0.0341,0.034 0.0567,0.0448 0.045,0.0223 0.0794,0.0561 0.11318,0.0901 0.0447,0.0564 0.034,0.11254 0.0115,0.16879 -0.0224,0.0671 -0.0794,0.0339 -0.12447,0.0339 -0.012,0 -0.0223,0 -0.0223,0 -0.29426,-0.0339 -0.38477,0.0564 -0.33952,0.3489 0.0118,0.0564 0.0118,0.13505 0.11317,0.12379 0.0794,0 0.11319,0.0564 0.0567,0.1238 -0.11317,0.13505 -0.23767,0.27009 -0.29423,0.45014 -0.034,0.0791 -0.15845,0.0791 -0.21506,0.18003 -0.0794,0.18007 -0.28287,0.30385 -0.20368,0.55147 0.034,0.10128 0,0.20257 -0.0342,0.31512 -0.0342,0.10128 -0.0342,0.22505 0.0675,0.3151 0.16975,0.13504 0.22636,0.36009 0.41876,0.47262 0.0795,0.0446 0.13579,0.0564 0.22632,0.0446 0.21498,-0.0224 0.41866,-0.0904 0.62237,-0.10127 0.1245,-0.012 0.2603,0.12376 0.39612,0.18001 0.0794,0.0341 0,0.18005 -0.0119,0.27013 -0.0114,0.079 -0.0114,0.13503 0.0449,0.19132 0.16972,0.18 0.1923,0.40511 0.23762,0.63016 0.0224,0.10128 -0.0908,0.16881 -0.11323,0.27008 -0.0339,0.13505 -0.0567,0.25889 0.0223,0.38263 0.0794,0.12385 0.11312,0.25888 0.0906,0.4052 -0.012,0.14625 0.11314,0.22503 0.1358,0.34885 0.0447,0.24757 0.0564,0.23633 0.31688,0.19127 0.29414,-0.0564 0.42996,-0.29256 0.55447,-0.5289 0.0341,-0.0564 0.0341,-0.11253 0.10185,-0.13502 0.0675,-0.0341 0.10183,-0.12379 0.0794,-0.19131 -0.0342,-0.14632 0.0451,-0.24759 0.14717,-0.31512 0.21499,-0.13503 0.23765,-0.33763 0.18105,-0.52894 -0.10184,-0.37135 0.0794,-0.63019 0.29426,-0.87781 0.16973,-0.19128 0.22625,-0.40512 0.26021,-0.63022 0.012,-0.0565 0,-0.10129 -0.0794,-0.0565 -0.0339,0.0224 -0.0678,0.0338 -0.1132,0.0446 -0.0567,0.012 -0.12448,0.0338 -0.15842,-0.0446 -0.0449,-0.10129 0.0564,-0.079 0.0909,-0.0901 0.20369,-0.11257 0.41873,-0.22507 0.45268,-0.49516 0.0115,-0.0791 0,-0.15755 -0.0567,-0.22507 -0.0341,-0.0446 -0.0564,-0.10129 -0.0341,-0.15754 0.24894,0.27008 0.21498,0.63018 0.22637,0.94531 0.12441,2.39704 -1.4938,4.47895 -3.79104,5.04167 z m -4.35692,-5.70563 c -0.12442,-0.0789 -0.22629,-0.20259 -0.39606,-0.20259 -0.0451,0.0118 -0.10182,0.0225 -0.14711,0.0672 -0.0116,0.0112 -0.0223,0.0564 0.012,0.0448 0.181,-0.0671 0.28284,0.0121 0.39599,0.13501 0.0227,0.0223 0.0905,0.0445 0.14721,0.0121 0,-0.0223 -0.0121,-0.0563 -0.0121,-0.0563 z m 0.33951,0.12379 c -0.0452,-0.0671 -0.11311,-0.0791 -0.19232,-0.0901 -0.10182,-0.0225 -0.0567,0.1238 -0.13576,0.11245 0.034,0.0121 0.0675,0.034 0.11311,0.0447 0.0676,-0.0338 0.14708,-0.0447 0.21497,-0.0671 z m 3.91554,-3.25234 c 0,-0.0447 -0.0451,-0.0567 -0.0795,-0.0567 -0.0905,0 -0.18099,0 -0.27157,0 -0.0342,0 -0.0794,-0.0341 -0.10185,0.0121 0.0449,0.0223 0.012,0.10132 0.0794,0.12373 0.034,0.012 0.0794,0.012 0.1245,0.0222 0.0567,-0.0121 0.12447,-0.0338 0.18106,-0.0445 0.0342,-0.0223 0.0675,-0.0223 0.0675,-0.0565 z m 0.36207,0.60765 c 0.0675,0.0341 0.18117,0.0449 0.0567,0.15748 -0.0343,0.0342 0,0.11261 -0.0447,0.15754 0.0567,0.0339 0.10183,-0.012 0.14711,-0.012 0.0677,0 0.14709,-0.0119 0.21498,-0.0223 0,-0.10129 -0.0568,-0.18003 -0.13579,-0.25887 -0.0227,-0.0224 -0.0567,-0.0564 -0.0567,-0.0901 0.012,-0.11256 -0.0567,-0.16882 -0.14718,-0.14632 -0.0906,0.0341 -0.0794,0.12378 -0.0339,0.21384 z m -0.10181,-0.0223 c -0.0567,0.0121 -0.14704,0.0342 -0.14704,0.10129 0,0.0447 -0.0679,0.11257 0,0.13505 0.045,0.0121 0.13582,-0.0118 0.16976,-0.0449 0.045,-0.0446 0.0564,-0.11261 0.0794,-0.16885 -0.0339,-0.0121 -0.0675,-0.0224 -0.10181,-0.0224 z m -0.73551,-0.78782 c 0.045,0 0.0908,-0.0341 0.13577,-0.0564 0.0227,-0.0118 0.045,-0.0223 0.0343,-0.0446 -0.12454,-0.13503 0.0449,-0.0562 0.0675,-0.0906 0.0223,-0.0222 0.0908,-0.0341 0.10184,-0.0565 0.0339,-0.14639 0.14712,-0.16881 0.28293,-0.16881 -0.012,0 0.0115,-0.0121 0.0224,-0.0121 -0.0118,-0.0118 -0.0224,-0.0225 -0.0449,-0.0225 -0.12446,-0.0222 -0.249,-0.0448 -0.37346,-0.0671 -0.5318,-0.0671 -1.06376,0.0449 -1.60697,0.0117 -0.30555,-0.0224 -0.58845,0.1126 -0.894,0.14635 -0.0449,0 -0.0905,0.0338 -0.13579,0.0445 -0.0118,0 -0.0449,0.0343 -0.0118,0.0343 0.10185,0.0226 0,0.0448 0,0.0448 -0.034,0.0447 -0.0908,0.0222 -0.13581,0.034 -0.0225,0.0117 -0.0564,0.0341 -0.0564,0.0446 0.012,0.0339 0.0448,0.0121 0.0675,0.0121 0.0794,0 0.15852,0 0.23764,-0.0121 v 0 c 0.16973,-0.12372 0.3622,-0.16877 0.55456,-0.23629 0.0225,-0.0118 0.0447,0 0.0675,-0.0118 0,0.20253 0.14714,0.0671 0.21503,0.09 0.0906,0.0223 0.2263,-0.0341 0.19235,0.14627 0,0.0118 0.012,0.0222 0.0224,0.0341 0.0675,0.0564 0.0448,0.1125 -0.0224,0.13507 -0.13578,0.0341 -0.11307,0.14626 -0.12445,0.24755 0,0.15759 0.1358,0.16886 0.23764,0.21383 0.0906,0.0338 0.12444,-0.0447 0.16975,-0.09 0.0907,-0.079 0.14716,-0.19133 0.27161,-0.20258 0.24899,-0.0338 0.47528,-0.15758 0.72426,-0.16879 z m 3.93817,5.75074 c -0.012,-0.0341 -0.0224,-0.0565 -0.0224,-0.0901 -0.0224,0.0223 -0.0449,0.0444 -0.0566,0.0671 -0.0224,0.0341 -0.0339,0.10127 -0.0795,0.12379 -0.21506,0.14627 -0.1584,0.38263 -0.23768,0.58522 -0.0119,0.0342 -0.0119,0.079 0.0339,0.0905 0.0339,0.0113 0.0675,-0.012 0.0907,-0.0445 0.11322,-0.23629 0.21505,-0.47266 0.27163,-0.73155 z m -0.80361,-3.22982 c -0.0339,0.0789 -0.11313,0 -0.15835,0.0121 -0.19241,0.0447 -0.33949,-0.0449 -0.49796,-0.12384 -0.0567,-0.0223 -0.12442,-0.0116 -0.13582,0.0342 -0.0794,0.25886 -0.18095,-0.0223 -0.26025,0.0118 -0.0121,0 -0.0341,-0.0563 -0.0451,-0.0563 -0.18107,-0.0224 -0.30552,-0.0791 -0.24899,-0.30389 0.0121,-0.0338 -0.0564,-0.0562 -0.0906,-0.0447 -0.22633,0.0342 -0.47533,-0.0445 -0.679,0.11254 -0.0224,0.0224 -0.0675,0 -0.10182,0 -0.0342,0 -0.10181,0.0118 -0.10181,-0.0339 0,-0.0564 0.0567,-0.0446 0.10181,-0.0564 0.1132,-0.0117 0.16972,-0.079 0.21507,-0.18007 0.0567,-0.14627 0.20366,-0.21379 0.30548,-0.28132 0.22631,-0.16881 0.30554,0.0341 0.43002,0.12376 0.0451,0.0341 0.0907,0.0671 0.14718,0.0902 0.0342,0.0222 0.0675,0.0565 0.0564,0.0901 -0.0115,0.0564 -0.0564,0.0447 -0.10186,0.0447 -0.0224,0.012 -0.0675,-0.0224 -0.0794,0.0222 0,0.0118 0.0227,0.0339 0.045,0.0449 0.0342,0.0118 0.0795,0.0672 0.10182,0.0223 0.0226,-0.0563 0.0676,-0.0904 0.10186,-0.14633 0.11325,-0.16882 -0.0794,-0.14628 -0.12442,-0.21379 -0.0117,-0.0226 -0.0566,-0.0226 -0.0566,-0.0449 -0.0225,-0.0564 -0.13581,-0.1013 -0.0794,-0.15757 0.0564,-0.0564 0.10188,0.0564 0.15837,0.079 0.2151,0.079 0.23766,0.30386 0.3509,0.4502 0.0223,0.0342 0.0341,0.10128 0.0908,0.079 0.045,-0.0223 0.0677,-0.079 0.045,-0.13503 -0.0118,-0.0564 -0.0568,-0.11256 0.0223,-0.13504 0.0908,-0.0223 0.10183,0.0564 0.11312,0.11255 0.0224,0.14632 0.11316,0.20259 0.2603,0.20259 0.0794,0 0.14708,0.0671 0.23765,0.0341 0.0119,0 0.034,0.0113 0.034,0.0342 0.0118,0.13508 -0.0226,0.22507 -0.0567,0.31509 z m -1.43716,-0.66396 c -0.0223,-0.0561 0.012,-0.12384 -0.0446,-0.18012 -0.0113,0.0565 -0.0341,0.11261 -0.0451,0.16877 0.0339,0.0224 -0.0119,0.0903 0.0567,0.0903 0.0342,-0.012 0.0448,-0.0561 0.0342,-0.0789 z m 1.33535,-0.21388 c -0.0447,0.012 -0.0794,0.012 -0.11319,-0.0339 -0.034,-0.0446 -0.0675,-0.12369 -0.12441,-0.0671 -0.0675,0.0561 -0.10184,0.14635 -0.0794,0.23632 0.0223,0.0671 0.091,0.10129 0.14712,0.079 0.13576,-0.0566 0.249,-0.0223 0.3621,0.0448 0.0342,0.0223 0.0909,0.0563 0.11317,0 0.0224,-0.0564 -0.0223,-0.0789 -0.0565,-0.10125 -0.0564,-0.0448 -0.12458,-0.0901 -0.16976,-0.14628 -0.0223,-0.0341 0.0226,-0.10126 -0.0675,-0.0906 -0.012,0 -0.0224,0 -0.0224,0.012 -0.0224,0.0446 0.0342,0.034 0.0451,0.0564 0,0.0121 -0.0121,0.0121 -0.034,0.0121 z m 0.35089,1.46301 c -0.0342,-0.10129 -0.10187,-0.18011 -0.15852,-0.27009 -0.0114,-0.0223 -0.0339,-0.0445 -0.0675,-0.0338 -0.045,0.0118 -0.0223,0.0447 -0.0116,0.0671 0.13576,0.27011 0.24889,0.55148 0.36207,0.82161 0.0223,0.0562 0.0907,0.10132 0.14713,0.15749 0.0113,0.0121 0.0227,0.0121 0.0342,0.0223 0,-0.012 0.0118,-0.0341 0,-0.012 0,-0.32634 -0.215,-0.50649 -0.30554,-0.75399 z m -1.24486,-2.53203 c -0.0447,-0.0791 -0.0116,-0.1126 0.0564,-0.14636 0.0113,-0.0121 0.0341,-0.0339 0.0113,-0.0339 -0.0223,-0.0121 -0.0675,-0.0121 -0.0675,0 -0.0339,0.079 -0.29416,0.0671 -0.0908,0.2363 0,0 0,0.034 0,0.034 -0.0794,0.0561 -0.057,0.22505 -0.215,0.20257 -0.0118,0 -0.0449,0 -0.0225,0.0223 0.0905,0.1125 0.21498,0 0.32814,0.0339 0.0342,0.0121 0.0567,-0.0339 0.0675,-0.079 0.0121,-0.12384 0.0449,-0.22516 0.20371,-0.14636 0.0121,0.0118 0.0449,0.0118 0.0449,-0.0118 0,0 -0.0223,-0.0224 -0.0449,-0.0224 -0.0223,0 -0.0564,0 -0.0794,0 -0.0794,-0.0114 -0.14711,-0.0114 -0.19242,-0.0899 z m 2.03699,2.44206 c -0.11311,-0.0564 -0.21499,-0.1239 -0.24894,-0.24762 -0.012,-0.0224 -0.0339,-0.0671 -0.0675,-0.0445 -0.0342,0.0223 -0.0223,0.0561 0,0.0903 0.0447,0.0673 0.10183,0.11255 0.12444,0.18007 0.0565,0.21382 0.11317,0.14631 0.19243,0.0223 0,0 0,0 0,0 z m -7.10687,-3.0386 c -0.0794,0.0447 0.0447,0.0564 0.0121,0.11261 -0.0342,0.0561 0.0567,0.0901 0.0794,0.079 0.10185,-0.0118 0.10185,-0.10131 0.0794,-0.17995 -0.0115,-0.0448 -0.0564,-0.0121 -0.0906,0 -0.0339,0.0224 -0.0566,0.0224 -0.0794,-0.0121 -0.0114,0 0,0 0,0 z m -0.80333,1.44057 c 0.0115,-0.0445 -0.0342,-0.0565 -0.0675,-0.0565 -0.0675,0.0121 -0.13577,0.0445 -0.16971,0.0905 -0.0121,0.0225 0.0675,-0.0121 0.0907,0.0225 0.0452,-0.034 0.13581,0.0341 0.14715,-0.0564 z m -0.012,0.17994 c -0.0223,0.0224 0.012,0.0564 0.0223,0.0445 0.0447,-0.0341 0.10187,-0.0671 0.13582,-0.11245 0.0118,-0.0116 -0.0569,-0.0342 -0.10185,-0.0342 -0.0907,-0.0224 -0.0224,0.0674 -0.0568,0.10129 z m 6.93708,3.22988 c -0.0567,0 -0.0794,0.034 -0.091,0.079 0,0.0341 -0.0115,0.079 0.0452,0.079 0.0567,0 0.0567,-0.0672 0.0794,-0.10127 0.0225,-0.0448 -0.0119,-0.0448 -0.034,-0.0562 z m -7.0502,-3.27479 c -0.0567,0.0113 -0.0908,0.0564 -0.11322,0.10128 -0.0224,0.0341 -0.0447,0.09 -0.0564,0.12368 0.0115,0 0.0224,0.0121 0.0341,0 0.0676,-0.0561 0.0676,-0.15743 0.15839,-0.21382 -0.0223,0 -0.0223,-0.0115 -0.0223,-0.0115 z"
       id="path2-3"
       style="fill:url(#linearGradient890);fill-opacity:1;stroke-width:0.112612" />
    <g
       transform="matrix(0.37142657,0,0,0.37142657,335.22203,145.98919)"
       id="g4">
      <path
         style="color:#000000;font-style:normal;font-variant:normal;font-weight:normal;font-stretch:normal;font-size:medium;line-height:normal;font-family:Sans;-inkscape-font-specification:Sans;text-indent:0;text-align:start;text-decoration:none;text-decoration-line:none;letter-spacing:normal;word-spacing:normal;text-transform:none;writing-mode:lr-tb;direction:ltr;baseline-shift:baseline;text-anchor:start;display:inline;overflow:visible;visibility:visible;opacity:1;fill:url(#linearGradient838);fill-opacity:1;fill-rule:nonzero;stroke:none;stroke-width:3.89541;marker:none;enable-background:accumulate"
         d="m 141.38268,1003.722 c -3.86745,0 -7.17203,2.8599 -7.17203,6.6563 v 56.0166 c 0,2.365 0.81102,3.884 2.38562,5.2629 1.57461,1.3787 3.20879,2.0637 5.29402,2.0637 h 66.29287 c 1.59157,0.029 1.54631,-2.2247 3.9e-4,-2.2482 l -66.38498,-0.04 c -2.05166,0 -3.7564,-1.4926 -3.7564,-1.4926 0,0 -1.5709,-1.2167 -1.5709,-3.5458 v -56.0166 c 0,-2.6157 1.72505,-4.2948 4.73839,-4.2608 l 23.33509,-0.012 11.12746,10.2308 c 0.33628,0.3135 0.76676,0.7596 1.21509,0.7689 l 32.356,-0.012 c 1.64981,-0.01 1.59766,-2.3448 -0.0519,-2.3719 h -31.62225 l -11.79535,-10.5315 c -0.34044,-0.3012 -0.77051,-0.4671 -1.21508,-0.4684 z m 37.63849,2.9062 c -1.50556,0 -1.50857,2.6712 0.0378,2.694 l 28.85799,-0.041 c 2.92415,0 4.19096,0.9734 5.1646,1.9099 0.97364,0.9369 2.45318,3.2301 2.45318,5.5932 v 54.9376 c 0.009,1.8593 2.13156,1.9205 2.1379,0.064 l -0.006,-55.0019 c -3e-4,-3.2101 -1.01803,-5.8978 -2.84511,-7.6559 -1.82707,-1.7579 -4.31458,-2.5002 -6.90534,-2.5002 h -28.71782 c -0.0592,0 -0.11859,0 -0.17785,0 z"
         id="path2-3-3"
         sodipodi:nodetypes="sssssccscsssccccccccsccsssccssscc" />
    </g>
  </g>
</svg>
